<?xml version="1.0" encoding="utf-8"?>
<svg version="1.1" xmlns="http://www.w3.org/2000/svg" x="0px" y="0px" width="600px" height="600px" viewBox="0 0 600 600">
<g>
<rect x="400" y="300" width="100" height="100" style="fill:none;stroke-width:1;stroke:black" />
<rect x="396.592590" y="350" width="100" height="100" style="fill:none;stroke-width:1;stroke:black" />
<rect x="386.602539" y="386.602539" width="100" height="100" style="fill:none;stroke-width:1;stroke:black" />
<rect x="370.710663" y="400" width="100" height="100" style="fill:none;stroke-width:1;stroke:black" />
<rect x="350" y="386.602539" width="100" height="100" style="fill:none;stroke-width:1;stroke:black" />
<rect x="325.881897" y="350" width="100" height="100" style="fill:none;stroke-width:1;stroke:black" />
<rect x="300" y="300" width="100" height="100" style="fill:none;stroke-width:1;stroke:black" />
<rect x="274.118103" y="250" width="100" height="100" style="fill:none;stroke-width:1;stroke:black" />
<rect x="250" y="213.397461" width="100" height="100" style="fill:none;stroke-width:1;stroke:black" />
<rect x="229.289322" y="200" width="100" height="100" style="fill:none;stroke-width:1;stroke:black" />
<rect x="213.397461" y="213.397461" width="100" height="100" style="fill:none;stroke-width:1;stroke:black" />
<rect x="203.407410" y="250" width="100" height="100" style="fill:none;stroke-width:1;stroke:black" />
<rect x="200" y="300" width="100" height="100" style="fill:none;stroke-width:1;stroke:black" />
<rect x="203.407425" y="350" width="100" height="100" style="fill:none;stroke-width:1;stroke:black" />
<rect x="213.397461" y="386.602539" width="100" height="100" style="fill:none;stroke-width:1;stroke:black" />
<rect x="229.289322" y="400" width="100" height="100" style="fill:none;stroke-width:1;stroke:black" />
<rect x="250" y="386.602539" width="100" height="100" style="fill:none;stroke-width:1;stroke:black" />
<rect x="274.118103" y="350" width="100" height="100" style="fill:none;stroke-width:1;stroke:black" />
<rect x="300" y="300" width="100" height="100" style="fill:none;stroke-width:1;stroke:black" />
<rect x="325.881897" y="249.999985" width="100" height="100" style="fill:none;stroke-width:1;stroke:black" />
<rect x="350" y="213.397446" width="100" height="100" style="fill:none;stroke-width:1;stroke:black" />
<rect x="370.710693" y="200" width="100" height="100" style="fill:none;stroke-width:1;stroke:black" />
<rect x="386.602539" y="213.397461" width="100" height="100" style="fill:none;stroke-width:1;stroke:black" />
<rect x="396.592590" y="250.000015" width="100" height="100" style="fill:none;stroke-width:1;stroke:black" />
<rect x="400" y="300.000031" width="100" height="100" style="fill:none;stroke-width:1;stroke:black" />
</g>
</svg>