<?xml version="1.0" encoding="utf-8"?>
<!-- Generator: Adobe Illustrator 16.0.0, SVG Export Plug-In . SVG Version: 6.00 Build 0)  -->
<!DOCTYPE svg PUBLIC "-//W3C//DTD SVG 1.1//EN" "http://www.w3.org/Graphics/SVG/1.1/DTD/svg11.dtd">
<svg version="1.1" id="Layer_1" xmlns="http://www.w3.org/2000/svg" xmlns:xlink="http://www.w3.org/1999/xlink" x="0px" y="0px"
	 width="100px" height="100px" viewBox="0 0 100 100" enable-background="new 0 0 100 100" xml:space="preserve">
<line fill="none" stroke="#000000" stroke-miterlimit="10" x1="35.355" y1="64.645" x2="0" y2="100"/>
<line fill="none" stroke="#000000" stroke-miterlimit="10" x1="50" y1="50" x2="35.355" y2="64.645"/>
<line fill="none" stroke="#000000" stroke-miterlimit="10" x1="64.645" y1="35.356" x2="50" y2="50"/>
<line fill="none" stroke="#000000" stroke-miterlimit="10" x1="100" y1="0" x2="64.645" y2="35.356"/>
<line fill="none" stroke="#000000" stroke-miterlimit="10" x1="0" y1="100" x2="50" y2="79.289"/>
<line fill="none" stroke="#000000" stroke-miterlimit="10" x1="0" y1="100" x2="20.71" y2="50"/>
<line fill="none" stroke="#000000" stroke-miterlimit="10" x1="100" y1="0" x2="50" y2="20.711"/>
<line fill="none" stroke="#000000" stroke-miterlimit="10" x1="100" y1="0" x2="79.289" y2="50"/>
<line fill="none" stroke="#000000" stroke-miterlimit="10" x1="64.643" y1="64.643" x2="100" y2="100"/>
<line fill="none" stroke="#000000" stroke-miterlimit="10" x1="50" y1="50" x2="64.643" y2="64.643"/>
<line fill="none" stroke="#000000" stroke-miterlimit="10" x1="35.353" y1="35.353" x2="50" y2="50"/>
<line fill="none" stroke="#000000" stroke-miterlimit="10" x1="0" y1="0" x2="35.353" y2="35.353"/>
<line fill="none" stroke="#000000" stroke-miterlimit="10" x1="100" y1="100" x2="79.291" y2="50"/>
<line fill="none" stroke="#000000" stroke-miterlimit="10" x1="100" y1="100" x2="50" y2="79.291"/>
<line fill="none" stroke="#000000" stroke-miterlimit="10" x1="0" y1="0" x2="20.709" y2="49.997"/>
<line fill="none" stroke="#000000" stroke-miterlimit="10" x1="0" y1="0" x2="50" y2="20.71"/>
<line fill="none" stroke="#000000" stroke-miterlimit="10" x1="35.355" y1="35.354" x2="20.71" y2="50"/>
<line fill="none" stroke="#000000" stroke-miterlimit="10" x1="50" y1="20.711" x2="35.355" y2="35.354"/>
<line fill="none" stroke="#000000" stroke-miterlimit="10" x1="35.355" y1="64.645" x2="50" y2="79.29"/>
<line fill="none" stroke="#000000" stroke-miterlimit="10" x1="20.71" y1="50" x2="35.355" y2="64.645"/>
<line fill="none" stroke="#000000" stroke-miterlimit="10" x1="64.645" y1="64.645" x2="79.289" y2="50"/>
<line fill="none" stroke="#000000" stroke-miterlimit="10" x1="50" y1="79.29" x2="64.645" y2="64.645"/>
<line fill="none" stroke="#000000" stroke-miterlimit="10" x1="64.645" y1="35.356" x2="50" y2="20.711"/>
<line fill="none" stroke="#000000" stroke-miterlimit="10" x1="79.289" y1="50" x2="64.645" y2="35.356"/>
<line fill="none" stroke="#000000" stroke-miterlimit="10" x1="50" y1="50" x2="50" y2="79.289"/>
<line fill="none" stroke="#000000" stroke-miterlimit="10" x1="50" y1="20.711" x2="50" y2="50"/>
<line fill="none" stroke="#000000" stroke-miterlimit="10" x1="50" y1="50" x2="79.289" y2="50"/>
<line fill="none" stroke="#000000" stroke-miterlimit="10" x1="20.71" y1="50" x2="50" y2="50"/>
<line fill="none" stroke="#000000" stroke-miterlimit="10" x1="50" y1="20.711" x2="50" y2="0"/>
<line fill="none" stroke="#000000" stroke-miterlimit="10" x1="79.289" y1="50" x2="100" y2="50"/>
<line fill="none" stroke="#000000" stroke-miterlimit="10" x1="50" y1="79.289" x2="50" y2="100"/>
<line fill="none" stroke="#000000" stroke-miterlimit="10" x1="20.71" y1="50" x2="0" y2="50"/>
</svg>
