<?xml version="1.0" encoding="utf-8"?>
<!-- Generator: Adobe Illustrator 16.0.0, SVG Export Plug-In . SVG Version: 6.00 Build 0)  -->
<!DOCTYPE svg PUBLIC "-//W3C//DTD SVG 1.1//EN" "http://www.w3.org/Graphics/SVG/1.1/DTD/svg11.dtd">
<svg version="1.1" id="Layer_1" xmlns="http://www.w3.org/2000/svg" xmlns:xlink="http://www.w3.org/1999/xlink" x="0px" y="0px"
	 width="100px" height="100px" viewBox="0 0 100 100" enable-background="new 0 0 100 100" xml:space="preserve">
<line fill="none" stroke="#000000" stroke-miterlimit="10" x1="0" y1="0" x2="14.646" y2="35.353"/>
<line fill="none" stroke="#000000" stroke-miterlimit="10" x1="0" y1="0" x2="35.353" y2="14.646"/>
<line fill="none" stroke="#000000" stroke-miterlimit="10" x1="14.646" y1="35.353" x2="50" y2="50"/>
<line fill="none" stroke="#000000" stroke-miterlimit="10" x1="50" y1="50" x2="35.353" y2="14.646"/>
<line fill="none" stroke="#000000" stroke-miterlimit="10" x1="14.646" y1="35.353" x2="14.646" y2="50"/>
<line fill="none" stroke="#000000" stroke-miterlimit="10" x1="0" y1="50" x2="14.646" y2="50"/>
<line fill="none" stroke="#000000" stroke-miterlimit="10" x1="50" y1="50" x2="50" y2="14.644"/>
<line fill="none" stroke="#000000" stroke-miterlimit="10" x1="50" y1="14.644" x2="50" y2="0"/>
<line fill="none" stroke="#000000" stroke-miterlimit="10" x1="50" y1="0" x2="35.353" y2="14.646"/>
<line fill="none" stroke="#000000" stroke-miterlimit="10" x1="35.353" y1="14.646" x2="50" y2="14.646"/>
<line fill="none" stroke="#000000" stroke-miterlimit="10" x1="14.646" y1="35.354" x2="0" y2="50"/>
<line fill="none" stroke="#000000" stroke-miterlimit="10" x1="14.646" y1="35.354" x2="25" y2="25"/>
<line fill="none" stroke="#000000" stroke-miterlimit="10" x1="25" y1="25" x2="35.353" y2="14.646"/>
<line fill="none" stroke="#000000" stroke-miterlimit="10" x1="0" y1="100" x2="35.352" y2="85.354"/>
<line fill="none" stroke="#000000" stroke-miterlimit="10" x1="0" y1="100" x2="14.646" y2="64.646"/>
<line fill="none" stroke="#000000" stroke-miterlimit="10" x1="35.352" y1="85.354" x2="50" y2="50"/>
<line fill="none" stroke="#000000" stroke-miterlimit="10" x1="50" y1="50" x2="14.646" y2="64.646"/>
<line fill="none" stroke="#000000" stroke-miterlimit="10" x1="35.352" y1="85.354" x2="50" y2="85.354"/>
<line fill="none" stroke="#000000" stroke-miterlimit="10" x1="50" y1="100" x2="50" y2="85.354"/>
<line fill="none" stroke="#000000" stroke-miterlimit="10" x1="50" y1="50" x2="50" y2="85.354"/>
<line fill="none" stroke="#000000" stroke-miterlimit="10" x1="50" y1="50" x2="14.643" y2="50"/>
<line fill="none" stroke="#000000" stroke-miterlimit="10" x1="0" y1="50" x2="14.646" y2="64.646"/>
<line fill="none" stroke="#000000" stroke-miterlimit="10" x1="14.646" y1="64.646" x2="14.646" y2="50"/>
<line fill="none" stroke="#000000" stroke-miterlimit="10" x1="35.353" y1="85.354" x2="50" y2="100"/>
<line fill="none" stroke="#000000" stroke-miterlimit="10" x1="35.353" y1="85.354" x2="25" y2="75"/>
<line fill="none" stroke="#000000" stroke-miterlimit="10" x1="25" y1="75" x2="14.646" y2="64.646"/>
<line fill="none" stroke="#000000" stroke-miterlimit="10" x1="100" y1="0" x2="85.352" y2="35.353"/>
<line fill="none" stroke="#000000" stroke-miterlimit="10" x1="100" y1="0" x2="64.645" y2="14.646"/>
<line fill="none" stroke="#000000" stroke-miterlimit="10" x1="85.352" y1="35.353" x2="50" y2="50"/>
<line fill="none" stroke="#000000" stroke-miterlimit="10" x1="50" y1="50" x2="64.645" y2="14.646"/>
<line fill="none" stroke="#000000" stroke-miterlimit="10" x1="85.352" y1="35.353" x2="85.352" y2="50"/>
<line fill="none" stroke="#000000" stroke-miterlimit="10" x1="100" y1="50" x2="85.352" y2="50"/>
<line fill="none" stroke="#000000" stroke-miterlimit="10" x1="50" y1="0" x2="64.645" y2="14.646"/>
<line fill="none" stroke="#000000" stroke-miterlimit="10" x1="64.645" y1="14.646" x2="50" y2="14.646"/>
<line fill="none" stroke="#000000" stroke-miterlimit="10" x1="85.35" y1="35.354" x2="100" y2="50"/>
<line fill="none" stroke="#000000" stroke-miterlimit="10" x1="85.35" y1="35.354" x2="74.996" y2="25"/>
<line fill="none" stroke="#000000" stroke-miterlimit="10" x1="74.996" y1="25" x2="64.645" y2="14.646"/>
<line fill="none" stroke="#000000" stroke-miterlimit="10" x1="100" y1="100" x2="64.645" y2="85.354"/>
<line fill="none" stroke="#000000" stroke-miterlimit="10" x1="100" y1="100" x2="85.352" y2="64.646"/>
<line fill="none" stroke="#000000" stroke-miterlimit="10" x1="64.645" y1="85.354" x2="50" y2="50"/>
<line fill="none" stroke="#000000" stroke-miterlimit="10" x1="50" y1="50" x2="85.352" y2="64.646"/>
<line fill="none" stroke="#000000" stroke-miterlimit="10" x1="64.645" y1="85.354" x2="50" y2="85.354"/>
<line fill="none" stroke="#000000" stroke-miterlimit="10" x1="50" y1="50" x2="85.354" y2="50"/>
<line fill="none" stroke="#000000" stroke-miterlimit="10" x1="100" y1="50" x2="85.352" y2="64.646"/>
<line fill="none" stroke="#000000" stroke-miterlimit="10" x1="85.352" y1="64.646" x2="85.352" y2="50"/>
<line fill="none" stroke="#000000" stroke-miterlimit="10" x1="64.645" y1="85.354" x2="50" y2="100"/>
<line fill="none" stroke="#000000" stroke-miterlimit="10" x1="64.645" y1="85.354" x2="74.997" y2="75"/>
<line fill="none" stroke="#000000" stroke-miterlimit="10" x1="74.997" y1="75" x2="85.352" y2="64.646"/>
<line fill="none" stroke="#000000" stroke-miterlimit="10" x1="35.353" y1="14.646" x2="35.353" y2="0"/>
<line fill="none" stroke="#000000" stroke-miterlimit="10" x1="64.645" y1="14.646" x2="64.645" y2="0"/>
<line fill="none" stroke="#000000" stroke-miterlimit="10" x1="85.352" y1="35.353" x2="100" y2="35.353"/>
<line fill="none" stroke="#000000" stroke-miterlimit="10" x1="85.352" y1="64.646" x2="100" y2="64.646"/>
<line fill="none" stroke="#000000" stroke-miterlimit="10" x1="64.645" y1="85.354" x2="64.645" y2="100"/>
<line fill="none" stroke="#000000" stroke-miterlimit="10" x1="35.352" y1="85.354" x2="35.352" y2="100"/>
<line fill="none" stroke="#000000" stroke-miterlimit="10" x1="14.646" y1="64.646" x2="0" y2="64.646"/>
<line fill="none" stroke="#000000" stroke-miterlimit="10" x1="14.646" y1="35.353" x2="0" y2="35.353"/>
<line fill="none" stroke="#000000" stroke-miterlimit="10" x1="50" y1="50" x2="25" y2="25"/>
<line fill="none" stroke="#000000" stroke-miterlimit="10" x1="50" y1="50" x2="75" y2="25"/>
<line fill="none" stroke="#000000" stroke-miterlimit="10" x1="50" y1="50" x2="75" y2="75"/>
<line fill="none" stroke="#000000" stroke-miterlimit="10" x1="50" y1="50" x2="25" y2="75"/>
<line fill="none" stroke="#000000" stroke-miterlimit="10" x1="25" y1="75" x2="0" y2="100"/>
<line fill="none" stroke="#000000" stroke-miterlimit="10" x1="25" y1="25" x2="0" y2="0"/>
<line fill="none" stroke="#000000" stroke-miterlimit="10" x1="75" y1="25" x2="100" y2="0"/>
<line fill="none" stroke="#000000" stroke-miterlimit="10" x1="75" y1="75" x2="100" y2="100"/>
</svg>
