<?xml version="1.0" encoding="utf-8"?>
<!-- generated by crease pattern Javascript library by Robby Kraft  -->
<svg version="1.1" xmlns="http://www.w3.org/2000/svg" x="0px" y="0px" width="600px" height="600px" viewBox="0 0 600 600">
<g id="valley">
	<line stroke="#000000" stroke-linecap="round" stroke-dasharray="8,8" stroke-width="4" x1="19.98" y1="0" x2="10.795240071245" y2="66.666666666667"/>
	<line stroke="#000000" stroke-linecap="round" stroke-dasharray="8,8" stroke-width="4" x1="153.313333333333" y1="0" x2="144.128573404579" y2="66.666666666667"/>
	<line stroke="#000000" stroke-linecap="round" stroke-dasharray="8,8" stroke-width="4" x1="286.646666666667" y1="0" x2="277.461906737912" y2="66.666666666667"/>
	<line stroke="#000000" stroke-linecap="round" stroke-dasharray="8,8" stroke-width="4" x1="419.98" y1="0" x2="410.795240071245" y2="66.666666666667"/>
	<line stroke="#000000" stroke-linecap="round" stroke-dasharray="8,8" stroke-width="4" x1="553.313333333333" y1="0" x2="544.128573404579" y2="66.666666666667"/>
	<line stroke="#000000" stroke-linecap="round" stroke-dasharray="8,8" stroke-width="4" x1="10.795240071245" y1="66.666666666667" x2="77.461906737912" y2="108.666666666667"/>
	<line stroke="#000000" stroke-linecap="round" stroke-dasharray="8,8" stroke-width="4" x1="77.461906737912" y1="108.666666666667" x2="144.128573404579" y2="66.666666666667"/>
	<line stroke="#000000" stroke-linecap="round" stroke-dasharray="8,8" stroke-width="4" x1="77.461906737912" y1="108.666666666667" x2="58.352052872455" y2="175.333333333333"/>
	<line stroke="#000000" stroke-linecap="round" stroke-dasharray="8,8" stroke-width="4" x1="144.128573404579" y1="66.666666666667" x2="210.795240071245" y2="108.666666666667"/>
	<line stroke="#000000" stroke-linecap="round" stroke-dasharray="8,8" stroke-width="4" x1="210.795240071245" y1="108.666666666667" x2="277.461906737912" y2="66.666666666667"/>
	<line stroke="#000000" stroke-linecap="round" stroke-dasharray="8,8" stroke-width="4" x1="210.795240071245" y1="108.666666666667" x2="191.685386205788" y2="175.333333333333"/>
	<line stroke="#000000" stroke-linecap="round" stroke-dasharray="8,8" stroke-width="4" x1="277.461906737912" y1="66.666666666667" x2="344.128573404579" y2="108.666666666667"/>
	<line stroke="#000000" stroke-linecap="round" stroke-dasharray="8,8" stroke-width="4" x1="344.128573404579" y1="108.666666666667" x2="410.795240071245" y2="66.666666666667"/>
	<line stroke="#000000" stroke-linecap="round" stroke-dasharray="8,8" stroke-width="4" x1="344.128573404579" y1="108.666666666667" x2="325.018719539121" y2="175.333333333333"/>
	<line stroke="#000000" stroke-linecap="round" stroke-dasharray="8,8" stroke-width="4" x1="410.795240071245" y1="66.666666666667" x2="477.461906737912" y2="108.666666666667"/>
	<line stroke="#000000" stroke-linecap="round" stroke-dasharray="8,8" stroke-width="4" x1="477.461906737912" y1="108.666666666667" x2="544.128573404579" y2="66.666666666667"/>
	<line stroke="#000000" stroke-linecap="round" stroke-dasharray="8,8" stroke-width="4" x1="477.461906737912" y1="108.666666666667" x2="458.352052872455" y2="175.333333333333"/>
	<line stroke="#000000" stroke-linecap="round" stroke-dasharray="8,8" stroke-width="4" x1="544.128573404579" y1="66.666666666667" x2="600" y2="101.865665421782"/>
	<line stroke="#000000" stroke-linecap="round" stroke-dasharray="8,8" stroke-width="4" x1="591.685386205788" y1="175.333333333333" x2="600" y2="146.326958392772"/>
	<line stroke="#000000" stroke-linecap="round" stroke-dasharray="8,8" stroke-width="4" x1="125.018719539121" y1="133.333333333333" x2="113.553283251256" y2="200"/>
	<line stroke="#000000" stroke-linecap="round" stroke-dasharray="8,8" stroke-width="4" x1="258.352052872455" y1="133.333333333333" x2="246.88661658459" y2="200"/>
	<line stroke="#000000" stroke-linecap="round" stroke-dasharray="8,8" stroke-width="4" x1="391.685386205788" y1="133.333333333333" x2="380.219949917923" y2="200"/>
	<line stroke="#000000" stroke-linecap="round" stroke-dasharray="8,8" stroke-width="4" x1="525.018719539121" y1="133.333333333333" x2="513.553283251256" y2="200"/>
	<line stroke="#000000" stroke-linecap="round" stroke-dasharray="8,8" stroke-width="4" x1="46.88661658459" y1="242" x2="0" y2="212.461431551708"/>
	<line stroke="#000000" stroke-linecap="round" stroke-dasharray="8,8" stroke-width="4" x1="46.88661658459" y1="242" x2="113.553283251256" y2="200"/>
	<line stroke="#000000" stroke-linecap="round" stroke-dasharray="8,8" stroke-width="4" x1="46.88661658459" y1="242" x2="53.606867121812" y2="308.666666666667"/>
	<line stroke="#000000" stroke-linecap="round" stroke-dasharray="8,8" stroke-width="4" x1="113.553283251256" y1="200" x2="180.219949917923" y2="242"/>
	<line stroke="#000000" stroke-linecap="round" stroke-dasharray="8,8" stroke-width="4" x1="180.219949917923" y1="242" x2="246.88661658459" y2="200"/>
	<line stroke="#000000" stroke-linecap="round" stroke-dasharray="8,8" stroke-width="4" x1="180.219949917923" y1="242" x2="186.940200455145" y2="308.666666666667"/>
	<line stroke="#000000" stroke-linecap="round" stroke-dasharray="8,8" stroke-width="4" x1="246.88661658459" y1="200" x2="313.553283251256" y2="242"/>
	<line stroke="#000000" stroke-linecap="round" stroke-dasharray="8,8" stroke-width="4" x1="313.553283251256" y1="242" x2="380.219949917923" y2="200"/>
	<line stroke="#000000" stroke-linecap="round" stroke-dasharray="8,8" stroke-width="4" x1="313.553283251256" y1="242" x2="320.273533788478" y2="308.666666666667"/>
	<line stroke="#000000" stroke-linecap="round" stroke-dasharray="8,8" stroke-width="4" x1="380.219949917923" y1="200" x2="446.88661658459" y2="242"/>
	<line stroke="#000000" stroke-linecap="round" stroke-dasharray="8,8" stroke-width="4" x1="446.88661658459" y1="242" x2="513.553283251256" y2="200"/>
	<line stroke="#000000" stroke-linecap="round" stroke-dasharray="8,8" stroke-width="4" x1="446.88661658459" y1="242" x2="453.606867121812" y2="308.666666666667"/>
	<line stroke="#000000" stroke-linecap="round" stroke-dasharray="8,8" stroke-width="4" x1="513.553283251256" y1="200" x2="580.219949917923" y2="242"/>
	<line stroke="#000000" stroke-linecap="round" stroke-dasharray="8,8" stroke-width="4" x1="580.219949917923" y1="242" x2="586.940200455145" y2="308.666666666667"/>
	<line stroke="#000000" stroke-linecap="round" stroke-dasharray="8,8" stroke-width="4" x1="5.667570465555" y1="333.333333333333" x2="0" y2="313.157620949428"/>
	<line stroke="#000000" stroke-linecap="round" stroke-dasharray="8,8" stroke-width="4" x1="120.273533788478" y1="266.666666666667" x2="139.000903798889" y2="333.333333333333"/>
	<line stroke="#000000" stroke-linecap="round" stroke-dasharray="8,8" stroke-width="4" x1="253.606867121812" y1="266.666666666667" x2="272.334237132222" y2="333.333333333333"/>
	<line stroke="#000000" stroke-linecap="round" stroke-dasharray="8,8" stroke-width="4" x1="386.940200455145" y1="266.666666666667" x2="405.667570465555" y2="333.333333333333"/>
	<line stroke="#000000" stroke-linecap="round" stroke-dasharray="8,8" stroke-width="4" x1="520.273533788478" y1="266.666666666667" x2="539.000903798889" y2="333.333333333333"/>
	<line stroke="#000000" stroke-linecap="round" stroke-dasharray="8,8" stroke-width="4" x1="5.667570465555" y1="333.333333333333" x2="72.334237132222" y2="375.333333333333"/>
	<line stroke="#000000" stroke-linecap="round" stroke-dasharray="8,8" stroke-width="4" x1="72.334237132222" y1="375.333333333333" x2="139.000903798889" y2="333.333333333333"/>
	<line stroke="#000000" stroke-linecap="round" stroke-dasharray="8,8" stroke-width="4" x1="72.334237132222" y1="375.333333333333" x2="85.850868993941" y2="442"/>
	<line stroke="#000000" stroke-linecap="round" stroke-dasharray="8,8" stroke-width="4" x1="139.000903798889" y1="333.333333333333" x2="205.667570465555" y2="375.333333333333"/>
	<line stroke="#000000" stroke-linecap="round" stroke-dasharray="8,8" stroke-width="4" x1="205.667570465555" y1="375.333333333333" x2="272.334237132222" y2="333.333333333333"/>
	<line stroke="#000000" stroke-linecap="round" stroke-dasharray="8,8" stroke-width="4" x1="205.667570465555" y1="375.333333333333" x2="219.184202327274" y2="442"/>
	<line stroke="#000000" stroke-linecap="round" stroke-dasharray="8,8" stroke-width="4" x1="272.334237132222" y1="333.333333333333" x2="339.000903798889" y2="375.333333333333"/>
	<line stroke="#000000" stroke-linecap="round" stroke-dasharray="8,8" stroke-width="4" x1="339.000903798889" y1="375.333333333333" x2="405.667570465555" y2="333.333333333333"/>
	<line stroke="#000000" stroke-linecap="round" stroke-dasharray="8,8" stroke-width="4" x1="339.000903798889" y1="375.333333333333" x2="352.517535660608" y2="442"/>
	<line stroke="#000000" stroke-linecap="round" stroke-dasharray="8,8" stroke-width="4" x1="405.667570465555" y1="333.333333333333" x2="472.334237132222" y2="375.333333333333"/>
	<line stroke="#000000" stroke-linecap="round" stroke-dasharray="8,8" stroke-width="4" x1="472.334237132222" y1="375.333333333333" x2="539.000903798889" y2="333.333333333333"/>
	<line stroke="#000000" stroke-linecap="round" stroke-dasharray="8,8" stroke-width="4" x1="472.334237132222" y1="375.333333333333" x2="485.850868993941" y2="442"/>
	<line stroke="#000000" stroke-linecap="round" stroke-dasharray="8,8" stroke-width="4" x1="539.000903798889" y1="333.333333333333" x2="600" y2="371.762763940034"/>
	<line stroke="#000000" stroke-linecap="round" stroke-dasharray="8,8" stroke-width="4" x1="19.184202327274" y1="400" x2="15.062967041779" y2="466.666666666667"/>
	<line stroke="#000000" stroke-linecap="round" stroke-dasharray="8,8" stroke-width="4" x1="152.517535660608" y1="400" x2="148.396300375113" y2="466.666666666667"/>
	<line stroke="#000000" stroke-linecap="round" stroke-dasharray="8,8" stroke-width="4" x1="285.850868993941" y1="400" x2="281.729633708446" y2="466.666666666667"/>
	<line stroke="#000000" stroke-linecap="round" stroke-dasharray="8,8" stroke-width="4" x1="419.184202327274" y1="400" x2="415.062967041779" y2="466.666666666667"/>
	<line stroke="#000000" stroke-linecap="round" stroke-dasharray="8,8" stroke-width="4" x1="552.517535660608" y1="400" x2="548.396300375113" y2="466.666666666667"/>
	<line stroke="#000000" stroke-linecap="round" stroke-dasharray="8,8" stroke-width="4" x1="15.062967041779" y1="466.666666666667" x2="81.729633708446" y2="508.666666666667"/>
	<line stroke="#000000" stroke-linecap="round" stroke-dasharray="8,8" stroke-width="4" x1="81.729633708446" y1="508.666666666667" x2="148.396300375113" y2="466.666666666667"/>
	<line stroke="#000000" stroke-linecap="round" stroke-dasharray="8,8" stroke-width="4" x1="81.729633708446" y1="508.666666666667" x2="63.759575991171" y2="575.333333333333"/>
	<line stroke="#000000" stroke-linecap="round" stroke-dasharray="8,8" stroke-width="4" x1="148.396300375113" y1="466.666666666667" x2="215.062967041779" y2="508.666666666667"/>
	<line stroke="#000000" stroke-linecap="round" stroke-dasharray="8,8" stroke-width="4" x1="215.062967041779" y1="508.666666666667" x2="281.729633708446" y2="466.666666666667"/>
	<line stroke="#000000" stroke-linecap="round" stroke-dasharray="8,8" stroke-width="4" x1="215.062967041779" y1="508.666666666667" x2="197.092909324504" y2="575.333333333333"/>
	<line stroke="#000000" stroke-linecap="round" stroke-dasharray="8,8" stroke-width="4" x1="281.729633708446" y1="466.666666666667" x2="348.396300375113" y2="508.666666666667"/>
	<line stroke="#000000" stroke-linecap="round" stroke-dasharray="8,8" stroke-width="4" x1="348.396300375113" y1="508.666666666667" x2="415.062967041779" y2="466.666666666667"/>
	<line stroke="#000000" stroke-linecap="round" stroke-dasharray="8,8" stroke-width="4" x1="348.396300375113" y1="508.666666666667" x2="330.426242657837" y2="575.333333333333"/>
	<line stroke="#000000" stroke-linecap="round" stroke-dasharray="8,8" stroke-width="4" x1="415.062967041779" y1="466.666666666667" x2="481.729633708446" y2="508.666666666667"/>
	<line stroke="#000000" stroke-linecap="round" stroke-dasharray="8,8" stroke-width="4" x1="481.729633708446" y1="508.666666666667" x2="548.396300375113" y2="466.666666666667"/>
	<line stroke="#000000" stroke-linecap="round" stroke-dasharray="8,8" stroke-width="4" x1="481.729633708446" y1="508.666666666667" x2="463.759575991171" y2="575.333333333333"/>
	<line stroke="#000000" stroke-linecap="round" stroke-dasharray="8,8" stroke-width="4" x1="548.396300375113" y1="466.666666666667" x2="600" y2="499.176997430346"/>
	<line stroke="#000000" stroke-linecap="round" stroke-dasharray="8,8" stroke-width="4" x1="597.092909324504" y1="575.333333333333" x2="600" y2="564.548390508873"/>
	<line stroke="#000000" stroke-linecap="round" stroke-dasharray="8,8" stroke-width="4" x1="130.426242657837" y1="533.333333333333" x2="115.128950700877" y2="600"/>
	<line stroke="#000000" stroke-linecap="round" stroke-dasharray="8,8" stroke-width="4" x1="263.759575991171" y1="533.333333333333" x2="248.462284034211" y2="600"/>
	<line stroke="#000000" stroke-linecap="round" stroke-dasharray="8,8" stroke-width="4" x1="397.092909324504" y1="533.333333333333" x2="381.795617367544" y2="600"/>
	<line stroke="#000000" stroke-linecap="round" stroke-dasharray="8,8" stroke-width="4" x1="530.426242657837" y1="533.333333333333" x2="515.128950700877" y2="600"/>
	<line stroke="#000000" stroke-linecap="round" stroke-dasharray="8,8" stroke-width="4" x1="115.128950700877" y1="600" x2="181.795617367544" y2="642"/>
	<line stroke="#000000" stroke-linecap="round" stroke-dasharray="8,8" stroke-width="4" x1="248.462284034211" y1="600" x2="315.128950700877" y2="642"/>
	<line stroke="#000000" stroke-linecap="round" stroke-dasharray="8,8" stroke-width="4" x1="381.795617367544" y1="600" x2="448.462284034211" y2="642"/>
	<line stroke="#000000" stroke-linecap="round" stroke-dasharray="8,8" stroke-width="4" x1="515.128950700877" y1="600" x2="581.795617367544" y2="642"/>
</g>
<g id="mountain">
	<line stroke="#000000" stroke-width="4" x1="19.98" y1="0" x2="86.646666666667" y2="42"/>
	<line stroke="#000000" stroke-width="4" x1="86.646666666667" y1="42" x2="153.313333333333" y2="0"/>
	<line stroke="#000000" stroke-width="4" x1="86.646666666667" y1="42" x2="77.461906737912" y2="108.666666666667"/>
	<line stroke="#000000" stroke-width="4" x1="153.313333333333" y1="0" x2="219.98" y2="42"/>
	<line stroke="#000000" stroke-width="4" x1="219.98" y1="42" x2="286.646666666667" y2="0"/>
	<line stroke="#000000" stroke-width="4" x1="219.98" y1="42" x2="210.795240071245" y2="108.666666666667"/>
	<line stroke="#000000" stroke-width="4" x1="286.646666666667" y1="0" x2="353.313333333333" y2="42"/>
	<line stroke="#000000" stroke-width="4" x1="353.313333333333" y1="42" x2="419.98" y2="0"/>
	<line stroke="#000000" stroke-width="4" x1="353.313333333333" y1="42" x2="344.128573404579" y2="108.666666666667"/>
	<line stroke="#000000" stroke-width="4" x1="419.98" y1="0" x2="486.646666666667" y2="42"/>
	<line stroke="#000000" stroke-width="4" x1="486.646666666667" y1="42" x2="553.313333333333" y2="0"/>
	<line stroke="#000000" stroke-width="4" x1="486.646666666667" y1="42" x2="477.461906737912" y2="108.666666666667"/>
	<line stroke="#000000" stroke-width="4" x1="553.313333333333" y1="0" x2="600" y2="29.4126"/>
	<line stroke="#000000" stroke-width="4" x1="10.795240071245" y1="66.666666666667" x2="0" y2="104.326958392772"/>
	<line stroke="#000000" stroke-width="4" x1="144.128573404579" y1="66.666666666667" x2="125.018719539121" y2="133.333333333333"/>
	<line stroke="#000000" stroke-width="4" x1="277.461906737912" y1="66.666666666667" x2="258.352052872455" y2="133.333333333333"/>
	<line stroke="#000000" stroke-width="4" x1="410.795240071245" y1="66.666666666667" x2="391.685386205788" y2="133.333333333333"/>
	<line stroke="#000000" stroke-width="4" x1="544.128573404579" y1="66.666666666667" x2="525.018719539121" y2="133.333333333333"/>
	<line stroke="#000000" stroke-width="4" x1="58.352052872455" y1="175.333333333333" x2="0" y2="138.571540023687"/>
	<line stroke="#000000" stroke-width="4" x1="58.352052872455" y1="175.333333333333" x2="125.018719539121" y2="133.333333333333"/>
	<line stroke="#000000" stroke-width="4" x1="58.352052872455" y1="175.333333333333" x2="46.88661658459" y2="242"/>
	<line stroke="#000000" stroke-width="4" x1="125.018719539121" y1="133.333333333333" x2="191.685386205788" y2="175.333333333333"/>
	<line stroke="#000000" stroke-width="4" x1="191.685386205788" y1="175.333333333333" x2="258.352052872455" y2="133.333333333333"/>
	<line stroke="#000000" stroke-width="4" x1="191.685386205788" y1="175.333333333333" x2="180.219949917923" y2="242"/>
	<line stroke="#000000" stroke-width="4" x1="258.352052872455" y1="133.333333333333" x2="325.018719539121" y2="175.333333333333"/>
	<line stroke="#000000" stroke-width="4" x1="325.018719539121" y1="175.333333333333" x2="391.685386205788" y2="133.333333333333"/>
	<line stroke="#000000" stroke-width="4" x1="325.018719539121" y1="175.333333333333" x2="313.553283251256" y2="242"/>
	<line stroke="#000000" stroke-width="4" x1="391.685386205788" y1="133.333333333333" x2="458.352052872455" y2="175.333333333333"/>
	<line stroke="#000000" stroke-width="4" x1="458.352052872455" y1="175.333333333333" x2="525.018719539121" y2="133.333333333333"/>
	<line stroke="#000000" stroke-width="4" x1="458.352052872455" y1="175.333333333333" x2="446.88661658459" y2="242"/>
	<line stroke="#000000" stroke-width="4" x1="525.018719539121" y1="133.333333333333" x2="591.685386205788" y2="175.333333333333"/>
	<line stroke="#000000" stroke-width="4" x1="591.685386205788" y1="175.333333333333" x2="580.219949917923" y2="242"/>
	<line stroke="#000000" stroke-width="4" x1="113.553283251256" y1="200" x2="120.273533788478" y2="266.666666666667"/>
	<line stroke="#000000" stroke-width="4" x1="246.88661658459" y1="200" x2="253.606867121812" y2="266.666666666667"/>
	<line stroke="#000000" stroke-width="4" x1="380.219949917923" y1="200" x2="386.940200455145" y2="266.666666666667"/>
	<line stroke="#000000" stroke-width="4" x1="513.553283251256" y1="200" x2="520.273533788478" y2="266.666666666667"/>
	<line stroke="#000000" stroke-width="4" x1="53.606867121812" y1="308.666666666667" x2="0" y2="274.894340379925"/>
	<line stroke="#000000" stroke-width="4" x1="53.606867121812" y1="308.666666666667" x2="120.273533788478" y2="266.666666666667"/>
	<line stroke="#000000" stroke-width="4" x1="53.606867121812" y1="308.666666666667" x2="72.334237132222" y2="375.333333333333"/>
	<line stroke="#000000" stroke-width="4" x1="120.273533788478" y1="266.666666666667" x2="186.940200455145" y2="308.666666666667"/>
	<line stroke="#000000" stroke-width="4" x1="186.940200455145" y1="308.666666666667" x2="253.606867121812" y2="266.666666666667"/>
	<line stroke="#000000" stroke-width="4" x1="186.940200455145" y1="308.666666666667" x2="205.667570465555" y2="375.333333333333"/>
	<line stroke="#000000" stroke-width="4" x1="253.606867121812" y1="266.666666666667" x2="320.273533788478" y2="308.666666666667"/>
	<line stroke="#000000" stroke-width="4" x1="320.273533788478" y1="308.666666666667" x2="386.940200455145" y2="266.666666666667"/>
	<line stroke="#000000" stroke-width="4" x1="320.273533788478" y1="308.666666666667" x2="339.000903798889" y2="375.333333333333"/>
	<line stroke="#000000" stroke-width="4" x1="386.940200455145" y1="266.666666666667" x2="453.606867121812" y2="308.666666666667"/>
	<line stroke="#000000" stroke-width="4" x1="453.606867121812" y1="308.666666666667" x2="520.273533788478" y2="266.666666666667"/>
	<line stroke="#000000" stroke-width="4" x1="453.606867121812" y1="308.666666666667" x2="472.334237132222" y2="375.333333333333"/>
	<line stroke="#000000" stroke-width="4" x1="520.273533788478" y1="266.666666666667" x2="586.940200455145" y2="308.666666666667"/>
	<line stroke="#000000" stroke-width="4" x1="586.940200455145" y1="308.666666666667" x2="600" y2="355.157620949428"/>
	<line stroke="#000000" stroke-width="4" x1="5.667570465555" y1="333.333333333333" x2="19.184202327274" y2="400"/>
	<line stroke="#000000" stroke-width="4" x1="139.000903798889" y1="333.333333333333" x2="152.517535660608" y2="400"/>
	<line stroke="#000000" stroke-width="4" x1="272.334237132222" y1="333.333333333333" x2="285.850868993941" y2="400"/>
	<line stroke="#000000" stroke-width="4" x1="405.667570465555" y1="333.333333333333" x2="419.184202327274" y2="400"/>
	<line stroke="#000000" stroke-width="4" x1="539.000903798889" y1="333.333333333333" x2="552.517535660608" y2="400"/>
	<line stroke="#000000" stroke-width="4" x1="19.184202327274" y1="400" x2="85.850868993941" y2="442"/>
	<line stroke="#000000" stroke-width="4" x1="85.850868993941" y1="442" x2="152.517535660608" y2="400"/>
	<line stroke="#000000" stroke-width="4" x1="85.850868993941" y1="442" x2="81.729633708446" y2="508.666666666667"/>
	<line stroke="#000000" stroke-width="4" x1="152.517535660608" y1="400" x2="219.184202327274" y2="442"/>
	<line stroke="#000000" stroke-width="4" x1="219.184202327274" y1="442" x2="285.850868993941" y2="400"/>
	<line stroke="#000000" stroke-width="4" x1="219.184202327274" y1="442" x2="215.062967041779" y2="508.666666666667"/>
	<line stroke="#000000" stroke-width="4" x1="285.850868993941" y1="400" x2="352.517535660608" y2="442"/>
	<line stroke="#000000" stroke-width="4" x1="352.517535660608" y1="442" x2="419.184202327274" y2="400"/>
	<line stroke="#000000" stroke-width="4" x1="352.517535660608" y1="442" x2="348.396300375113" y2="508.666666666667"/>
	<line stroke="#000000" stroke-width="4" x1="419.184202327274" y1="400" x2="485.850868993941" y2="442"/>
	<line stroke="#000000" stroke-width="4" x1="485.850868993941" y1="442" x2="552.517535660608" y2="400"/>
	<line stroke="#000000" stroke-width="4" x1="485.850868993941" y1="442" x2="481.729633708446" y2="508.666666666667"/>
	<line stroke="#000000" stroke-width="4" x1="552.517535660608" y1="400" x2="600" y2="429.913952533817"/>
	<line stroke="#000000" stroke-width="4" x1="15.062967041779" y1="466.666666666667" x2="0" y2="522.548390508873"/>
	<line stroke="#000000" stroke-width="4" x1="148.396300375113" y1="466.666666666667" x2="130.426242657837" y2="533.333333333333"/>
	<line stroke="#000000" stroke-width="4" x1="281.729633708446" y1="466.666666666667" x2="263.759575991171" y2="533.333333333333"/>
	<line stroke="#000000" stroke-width="4" x1="415.062967041779" y1="466.666666666667" x2="397.092909324504" y2="533.333333333333"/>
	<line stroke="#000000" stroke-width="4" x1="548.396300375113" y1="466.666666666667" x2="530.426242657837" y2="533.333333333333"/>
	<line stroke="#000000" stroke-width="4" x1="63.759575991171" y1="575.333333333333" x2="0" y2="535.164800458896"/>
	<line stroke="#000000" stroke-width="4" x1="63.759575991171" y1="575.333333333333" x2="130.426242657837" y2="533.333333333333"/>
	<line stroke="#000000" stroke-width="4" x1="63.759575991171" y1="575.333333333333" x2="58.099577967095" y2="600"/>
	<line stroke="#000000" stroke-width="4" x1="130.426242657837" y1="533.333333333333" x2="197.092909324504" y2="575.333333333333"/>
	<line stroke="#000000" stroke-width="4" x1="197.092909324504" y1="575.333333333333" x2="263.759575991171" y2="533.333333333333"/>
	<line stroke="#000000" stroke-width="4" x1="197.092909324504" y1="575.333333333333" x2="191.432911300429" y2="600"/>
	<line stroke="#000000" stroke-width="4" x1="263.759575991171" y1="533.333333333333" x2="330.426242657837" y2="575.333333333333"/>
	<line stroke="#000000" stroke-width="4" x1="330.426242657837" y1="575.333333333333" x2="397.092909324504" y2="533.333333333333"/>
	<line stroke="#000000" stroke-width="4" x1="330.426242657837" y1="575.333333333333" x2="324.766244633762" y2="600"/>
	<line stroke="#000000" stroke-width="4" x1="397.092909324504" y1="533.333333333333" x2="463.759575991171" y2="575.333333333333"/>
	<line stroke="#000000" stroke-width="4" x1="463.759575991171" y1="575.333333333333" x2="530.426242657837" y2="533.333333333333"/>
	<line stroke="#000000" stroke-width="4" x1="463.759575991171" y1="575.333333333333" x2="458.099577967095" y2="600"/>
	<line stroke="#000000" stroke-width="4" x1="530.426242657837" y1="533.333333333333" x2="597.092909324504" y2="575.333333333333"/>
	<line stroke="#000000" stroke-width="4" x1="597.092909324504" y1="575.333333333333" x2="591.432911300429" y2="600"/>
</g>
<g id="boundary">
	<line stroke="#000000" stroke-width="4" x1="0" y1="0" x2="600" y2="0"/>
	<line stroke="#000000" stroke-width="4" x1="600" y1="0" x2="600" y2="600"/>
	<line stroke="#000000" stroke-width="4" x1="600" y1="600" x2="0" y2="600"/>
	<line stroke="#000000" stroke-width="4" x1="0" y1="600" x2="0" y2="0"/>
</g>
</svg>
