<?xml version="1.0" encoding="utf-8"?>
<!-- generated by crease pattern Javascript library by Robby Kraft  -->
<svg version="1.1" xmlns="http://www.w3.org/2000/svg" x="0px" y="0px" width="600px" height="600px" viewBox="0 0 600 600">
<g id="marks">
	<line stroke="#000000" stroke-width="3" x1="600" y1="0" x2="540.905157985701" y2="600"/>
	<line stroke="#000000" stroke-width="3" x1="600" y1="0" x2="480.652579572205" y2="600"/>
	<line stroke="#000000" stroke-width="3" x1="600" y1="0" x2="417.991989835595" y2="600"/>
	<line stroke="#000000" stroke-width="3" x1="600" y1="0" x2="351.471862576143" y2="600"/>
	<line stroke="#000000" stroke-width="3" x1="600" y1="0" x2="279.293318429525" y2="600"/>
	<line stroke="#000000" stroke-width="3" x1="600" y1="0" x2="199.092817248421" y2="600"/>
	<line stroke="#000000" stroke-width="3" x1="600" y1="0" x2="107.592725502804" y2="600"/>
	<line stroke="#000000" stroke-width="3" x1="600" y1="0" x2="0" y2="600"/>
	<line stroke="#000000" stroke-width="3" x1="600" y1="0" x2="0" y2="492.407274497196"/>
	<line stroke="#000000" stroke-width="3" x1="600" y1="0" x2="0" y2="400.907182751579"/>
	<line stroke="#000000" stroke-width="3" x1="600" y1="0" x2="0" y2="320.706681570475"/>
	<line stroke="#000000" stroke-width="3" x1="600" y1="0" x2="0" y2="248.528137423857"/>
	<line stroke="#000000" stroke-width="3" x1="600" y1="0" x2="0" y2="182.008010164405"/>
	<line stroke="#000000" stroke-width="3" x1="600" y1="0" x2="0" y2="119.347420427795"/>
	<line stroke="#000000" stroke-width="3" x1="600" y1="0" x2="0" y2="59.094842014299"/>
	<line stroke="#000000" stroke-width="3" x1="300" y1="300" x2="353.796362751402" y2="300"/>
	<line stroke="#000000" stroke-width="3" x1="353.796362751402" y1="300" x2="364.291512483869" y2="352.762680725808"/>
	<line stroke="#000000" stroke-width="3" x1="364.291512483869" y1="352.762680725808" x2="417.054193209677" y2="342.26753099334"/>
	<line stroke="#000000" stroke-width="3" x1="417.054193209677" y1="342.26753099334" x2="437.641169956141" y2="391.968889462913"/>
	<line stroke="#000000" stroke-width="3" x1="437.641169956141" y1="391.968889462913" x2="487.342528425714" y2="371.381912716449"/>
	<line stroke="#000000" stroke-width="3" x1="487.342528425714" y1="371.381912716449" x2="517.230186215117" y2="416.111953596645"/>
	<line stroke="#000000" stroke-width="3" x1="517.230186215117" y1="416.111953596645" x2="561.960227095312" y2="386.224295807241"/>
	<line stroke="#000000" stroke-width="3" x1="561.960227095312" y1="386.224295807241" x2="600" y2="424.264068711929"/>
	<line stroke="#000000" stroke-width="3" x1="300" y1="300" x2="300" y2="365.551057676393"/>
	<line stroke="#000000" stroke-width="3" x1="300" y1="365.551057676393" x2="364.291512483869" y2="352.762680725808"/>
	<line stroke="#000000" stroke-width="3" x1="364.291512483869" y1="352.762680725808" x2="377.079889434455" y2="417.054193209677"/>
	<line stroke="#000000" stroke-width="3" x1="377.079889434455" y1="417.054193209677" x2="437.641169956141" y2="391.968889462913"/>
	<line stroke="#000000" stroke-width="3" x1="437.641169956141" y1="391.968889462913" x2="462.726473702905" y2="452.530169984599"/>
	<line stroke="#000000" stroke-width="3" x1="462.726473702905" y1="452.530169984599" x2="517.230186215117" y2="416.111953596644"/>
	<line stroke="#000000" stroke-width="3" x1="517.230186215117" y1="416.111953596644" x2="553.648402603072" y2="470.615666108856"/>
	<line stroke="#000000" stroke-width="3" x1="553.648402603072" y1="470.615666108856" x2="600" y2="424.264068711928"/>
	<line stroke="#000000" stroke-width="3" x1="300" y1="300" x2="234.448942323607" y2="300"/>
	<line stroke="#000000" stroke-width="3" x1="234.448942323607" y1="300" x2="247.237319274192" y2="235.708487516131"/>
	<line stroke="#000000" stroke-width="3" x1="247.237319274192" y1="235.708487516131" x2="182.945806790323" y2="222.920110565545"/>
	<line stroke="#000000" stroke-width="3" x1="182.945806790323" y1="222.920110565545" x2="208.031110537087" y2="162.358830043859"/>
	<line stroke="#000000" stroke-width="3" x1="208.031110537087" y1="162.358830043859" x2="147.469830015401" y2="137.273526297095"/>
	<line stroke="#000000" stroke-width="3" x1="147.469830015401" y1="137.273526297095" x2="183.888046403356" y2="82.769813784883"/>
	<line stroke="#000000" stroke-width="3" x1="183.888046403356" y1="82.769813784883" x2="129.384333891143" y2="46.351597396928"/>
	<line stroke="#000000" stroke-width="3" x1="129.384333891143" y1="46.351597396928" x2="175.735931288072" y2="0"/>
	<line stroke="#000000" stroke-width="3" x1="300" y1="300" x2="300" y2="246.203637248598"/>
	<line stroke="#000000" stroke-width="3" x1="300" y1="246.203637248598" x2="247.237319274192" y2="235.708487516131"/>
	<line stroke="#000000" stroke-width="3" x1="247.237319274192" y1="235.708487516131" x2="257.73246900666" y2="182.945806790323"/>
	<line stroke="#000000" stroke-width="3" x1="257.73246900666" y1="182.945806790323" x2="208.031110537087" y2="162.358830043859"/>
	<line stroke="#000000" stroke-width="3" x1="208.031110537087" y1="162.358830043859" x2="228.618087283551" y2="112.657471574286"/>
	<line stroke="#000000" stroke-width="3" x1="228.618087283551" y1="112.657471574286" x2="183.888046403356" y2="82.769813784883"/>
	<line stroke="#000000" stroke-width="3" x1="183.888046403356" y1="82.769813784883" x2="213.775704192759" y2="38.039772904688"/>
	<line stroke="#000000" stroke-width="3" x1="213.775704192759" y1="38.039772904688" x2="175.735931288071" y2="0"/>
	<line stroke="#000000" stroke-width="3" x1="337.5" y1="262.5" x2="384.571817407477" y2="262.5"/>
	<line stroke="#000000" stroke-width="3" x1="384.571817407477" y1="262.5" x2="393.755073423386" y2="308.667345635082"/>
	<line stroke="#000000" stroke-width="3" x1="393.755073423386" y1="308.667345635082" x2="439.922419058467" y2="299.484089619173"/>
	<line stroke="#000000" stroke-width="3" x1="439.922419058467" y1="299.484089619173" x2="457.936023711623" y2="342.972778280049"/>
	<line stroke="#000000" stroke-width="3" x1="457.936023711623" y1="342.972778280049" x2="501.4247123725" y2="324.959173626893"/>
	<line stroke="#000000" stroke-width="3" x1="501.4247123725" y1="324.959173626893" x2="527.576412938227" y2="364.097959397064"/>
	<line stroke="#000000" stroke-width="3" x1="527.576412938227" y1="364.097959397064" x2="566.715198708398" y2="337.946258831336"/>
	<line stroke="#000000" stroke-width="3" x1="566.715198708398" y1="337.946258831336" x2="600" y2="371.231060122938"/>
	<line stroke="#000000" stroke-width="3" x1="337.5" y1="262.5" x2="337.5" y2="215.428182592523"/>
	<line stroke="#000000" stroke-width="3" x1="337.5" y1="215.428182592523" x2="291.332654364918" y2="206.244926576614"/>
	<line stroke="#000000" stroke-width="3" x1="291.332654364918" y1="206.244926576614" x2="300.515910380827" y2="160.077580941533"/>
	<line stroke="#000000" stroke-width="3" x1="300.515910380827" y1="160.077580941533" x2="257.027221719951" y2="142.063976288377"/>
	<line stroke="#000000" stroke-width="3" x1="257.027221719951" y1="142.063976288377" x2="275.040826373107" y2="98.575287627501"/>
	<line stroke="#000000" stroke-width="3" x1="275.040826373107" y1="98.575287627501" x2="235.902040602936" y2="72.423587061773"/>
	<line stroke="#000000" stroke-width="3" x1="235.902040602936" y1="72.423587061773" x2="262.053741168664" y2="33.284801291602"/>
	<line stroke="#000000" stroke-width="3" x1="262.053741168664" y1="33.284801291602" x2="228.768939877062" y2="0"/>
	<line stroke="#000000" stroke-width="3" x1="262.5" y1="337.5" x2="188.755060114058" y2="337.5"/>
	<line stroke="#000000" stroke-width="3" x1="188.755060114058" y1="337.5" x2="203.141984183466" y2="265.172048455647"/>
	<line stroke="#000000" stroke-width="3" x1="203.141984183466" y1="265.172048455647" x2="130.814032639114" y2="250.785124386239"/>
	<line stroke="#000000" stroke-width="3" x1="130.814032639114" y1="250.785124386239" x2="159.034999354223" y2="182.653683799342"/>
	<line stroke="#000000" stroke-width="3" x1="159.034999354223" y1="182.653683799342" x2="90.903558767326" y2="154.432717084232"/>
	<line stroke="#000000" stroke-width="3" x1="90.903558767326" y1="154.432717084232" x2="131.874052203775" y2="93.116040507993"/>
	<line stroke="#000000" stroke-width="3" x1="131.874052203775" y1="93.116040507993" x2="70.557375627537" y2="52.145547071544"/>
	<line stroke="#000000" stroke-width="3" x1="70.557375627537" y1="52.145547071544" x2="122.70292269908" y2="0"/>
	<line stroke="#000000" stroke-width="3" x1="262.5" y1="337.5" x2="262.5" y2="411.244939885942"/>
	<line stroke="#000000" stroke-width="3" x1="262.5" y1="411.244939885942" x2="334.827951544353" y2="396.858015816534"/>
	<line stroke="#000000" stroke-width="3" x1="334.827951544353" y1="396.858015816534" x2="349.214875613762" y2="469.185967360886"/>
	<line stroke="#000000" stroke-width="3" x1="349.214875613762" y1="469.185967360886" x2="417.346316200659" y2="440.965000645777"/>
	<line stroke="#000000" stroke-width="3" x1="417.346316200659" y1="440.965000645777" x2="445.567282915768" y2="509.096441232674"/>
	<line stroke="#000000" stroke-width="3" x1="445.567282915768" y1="509.096441232674" x2="506.883959492007" y2="468.125947796224"/>
	<line stroke="#000000" stroke-width="3" x1="506.883959492007" y1="468.125947796224" x2="547.854452928456" y2="529.442624372463"/>
	<line stroke="#000000" stroke-width="3" x1="547.854452928456" y1="529.442624372463" x2="600" y2="477.297077300919"/>
</g>
<g id="boundary">
	<line stroke="#000000" stroke-width="3" x1="0" y1="0" x2="600" y2="0"/>
	<line stroke="#000000" stroke-width="3" x1="600" y1="0" x2="600" y2="600"/>
	<line stroke="#000000" stroke-width="3" x1="600" y1="600" x2="0" y2="600"/>
	<line stroke="#000000" stroke-width="3" x1="0" y1="600" x2="0" y2="0"/>
</g>
</svg>