<?xml version="1.0" encoding="utf-8"?>
<svg version="1.1" xmlns="http://www.w3.org/2000/svg" viewBox="0 0 180 180">
	<path fill="#3498DB" d="M20,0C9,0,0,9,0,20v140c0,11,9,20,20,20h130h10c11,0,20-9,20-20V30L150,0H20z"/>
	<path fill="#2980B9" d="M40,0v10v50c0,5,4.5,10,10,10h80c5.5,0,10-5,10-10V10V0H40z"/>
	<path fill="#ECF0F1" d="M40,0v50c0,5.5,4.5,10,10,10h80c5.5,0,10-4.5,10-10V0H40z"/>
	<path fill="#ECF0F1" d="M30,90c-5.5,0-10,4-10,10v30v20v30h40h60h40v-30v-20v-30c0-6-4.5-10-10-10h-40H70H30z"/>
	<rect x="20" y="170" fill="#BDC3C7" width="140" height="10"/>
	<rect x="40" y="110" fill="#BDC3C7" width="100" height="10"/>
	<rect x="40" y="130" fill="#BDC3C7" width="100" height="10"/>
	<rect x="100" y="10" fill="#3498DB" width="30" height="40"/>
	<rect x="100" y="10" fill="#2980B9" width="30" height="10"/>
</svg>
