<?xml version="1.0" encoding="utf-8"?>
<svg version="1.1" id="Layer_1" xmlns="http://www.w3.org/2000/svg" xmlns:xlink="http://www.w3.org/1999/xlink" x="0px" y="0px" width="100px" height="100px" viewBox="0 0 100 100"><path fill="white" d="M100,34.4v38.9c0,4.5-3.7,8.2-8,8.2h-8.1l3.6,16.2H14.1L17,81.5H8.2c-4.8,0-8.2-3.7-8.2-8.2V34.4c0-4.5,3.5-8.2,8.2-8.2h10.2V13.7H22V0h56v13.7h3.6v12.5H92C96.3,26.2,100,29.9,100,34.4z M19.7,40.6c0-3.1-2.7-5.7-5.8-5.7c-3.1,0-5.7,2.7-5.7,5.7c0,3.2,2.7,5.7,5.7,5.7C17,46.3,19.7,43.8,19.7,40.6z M80.7,92.8l-5-25.6H24.3l-3.9,25.6H80.7z M25.8,36h48.6V5H25.8V36z M47.3,77.2H32.5v3.7h14.7V77.2z M68.3,77.2H53.5v3.7h14.7L68.3,77.2L68.3,77.2z"/></svg>
