<?xml version="1.0" encoding="utf-8"?>
<svg version="1.1" xmlns="http://www.w3.org/2000/svg" viewBox="0 0 100 100">
<path fill="black" d="M31.7,5C30.2,5.2,29,6.5,29,8v24c-5.4,0-10.9,0-16.3,0c-1.5,0.2-2.7,1.5-2.7,3v38c0,1.6,1.4,3,3,3h16v16c0,1.6,1.4,3,3,3h36
	c1.6,0,3-1.4,3-3V76h16c1.6,0,3-1.4,3-3V35c0-1.6-1.4-3-3-3H71V18c0-0.8-0.3-1.6-0.9-2.1l-10-10C59.5,5.3,58.8,5,58,5
	C49.2,5,40.4,5,31.7,5z M35,11h17v9c0,1.6,1.4,3,3,3h10v9H35V11z M58,12.2l4.8,4.8H58V12.2z M16,38h68v32H71v-3h3c1.6,0,3-1.4,3-3
	s-1.5-3-3-3c-16.1,0-32.2,0-48.3,0c-1.6,0.1-2.9,1.6-2.9,3.2c0.1,1.6,1.6,2.9,3.2,2.8h3v3H16V38z M79,40c-1.7,0-3,1.3-3,3s1.3,3,3,3
	s3-1.3,3-3S80.7,40,79,40z M35,67h30v22H35V67z"/>
</svg>
