<?xml version="1.0" encoding="utf-8"?>
<!-- Generator: Adobe Illustrator 23.0.3, SVG Export Plug-In . SVG Version: 6.00 Build 0)  -->
<svg version="1.1" xmlns="http://www.w3.org/2000/svg" xmlns:xlink="http://www.w3.org/1999/xlink" x="0px" y="0px" width="94.6px"
	 height="91.5px" viewBox="0 0 94.6 91.5" enable-background="new 0 0 94.6 91.5" xml:space="preserve">
<g id="Layer_2">
	<path fill="#FFFFFF" d="M79.7,0H5.1C2.3,0,0,2.3,0,5.1v81.3c0,2.8,2.3,5.1,5.1,5.1h84.3c2.8,0,5.1-2.3,5.1-5.1V14.7L79.7,0z"/>
</g>
<g id="Layer_1">
	<rect x="53.9" y="9.8" fill="#DD4422" width="9.5" height="19.6"/>
	<rect x="20.8" y="52.8" fill="#DD4422" width="53.1" height="1.3"/>
	<rect x="20.8" y="59.9" fill="#DD4422" width="53.1" height="1.3"/>
	<rect x="20.8" y="66.5" fill="#DD4422" width="53.1" height="1.3"/>
	<rect x="20.8" y="72.8" fill="#DD4422" width="53.1" height="1.3"/>
	<path fill="#DD4422" d="M79.7,0H5.1C2.3,0,0,2.3,0,5.1v81.3c0,2.8,2.3,5.1,5.1,5.1h84.3c2.8,0,5.1-2.3,5.1-5.1V14.7L79.7,0z
		 M18.6,10.2c0-2.5,2.3-4.6,5.1-4.6h47.2c2.8,0,5.1,2,5.1,4.6v18.7c0,2.5-2.3,4.5-5.1,4.5H23.7c-2.8,0-5.1-2-5.1-4.5V10.2L18.6,10.2
		z M81.4,86.3H13.3V42.4h68.1V86.3z"/>
</g>
</svg>
