<svg version="1.1" xmlns="http://www.w3.org/2000/svg" viewBox="0 0 800 800"><path d="M656.9,576.2c2.8,8.5,4.6,15.2,5.3,20.1s-0.3,8.7-2.8,11.1c-2.6,2.4-7.1,4-13.7,4.6c-6.6,0.5-15.6,0.9-27.1,0.9c-12,0-21.3-0.2-28-0.5c-6.8-0.4-11.8-1.1-15.3-2.1s-6-2.5-7.4-4.4c-1.4-1.9-2.6-4.3-3.5-7.4l-30.7-91.6H362.4l-28.9,89.1c-0.9,3.3-2.2,6-3.7,8.3c-1.5,2.3-4,4-7.4,5.3c-3.4,1.3-8.2,2.2-14.4,2.6c-6.2,0.5-14.4,0.7-24.4,0.7c-10.8,0-19.3-0.4-25.3-1.1c-6.1-0.7-10.4-2.4-12.7-5.1c-2.3-2.7-3.2-6.5-2.4-11.5c0.7-5,2.4-11.5,5.3-19.8L388.9,171c1.4-4,3.1-7.2,5-9.7c1.9-2.4,4.9-4.3,9-5.6c4.1-1.3,9.8-2.1,17-2.4c7.3-0.4,17-0.5,28.9-0.5c13.9,0,24.9,0.2,33.1,0.5c8.2,0.4,14.6,1.2,19.2,2.4c4.6,1.3,7.8,3.2,9.8,5.8c2,2.6,3.7,6.1,5.1,10.6L656.9,576.2z M447.7,241.8h-0.4l-64.5,193.7h129.3L447.7,241.8z"/><path d="M264.2,454.2c1.1,3.2,1.7,5.7,2,7.5c0.3,1.8-0.1,3.2-1.1,4.1c-1,0.9-2.7,1.5-5.1,1.7c-2.4,0.2-5.9,0.4-10.2,0.4c-4.5,0-8-0.1-10.5-0.2c-2.4-0.1-4.4-0.4-5.8-0.8s-2.3-0.9-2.8-1.6s-1-1.6-1.4-2.8l-11.5-34.4h-64.2l-10.8,33.5c-0.4,1.3-0.8,2.3-1.4,3.1c-0.5,0.8-1.5,1.5-2.8,2c-1.3,0.5-3.1,0.8-5.4,1s-5.4,0.3-9.2,0.3c-4.1,0-7.2-0.1-9.5-0.4c-2.3-0.3-3.9-0.9-4.8-1.9c-0.9-1-1.2-2.4-0.9-4.3s0.9-4.3,2-7.4l52.7-151.7c0.5-1.5,1.2-2.7,1.9-3.6s1.8-1.6,3.3-2.1c1.5-0.5,3.7-0.8,6.4-0.9c2.7-0.1,6.3-0.2,10.8-0.2c5.2,0,9.4,0.1,12.4,0.2c3.1,0.1,5.5,0.5,7.2,0.9c1.7,0.5,3,1.2,3.7,2.2c0.7,1,1.4,2.3,1.9,4L264.2,454.2z M185.7,328.8L185.7,328.8l-24.3,72.7H210L185.7,328.8z"/></svg>
