<?xml version="1.0" encoding="ISO-8859-1" standalone="no"?>
<!DOCTYPE svg PUBLIC "-//W3C//DTD SVG 20010904//EN"
"http://www.w3.org/TR/2001/REC-SVG-20010904/DTD/svg10.dtd">
<svg xmlns="http://www.w3.org/2000/svg"
 xmlns:xlink="http://www.w3.org/1999/xlink" xml:space="preserve"
 width="1000px" height="1000px"
 viewBox="0 0 1000 1000" >
 <line style="stroke:black;stroke-width:5;" x1="1000.0" y1="886.7295401694901" x2="1000.0" y2="1000.0" />
 <line style="stroke:black;stroke-width:5;" x1="773.4590803390066" y1="1000.0" x2="726.5409196609698" y2="1000.0" />
 <line style="stroke-dasharray: 15, 10;stroke:red;stroke-width:4;" x1="226.54091966115863" y1="613.2704598304667" x2="273.4590803391245" y2="660.18862050846" />
 <line style="stroke-dasharray: 15, 10;stroke:red;stroke-width:4;" x1="386.7295401696051" y1="773.4590803390064" x2="339.8113794915446" y2="726.5409196609187" />
 <line style="stroke:black;stroke-width:5;" x1="500.0" y1="1000.0" x2="613.2704598304667" y2="1000.0" />
 <line style="stroke:black;stroke-width:5;" x1="726.5409196609698" y1="1000.0" x2="613.2704598304667" y2="1000.0" />
 <line style="stroke:blue;stroke-width:4;stroke-opacity:1" x1="386.7295401696052" y1="773.4590803390065" x2="500.00000000003183" y2="886.7295401694992" />
 <line style="stroke:blue;stroke-width:4;stroke-opacity:1" x1="339.8113794914989" y1="886.7295401695001" x2="500.0000000000318" y2="886.7295401694976" />
 <line style="stroke-dasharray: 15, 10;stroke:red;stroke-width:4;" x1="613.2704598304667" y1="1000.0" x2="500.0000000000318" y2="886.7295401694992" />
 <line style="stroke:blue;stroke-width:4;stroke-opacity:1" x1="500.0000000000318" y1="886.7295401694937" x2="500.00000000001864" y2="726.540919660916" />
 <line style="stroke:blue;stroke-width:4;stroke-opacity:1" x1="500.0000000000093" y1="613.2704598304667" x2="500.0000000000132" y2="660.18862050857" />
 <line style="stroke-dasharray: 15, 10;stroke:red;stroke-width:4;" x1="500.00000000001864" y1="726.540919660916" x2="500.0000000000132" y2="660.1886205085701" />
 <line style="stroke:blue;stroke-width:4;stroke-opacity:1" x1="226.54091966115863" y1="613.2704598304667" x2="113.27045983053489" y2="499.99999999977706" />
 <line style="stroke:blue;stroke-width:4;stroke-opacity:1" x1="113.27045983049999" y1="660.1886205085125" x2="113.27045983050243" y2="499.99999999977695" />
 <line style="stroke:blue;stroke-width:4;stroke-opacity:1" x1="113.27045983041683" y1="499.99999999977695" x2="273.4590803395587" y2="499.9999999998694" />
 <line style="stroke:blue;stroke-width:4;stroke-opacity:1" x1="386.72954016953315" y1="499.9999999999347" x2="339.8113794920813" y2="499.99999999990763" />
 <line style="stroke-dasharray: 15, 10;stroke:red;stroke-width:4;" x1="273.45908033955874" y1="499.9999999998694" x2="339.8113794920813" y2="499.99999999990763" />
 <line style="stroke-dasharray: 15, 10;stroke:red;stroke-width:4;" x1="499.99999999990195" y1="660.1886205085239" x2="613.2704598304667" y2="613.2704598304668" />
 <line style="stroke-dasharray: 15, 10;stroke:red;stroke-width:4;" x1="500.0000000000093" y1="613.2704598304667" x2="500.00000000000546" y2="566.3522991526659" />
 <line style="stroke:blue;stroke-width:4;stroke-opacity:1" x1="613.2704598304667" y1="500.00000000000006" x2="566.3522991524496" y2="500.00000000000006" />
 <line style="stroke:blue;stroke-width:4;stroke-opacity:1" x1="500.00000000000546" y1="566.3522991526659" x2="533.1761495762803" y2="533.1761495762803" />
 <line style="stroke-dasharray: 15, 10;stroke:red;stroke-width:4;" x1="533.1761495762803" y1="533.1761495762803" x2="566.3522991524496" y2="500.0" />
 <line style="stroke-dasharray: 15, 10;stroke:red;stroke-width:4;" x1="386.72954016953315" y1="499.9999999999347" x2="433.64770084652133" y2="499.9999999999618" />
 <line style="stroke:blue;stroke-width:4;stroke-opacity:1" x1="499.99999999999994" y1="386.72954016953315" x2="499.99999999999994" y2="433.6477008475512" />
 <line style="stroke:blue;stroke-width:4;stroke-opacity:1" x1="433.64770084652133" y1="499.9999999999618" x2="466.8238504235086" y2="466.82385042350853" />
 <line style="stroke-dasharray: 15, 10;stroke:red;stroke-width:4;" x1="466.8238504235086" y1="466.82385042350853" x2="500.00000000000136" y2="433.6477008475498" />
 <line style="stroke-dasharray: 15, 10;stroke:red;stroke-width:4;" x1="339.8113794920812" y1="499.9999999999079" x2="386.72954016953315" y2="386.72954016953315" />
 <line style="stroke:black;stroke-width:5;" x1="0.0" y1="226.54091966099344" x2="0.0" y2="386.7295401691763" />
 <line style="stroke-dasharray: 15, 10;stroke:red;stroke-width:4;" x1="113.27045983053483" y1="499.99999999977695" x2="0.0" y2="386.7295401691763" />
 <line style="stroke:black;stroke-width:5;" x1="113.27045983051221" y1="0.0" x2="0.0" y2="0.0" />
 <line style="stroke-dasharray: 15, 10;stroke:red;stroke-width:4;" x1="0.0" y1="386.7295401691763" x2="113.27045983051227" y2="273.4590803388869" />
 <line style="stroke:blue;stroke-width:4;stroke-opacity:1" x1="113.27045983051221" y1="113.27045983051221" x2="113.27045983051221" y2="273.4590803388869" />
 <line style="stroke-dasharray: 15, 10;stroke:red;stroke-width:4;" x1="500.00000000000136" y1="433.6477008475498" x2="386.7295401695332" y2="386.7295401695332" />
 <line style="stroke-dasharray: 15, 10;stroke:red;stroke-width:4;" x1="113.27045983041694" y1="499.99999999977695" x2="386.72954016953327" y2="386.72954016953315" />
 <line style="stroke:blue;stroke-width:4;stroke-opacity:1" x1="386.72954016953315" y1="499.9999999999347" x2="386.72954016953315" y2="386.72954016953327" />
 <line style="stroke:blue;stroke-width:4;stroke-opacity:1" x1="273.4590803395588" y1="499.99999999986926" x2="386.7295401695332" y2="386.72954016953315" />
 <line style="stroke-dasharray: 15, 10;stroke:red;stroke-width:4;" x1="433.64770084652133" y1="499.9999999999618" x2="386.72954016953315" y2="386.7295401695332" />
 <line style="stroke:blue;stroke-width:4;stroke-opacity:1" x1="466.8238504235086" y1="466.82385042350853" x2="386.72954016953327" y2="386.7295401695332" />
 <line style="stroke:blue;stroke-width:4;stroke-opacity:1" x1="0.0" y1="386.7295401691763" x2="386.72954016953327" y2="386.72954016953315" />
 <line style="stroke-dasharray: 15, 10;stroke:red;stroke-width:4;" x1="113.27045983051221" y1="273.4590803388869" x2="386.7295401695332" y2="386.72954016953315" />
 <line style="stroke:blue;stroke-width:4;stroke-opacity:1" x1="613.2704598304667" y1="1000.0" x2="613.2704598304667" y2="613.2704598304668" />
 <line style="stroke-dasharray: 15, 10;stroke:red;stroke-width:4;" x1="500.0000000000318" y1="886.7295401694937" x2="613.2704598304667" y2="613.2704598304668" />
 <line style="stroke:blue;stroke-width:4;stroke-opacity:1" x1="500.0000000000093" y1="613.2704598304667" x2="613.270459830467" y2="613.2704598304667" />
 <line style="stroke:blue;stroke-width:4;stroke-opacity:1" x1="500.0000000000193" y1="726.5409196609153" x2="613.2704598304667" y2="613.2704598304668" />
 <line style="stroke-dasharray: 15, 10;stroke:red;stroke-width:4;" x1="500.00000000015604" y1="566.3522991525153" x2="613.2704598304668" y2="613.2704598304668" />
 <line style="stroke:blue;stroke-width:4;stroke-opacity:1" x1="533.1761495762803" y1="533.1761495762803" x2="613.2704598304668" y2="613.2704598304668" />
 <line style="stroke-dasharray: 15, 10;stroke:red;stroke-width:4;" x1="566.3522991524496" y1="500.0" x2="613.2704598304667" y2="613.2704598304668" />
 <line style="stroke:blue;stroke-width:4;stroke-opacity:1" x1="613.2704598304667" y1="613.2704598304668" x2="693.3647700847227" y2="580.094310254236" />
 <line style="stroke:blue;stroke-width:4;stroke-opacity:1" x1="386.7295401695332" y1="386.72954016953315" x2="419.9056897457645" y2="306.6352299152775" />
 <line style="stroke:blue;stroke-width:4;stroke-opacity:1" x1="613.2704598304668" y1="613.2704598304668" x2="773.4590803390068" y2="773.4590803390068" />
 <line style="stroke-dasharray: 15, 10;stroke:red;stroke-width:4;" x1="693.3647700847227" y1="580.094310254236" x2="773.4590803390068" y2="773.4590803390065" />
 <line style="stroke-dasharray: 15, 10;stroke:red;stroke-width:4;" x1="419.9056897457645" y1="306.6352299152775" x2="453.08183932199927" y2="226.5409196610135" />
 <line style="stroke-dasharray: 15, 10;stroke:red;stroke-width:4;" x1="693.3647700847227" y1="580.094310254236" x2="773.4590803389792" y2="546.9181606780048" />
 <line style="stroke:blue;stroke-width:4;stroke-opacity:1" x1="773.4590803390068" y1="773.4590803390065" x2="773.4590803389801" y2="546.9181606780057" />
 <line style="stroke:blue;stroke-width:4;stroke-opacity:1" x1="773.4590803390065" y1="386.72954016946505" x2="886.729540169474" y2="499.99999999992906" />
 <line style="stroke-dasharray: 15, 10;stroke:red;stroke-width:4;" x1="773.4590803390068" y1="773.4590803390065" x2="886.7295401695327" y2="499.999999999929" />
 <line style="stroke:blue;stroke-width:4;stroke-opacity:1" x1="773.4590803389792" y1="546.9181606780048" x2="886.7295401695911" y2="499.999999999929" />
 <line style="stroke-dasharray: 15, 10;stroke:red;stroke-width:4;" x1="886.7295401694739" y1="499.999999999929" x2="1000.0" y2="500.0" />
 <line style="stroke:black;stroke-width:5;" x1="453.0818393219806" y1="0.0" x2="500.0" y2="0.0" />
 <line style="stroke:blue;stroke-width:4;stroke-opacity:1" x1="339.81137949146614" y1="113.27045983051761" x2="500.00000000002376" y2="113.27045983051761" />
 <line style="stroke:blue;stroke-width:4;stroke-opacity:1" x1="613.2704598304672" y1="226.54091966093063" x2="500.00000000002376" y2="113.27045983049068" />
 <line style="stroke:blue;stroke-width:4;stroke-opacity:1" x1="453.08183932199927" y1="226.5409196610135" x2="500.00000000002376" y2="113.2704598305272" />
 <line style="stroke-dasharray: 15, 10;stroke:red;stroke-width:4;" x1="500.00000000002376" y1="113.27045983049075" x2="500.0" y2="0.0" />
 <line style="stroke:blue;stroke-width:4;stroke-opacity:1" x1="773.4590803390068" y1="773.4590803390065" x2="886.7295401695242" y2="660.1886205084884" />
 <line style="stroke:blue;stroke-width:4;stroke-opacity:1" x1="886.7295401695242" y1="499.999999999929" x2="886.7295401695242" y2="660.1886205084884" />
 <line style="stroke:black;stroke-width:5;" x1="1000.0" y1="886.7295401694901" x2="1000.0" y2="773.4590803390064" />
 <line style="stroke:blue;stroke-width:4;stroke-opacity:1" x1="113.27045983051221" y1="273.4590803388869" x2="226.54091966099344" y2="226.54091966099344" />
 <line style="stroke:blue;stroke-width:4;stroke-opacity:1" x1="386.7295401695332" y1="386.7295401695332" x2="226.54091966099344" y2="226.54091966099344" />
 <line style="stroke:blue;stroke-width:4;stroke-opacity:1" x1="339.81137949146614" y1="113.27045983051761" x2="226.54091966099344" y2="226.54091966099344" />
 <line style="stroke-dasharray: 15, 10;stroke:red;stroke-width:4;" x1="419.9056897457645" y1="306.6352299152775" x2="226.54091966099344" y2="226.54091966099344" />
 <line style="stroke:blue;stroke-width:4;stroke-opacity:1" x1="453.08183932199927" y1="226.5409196610135" x2="226.54091966099344" y2="226.54091966099344" />
 <line style="stroke-dasharray: 15, 10;stroke:red;stroke-width:4;" x1="500.00000000002376" y1="113.27045983049082" x2="226.54091966099344" y2="226.54091966099344" />
 <line style="stroke:black;stroke-width:5;" x1="113.27045983051221" y1="0.0" x2="226.54091966099367" y2="0.0" />
 <line style="stroke:blue;stroke-width:4;stroke-opacity:1" x1="500.00000000002376" y1="113.27045983051761" x2="660.1886205085756" y2="113.27045983051761" />
 <line style="stroke:black;stroke-width:5;" x1="886.7295401695242" y1="0.0" x2="773.4590803389335" y2="0.0" />
 <line style="stroke:blue;stroke-width:4;stroke-opacity:1" x1="773.4590803390065" y1="113.27045983051761" x2="773.4590803390065" y2="1.7642776128923288E-10" />
 <line style="stroke:blue;stroke-width:4;stroke-opacity:1" x1="886.7295401695242" y1="499.99999999992906" x2="886.7295401695242" y2="339.8113794915116" />
 <line style="stroke:blue;stroke-width:4;stroke-opacity:1" x1="886.7295401695242" y1="226.54091966099344" x2="1000.0" y2="226.54091966099344" />
 <line style="stroke:black;stroke-width:5;" x1="1000.0" y1="113.27045983051761" x2="1000.0" y2="226.54091966099347" />
 <line style="stroke:blue;stroke-width:4;stroke-opacity:1" x1="773.4590803390068" y1="773.4590803390065" x2="886.7295401695208" y2="773.4590803390065" />
 <line style="stroke:blue;stroke-width:4;stroke-opacity:1" x1="1000.0" y1="773.4590803390065" x2="886.7295401695208" y2="773.4590803390065" />
 <line style="stroke:blue;stroke-width:4;stroke-opacity:1" x1="226.54091966099344" y1="226.54091966099344" x2="226.54091966099344" y2="113.27045983050866" />
 <line style="stroke:blue;stroke-width:4;stroke-opacity:1" x1="226.54091966099344" y1="-6.394884621840902E-13" x2="226.54091966099344" y2="113.27045983050866" />
 <line style="stroke:blue;stroke-width:4;stroke-opacity:1" x1="886.7295401695242" y1="339.8113794915116" x2="919.905689745766" y2="306.63522991525736" />
 <line style="stroke:blue;stroke-width:4;stroke-opacity:1" x1="1000.0" y1="226.54091966099338" x2="919.905689745766" y2="306.63522991525736" />
 <line style="stroke:black;stroke-width:5;" x1="1000.0" y1="500.0" x2="1000.0" y2="339.8113794914707" />
 <line style="stroke:black;stroke-width:5;" x1="1000.0" y1="226.54091966099347" x2="1000.0" y2="339.8113794914707" />
 <line style="stroke-dasharray: 15, 10;stroke:red;stroke-width:4;" x1="886.7295401695328" y1="499.99999999992906" x2="953.0818393219813" y2="339.8113794914601" />
 <line style="stroke-dasharray: 15, 10;stroke:red;stroke-width:4;" x1="1000.0" y1="226.54091966099338" x2="953.0818393219813" y2="339.8113794914601" />
 <line style="stroke-dasharray: 15, 10;stroke:red;stroke-width:4;" x1="919.905689745766" y1="306.63522991525736" x2="953.0818393219813" y2="339.8113794914601" />
 <line style="stroke:blue;stroke-width:4;stroke-opacity:1" x1="953.0818393219813" y1="339.8113794914601" x2="1000.0" y2="339.8113794914707" />
 <line style="stroke:blue;stroke-width:4;stroke-opacity:1" x1="660.1886205085756" y1="113.27045983051761" x2="693.3647700847539" y2="80.09431025430601" />
 <line style="stroke:blue;stroke-width:4;stroke-opacity:1" x1="773.4590803389469" y1="3.268496584496461E-11" x2="693.3647700847539" y2="80.09431025430601" />
 <line style="stroke:black;stroke-width:5;" x1="500.0" y1="0.0" x2="660.1886205083387" y2="0.0" />
 <line style="stroke:black;stroke-width:5;" x1="773.4590803389335" y1="0.0" x2="660.1886205083387" y2="0.0" />
 <line style="stroke-dasharray: 15, 10;stroke:red;stroke-width:4;" x1="500.00000000002376" y1="113.27045983049075" x2="660.1886205083387" y2="46.91816067810841" />
 <line style="stroke-dasharray: 15, 10;stroke:red;stroke-width:4;" x1="773.4590803389469" y1="3.26139115713886E-11" x2="660.1886205083387" y2="46.91816067810841" />
 <line style="stroke-dasharray: 15, 10;stroke:red;stroke-width:4;" x1="693.3647700847539" y1="80.09431025430601" x2="660.1886205083387" y2="46.91816067810848" />
 <line style="stroke:blue;stroke-width:4;stroke-opacity:1" x1="660.1886205083387" y1="46.91816067810848" x2="660.1886205083387" y2="0.0" />
 <line style="stroke:blue;stroke-width:4;stroke-opacity:1" x1="773.4590803388818" y1="-1.248423586730496E-10" x2="853.5533905932798" y2="80.09431025427318" />
 <line style="stroke:blue;stroke-width:4;stroke-opacity:1" x1="1000.0" y1="226.54091966099344" x2="919.9056897457472" y2="146.44660940674066" />
 <line style="stroke-dasharray: 15, 10;stroke:red;stroke-width:4;" x1="773.4590803390065" y1="113.27045983051761" x2="820.3772410170266" y2="113.27045983051761" />
 <line style="stroke-dasharray: 15, 10;stroke:red;stroke-width:4;" x1="773.4590803389469" y1="3.26139115713886E-11" x2="820.3772410170266" y2="113.27045983051761" />
 <line style="stroke:blue;stroke-width:4;stroke-opacity:1" x1="853.5533905932798" y1="80.09431025427318" x2="820.3772410170266" y2="113.27045983051761" />
 <line style="stroke-dasharray: 15, 10;stroke:red;stroke-width:4;" x1="886.7295401695242" y1="226.54091966099344" x2="886.7295401695242" y2="179.62275898295744" />
 <line style="stroke-dasharray: 15, 10;stroke:red;stroke-width:4;" x1="1000.0" y1="226.54091966099344" x2="886.729540169524" y2="179.62275898295724" />
 <line style="stroke:blue;stroke-width:4;stroke-opacity:1" x1="919.9056897457472" y1="146.44660940674066" x2="886.7295401695242" y2="179.62275898295735" />
 <line style="stroke:blue;stroke-width:4;stroke-opacity:1" x1="886.7295401695242" y1="0.0" x2="886.7295401695242" y2="46.91816067803764" />
 <line style="stroke-dasharray: 15, 10;stroke:red;stroke-width:4;" x1="773.4590803389144" y1="-4.604316927725449E-11" x2="886.7295401695242" y2="46.918160678037566" />
 <line style="stroke-dasharray: 15, 10;stroke:red;stroke-width:4;" x1="853.5533905932798" y1="80.09431025427318" x2="886.7295401695242" y2="46.918160678037566" />
 <line style="stroke:blue;stroke-width:4;stroke-opacity:1" x1="1000.0" y1="113.27045983051761" x2="953.0818393219763" y2="113.27045983051761" />
 <line style="stroke-dasharray: 15, 10;stroke:red;stroke-width:4;" x1="1000.0" y1="226.5409196609934" x2="953.0818393219765" y2="113.27045983051768" />
 <line style="stroke-dasharray: 15, 10;stroke:red;stroke-width:4;" x1="919.9056897457472" y1="146.44660940674066" x2="953.0818393219763" y2="113.27045983051768" />
 <line style="stroke:blue;stroke-width:4;stroke-opacity:1" x1="773.4590803390065" y1="113.27045983051761" x2="726.5409196609988" y2="113.27045983051761" />
 <line style="stroke-dasharray: 15, 10;stroke:red;stroke-width:4;" x1="660.1886205085756" y1="113.27045983051761" x2="726.5409196609988" y2="113.27045983051761" />
 <line style="stroke-dasharray: 15, 10;stroke:red;stroke-width:4;" x1="773.4590803389469" y1="3.26139115713886E-11" x2="726.5409196609988" y2="113.27045983051761" />
 <line style="stroke:blue;stroke-width:4;stroke-opacity:1" x1="693.3647700847539" y1="80.09431025430601" x2="726.5409196609988" y2="113.27045983051761" />
 <line style="stroke-dasharray: 15, 10;stroke:red;stroke-width:4;" x1="693.364770084774" y1="146.4466094067292" x2="726.5409196609988" y2="113.27045983051761" />
 <line style="stroke:blue;stroke-width:4;stroke-opacity:1" x1="660.1886205085757" y1="113.27045983051761" x2="693.3647700847741" y2="146.4466094067292" />
 <line style="stroke-dasharray: 15, 10;stroke:red;stroke-width:4;" x1="500.00000000002376" y1="113.27045983050645" x2="660.1886205085228" y2="179.62275898296753" />
 <line style="stroke:blue;stroke-width:4;stroke-opacity:1" x1="693.364770084774" y1="146.4466094067292" x2="660.1886205085228" y2="179.62275898296753" />
 <line style="stroke-dasharray: 15, 10;stroke:red;stroke-width:4;" x1="660.1886205085314" y1="226.54091966099344" x2="660.1886205085228" y2="179.62275898296753" />
 <line style="stroke:blue;stroke-width:4;stroke-opacity:1" x1="613.27045983053" y1="226.54091966099344" x2="660.1886205085314" y2="226.54091966099344" />
 <line style="stroke:blue;stroke-width:4;stroke-opacity:1" x1="773.4590803390065" y1="386.72954016946505" x2="773.4590803390066" y2="339.8113794914809" />
 <line style="stroke-dasharray: 15, 10;stroke:red;stroke-width:4;" x1="886.729540169474" y1="499.999999999929" x2="820.3772410170337" y2="339.81137949148024" />
 <line style="stroke-dasharray: 15, 10;stroke:red;stroke-width:4;" x1="773.4590803390065" y1="339.8113794914809" x2="820.3772410170337" y2="339.81137949148024" />
 <line style="stroke:blue;stroke-width:4;stroke-opacity:1" x1="820.3772410170337" y1="339.81137949148024" x2="853.5533905932629" y2="306.63522991525" />
 <line style="stroke:blue;stroke-width:4;stroke-opacity:1" x1="886.7295401695242" y1="226.54091966099344" x2="886.7295401695242" y2="273.4590803389888" />
 <line style="stroke-dasharray: 15, 10;stroke:red;stroke-width:4;" x1="886.7295401695242" y1="339.8113794915116" x2="886.7295401695242" y2="273.4590803389888" />
 <line style="stroke-dasharray: 15, 10;stroke:red;stroke-width:4;" x1="1000.0" y1="226.5409196609934" x2="886.7295401694521" y2="273.45908033906096" />
 <line style="stroke:blue;stroke-width:4;stroke-opacity:1" x1="919.905689745766" y1="306.63522991525736" x2="886.7295401695046" y2="273.4590803390083" />
 <line style="stroke:blue;stroke-width:4;stroke-opacity:1" x1="886.7295401695242" y1="339.8113794915116" x2="853.5533905932627" y2="306.63522991525" />
 <line style="stroke-dasharray: 15, 10;stroke:red;stroke-width:4;" x1="853.5533905932629" y1="306.63522991525" x2="886.7295401694521" y2="273.45908033906096" />
 <line style="stroke-dasharray: 15, 10;stroke:red;stroke-width:4;" x1="613.2704598304672" y1="226.54091966093063" x2="660.1886205085078" y2="273.45908033896984" />
 <line style="stroke:blue;stroke-width:4;stroke-opacity:1" x1="660.1886205085314" y1="226.54091966099344" x2="660.1886205085233" y2="273.45908033896984" />
 <line style="stroke-dasharray: 15, 10;stroke:red;stroke-width:4;" x1="613.2704598304672" y1="273.4590803389949" x2="660.1886205085233" y2="273.45908033896984" />
 <line style="stroke:blue;stroke-width:4;stroke-opacity:1" x1="613.2704598304672" y1="226.54091966093063" x2="613.2704598304672" y2="273.4590803389949" />
 <line style="stroke-dasharray: 15, 10;stroke:red;stroke-width:4;" x1="500.00000000002376" y1="113.2704598304526" x2="566.3522991524428" y2="273.45908033896984" />
 <line style="stroke:blue;stroke-width:4;stroke-opacity:1" x1="613.2704598304672" y1="273.4590803389949" x2="566.3522991524429" y2="273.45908033896984" />
 <line style="stroke-dasharray: 15, 10;stroke:red;stroke-width:4;" x1="533.1761495761881" y1="306.63522991522836" x2="566.3522991524428" y2="273.45908033896984" />
 <line style="stroke:blue;stroke-width:4;stroke-opacity:1" x1="453.08183932199927" y1="226.5409196610135" x2="533.1761495761881" y2="306.6352299152284" />
 <line style="stroke:blue;stroke-width:4;stroke-opacity:1" x1="386.72954016953327" y1="386.72954016953315" x2="499.9999999999294" y2="386.72954016953315" />
 <line style="stroke-dasharray: 15, 10;stroke:red;stroke-width:4;" x1="419.9056897457645" y1="306.6352299152775" x2="499.99999999991843" y2="339.8113794914734" />
 <line style="stroke:blue;stroke-width:4;stroke-opacity:1" x1="533.1761495761881" y1="306.6352299152284" x2="499.99999999991843" y2="339.8113794914734" />
 <line style="stroke-dasharray: 15, 10;stroke:red;stroke-width:4;" x1="499.9999999999294" y1="386.72954016953315" x2="499.99999999991843" y2="339.8113794914734" />
 <line style="stroke-dasharray: 15, 10;stroke:red;stroke-width:4;" x1="773.4590803390065" y1="386.72954016946505" x2="726.540919661021" y2="339.8113794914809" />
 <line style="stroke:blue;stroke-width:4;stroke-opacity:1" x1="773.4590803390065" y1="339.8113794914809" x2="726.540919661021" y2="339.8113794914809" />
 <line style="stroke-dasharray: 15, 10;stroke:red;stroke-width:4;" x1="726.540919661021" y1="386.72954016953315" x2="726.540919661021" y2="339.8113794914809" />
 <line style="stroke:blue;stroke-width:4;stroke-opacity:1" x1="773.4590803390746" y1="386.72954016953315" x2="726.540919661021" y2="386.72954016953315" />
 <line style="stroke-dasharray: 15, 10;stroke:red;stroke-width:4;" x1="886.7295401694741" y1="499.999999999929" x2="726.5409196611571" y2="433.64770084760266" />
 <line style="stroke:blue;stroke-width:4;stroke-opacity:1" x1="726.540919661021" y1="386.72954016953315" x2="726.5409196611571" y2="433.64770084760266" />
 <line style="stroke-dasharray: 15, 10;stroke:red;stroke-width:4;" x1="693.3647700847807" y1="466.8238504238267" x2="726.5409196611571" y2="433.64770084760266" />
 <line style="stroke:blue;stroke-width:4;stroke-opacity:1" x1="773.4590803389801" y1="546.9181606780057" x2="693.3647700847807" y2="466.8238504238267" />
 <line style="stroke:blue;stroke-width:4;stroke-opacity:1" x1="613.2704598304667" y1="613.2704598304668" x2="613.2704598304667" y2="500.00000000008816" />
 <line style="stroke-dasharray: 15, 10;stroke:red;stroke-width:4;" x1="693.3647700847227" y1="580.094310254236" x2="660.1886205085762" y2="500.00000000020117" />
 <line style="stroke:blue;stroke-width:4;stroke-opacity:1" x1="693.3647700847807" y1="466.8238504238267" x2="660.1886205085762" y2="500.00000000020117" />
 <line style="stroke-dasharray: 15, 10;stroke:red;stroke-width:4;" x1="613.2704598304667" y1="500.00000000008816" x2="660.1886205085762" y2="500.00000000020117" />
 <line style="stroke-dasharray: 15, 10;stroke:red;stroke-width:4;" x1="1000.0" y1="773.4590803390065" x2="886.7295401695155" y2="820.377241017025" />
 <line style="stroke:blue;stroke-width:4;stroke-opacity:1" x1="1000.0000000000001" y1="773.4590803390065" x2="919.9056897457415" y2="853.5533905932488" />
 <line style="stroke-dasharray: 15, 10;stroke:red;stroke-width:4;" x1="886.7295401694918" y1="886.7295401694918" x2="953.081839321974" y2="886.7295401694907" />
 <line style="stroke-dasharray: 15, 10;stroke:red;stroke-width:4;" x1="1000.0" y1="1000.0" x2="953.081839321966" y2="886.7295401694986" />
 <line style="stroke-dasharray: 15, 10;stroke:red;stroke-width:4;" x1="1000.0" y1="773.4590803390065" x2="953.0818393219711" y2="886.7295401694936" />
 <line style="stroke:blue;stroke-width:4;stroke-opacity:1" x1="919.905689745745" y1="919.905689745745" x2="953.0818393219711" y2="886.7295401694936" />
 <line style="stroke:blue;stroke-width:4;stroke-opacity:1" x1="1000.0" y1="1000.0" x2="919.905689745745" y2="919.905689745745" />
 <line style="stroke:black;stroke-width:5;" x1="773.4590803390066" y1="1000.0" x2="886.729540169514" y2="1000.0" />
 <line style="stroke:black;stroke-width:5;" x1="1000.0" y1="1000.0" x2="886.729540169514" y2="1000.0" />
 <line style="stroke-dasharray: 15, 10;stroke:red;stroke-width:4;" x1="1000.0" y1="1000.0" x2="886.7295401694979" y2="953.0818393219668" />
 <line style="stroke-dasharray: 15, 10;stroke:red;stroke-width:4;" x1="919.905689745745" y1="919.905689745745" x2="886.729540169498" y2="953.0818393219668" />
 <line style="stroke:blue;stroke-width:4;stroke-opacity:1" x1="886.729540169514" y1="1000.0" x2="886.7295401694979" y2="953.0818393219668" />
 <line style="stroke-dasharray: 15, 10;stroke:red;stroke-width:4;" x1="113.27045983051221" y1="273.4590803388869" x2="179.62275898294422" y2="113.27045983050596" />
 <line style="stroke-dasharray: 15, 10;stroke:red;stroke-width:4;" x1="226.54091966099355" y1="-2.8421709430404007E-13" x2="179.62275898294422" y2="113.27045983050596" />
 <line style="stroke:blue;stroke-width:4;stroke-opacity:1" x1="113.27045983051221" y1="113.27045983050425" x2="146.44660940673077" y2="80.09431025427887" />
 <line style="stroke:blue;stroke-width:4;stroke-opacity:1" x1="226.5409196609936" y1="-2.1316282072803006E-13" x2="146.44660940673083" y2="80.09431025427887" />
 <line style="stroke-dasharray: 15, 10;stroke:red;stroke-width:4;" x1="113.27045983051221" y1="113.27045983051221" x2="113.27045983051221" y2="46.91816067790015" />
 <line style="stroke-dasharray: 15, 10;stroke:red;stroke-width:4;" x1="0.0" y1="0.0" x2="113.27045983041893" y2="46.91816067799344" />
 <line style="stroke-dasharray: 15, 10;stroke:red;stroke-width:4;" x1="226.54091966099367" y1="-7.105427357601002E-14" x2="113.27045983029313" y2="46.918160678119136" />
 <line style="stroke:blue;stroke-width:4;stroke-opacity:1" x1="80.09431025428631" y1="80.09431025428633" x2="113.27045983041893" y2="46.91816067799344" />
 <line style="stroke:blue;stroke-width:4;stroke-opacity:1" x1="113.27045983051221" y1="113.27045983051221" x2="80.09431025428626" y2="80.09431025428626" />
 <line style="stroke:blue;stroke-width:4;stroke-opacity:1" x1="0.0" y1="0.0" x2="80.09431025428626" y2="80.09431025428626" />
 <line style="stroke:black;stroke-width:5;" x1="0.0" y1="226.54091966099344" x2="0.0" y2="113.27045983053011" />
 <line style="stroke:black;stroke-width:5;" x1="0.0" y1="0.0" x2="0.0" y2="113.27045983053011" />
 <line style="stroke-dasharray: 15, 10;stroke:red;stroke-width:4;" x1="0.0" y1="0.0" x2="46.91816067802108" y2="113.27045983040712" />
 <line style="stroke-dasharray: 15, 10;stroke:red;stroke-width:4;" x1="113.27045983051221" y1="273.4590803388869" x2="46.91816067802108" y2="113.27045983040712" />
 <line style="stroke-dasharray: 15, 10;stroke:red;stroke-width:4;" x1="80.09431025428626" y1="80.09431025428626" x2="46.91816067802108" y2="113.27045983040705" />
 <line style="stroke:blue;stroke-width:4;stroke-opacity:1" x1="0.0" y1="113.27045983053011" x2="46.91816067802108" y2="113.27045983040712" />
 <line style="stroke-dasharray: 15, 10;stroke:red;stroke-width:4;" x1="339.8113794914989" y1="886.7295401695001" x2="273.45908033902447" y2="886.7295401695012" />
 <line style="stroke:blue;stroke-width:4;stroke-opacity:1" x1="306.6352299152594" y1="919.9056897457369" x2="273.45908033902447" y2="886.7295401695012" />
 <line style="stroke-dasharray: 15, 10;stroke:red;stroke-width:4;" x1="113.27045983050004" y1="660.1886205085125" x2="113.27045983049902" y2="726.5409196609817" />
 <line style="stroke:blue;stroke-width:4;stroke-opacity:1" x1="113.27045983049464" y1="726.5409196609774" x2="80.09431025426352" y2="693.3647700847453" />
 <line style="stroke:blue;stroke-width:4;stroke-opacity:1" x1="339.811379491498" y1="886.7295401694992" x2="306.6352299152594" y2="919.9056897457369" />
 <line style="stroke:black;stroke-width:5;" x1="500.0" y1="1000.0" x2="339.8113794914924" y2="1000.0" />
 <line style="stroke-dasharray: 15, 10;stroke:red;stroke-width:4;" x1="500.00000000003183" y1="886.7295401694992" x2="339.8113794914931" y2="953.0818393219715" />
 <line style="stroke-dasharray: 15, 10;stroke:red;stroke-width:4;" x1="306.6352299152594" y1="919.9056897457369" x2="339.8113794914931" y2="953.0818393219715" />
 <line style="stroke:blue;stroke-width:4;stroke-opacity:1" x1="339.8113794914924" y1="1000.0" x2="339.8113794914931" y2="953.0818393219715" />
 <line style="stroke:blue;stroke-width:4;stroke-opacity:1" x1="113.27045983049862" y1="660.1886205085111" x2="80.09431025426352" y2="693.3647700847453" />
 <line style="stroke:black;stroke-width:5;" x1="0.0" y1="386.7295401691763" x2="0.0" y2="660.1886205085102" />
 <line style="stroke-dasharray: 15, 10;stroke:red;stroke-width:4;" x1="113.27045983058389" y1="499.99999999977706" x2="46.91816067802904" y2="660.18862050851" />
 <line style="stroke-dasharray: 15, 10;stroke:red;stroke-width:4;" x1="80.09431025426352" y1="693.3647700847453" x2="46.91816067802904" y2="660.18862050851" />
 <line style="stroke:blue;stroke-width:4;stroke-opacity:1" x1="0.0" y1="660.1886205085102" x2="46.91816067802904" y2="660.18862050851" />
 <line style="stroke-dasharray: 15, 10;stroke:red;stroke-width:4;" x1="113.27045983049629" y1="1000.0" x2="113.27045983049635" y2="953.0818393219636" />
 <line style="stroke:blue;stroke-width:4;stroke-opacity:1" x1="113.27045983049004" y1="953.0818393219698" x2="146.44660940672793" y2="919.9056897457351" />
 <line style="stroke:blue;stroke-width:4;stroke-opacity:1" x1="146.44660940672793" y1="919.9056897457351" x2="179.6227589829636" y2="886.7295401695026" />
 <line style="stroke-dasharray: 15, 10;stroke:red;stroke-width:4;" x1="0.0" y1="886.7295401695037" x2="46.918160678028414" y2="886.7295401695037" />
 <line style="stroke:blue;stroke-width:4;stroke-opacity:1" x1="46.918160678028414" y1="886.7295401695037" x2="80.09431025426261" y2="853.5533905932696" />
 <line style="stroke:blue;stroke-width:4;stroke-opacity:1" x1="80.09431025426261" y1="853.5533905932696" x2="113.27045983049629" y2="820.3772410170359" />
 <line style="stroke:black;stroke-width:5;" x1="113.27045983049629" y1="1000.0" x2="226.54091966099247" y2="1000.0" />
 <line style="stroke-dasharray: 15, 10;stroke:red;stroke-width:4;" x1="273.4590803390244" y1="886.7295401695012" x2="226.54091966099247" y2="1000.0000000000027" />
 <line style="stroke:blue;stroke-width:4;stroke-opacity:1" x1="306.6352299152594" y1="919.9056897457369" x2="226.54091966099247" y2="1000.0000000000017" />
 <line style="stroke:black;stroke-width:5;" x1="339.8113794914924" y1="1000.0" x2="226.54091966099247" y2="1000.0" />
 <line style="stroke-dasharray: 15, 10;stroke:red;stroke-width:4;" x1="339.8113794914931" y1="953.0818393219715" x2="226.54091966099247" y2="1000.0000000000009" />
 <line style="stroke-dasharray: 15, 10;stroke:red;stroke-width:4;" x1="146.44660940672793" y1="919.9056897457351" x2="226.54091966099247" y2="1000.0" />
 <line style="stroke-dasharray: 15, 10;stroke:red;stroke-width:4;" x1="179.6227589829636" y1="886.7295401695026" x2="226.54091966099247" y2="999.9999999999998" />
 <line style="stroke-dasharray: 15, 10;stroke:red;stroke-width:4;" x1="113.2704598304901" y1="953.0818393219698" x2="226.54091966099242" y2="1000.0" />
 <line style="stroke:black;stroke-width:5;" x1="0.0" y1="886.7295401695037" x2="0.0" y2="773.4590803390065" />
 <line style="stroke-dasharray: 15, 10;stroke:red;stroke-width:4;" x1="113.27045983049464" y1="726.5409196609774" x2="0.0" y2="773.4590803390065" />
 <line style="stroke:blue;stroke-width:4;stroke-opacity:1" x1="80.09431025426352" y1="693.3647700847453" x2="0.0" y2="773.4590803390065" />
 <line style="stroke:black;stroke-width:5;" x1="0.0" y1="660.1886205085102" x2="0.0" y2="773.4590803390065" />
 <line style="stroke-dasharray: 15, 10;stroke:red;stroke-width:4;" x1="46.91816067802904" y1="660.18862050851" x2="0.0" y2="773.4590803390065" />
 <line style="stroke-dasharray: 15, 10;stroke:red;stroke-width:4;" x1="80.09431025426261" y1="853.5533905932696" x2="0.0" y2="773.4590803390065" />
 <line style="stroke-dasharray: 15, 10;stroke:red;stroke-width:4;" x1="113.27045983049629" y1="820.3772410170359" x2="0.0" y2="773.4590803390065" />
 <line style="stroke-dasharray: 15, 10;stroke:red;stroke-width:4;" x1="46.918160678028414" y1="886.7295401695037" x2="0.0" y2="773.4590803390065" />
 <line style="stroke-dasharray: 15, 10;stroke:red;stroke-width:4;" x1="613.2704598304667" y1="1000.0" x2="726.5409196609698" y2="886.7295401694942" />
 <line style="stroke-dasharray: 15, 10;stroke:red;stroke-width:4;" x1="613.2704598304667" y1="613.2704598304668" x2="726.5409196609698" y2="886.7295401694942" />
 <line style="stroke:blue;stroke-width:4;stroke-opacity:1" x1="773.4590803390068" y1="773.4590803390065" x2="726.5409196609698" y2="886.7295401694942" />
 <line style="stroke-dasharray: 15, 10;stroke:red;stroke-width:4;" x1="886.7295401695155" y1="820.377241017025" x2="726.5409196609696" y2="886.7295401694942" />
 <line style="stroke:blue;stroke-width:4;stroke-opacity:1" x1="919.9056897457415" y1="853.5533905932488" x2="886.7295401694918" y2="886.7295401694918" />
 <line style="stroke:blue;stroke-width:4;stroke-opacity:1" x1="919.905689745745" y1="919.905689745745" x2="886.7295401694918" y2="886.7295401694918" />
 <line style="stroke-dasharray: 15, 10;stroke:red;stroke-width:4;" x1="886.7295401694979" y1="953.0818393219668" x2="726.5409196609698" y2="886.7295401694942" />
 <line style="stroke:blue;stroke-width:4;stroke-opacity:1" x1="726.5409196609698" y1="886.7295401694942" x2="886.7295401694918" y2="886.7295401694918" />
 <line style="stroke:black;stroke-width:5;" x1="113.27045983049629" y1="1000.0" x2="-5.6843418860808015E-14" y2="1000.0000000000001" />
 <line style="stroke:black;stroke-width:5;" x1="0.0" y1="886.7295401695037" x2="0.0" y2="1000.0" />
 <line style="stroke-dasharray: 15, 10;stroke:red;stroke-width:4;" x1="500.0000000000318" y1="886.7295401694937" x2="386.7295401694822" y2="613.2704598305178" />
 <line style="stroke:blue;stroke-width:4;stroke-opacity:1" x1="499.9999999999131" y1="726.5409196610216" x2="386.72954016914923" y2="613.2704598308508" />
 <line style="stroke:blue;stroke-width:4;stroke-opacity:1" x1="226.54091966115863" y1="613.2704598304667" x2="386.72954016953315" y2="613.2704598304667" />
 <line style="stroke:blue;stroke-width:4;stroke-opacity:1" x1="386.7295401696051" y1="773.4590803390065" x2="386.7295401696052" y2="613.2704598303949" />
 <line style="stroke:blue;stroke-width:4;stroke-opacity:1" x1="500.0000000000093" y1="613.2704598304667" x2="386.72954016953327" y2="613.2704598304667" />
 <line style="stroke-dasharray: 15, 10;stroke:red;stroke-width:4;" x1="500.00000000001364" y1="660.1886205085702" x2="386.72954016881624" y2="613.2704598311836" />
 <line style="stroke-dasharray: 15, 10;stroke:red;stroke-width:4;" x1="113.2704598308203" y1="499.99999999977695" x2="386.7295401693083" y2="613.2704598306917" />
 <line style="stroke:blue;stroke-width:4;stroke-opacity:1" x1="386.72954016953315" y1="499.9999999999347" x2="386.72954016953315" y2="613.2704598304667" />
 <line style="stroke:blue;stroke-width:4;stroke-opacity:1" x1="273.4590803395588" y1="499.99999999986926" x2="386.7295401712639" y2="613.270459828736" />
 <line style="stroke-dasharray: 15, 10;stroke:red;stroke-width:4;" x1="339.8113794920812" y1="499.9999999999079" x2="386.72954016948216" y2="613.2704598305178" />
 <line style="stroke-dasharray: 15, 10;stroke:red;stroke-width:4;" x1="339.8113794915446" y1="726.5409196609187" x2="386.7295401694822" y2="613.2704598305178" />
 <line style="stroke-dasharray: 15, 10;stroke:red;stroke-width:4;" x1="273.4590803390255" y1="660.188620508501" x2="386.7295401694822" y2="613.2704598305178" />
 <line style="stroke:blue;stroke-width:4;stroke-opacity:1" x1="273.45908033902555" y1="660.1886205085009" x2="306.6352299152876" y2="693.3647700847123" />
 <line style="stroke:blue;stroke-width:4;stroke-opacity:1" x1="339.8113794915446" y1="726.5409196609187" x2="306.6352299152876" y2="693.3647700847123" />
 <line style="stroke-dasharray: 15, 10;stroke:red;stroke-width:4;" x1="500.000000000883" y1="566.3522991517884" x2="386.7295401712639" y2="613.270459828736" />
 <line style="stroke-dasharray: 15, 10;stroke:red;stroke-width:4;" x1="500.00000000000546" y1="566.3522991526659" x2="500.0" y2="499.99999999999994" />
 <line style="stroke:blue;stroke-width:4;stroke-opacity:1" x1="533.1761495762803" y1="533.1761495762803" x2="500.0" y2="500.0" />
 <line style="stroke-dasharray: 15, 10;stroke:red;stroke-width:4;" x1="566.3522991524495" y1="500.00000000000006" x2="499.99999999999994" y2="500.0" />
 <line style="stroke-dasharray: 15, 10;stroke:red;stroke-width:4;" x1="433.64770084652133" y1="499.9999999999618" x2="386.7295401608792" y2="613.2704598391207" />
 <line style="stroke-dasharray: 15, 10;stroke:red;stroke-width:4;" x1="433.64770084652133" y1="499.9999999999618" x2="499.99999999999994" y2="500.0" />
 <line style="stroke:blue;stroke-width:4;stroke-opacity:1" x1="466.8238504235086" y1="466.82385042350853" x2="500.0" y2="499.99999999999994" />
 <line style="stroke-dasharray: 15, 10;stroke:red;stroke-width:4;" x1="499.99999999999994" y1="433.6477008475512" x2="499.99999999999994" y2="500.0" />
 <line style="stroke:blue;stroke-width:4;stroke-opacity:1" x1="500.00000000000546" y1="566.3522991526659" x2="466.8238504234747" y2="533.1761495765252" />
 <line style="stroke:blue;stroke-width:4;stroke-opacity:1" x1="433.64770084652133" y1="499.9999999999618" x2="466.8238504234747" y2="533.1761495765252" />
 <line style="stroke:blue;stroke-width:4;stroke-opacity:1" x1="566.3522991524496" y1="500.0" x2="533.1761495762253" y2="466.8238504237746" />
 <line style="stroke:blue;stroke-width:4;stroke-opacity:1" x1="500.00000000000136" y1="433.6477008475498" x2="533.1761495762253" y2="466.8238504237746" />
 <line style="stroke-dasharray: 15, 10;stroke:red;stroke-width:4;" x1="566.3522991524496" y1="499.99999999999994" x2="613.2704598304667" y2="386.72954016953327" />
 <line style="stroke-dasharray: 15, 10;stroke:red;stroke-width:4;" x1="500.0000000000014" y1="433.6477008475498" x2="613.2704598304664" y2="386.7295401695335" />
 <line style="stroke:blue;stroke-width:4;stroke-opacity:1" x1="886.7295401695242" y1="226.54091966099344" x2="773.4590803390065" y2="226.54091966099344" />
 <line style="stroke:blue;stroke-width:4;stroke-opacity:1" x1="773.4590803390065" y1="113.27045983051761" x2="773.4590803390065" y2="226.5409196609935" />
 <line style="stroke:black;stroke-width:5;" x1="886.7295401695242" y1="0.0" x2="1000.0" y2="0.0" />
 <line style="stroke:black;stroke-width:5;" x1="1000.0" y1="113.27045983051761" x2="1000.0" y2="0.0" />
 <line style="stroke:blue;stroke-width:4;stroke-opacity:1" x1="853.5533905932798" y1="80.09431025427318" x2="886.7295401695033" y2="113.27045983049672" />
 <line style="stroke:blue;stroke-width:4;stroke-opacity:1" x1="919.9056897457472" y1="146.44660940674066" x2="886.7295401695033" y2="113.27045983049665" />
 <line style="stroke-dasharray: 15, 10;stroke:red;stroke-width:4;" x1="820.3772410170266" y1="113.27045983051761" x2="886.7295401694823" y2="113.27045983051761" />
 <line style="stroke-dasharray: 15, 10;stroke:red;stroke-width:4;" x1="820.3772410170264" y1="113.27045983051747" x2="773.4590803390054" y2="226.54091966099458" />
 <line style="stroke-dasharray: 15, 10;stroke:red;stroke-width:4;" x1="886.7295401695242" y1="179.62275898295744" x2="886.7295401695242" y2="113.27045983047576" />
 <line style="stroke-dasharray: 15, 10;stroke:red;stroke-width:4;" x1="886.7295401695242" y1="179.62275898295735" x2="773.4590803390072" y2="226.54091966099264" />
 <line style="stroke:blue;stroke-width:4;stroke-opacity:1" x1="820.3772410170266" y1="113.27045983051761" x2="853.5533905932689" y2="146.44660940673106" />
 <line style="stroke:blue;stroke-width:4;stroke-opacity:1" x1="886.7295401695242" y1="179.62275898295735" x2="853.5533905932689" y2="146.44660940673106" />
 <line style="stroke-dasharray: 15, 10;stroke:red;stroke-width:4;" x1="886.7295401695242" y1="46.918160678037566" x2="886.7295401695242" y2="113.27045983047576" />
 <line style="stroke-dasharray: 15, 10;stroke:red;stroke-width:4;" x1="886.7295401695242" y1="46.918160678037566" x2="1000.0" y2="0.0" />
 <line style="stroke-dasharray: 15, 10;stroke:red;stroke-width:4;" x1="953.0818393219763" y1="113.27045983051761" x2="886.7295401694823" y2="113.27045983051761" />
 <line style="stroke-dasharray: 15, 10;stroke:red;stroke-width:4;" x1="953.0818393219764" y1="113.27045983051768" x2="1000.0" y2="0.0" />
 <line style="stroke:blue;stroke-width:4;stroke-opacity:1" x1="953.0818393219763" y1="113.27045983051761" x2="919.9056897457364" y2="80.09431025426366" />
 <line style="stroke:blue;stroke-width:4;stroke-opacity:1" x1="886.7295401695242" y1="46.918160678037566" x2="919.9056897457364" y2="80.09431025426366" />
 <line style="stroke-dasharray: 15, 10;stroke:red;stroke-width:4;" x1="726.5409196609988" y1="113.27045983051761" x2="773.4590803390065" y2="226.54091966099355" />
 <line style="stroke:blue;stroke-width:4;stroke-opacity:1" x1="693.364770084774" y1="146.4466094067292" x2="773.4590803390065" y2="226.54091966099338" />
 <line style="stroke-dasharray: 15, 10;stroke:red;stroke-width:4;" x1="660.1886205085228" y1="179.62275898296753" x2="773.4590803390064" y2="226.54091966099347" />
 <line style="stroke:blue;stroke-width:4;stroke-opacity:1" x1="660.1886205085314" y1="226.54091966099344" x2="773.4590803390065" y2="226.5409196609934" />
 <line style="stroke:blue;stroke-width:4;stroke-opacity:1" x1="773.4590803390066" y1="339.8113794914809" x2="773.4590803390065" y2="226.5409196609935" />
 <line style="stroke-dasharray: 15, 10;stroke:red;stroke-width:4;" x1="820.3772410170337" y1="339.81137949148024" x2="773.4590803390065" y2="226.54091966099332" />
 <line style="stroke-dasharray: 15, 10;stroke:red;stroke-width:4;" x1="886.7295401694956" y1="273.4590803390174" x2="773.4590803390065" y2="226.54091966099344" />
 <line style="stroke:blue;stroke-width:4;stroke-opacity:1" x1="853.5533905932629" y1="306.63522991525" x2="773.4590803390065" y2="226.54091966099332" />
 <line style="stroke-dasharray: 15, 10;stroke:red;stroke-width:4;" x1="660.1886205085233" y1="273.45908033896984" x2="613.2704598304673" y2="386.7295401695327" />
 <line style="stroke-dasharray: 15, 10;stroke:red;stroke-width:4;" x1="660.188620508544" y1="273.45908033896984" x2="773.4590803390063" y2="226.54091966099358" />
 <line style="stroke:blue;stroke-width:4;stroke-opacity:1" x1="613.2704598304672" y1="273.45908033899497" x2="613.2704598304672" y2="386.72954016953275" />
 <line style="stroke-dasharray: 15, 10;stroke:red;stroke-width:4;" x1="566.3522991524428" y1="273.4590803389699" x2="613.2704598304667" y2="386.72954016953315" />
 <line style="stroke:blue;stroke-width:4;stroke-opacity:1" x1="533.1761495761881" y1="306.6352299152285" x2="613.2704598304667" y2="386.72954016953315" />
 <line style="stroke:blue;stroke-width:4;stroke-opacity:1" x1="499.9999999999294" y1="386.72954016953315" x2="613.2704598304667" y2="386.7295401695332" />
 <line style="stroke-dasharray: 15, 10;stroke:red;stroke-width:4;" x1="499.99999999991843" y1="339.8113794914734" x2="613.2704598304668" y2="386.72954016953315" />
 <line style="stroke-dasharray: 15, 10;stroke:red;stroke-width:4;" x1="726.540919661021" y1="339.8113794914809" x2="613.2704598304671" y2="386.7295401695329" />
 <line style="stroke-dasharray: 15, 10;stroke:red;stroke-width:4;" x1="726.540919661021" y1="339.8113794914809" x2="773.4590803390066" y2="226.54091966099332" />
 <line style="stroke:blue;stroke-width:4;stroke-opacity:1" x1="660.1886205085088" y1="273.45908033896984" x2="693.3647700847697" y2="306.6352299152302" />
 <line style="stroke:blue;stroke-width:4;stroke-opacity:1" x1="726.540919661021" y1="339.8113794914809" x2="693.3647700847697" y2="306.6352299152302" />
 <line style="stroke:blue;stroke-width:4;stroke-opacity:1" x1="726.540919661021" y1="386.72954016953315" x2="613.2704598304668" y2="386.72954016953304" />
 <line style="stroke-dasharray: 15, 10;stroke:red;stroke-width:4;" x1="726.5409196611571" y1="433.64770084760266" x2="613.2704598304668" y2="386.72954016953315" />
 <line style="stroke:blue;stroke-width:4;stroke-opacity:1" x1="693.3647700847807" y1="466.8238504238267" x2="613.2704598304667" y2="386.72954016953315" />
 <line style="stroke:blue;stroke-width:4;stroke-opacity:1" x1="613.2704598304667" y1="500.00000000008816" x2="613.2704598304667" y2="386.7295401695332" />
 <line style="stroke-dasharray: 15, 10;stroke:red;stroke-width:4;" x1="660.1886205085762" y1="500.00000000020117" x2="613.2704598304667" y2="386.7295401695332" />
 <line style="stroke-dasharray: 15, 10;stroke:red;stroke-width:4;" x1="179.6227589829636" y1="886.7295401695026" x2="113.2704598304964" y2="886.7295401695035" />
 <line style="stroke:blue;stroke-width:4;stroke-opacity:1" x1="146.44660940672793" y1="919.9056897457351" x2="113.27045983049652" y2="886.7295401695035" />
 <line style="stroke-dasharray: 15, 10;stroke:red;stroke-width:4;" x1="113.27045983049635" y1="953.0818393219636" x2="113.27045983049652" y2="886.7295401695035" />
 <line style="stroke-dasharray: 15, 10;stroke:red;stroke-width:4;" x1="113.27045983048595" y1="953.0818393219739" x2="2.2737367544323206E-13" y2="999.9999999999998" />
 <line style="stroke-dasharray: 15, 10;stroke:red;stroke-width:4;" x1="113.27045983049743" y1="820.3772410170347" x2="113.27045983049652" y2="886.7295401695035" />
 <line style="stroke:blue;stroke-width:4;stroke-opacity:1" x1="80.09431025426261" y1="853.5533905932696" x2="113.2704598304964" y2="886.7295401695035" />
 <line style="stroke-dasharray: 15, 10;stroke:red;stroke-width:4;" x1="46.918160678028414" y1="886.7295401695037" x2="113.27045983049635" y2="886.7295401695035" />
 <line style="stroke-dasharray: 15, 10;stroke:red;stroke-width:4;" x1="46.91816067803643" y1="886.7295401694956" x2="2.8421709430404007E-13" y2="999.9999999999998" />
 <line style="stroke:blue;stroke-width:4;stroke-opacity:1" x1="113.27045983049004" y1="953.0818393219698" x2="80.09431025426125" y2="919.9056897457388" />
 <line style="stroke:blue;stroke-width:4;stroke-opacity:1" x1="46.918160678028414" y1="886.7295401695037" x2="80.09431025426125" y2="919.9056897457388" />
 <line style="stroke:blue;stroke-width:4;stroke-opacity:1" x1="386.7295401696051" y1="773.4590803390065" x2="226.54091966099344" y2="773.4590803390065" />
 <line style="stroke:blue;stroke-width:4;stroke-opacity:1" x1="226.54091966099344" y1="613.2704598303017" x2="226.54091966099344" y2="773.4590803390064" />
 <line style="stroke:blue;stroke-width:4;stroke-opacity:1" x1="339.811379491498" y1="886.7295401694992" x2="226.54091966099338" y2="773.4590803390065" />
 <line style="stroke:blue;stroke-width:4;stroke-opacity:1" x1="113.27045983050084" y1="660.1886205085134" x2="226.54091966099145" y2="773.4590803390086" />
 <line style="stroke-dasharray: 15, 10;stroke:red;stroke-width:4;" x1="500.0000000000318" y1="886.7295401695014" x2="226.5409196609935" y2="773.4590803390064" />
 <line style="stroke-dasharray: 15, 10;stroke:red;stroke-width:4;" x1="113.27045983041683" y1="499.99999999977695" x2="226.54091966098946" y2="773.4590803390106" />
 <line style="stroke-dasharray: 15, 10;stroke:red;stroke-width:4;" x1="273.45908033902555" y1="660.1886205085009" x2="226.5409196609943" y2="773.4590803390057" />
 <line style="stroke-dasharray: 15, 10;stroke:red;stroke-width:4;" x1="339.81137949157073" y1="726.5409196609448" x2="226.54091966099327" y2="773.4590803390067" />
 <line style="stroke-dasharray: 15, 10;stroke:red;stroke-width:4;" x1="273.4590803390223" y1="886.729540169499" x2="226.54091966099355" y2="773.4590803390064" />
 <line style="stroke-dasharray: 15, 10;stroke:red;stroke-width:4;" x1="113.27045983049459" y1="726.5409196609772" x2="226.5409196609935" y2="773.4590803390064" />
 <line style="stroke-dasharray: 15, 10;stroke:red;stroke-width:4;" x1="179.62275898296758" y1="886.7295401694986" x2="226.54091966099423" y2="773.4590803390057" />
 <line style="stroke-dasharray: 15, 10;stroke:red;stroke-width:4;" x1="113.27045983049629" y1="820.3772410170359" x2="226.54091966099134" y2="773.4590803390086" />
 <line style="stroke:blue;stroke-width:4;stroke-opacity:1" x1="226.54091966099247" y1="1000.0" x2="226.54091966099395" y2="773.459080339006" />
 <line style="stroke:blue;stroke-width:4;stroke-opacity:1" x1="0.0" y1="773.4590803390065" x2="226.5409196609936" y2="773.4590803390064" />
 <line style="stroke-dasharray: 15, 10;stroke:red;stroke-width:4;" x1="886.7295401695242" y1="660.1886205084884" x2="886.7295401695242" y2="726.5409196609676" />
 <line style="stroke-dasharray: 15, 10;stroke:red;stroke-width:4;" x1="773.4590803390068" y1="773.4590803390065" x2="886.7295401695242" y2="726.5409196609676" />
 <line style="stroke-dasharray: 15, 10;stroke:red;stroke-width:4;" x1="1000.0000000000001" y1="773.4590803390065" x2="886.7295401695242" y2="726.5409196609676" />
 <line style="stroke:blue;stroke-width:4;stroke-opacity:1" x1="886.7295401695242" y1="726.5409196609676" x2="919.9056897457638" y2="693.3647700847404" />
 <line style="stroke-dasharray: 15, 10;stroke:red;stroke-width:4;" x1="339.81137949146614" y1="113.27045983051761" x2="273.45908033900696" y2="113.27045983051761" />
 <line style="stroke-dasharray: 15, 10;stroke:red;stroke-width:4;" x1="226.54091966099344" y1="226.54091966099344" x2="273.4590803390149" y2="113.27045983050965" />
 <line style="stroke-dasharray: 15, 10;stroke:red;stroke-width:4;" x1="226.54091966099367" y1="0.0" x2="273.4590803390149" y2="113.27045983050972" />
 <line style="stroke:blue;stroke-width:4;stroke-opacity:1" x1="273.4590803390149" y1="113.27045983050965" x2="306.63522991525883" y2="80.09431025426593" />
 <line style="stroke:blue;stroke-width:4;stroke-opacity:1" x1="1000.0" y1="773.4590803390065" x2="919.9056897457638" y2="693.3647700847404" />
 <line style="stroke:blue;stroke-width:4;stroke-opacity:1" x1="886.7295401695242" y1="660.1886205084884" x2="919.9056897457638" y2="693.3647700847404" />
 <line style="stroke:black;stroke-width:5;" x1="1000.0" y1="500.0" x2="1000.0" y2="660.1886205085259" />
 <line style="stroke:black;stroke-width:5;" x1="1000.0" y1="773.4590803390064" x2="1000.0" y2="660.1886205085259" />
 <line style="stroke-dasharray: 15, 10;stroke:red;stroke-width:4;" x1="886.7295401694739" y1="499.999999999929" x2="953.0818393219797" y2="660.1886205085367" />
 <line style="stroke-dasharray: 15, 10;stroke:red;stroke-width:4;" x1="999.9999999999999" y1="773.4590803390064" x2="953.0818393219797" y2="660.1886205085367" />
 <line style="stroke-dasharray: 15, 10;stroke:red;stroke-width:4;" x1="919.9056897457638" y1="693.3647700847404" x2="953.0818393219797" y2="660.1886205085367" />
 <line style="stroke:blue;stroke-width:4;stroke-opacity:1" x1="953.0818393219797" y1="660.1886205085367" x2="1000.0" y2="660.1886205085259" />
 <line style="stroke:blue;stroke-width:4;stroke-opacity:1" x1="339.8113794915102" y1="113.27045983051754" x2="306.6352299152589" y2="80.09431025426593" />
 <line style="stroke:blue;stroke-width:4;stroke-opacity:1" x1="226.54091966099384" y1="3.552713678800501E-13" x2="306.6352299152589" y2="80.09431025426593" />
 <line style="stroke:black;stroke-width:5;" x1="453.0818393219806" y1="0.0" x2="339.81137949146756" y2="-7.105427357601002E-14" />
 <line style="stroke:black;stroke-width:5;" x1="226.54091966099367" y1="-1.4210854715202004E-13" x2="339.81137949146756" y2="-7.105427357601002E-14" />
 <line style="stroke-dasharray: 15, 10;stroke:red;stroke-width:4;" x1="500.00000000002376" y1="113.27045983050638" x2="339.8113794915553" y2="46.9181606780581" />
 <line style="stroke-dasharray: 15, 10;stroke:red;stroke-width:4;" x1="226.54091966099367" y1="0.0" x2="339.8113794915553" y2="46.9181606780581" />
 <line style="stroke-dasharray: 15, 10;stroke:red;stroke-width:4;" x1="306.6352299152589" y1="80.09431025426593" x2="339.8113794915553" y2="46.9181606780581" />
 <line style="stroke:blue;stroke-width:4;stroke-opacity:1" x1="339.8113794915553" y1="46.9181606780581" x2="339.81137949146756" y2="-7.105427357601002E-14" />
</svg>