<?xml version="1.0" encoding="utf-8"?>
<!-- Generator: Adobe Illustrator 16.0.0, SVG Export Plug-In . SVG Version: 6.00 Build 0)  -->
<!DOCTYPE svg PUBLIC "-//W3C//DTD SVG 1.1//EN" "http://www.w3.org/Graphics/SVG/1.1/DTD/svg11.dtd">
<svg version="1.1" id="Layer_1" xmlns="http://www.w3.org/2000/svg" xmlns:xlink="http://www.w3.org/1999/xlink" x="0px" y="0px"
	 width="2px" height="2px" viewBox="0 0 2 2" enable-background="new 0 0 2 2" xml:space="preserve">
<g id="crane">
	<rect fill="none" stroke="#000000" stroke-width="0.05" width="2" height="2"/>
	<line fill="none" stroke="#000000" stroke-width="0.05" x1="0" y1="0" x2="2" y2="2"/>
	<line fill="none" stroke="#A9A8A8" stroke-width="0.05" x1="1" y1="1.586" x2="0" y2="2"/>
	<line fill="none" stroke="#A9A8A8" stroke-width="0.05" x1="2" y1="2" x2="1" y2="1.586"/>
	<line fill="none" stroke="#A9A8A8" stroke-width="0.05" x1="1.586" y1="1" x2="2" y2="0"/>
	<line fill="none" stroke="#A9A8A8" stroke-width="0.05" x1="0.414" y1="1" x2="0" y2="0"/>
	<line fill="none" stroke="#A9A8A8" stroke-width="0.05" x1="0.414" y1="1" x2="0" y2="2"/>
	<line fill="none" stroke="#A9A8A8" stroke-width="0.05" x1="1.586" y1="1" x2="2" y2="2"/>
	<line fill="none" stroke="#A9A8A8" stroke-width="0.05" x1="1" y1="0.414" x2="2" y2="0"/>
	<line fill="none" stroke="#A9A8A8" stroke-width="0.05" x1="1" y1="0.414" x2="0" y2="0"/>
	<line fill="none" stroke="#A9A8A8" stroke-width="0.05" x1="1" y1="0.668" x2="0" y2="0"/>
	<line fill="none" stroke="#A9A8A8" stroke-width="0.05" x1="0.668" y1="1" x2="0" y2="0"/>
	<path stroke="#000000" stroke-width="0.05" d="M1,0.414"/>
	<path stroke="#000000" stroke-width="0.05" d="M0.414,1"/>
	<line fill="none" stroke="#000000" stroke-width="0.05" x1="1" y1="0.414" x2="1.586" y2="1"/>
	<path stroke="#000000" stroke-width="0.05" d="M1,1.586"/>
	<path stroke="#000000" stroke-width="0.05" d="M1.586,1"/>
	<line fill="none" stroke="#000000" stroke-width="0.05" x1="1" y1="1.586" x2="0.414" y2="1"/>
	<line fill="none" stroke="#000000" stroke-width="0.05" x1="0" y1="0" x2="1.352" y2="0.269"/>
	<line fill="none" stroke="#000000" stroke-width="0.05" x1="0.269" y1="1.352" x2="0" y2="0"/>
	<line fill="none" stroke="#A9A8A8" stroke-width="0.05" x1="1.332" y1="1" x2="2" y2="2"/>
	<line fill="none" stroke="#A9A8A8" stroke-width="0.05" x1="1" y1="1.332" x2="2" y2="2"/>
	<line fill="none" stroke="#000000" stroke-width="0.05" x1="2" y1="2" x2="1.731" y2="0.648"/>
	<line fill="none" stroke="#000000" stroke-width="0.05" x1="0.648" y1="1.731" x2="2" y2="2"/>
	<line fill="none" stroke="#A9A8A8" stroke-width="0.05" x1="1.434" y1="0.848" x2="1.731" y2="0.648"/>
	<line fill="none" stroke="#000000" stroke-width="0.05" x1="1.434" y1="0.848" x2="1.332" y2="1"/>
	<line fill="none" stroke="#A9A8A8" stroke-width="0.05" x1="0.848" y1="1.434" x2="0.648" y2="1.731"/>
	<line fill="none" stroke="#000000" stroke-width="0.05" x1="0.848" y1="1.434" x2="1" y2="1.332"/>
	<line fill="none" stroke="#A9A8A8" stroke-width="0.05" x1="1.152" y1="0.566" x2="1.352" y2="0.269"/>
	<line fill="none" stroke="#000000" stroke-width="0.05" x1="1.152" y1="0.566" x2="1" y2="0.668"/>
	<line fill="none" stroke="#A9A8A8" stroke-width="0.05" x1="0.566" y1="1.152" x2="0.269" y2="1.352"/>
	<line fill="none" stroke="#000000" stroke-width="0.05" x1="0.566" y1="1.152" x2="0.668" y2="1"/>
	<line fill="none" stroke="#A9A8A8" stroke-width="0.05" x1="1.039" y1="1.809" x2="1" y2="2"/>
	<line fill="none" stroke="#A9A8A8" stroke-width="0.05" x1="1.078" y1="1.618" x2="1.186" y2="1.456"/>
	<line fill="none" stroke="#A9A8A8" stroke-width="0.05" x1="1.617" y1="1.076" x2="1.455" y2="1.185"/>
	<line fill="none" stroke="#A9A8A8" stroke-width="0.05" x1="2" y1="1" x2="1.809" y2="1.038"/>
	<line fill="none" stroke="#000000" stroke-width="0.05" x1="1.293" y1="1.293" x2="1.455" y2="1.185"/>
	<line fill="none" stroke="#000000" stroke-width="0.05" x1="1.617" y1="1.076" x2="1.809" y2="1.038"/>
	<line fill="none" stroke="#000000" stroke-width="0.05" x1="1.293" y1="1.293" x2="1.186" y2="1.456"/>
	<line fill="none" stroke="#000000" stroke-width="0.05" x1="1.078" y1="1.618" x2="1.039" y2="1.809"/>
	<line fill="none" stroke="#A9A8A8" stroke-width="0.05" x1="0" y1="1" x2="0.191" y2="0.961"/>
	<line fill="none" stroke="#A9A8A8" stroke-width="0.05" x1="0.382" y1="0.922" x2="0.544" y2="0.814"/>
	<line fill="none" stroke="#A9A8A8" stroke-width="0.05" x1="1" y1="0" x2="0.962" y2="0.191"/>
	<line fill="none" stroke="#A9A8A8" stroke-width="0.05" x1="0.924" y1="0.383" x2="0.815" y2="0.545"/>
	<line fill="none" stroke="#000000" stroke-width="0.05" x1="0.962" y1="0.191" x2="0.924" y2="0.383"/>
	<line fill="none" stroke="#000000" stroke-width="0.05" x1="0.815" y1="0.545" x2="0.707" y2="0.707"/>
	<line fill="none" stroke="#000000" stroke-width="0.05" x1="0.191" y1="0.961" x2="0.382" y2="0.922"/>
	<line fill="none" stroke="#000000" stroke-width="0.05" x1="0.544" y1="0.814" x2="0.707" y2="0.707"/>
	<line fill="none" stroke="#A9A8A8" stroke-width="0.05" x1="0.748" y1="1.582" x2="0.418" y2="1.252"/>
	<path stroke="#A9A8A8" stroke-width="0.05" d="M1.352,0.269"/>
	<path stroke="#A9A8A8" stroke-width="0.05" d="M1.152,0.566"/>
	<line fill="none" stroke="#A9A8A8" stroke-width="0.05" x1="1.582" y1="0.748" x2="1.252" y2="0.418"/>
	<line fill="none" stroke="#000000" stroke-width="0.05" x1="0.418" y1="1.252" x2="0.363" y2="1.123"/>
	<line fill="none" stroke="#A9A8A8" stroke-width="0.05" x1="0.363" y1="1.123" x2="0.234" y2="1.178"/>
	<line fill="none" stroke="#000000" stroke-width="0.05" x1="0.234" y1="1.178" x2="0" y2="1.178"/>
	<line fill="none" stroke="#000000" stroke-width="0.05" x1="0.748" y1="1.582" x2="0.877" y2="1.637"/>
	<line fill="none" stroke="#A9A8A8" stroke-width="0.05" x1="0.877" y1="1.637" x2="0.822" y2="1.766"/>
	<line fill="none" stroke="#000000" stroke-width="0.05" x1="0.822" y1="1.766" x2="0.822" y2="2"/>
	<line fill="none" stroke="#000000" stroke-width="0.05" x1="1.252" y1="0.418" x2="1.123" y2="0.363"/>
	<line fill="none" stroke="#A9A8A8" stroke-width="0.05" x1="1.123" y1="0.363" x2="1.178" y2="0.234"/>
	<line fill="none" stroke="#000000" stroke-width="0.05" x1="1.178" y1="0.234" x2="1.178" y2="0"/>
	<line fill="none" stroke="#000000" stroke-width="0.05" x1="1.582" y1="0.748" x2="1.637" y2="0.877"/>
	<line fill="none" stroke="#A9A8A8" stroke-width="0.05" x1="1.637" y1="0.877" x2="1.766" y2="0.822"/>
	<line fill="none" stroke="#000000" stroke-width="0.05" x1="1.766" y1="0.822" x2="2" y2="0.822"/>
	<line fill="none" stroke="#A9A8A8" stroke-width="0.05" x1="0.414" y1="1" x2="1.586" y2="1"/>
	<line fill="none" stroke="#A9A8A8" stroke-width="0.05" x1="1" y1="0.414" x2="1" y2="1.586"/>
</g>
</svg>
