<?xml version="1.0" encoding="utf-8"?>
<svg version="1.1" xmlns="http://www.w3.org/2000/svg" width="600px" height="600px" viewBox="0 0 600 600">
<g id="valley" stroke="#314F69" stroke-width="4" stroke-linecap="round" stroke-dasharray="5,8">
	<line x1="399.5" y1="300" x2="430.1" y2="345.7"/>
	<line x1="430.1" y1="345.7" x2="475.7" y2="300"/>
	<line x1="300" y1="200.5" x2="254.3" y2="169.9"/>
	<line x1="300" y1="399.5" x2="345.7" y2="430.1"/>
	<line x1="200.5" y1="300" x2="171.1" y2="254.9"/>
	<line x1="314" y1="56.9" x2="600" y2="0"/>
	<line x1="345.7" y1="430.1" x2="430.1" y2="345.7"/>
	<line x1="242.5" y1="438" x2="212.1" y2="387.9"/>
	<line x1="212.1" y1="387.9" x2="162" y2="357.5"/>
	<line x1="212.1" y1="387.9" x2="300" y2="300"/>
	<line x1="314" y1="56.9" x2="322.8" y2="114.8"/>
	<line x1="357.5" y1="162" x2="387.9" y2="212.1"/>
	<line x1="387.9" y1="212.1" x2="438" y2="242.5"/>
	<line x1="485.2" y1="277.2" x2="543.1" y2="286"/>
	<line x1="519.4" y1="405.3" x2="543.1" y2="286"/>
	<line x1="543.1" y1="286" x2="600" y2="0"/>
	<line x1="300" y1="300" x2="387.9" y2="212.1"/>
	<line x1="254.3" y1="169.9" x2="300" y2="124.3"/>
	<line x1="169.9" y1="254.3" x2="254.3" y2="169.9"/>
	<line x1="124.3" y1="300" x2="169.9" y2="254.3"/>
	<line x1="124.3" y1="223.8" x2="108.5" y2="261.9"/>
	<line x1="56.9" y1="314" x2="70.4" y2="246.1"/>
	<line x1="70.4" y1="246.1" x2="80.6" y2="194.7"/>
	<line x1="70.4" y1="246.1" x2="0" y2="246.1"/>
	<line x1="223.8" y1="124.3" x2="261.9" y2="108.5"/>
	<line x1="246.1" y1="70.4" x2="246.1" y2="0"/>
	<line x1="194.7" y1="80.6" x2="246.1" y2="70.4"/>
	<line x1="246.1" y1="70.4" x2="314" y2="56.9"/>
	<line x1="286" y1="543.1" x2="277.2" y2="485.2"/>
	<line x1="405.3" y1="519.4" x2="286" y2="543.1"/>
	<line x1="345.7" y1="430.1" x2="300" y2="475.7"/>
	<line x1="56.9" y1="314" x2="114.8" y2="322.8"/>
	<line x1="286" y1="543.1" x2="90.5" y2="582"/>
	<line x1="100.2" y1="558.5" x2="76.7" y2="548.7"/>
	<line x1="51.3" y1="523.3" x2="41.5" y2="499.8"/>
	<line x1="18" y1="509.5" x2="0" y2="491.5"/>
	<line x1="0" y1="600" x2="18" y2="509.5"/>
	<line x1="18" y1="509.5" x2="56.9" y2="314"/>
	<line x1="0" y1="600" x2="76.7" y2="523.3"/>
	<line x1="108.5" y1="600" x2="90.5" y2="582"/>
	<line x1="0" y1="600" x2="90.5" y2="582"/>
</g>
<g id="mountain" stroke="#E14929" stroke-width="4">
	<line x1="475.7" y1="300" x2="519.4" y2="405.3"/>
	<line x1="399.5" y1="300" x2="475.7" y2="300"/>
	<line x1="430.1" y1="345.7" x2="519.4" y2="405.3"/>
	<line x1="300" y1="124.3" x2="300" y2="200.5"/>
	<line x1="300" y1="200.5" x2="300" y2="300"/>
	<line x1="300" y1="475.7" x2="405.3" y2="519.4"/>
	<line x1="300" y1="300" x2="300" y2="399.5"/>
	<line x1="0" y1="0" x2="80.6" y2="194.7"/>
	<line x1="124.3" y1="300" x2="200.5" y2="300"/>
	<line x1="0" y1="0" x2="194.7" y2="80.6"/>
	<line x1="300" y1="600" x2="286" y2="543.1"/>
	<line x1="200.5" y1="300" x2="300" y2="300"/>
	<line x1="300" y1="0" x2="314" y2="56.9"/>
	<line x1="300" y1="300" x2="399.5" y2="300"/>
	<line x1="162" y1="357.5" x2="114.8" y2="322.8"/>
	<line x1="56.9" y1="314" x2="0" y2="300"/>
	<line x1="114.8" y1="322.8" x2="124.3" y2="300"/>
	<line x1="162" y1="357.5" x2="200.5" y2="300"/>
	<line x1="242.5" y1="438" x2="300" y2="399.5"/>
	<line x1="277.2" y1="485.2" x2="300" y2="475.7"/>
	<line x1="322.8" y1="114.8" x2="357.5" y2="162"/>
	<line x1="438" y1="242.5" x2="485.2" y2="277.2"/>
	<line x1="543.1" y1="286" x2="600" y2="300"/>
	<line x1="475.7" y1="300" x2="485.2" y2="277.2"/>
	<line x1="485.2" y1="277.2" x2="600" y2="0"/>
	<line x1="399.5" y1="300" x2="438" y2="242.5"/>
	<line x1="438" y1="242.5" x2="600" y2="0"/>
	<line x1="300" y1="124.3" x2="322.8" y2="114.8"/>
	<line x1="322.8" y1="114.8" x2="600" y2="0"/>
	<line x1="300" y1="200.5" x2="357.5" y2="162"/>
	<line x1="357.5" y1="162" x2="600" y2="0"/>
	<line x1="387.9" y1="212.1" x2="600" y2="0"/>
	<line x1="194.7" y1="80.6" x2="223.8" y2="124.3"/>
	<line x1="223.8" y1="124.3" x2="254.3" y2="169.9"/>
	<line x1="80.6" y1="194.7" x2="124.3" y2="223.8"/>
	<line x1="124.3" y1="223.8" x2="169.9" y2="254.3"/>
	<line x1="124.3" y1="223.8" x2="223.8" y2="124.3"/>
	<line x1="108.5" y1="261.9" x2="70.4" y2="246.1"/>
	<line x1="80.6" y1="194.7" x2="108.5" y2="261.9"/>
	<line x1="108.5" y1="261.9" x2="124.3" y2="300"/>
	<line x1="194.7" y1="80.6" x2="261.9" y2="108.5"/>
	<line x1="261.9" y1="108.5" x2="300" y2="124.3"/>
	<line x1="261.9" y1="108.5" x2="246.1" y2="70.4"/>
	<line x1="600" y1="600" x2="405.3" y2="519.4"/>
	<line x1="600" y1="600" x2="519.4" y2="405.3"/>
	<line x1="277.2" y1="485.2" x2="242.5" y2="438"/>
	<line x1="300" y1="475.7" x2="300" y2="399.5"/>
	<line x1="405.3" y1="519.4" x2="345.7" y2="430.1"/>
	<line x1="76.7" y1="548.7" x2="76.7" y2="523.3"/>
	<line x1="76.7" y1="523.3" x2="51.3" y2="523.3"/>
	<line x1="41.5" y1="499.8" x2="18" y2="509.5"/>
	<line x1="0" y1="600" x2="100.2" y2="558.5"/>
	<line x1="100.2" y1="558.5" x2="277.2" y2="485.2"/>
	<line x1="0" y1="600" x2="41.5" y2="499.8"/>
	<line x1="41.5" y1="499.8" x2="114.8" y2="322.8"/>
	<line x1="0" y1="600" x2="51.3" y2="523.3"/>
	<line x1="51.3" y1="523.3" x2="162" y2="357.5"/>
	<line x1="76.7" y1="523.3" x2="212.1" y2="387.9"/>
	<line x1="0" y1="600" x2="76.7" y2="548.7"/>
	<line x1="76.7" y1="548.7" x2="242.5" y2="438"/>
	<line x1="90.5" y1="582" x2="100.2" y2="558.5"/>
</g>
<g id="boundary" stroke="#000000" stroke-width="4">
	<line x1="300" y1="0" x2="600" y2="0"/>
	<line x1="300" y1="600" x2="600" y2="600"/>
	<line x1="600" y1="0" x2="600" y2="300"/>
	<line x1="0" y1="0" x2="0" y2="246.1"/>
	<line x1="0" y1="246.1" x2="0" y2="300"/>
	<line x1="0" y1="0" x2="246.1" y2="0"/>
	<line x1="246.1" y1="0" x2="300" y2="0"/>
	<line x1="600" y1="300" x2="600" y2="600"/>
	<line x1="0" y1="600" x2="108.5" y2="600"/>
	<line x1="108.5" y1="600" x2="300" y2="600"/>
	<line x1="0" y1="300" x2="0" y2="491.5"/>
	<line x1="0" y1="491.5" x2="0" y2="600"/>
</g>
</svg>
