<?xml version="1.0" encoding="utf-8"?>
<!-- Generator: Adobe Illustrator 16.0.0, SVG Export Plug-In . SVG Version: 6.00 Build 0)  -->
<!DOCTYPE svg PUBLIC "-//W3C//DTD SVG 1.1//EN" "http://www.w3.org/Graphics/SVG/1.1/DTD/svg11.dtd">
<svg version="1.1" id="Layer_1" xmlns="http://www.w3.org/2000/svg" xmlns:xlink="http://www.w3.org/1999/xlink" x="0px" y="0px"
	 width="1px" height="1px" viewBox="0 0 1 1" enable-background="new 0 0 1 1" xml:space="preserve">
<g id="crane">
	<rect fill="none" stroke="#000000" stroke-width="0.05" width="1" height="1"/>
	<line fill="none" stroke="#000000" stroke-width="0.05" x1="0" y1="0" x2="1" y2="1"/>
	<line fill="none" stroke="#A9A8A8" stroke-width="0.05" x1="0.5" y1="0.793" x2="0" y2="1"/>
	<line fill="none" stroke="#A9A8A8" stroke-width="0.05" x1="1" y1="1" x2="0.5" y2="0.793"/>
	<line fill="none" stroke="#A9A8A8" stroke-width="0.05" x1="0.793" y1="0.5" x2="1" y2="0"/>
	<line fill="none" stroke="#A9A8A8" stroke-width="0.05" x1="0.207" y1="0.5" x2="0" y2="0"/>
	<line fill="none" stroke="#A9A8A8" stroke-width="0.05" x1="0.207" y1="0.5" x2="0" y2="1"/>
	<line fill="none" stroke="#A9A8A8" stroke-width="0.05" x1="0.793" y1="0.5" x2="1" y2="1"/>
	<line fill="none" stroke="#A9A8A8" stroke-width="0.05" x1="0.5" y1="0.207" x2="1" y2="0"/>
	<line fill="none" stroke="#A9A8A8" stroke-width="0.05" x1="0.5" y1="0.207" x2="0" y2="0"/>
	<line fill="none" stroke="#A9A8A8" stroke-width="0.05" x1="0.5" y1="0.334" x2="0" y2="0"/>
	<line fill="none" stroke="#A9A8A8" stroke-width="0.05" x1="0.334" y1="0.5" x2="0" y2="0"/>
	<path stroke="#000000" stroke-width="0.05" d="M0.5,0.207"/>
	<path stroke="#000000" stroke-width="0.05" d="M0.207,0.5"/>
	<line fill="none" stroke="#000000" stroke-width="0.05" x1="0.5" y1="0.207" x2="0.793" y2="0.5"/>
	<path stroke="#000000" stroke-width="0.05" d="M0.5,0.793"/>
	<path stroke="#000000" stroke-width="0.05" d="M0.793,0.5"/>
	<line fill="none" stroke="#000000" stroke-width="0.05" x1="0.5" y1="0.793" x2="0.207" y2="0.5"/>
	<line fill="none" stroke="#000000" stroke-width="0.05" x1="0" y1="0" x2="0.676" y2="0.134"/>
	<line fill="none" stroke="#000000" stroke-width="0.05" x1="0.134" y1="0.676" x2="0" y2="0"/>
	<line fill="none" stroke="#A9A8A8" stroke-width="0.05" x1="0.666" y1="0.5" x2="1" y2="1"/>
	<line fill="none" stroke="#A9A8A8" stroke-width="0.05" x1="0.5" y1="0.666" x2="1" y2="1"/>
	<line fill="none" stroke="#000000" stroke-width="0.05" x1="1" y1="1" x2="0.866" y2="0.324"/>
	<line fill="none" stroke="#000000" stroke-width="0.05" x1="0.324" y1="0.866" x2="1" y2="1"/>
	<line fill="none" stroke="#A9A8A8" stroke-width="0.05" x1="0.717" y1="0.424" x2="0.866" y2="0.324"/>
	<line fill="none" stroke="#000000" stroke-width="0.05" x1="0.717" y1="0.424" x2="0.666" y2="0.5"/>
	<line fill="none" stroke="#A9A8A8" stroke-width="0.05" x1="0.424" y1="0.717" x2="0.324" y2="0.866"/>
	<line fill="none" stroke="#000000" stroke-width="0.05" x1="0.424" y1="0.717" x2="0.5" y2="0.666"/>
	<line fill="none" stroke="#A9A8A8" stroke-width="0.05" x1="0.576" y1="0.283" x2="0.676" y2="0.134"/>
	<line fill="none" stroke="#000000" stroke-width="0.05" x1="0.576" y1="0.283" x2="0.5" y2="0.334"/>
	<line fill="none" stroke="#A9A8A8" stroke-width="0.05" x1="0.283" y1="0.576" x2="0.134" y2="0.676"/>
	<line fill="none" stroke="#000000" stroke-width="0.05" x1="0.283" y1="0.576" x2="0.334" y2="0.5"/>
	<line fill="none" stroke="#A9A8A8" stroke-width="0.05" x1="0.52" y1="0.904" x2="0.5" y2="1"/>
	<line fill="none" stroke="#A9A8A8" stroke-width="0.05" x1="0.539" y1="0.809" x2="0.593" y2="0.728"/>
	<line fill="none" stroke="#A9A8A8" stroke-width="0.05" x1="0.809" y1="0.538" x2="0.728" y2="0.592"/>
	<line fill="none" stroke="#A9A8A8" stroke-width="0.05" x1="1" y1="0.5" x2="0.904" y2="0.519"/>
	<line fill="none" stroke="#000000" stroke-width="0.05" x1="0.646" y1="0.646" x2="0.728" y2="0.592"/>
	<line fill="none" stroke="#000000" stroke-width="0.05" x1="0.809" y1="0.538" x2="0.904" y2="0.519"/>
	<line fill="none" stroke="#000000" stroke-width="0.05" x1="0.646" y1="0.646" x2="0.593" y2="0.728"/>
	<line fill="none" stroke="#000000" stroke-width="0.05" x1="0.539" y1="0.809" x2="0.52" y2="0.904"/>
	<line fill="none" stroke="#A9A8A8" stroke-width="0.05" x1="0" y1="0.5" x2="0.096" y2="0.48"/>
	<line fill="none" stroke="#A9A8A8" stroke-width="0.05" x1="0.191" y1="0.461" x2="0.272" y2="0.407"/>
	<line fill="none" stroke="#A9A8A8" stroke-width="0.05" x1="0.5" y1="0" x2="0.481" y2="0.096"/>
	<line fill="none" stroke="#A9A8A8" stroke-width="0.05" x1="0.462" y1="0.191" x2="0.408" y2="0.272"/>
	<line fill="none" stroke="#000000" stroke-width="0.05" x1="0.481" y1="0.096" x2="0.462" y2="0.191"/>
	<line fill="none" stroke="#000000" stroke-width="0.05" x1="0.408" y1="0.272" x2="0.354" y2="0.354"/>
	<line fill="none" stroke="#000000" stroke-width="0.05" x1="0.096" y1="0.48" x2="0.191" y2="0.461"/>
	<line fill="none" stroke="#000000" stroke-width="0.05" x1="0.272" y1="0.407" x2="0.354" y2="0.354"/>
	<line fill="none" stroke="#A9A8A8" stroke-width="0.05" x1="0.374" y1="0.791" x2="0.209" y2="0.626"/>
	<path stroke="#A9A8A8" stroke-width="0.05" d="M0.676,0.134"/>
	<path stroke="#A9A8A8" stroke-width="0.05" d="M0.576,0.283"/>
	<line fill="none" stroke="#A9A8A8" stroke-width="0.05" x1="0.791" y1="0.374" x2="0.626" y2="0.209"/>
	<line fill="none" stroke="#000000" stroke-width="0.05" x1="0.209" y1="0.626" x2="0.182" y2="0.562"/>
	<line fill="none" stroke="#A9A8A8" stroke-width="0.05" x1="0.182" y1="0.562" x2="0.117" y2="0.589"/>
	<line fill="none" stroke="#000000" stroke-width="0.05" x1="0.117" y1="0.589" x2="0" y2="0.589"/>
	<line fill="none" stroke="#000000" stroke-width="0.05" x1="0.374" y1="0.791" x2="0.438" y2="0.818"/>
	<line fill="none" stroke="#A9A8A8" stroke-width="0.05" x1="0.438" y1="0.818" x2="0.411" y2="0.883"/>
	<line fill="none" stroke="#000000" stroke-width="0.05" x1="0.411" y1="0.883" x2="0.411" y2="1"/>
	<line fill="none" stroke="#000000" stroke-width="0.05" x1="0.626" y1="0.209" x2="0.562" y2="0.182"/>
	<line fill="none" stroke="#A9A8A8" stroke-width="0.05" x1="0.562" y1="0.182" x2="0.589" y2="0.117"/>
	<line fill="none" stroke="#000000" stroke-width="0.05" x1="0.589" y1="0.117" x2="0.589" y2="0"/>
	<line fill="none" stroke="#000000" stroke-width="0.05" x1="0.791" y1="0.374" x2="0.818" y2="0.438"/>
	<line fill="none" stroke="#A9A8A8" stroke-width="0.05" x1="0.818" y1="0.438" x2="0.883" y2="0.411"/>
	<line fill="none" stroke="#000000" stroke-width="0.05" x1="0.883" y1="0.411" x2="1" y2="0.411"/>
	<line fill="none" stroke="#A9A8A8" stroke-width="0.05" x1="0.207" y1="0.5" x2="0.793" y2="0.5"/>
	<line fill="none" stroke="#A9A8A8" stroke-width="0.05" x1="0.5" y1="0.207" x2="0.5" y2="0.793"/>
</g>
</svg>
