<?xml version="1.0" encoding="utf-8"?>
<!-- Generator: Adobe Illustrator 16.0.0, SVG Export Plug-In . SVG Version: 6.00 Build 0)  -->
<!DOCTYPE svg PUBLIC "-//W3C//DTD SVG 1.1//EN" "http://www.w3.org/Graphics/SVG/1.1/DTD/svg11.dtd">
<svg version="1.1" id="Layer_1" xmlns="http://www.w3.org/2000/svg" xmlns:xlink="http://www.w3.org/1999/xlink" x="0px" y="0px"
	 width="1000px" height="1000px" viewBox="0 0 1000 1000" enable-background="new 0 0 1000 1000" xml:space="preserve">
<line fill="none" stroke="#0000FF" stroke-width="4" x1="716.772" y1="423.88" x2="576.12" y2="283.227"/>
<line fill="none" stroke="#FF0000" stroke-width="4" stroke-dasharray="15,10" x1="1000" y1="0" x2="675.576" y2="134.38"/>
<line fill="none" stroke="#FF0000" stroke-width="4" stroke-dasharray="15,10" x1="500" y1="500" x2="500" y2="665.911"/>
<line fill="none" stroke="#FF0000" stroke-width="4" stroke-dasharray="15,10" x1="500" y1="792.894" x2="500" y2="665.911"/>
<line fill="none" stroke="#FF0000" stroke-width="4" stroke-dasharray="15,10" x1="500" y1="500" x2="334.089" y2="500"/>
<line fill="none" stroke="#FF0000" stroke-width="4" stroke-dasharray="15,10" x1="207.107" y1="500" x2="334.089" y2="500"/>
<line fill="none" stroke="#FF0000" stroke-width="4" stroke-dasharray="15,10" x1="207.107" y1="500" x2="134.38" y2="675.576"/>
<line fill="none" stroke="#0000FF" stroke-width="4" x1="207.107" y1="500" x2="283.227" y2="576.12"/>
<line fill="none" stroke="#FF0000" stroke-width="4" stroke-dasharray="15,10" x1="0" y1="1000" x2="134.38" y2="675.576"/>
<line fill="none" stroke="#0000FF" stroke-width="4" x1="334.089" y1="500" x2="283.227" y2="576.12"/>
<line fill="none" stroke="#FF0000" stroke-width="4" stroke-dasharray="15,10" x1="134.38" y1="675.576" x2="283.227" y2="576.12"/>
<line fill="none" stroke="#FF0000" stroke-width="4" stroke-dasharray="15,10" x1="500" y1="792.894" x2="324.424" y2="865.619"/>
<line fill="none" stroke="#0000FF" stroke-width="4" x1="500" y1="792.894" x2="423.88" y2="716.772"/>
<line fill="none" stroke="#0000FF" stroke-width="4" x1="500" y1="665.911" x2="423.88" y2="716.772"/>
<line fill="none" stroke="#FF0000" stroke-width="4" stroke-dasharray="15,10" x1="0" y1="1000" x2="324.424" y2="865.619"/>
<line fill="none" stroke="#0000FF" stroke-width="4" x1="283.227" y1="576.12" x2="423.88" y2="716.772"/>
<line fill="none" stroke="#FF0000" stroke-width="4" stroke-dasharray="15,10" x1="324.424" y1="865.619" x2="423.88" y2="716.772"/>
<line fill="none" stroke="#FF0000" stroke-width="4" stroke-dasharray="15,10" x1="0" y1="0" x2="400.472" y2="165.881"/>
<line fill="none" stroke="#FF0000" stroke-width="4" stroke-dasharray="15,10" x1="0" y1="0" x2="356.911" y2="238.48"/>
<line fill="none" stroke="#FF0000" stroke-width="4" stroke-dasharray="15,10" x1="500" y1="207.107" x2="408.301" y2="169.124"/>
<line fill="none" stroke="#FF0000" stroke-width="4" stroke-dasharray="15,10" x1="400.472" y1="165.881" x2="408.301" y2="169.124"/>
<line fill="none" stroke="#FF0000" stroke-width="4" stroke-dasharray="15,10" x1="356.911" y1="238.48" x2="408.301" y2="169.124"/>
<line fill="none" stroke="#000000" stroke-width="5" x1="0" y1="0" x2="441.941" y2="0"/>
<line fill="none" stroke="#0000FF" stroke-width="4" x1="0" y1="0" x2="421.006" y2="83.743"/>
<line fill="none" stroke="#0000FF" stroke-width="4" x1="446.688" y1="88.852" x2="421.006" y2="83.743"/>
<line fill="none" stroke="#FF0000" stroke-width="4" stroke-dasharray="15,10" x1="421.006" y1="83.743" x2="441.941" y2="0"/>
<line fill="none" stroke="#0000FF" stroke-width="4" x1="500" y1="500" x2="312.5" y2="312.5"/>
<line fill="none" stroke="#FF0000" stroke-width="4" stroke-dasharray="15,10" x1="0" y1="0" x2="312.5" y2="312.5"/>
<line fill="none" stroke="#0000FF" stroke-width="4" x1="356.911" y1="238.48" x2="312.5" y2="312.5"/>
<line fill="none" stroke="#FF0000" stroke-width="4" stroke-dasharray="15,10" x1="0" y1="0" x2="238.48" y2="356.912"/>
<line fill="none" stroke="#FF0000" stroke-width="4" stroke-dasharray="15,10" x1="334.089" y1="500" x2="238.48" y2="356.912"/>
<line fill="none" stroke="#0000FF" stroke-width="4" x1="312.5" y1="312.5" x2="238.48" y2="356.912"/>
<line fill="none" stroke="#FF0000" stroke-width="4" stroke-dasharray="15,10" x1="207.107" y1="500" x2="169.124" y2="408.301"/>
<line fill="none" stroke="#FF0000" stroke-width="4" stroke-dasharray="15,10" x1="0" y1="0" x2="169.124" y2="408.301"/>
<line fill="none" stroke="#FF0000" stroke-width="4" stroke-dasharray="15,10" x1="238.48" y1="356.912" x2="169.124" y2="408.301"/>
<line fill="none" stroke="#000000" stroke-width="5" x1="0" y1="0" x2="0" y2="441.941"/>
<line fill="none" stroke="#000000" stroke-width="5" x1="0" y1="1000" x2="0" y2="441.941"/>
<line fill="none" stroke="#0000FF" stroke-width="4" x1="0" y1="0" x2="83.743" y2="421.006"/>
<line fill="none" stroke="#0000FF" stroke-width="4" x1="134.38" y1="675.576" x2="83.743" y2="421.006"/>
<line fill="none" stroke="#0000FF" stroke-width="4" x1="169.124" y1="408.301" x2="83.743" y2="421.006"/>
<line fill="none" stroke="#FF0000" stroke-width="4" stroke-dasharray="15,10" x1="0" y1="441.941" x2="83.743" y2="421.006"/>
<line fill="none" stroke="#000000" stroke-width="5" x1="0" y1="1000" x2="500" y2="1000"/>
<line fill="none" stroke="#0000FF" stroke-width="4" x1="324.424" y1="865.619" x2="553.312" y2="911.148"/>
<line fill="none" stroke="#0000FF" stroke-width="4" x1="500" y1="500" x2="687.5" y2="687.5"/>
<line fill="none" stroke="#0000FF" stroke-width="4" x1="687.5" y1="687.5" x2="761.52" y2="643.089"/>
<line fill="none" stroke="#FF0000" stroke-width="4" stroke-dasharray="15,10" x1="792.894" y1="500" x2="830.876" y2="591.699"/>
<line fill="none" stroke="#FF0000" stroke-width="4" stroke-dasharray="15,10" x1="834.119" y1="599.528" x2="830.876" y2="591.699"/>
<line fill="none" stroke="#FF0000" stroke-width="4" stroke-dasharray="15,10" x1="761.52" y1="643.089" x2="830.876" y2="591.699"/>
<line fill="none" stroke="#FF0000" stroke-width="4" stroke-dasharray="15,10" x1="500" y1="665.911" x2="643.089" y2="761.52"/>
<line fill="none" stroke="#0000FF" stroke-width="4" x1="687.5" y1="687.5" x2="643.089" y2="761.52"/>
<line fill="none" stroke="#FF0000" stroke-width="4" stroke-dasharray="15,10" x1="500" y1="792.894" x2="591.699" y2="830.876"/>
<line fill="none" stroke="#FF0000" stroke-width="4" stroke-dasharray="15,10" x1="599.528" y1="834.119" x2="591.699" y2="830.876"/>
<line fill="none" stroke="#FF0000" stroke-width="4" stroke-dasharray="15,10" x1="643.089" y1="761.52" x2="591.699" y2="830.876"/>
<line fill="none" stroke="#000000" stroke-width="5" x1="500" y1="1000" x2="558.059" y2="1000"/>
<line fill="none" stroke="#FF0000" stroke-width="4" stroke-dasharray="15,10" x1="675.576" y1="134.38" x2="613.301" y2="160.176"/>
<line fill="none" stroke="#0000FF" stroke-width="4" x1="446.688" y1="88.852" x2="565.638" y2="112.512"/>
<line fill="none" stroke="#000000" stroke-width="5" x1="500" y1="0" x2="453.125" y2="0"/>
<line fill="none" stroke="#000000" stroke-width="5" x1="441.941" y1="0" x2="453.125" y2="0"/>
<line fill="none" stroke="#000000" stroke-width="5" x1="1000" y1="500" x2="1000" y2="546.875"/>
<line fill="none" stroke="#000000" stroke-width="5" x1="1000" y1="558.059" x2="1000" y2="546.875"/>
<line fill="none" stroke="#FF0000" stroke-width="4" stroke-dasharray="15,10" x1="1000" y1="1000" x2="957.621" y2="897.688"/>
<line fill="none" stroke="#000000" stroke-width="5" x1="1000" y1="1000" x2="1000" y2="890.625"/>
<line fill="none" stroke="#0000FF" stroke-width="4" x1="1000" y1="1000" x2="978.942" y2="894.135"/>
<line fill="none" stroke="#FF0000" stroke-width="4" stroke-dasharray="15,10" x1="500" y1="500" x2="500" y2="334.089"/>
<line fill="none" stroke="#FF0000" stroke-width="4" stroke-dasharray="15,10" x1="500" y1="207.107" x2="500" y2="334.089"/>
<line fill="none" stroke="#0000FF" stroke-width="4" x1="576.12" y1="283.227" x2="500" y2="334.089"/>
<line fill="none" stroke="#FF0000" stroke-width="4" stroke-dasharray="15,10" x1="356.911" y1="238.48" x2="500" y2="334.089"/>
<line fill="none" stroke="#FF0000" stroke-width="4" stroke-dasharray="15,10" x1="500" y1="500" x2="665.911" y2="500"/>
<line fill="none" stroke="#FF0000" stroke-width="4" stroke-dasharray="15,10" x1="792.894" y1="500" x2="665.911" y2="500"/>
<line fill="none" stroke="#0000FF" stroke-width="4" x1="716.772" y1="423.88" x2="665.911" y2="500"/>
<line fill="none" stroke="#FF0000" stroke-width="4" stroke-dasharray="15,10" x1="761.52" y1="643.089" x2="665.911" y2="500"/>
<line fill="none" stroke="#FF0000" stroke-width="4" stroke-dasharray="15,10" x1="792.894" y1="373.018" x2="819.192" y2="436.509"/>
<line fill="none" stroke="#0000FF" stroke-width="4" x1="716.772" y1="423.88" x2="792.894" y2="500"/>
<line fill="none" stroke="#0000FF" stroke-width="4" x1="500" y1="207.107" x2="576.12" y2="283.227"/>
<line fill="none" stroke="#000000" stroke-width="5" x1="1000" y1="0" x2="1000" y2="410.21"/>
<line fill="none" stroke="#000000" stroke-width="5" x1="1000" y1="500" x2="1000" y2="410.21"/>
<line fill="none" stroke="#FF0000" stroke-width="4" stroke-dasharray="15,10" x1="819.192" y1="436.509" x2="882.684" y2="410.21"/>
<line fill="none" stroke="#FF0000" stroke-width="4" stroke-dasharray="15,10" x1="882.684" y1="410.21" x2="1000" y2="410.21"/>
<line fill="none" stroke="#FF0000" stroke-width="4" stroke-dasharray="15,10" x1="576.12" y1="283.227" x2="626.982" y2="207.107"/>
<line fill="none" stroke="#FF0000" stroke-width="4" stroke-dasharray="15,10" x1="675.576" y1="134.38" x2="626.982" y2="207.107"/>
<line fill="none" stroke="#FF0000" stroke-width="4" stroke-dasharray="15,10" x1="792.894" y1="373.018" x2="626.982" y2="207.107"/>
<line fill="none" stroke="#FF0000" stroke-width="4" stroke-dasharray="15,10" x1="500" y1="207.107" x2="563.491" y2="180.808"/>
<line fill="none" stroke="#FF0000" stroke-width="4" stroke-dasharray="15,10" x1="613.301" y1="160.176" x2="563.491" y2="180.808"/>
<line fill="none" stroke="#FF0000" stroke-width="4" stroke-dasharray="15,10" x1="626.982" y1="207.107" x2="563.491" y2="180.808"/>
<line fill="none" stroke="#000000" stroke-width="5" x1="1000" y1="0" x2="589.79" y2="0"/>
<line fill="none" stroke="#000000" stroke-width="5" x1="500" y1="0" x2="589.79" y2="0"/>
<line fill="none" stroke="#0000FF" stroke-width="4" x1="675.576" y1="134.38" x2="589.79" y2="117.316"/>
<line fill="none" stroke="#0000FF" stroke-width="4" x1="565.638" y1="112.512" x2="589.79" y2="117.316"/>
<line fill="none" stroke="#FF0000" stroke-width="4" stroke-dasharray="15,10" x1="563.491" y1="180.808" x2="589.79" y2="117.316"/>
<line fill="none" stroke="#FF0000" stroke-width="4" stroke-dasharray="15,10" x1="589.79" y1="117.316" x2="589.79" y2="0"/>
<line fill="none" stroke="#0000FF" stroke-width="4" x1="408.301" y1="169.124" x2="421.006" y2="83.743"/>
<line fill="none" stroke="#0000FF" stroke-width="4" x1="553.312" y1="911.148" x2="578.994" y2="916.257"/>
<line fill="none" stroke="#0000FF" stroke-width="4" x1="591.699" y1="830.876" x2="578.994" y2="916.257"/>
<line fill="none" stroke="#FF0000" stroke-width="4" stroke-dasharray="15,10" x1="558.059" y1="1000" x2="578.994" y2="916.257"/>
<line fill="none" stroke="#FF0000" stroke-width="4" stroke-dasharray="15,10" x1="687.5" y1="687.5" x2="902.88" y2="902.88"/>
<line fill="none" stroke="#FF0000" stroke-width="4" stroke-dasharray="15,10" x1="1000" y1="1000" x2="902.88" y2="902.88"/>
<line fill="none" stroke="#FF0000" stroke-width="4" stroke-dasharray="15,10" x1="643.089" y1="761.52" x2="901.585" y2="934.241"/>
<line fill="none" stroke="#FF0000" stroke-width="4" stroke-dasharray="15,10" x1="1000" y1="1000" x2="901.585" y2="934.241"/>
<line fill="none" stroke="#FF0000" stroke-width="4" stroke-dasharray="15,10" x1="902.88" y1="902.88" x2="901.585" y2="934.241"/>
<line fill="none" stroke="#FF0000" stroke-width="4" stroke-dasharray="15,10" x1="599.528" y1="834.119" x2="873.106" y2="947.439"/>
<line fill="none" stroke="#FF0000" stroke-width="4" stroke-dasharray="15,10" x1="1000" y1="1000" x2="873.106" y2="947.439"/>
<line fill="none" stroke="#FF0000" stroke-width="4" stroke-dasharray="15,10" x1="901.585" y1="934.241" x2="873.106" y2="947.439"/>
<line fill="none" stroke="#000000" stroke-width="5" x1="1000" y1="1000" x2="862.651" y2="1000"/>
<line fill="none" stroke="#000000" stroke-width="5" x1="558.059" y1="1000" x2="862.651" y2="1000"/>
<line fill="none" stroke="#0000FF" stroke-width="4" x1="1000" y1="1000" x2="883.911" y2="976.908"/>
<line fill="none" stroke="#0000FF" stroke-width="4" x1="578.994" y1="916.257" x2="883.911" y2="976.908"/>
<line fill="none" stroke="#FF0000" stroke-width="4" stroke-dasharray="15,10" x1="873.106" y1="947.439" x2="883.911" y2="976.908"/>
<line fill="none" stroke="#FF0000" stroke-width="4" stroke-dasharray="15,10" x1="862.651" y1="1000" x2="883.911" y2="976.908"/>
<line fill="none" stroke="#FF0000" stroke-width="4" stroke-dasharray="15,10" x1="1000" y1="1000" x2="934.241" y2="901.585"/>
<line fill="none" stroke="#FF0000" stroke-width="4" stroke-dasharray="15,10" x1="761.52" y1="643.089" x2="934.241" y2="901.585"/>
<line fill="none" stroke="#FF0000" stroke-width="4" stroke-dasharray="15,10" x1="902.88" y1="902.88" x2="934.241" y2="901.585"/>
<line fill="none" stroke="#FF0000" stroke-width="4" stroke-dasharray="15,10" x1="834.119" y1="599.528" x2="947.439" y2="873.106"/>
<line fill="none" stroke="#FF0000" stroke-width="4" stroke-dasharray="15,10" x1="957.621" y1="897.688" x2="947.439" y2="873.106"/>
<line fill="none" stroke="#FF0000" stroke-width="4" stroke-dasharray="15,10" x1="934.241" y1="901.585" x2="947.439" y2="873.106"/>
<line fill="none" stroke="#000000" stroke-width="5" x1="1000" y1="558.059" x2="1000" y2="862.651"/>
<line fill="none" stroke="#000000" stroke-width="5" x1="1000" y1="890.625" x2="1000" y2="862.651"/>
<line fill="none" stroke="#0000FF" stroke-width="4" x1="978.942" y1="894.135" x2="976.908" y2="883.911"/>
<line fill="none" stroke="#FF0000" stroke-width="4" stroke-dasharray="15,10" x1="947.439" y1="873.106" x2="976.908" y2="883.911"/>
<line fill="none" stroke="#FF0000" stroke-width="4" stroke-dasharray="15,10" x1="976.908" y1="883.911" x2="1000" y2="862.651"/>
<line fill="none" stroke="#FF0000" stroke-width="4" stroke-dasharray="15,10" x1="865.619" y1="324.425" x2="792.894" y2="500.001"/>
<line fill="none" stroke="#FF0000" stroke-width="4" stroke-dasharray="15,10" x1="865.619" y1="324.425" x2="1000" y2="0"/>
<line fill="none" stroke="#0000FF" stroke-width="4" x1="911.148" y1="553.312" x2="865.619" y2="324.425"/>
<line fill="none" stroke="#0000FF" stroke-width="4" x1="916.257" y1="578.995" x2="911.148" y2="553.312"/>
<line fill="none" stroke="#0000FF" stroke-width="4" x1="916.257" y1="578.995" x2="830.876" y2="591.7"/>
<line fill="none" stroke="#FF0000" stroke-width="4" stroke-dasharray="15,10" x1="916.257" y1="578.995" x2="1000" y2="558.06"/>
<line fill="none" stroke="#0000FF" stroke-width="4" x1="976.908" y1="883.911" x2="916.257" y2="578.995"/>
<line fill="none" stroke="#FF0000" stroke-width="4" stroke-dasharray="15,10" x1="716.772" y1="423.882" x2="865.619" y2="324.425"/>
</svg>
