<?xml version="1.0" encoding="utf-8"?>
<!-- generated by crease pattern Javascript library by Robby Kraft  -->
<svg version="1.1" xmlns="http://www.w3.org/2000/svg" x="0px" y="0px" width="600px" height="600px" viewBox="0 0 600 600">
<g id="marks">
	<line stroke="#C0C0C0" stroke-width="1.5" x1="248.528137423857" y1="102.943725152286" x2="248.528137423857" y2="205.887450304572"/>
	<line stroke="#C0C0C0" stroke-width="1.5" x1="394.112549695428" y1="351.471862576143" x2="497.056274847714" y2="351.471862576143"/>
	<line stroke="#C0C0C0" stroke-width="1.5" x1="248.528137423857" y1="497.056274847714" x2="248.528137423857" y2="600"/>
	<line stroke="#C0C0C0" stroke-width="1.5" x1="0" y1="351.471862576143" x2="102.943725152286" y2="351.471862576143"/>
	<line stroke="#C0C0C0" stroke-width="1.5" x1="102.943725152286" y1="351.471862576143" x2="175.735931288072" y2="278.679656440357"/>
	<line stroke="#C0C0C0" stroke-width="1.5" x1="175.735931288072" y1="278.679656440357" x2="248.528137423857" y2="205.887450304572"/>
	<line stroke="#C0C0C0" stroke-width="1.5" x1="248.528137423857" y1="351.471862576143" x2="321.320343559643" y2="278.679656440357"/>
	<line stroke="#C0C0C0" stroke-width="1.5" x1="321.320343559643" y1="278.679656440357" x2="497.056274847714" y2="102.943725152286"/>
	<line stroke="#C0C0C0" stroke-width="1.5" x1="394.112549695428" y1="351.471862576143" x2="321.320343559643" y2="424.264068711928"/>
	<line stroke="#C0C0C0" stroke-width="1.5" x1="321.320343559643" y1="424.264068711928" x2="248.528137423857" y2="497.056274847714"/>
	<line stroke="#C0C0C0" stroke-width="1.5" x1="0" y1="600" x2="175.735931288072" y2="424.264068711928"/>
	<line stroke="#C0C0C0" stroke-width="1.5" x1="175.735931288072" y1="424.264068711928" x2="248.528137423857" y2="351.471862576143"/>
	<line stroke="#C0C0C0" stroke-width="1.5" x1="248.528137423857" y1="0" x2="248.528137423857" y2="51.471862576143"/>
	<line stroke="#C0C0C0" stroke-width="1.5" x1="248.528137423857" y1="51.471862576143" x2="248.528137423857" y2="102.943725152286"/>
	<line stroke="#C0C0C0" stroke-width="1.5" x1="497.056274847714" y1="102.943725152286" x2="539.696961966999" y2="0"/>
	<line stroke="#C0C0C0" stroke-width="1.5" x1="497.056274847714" y1="102.943725152286" x2="600" y2="0"/>
	<line stroke="#C0C0C0" stroke-width="1.5" x1="497.056274847714" y1="102.943725152286" x2="600" y2="60.303038033001"/>
	<line stroke="#C0C0C0" stroke-width="1.5" x1="497.056274847714" y1="351.471862576143" x2="548.528137423857" y2="351.471862576143"/>
	<line stroke="#C0C0C0" stroke-width="1.5" x1="548.528137423857" y1="351.471862576143" x2="600" y2="351.471862576143"/>
</g>
<g id="valley">
	<line stroke="#4379FF" stroke-linecap="round" stroke-dasharray="6,6" stroke-width="3" x1="0" y1="102.943725152286" x2="248.528137423857" y2="102.943725152286"/>
	<line stroke="#4379FF" stroke-linecap="round" stroke-dasharray="6,6" stroke-width="3" x1="497.056274847714" y1="600" x2="497.056274847714" y2="351.471862576143"/>
	<line stroke="#4379FF" stroke-linecap="round" stroke-dasharray="6,6" stroke-width="3" x1="497.056274847714" y1="102.943725152286" x2="497.056274847714" y2="351.471862576143"/>
	<line stroke="#4379FF" stroke-linecap="round" stroke-dasharray="6,6" stroke-width="3" x1="0" y1="102.943725152286" x2="175.735931288072" y2="278.679656440357"/>
	<line stroke="#4379FF" stroke-linecap="round" stroke-dasharray="6,6" stroke-width="3" x1="175.735931288072" y1="278.679656440357" x2="248.528137423857" y2="351.471862576143"/>
	<line stroke="#4379FF" stroke-linecap="round" stroke-dasharray="6,6" stroke-width="3" x1="248.528137423857" y1="102.943725152286" x2="497.056274847714" y2="102.943725152286"/>
	<line stroke="#4379FF" stroke-linecap="round" stroke-dasharray="6,6" stroke-width="3" x1="248.528137423857" y1="205.887450304572" x2="321.320343559643" y2="278.679656440357"/>
	<line stroke="#4379FF" stroke-linecap="round" stroke-dasharray="6,6" stroke-width="3" x1="321.320343559643" y1="278.679656440357" x2="394.112549695428" y2="351.471862576143"/>
	<line stroke="#4379FF" stroke-linecap="round" stroke-dasharray="6,6" stroke-width="3" x1="248.528137423857" y1="351.471862576143" x2="321.320343559643" y2="424.264068711928"/>
	<line stroke="#4379FF" stroke-linecap="round" stroke-dasharray="6,6" stroke-width="3" x1="321.320343559643" y1="424.264068711928" x2="497.056274847714" y2="600"/>
	<line stroke="#4379FF" stroke-linecap="round" stroke-dasharray="6,6" stroke-width="3" x1="248.528137423857" y1="497.056274847714" x2="175.735931288072" y2="424.264068711928"/>
	<line stroke="#4379FF" stroke-linecap="round" stroke-dasharray="6,6" stroke-width="3" x1="175.735931288072" y1="424.264068711928" x2="102.943725152286" y2="351.471862576143"/>
	<line stroke="#4379FF" stroke-linecap="round" stroke-dasharray="6,6" stroke-width="3" x1="475.735931288072" y1="51.471862576143" x2="351.471862576143" y2="0"/>
	<line stroke="#4379FF" stroke-linecap="round" stroke-dasharray="6,6" stroke-width="3" x1="548.528137423857" y1="124.264068711928" x2="600" y2="248.528137423857"/>
	<line stroke="#4379FF" stroke-linecap="round" stroke-dasharray="6,6" stroke-width="3" x1="0" y1="51.471862576143" x2="51.471862576143" y2="51.471862576143"/>
	<line stroke="#4379FF" stroke-linecap="round" stroke-dasharray="6,6" stroke-width="3" x1="548.528137423857" y1="548.528137423857" x2="548.528137423857" y2="600"/>
</g>
<g id="mountain">
	<line stroke="#EE1032" stroke-width="3" x1="497.056274847714" y1="102.943725152286" x2="248.528137423857" y2="205.887450304572"/>
	<line stroke="#EE1032" stroke-width="3" x1="248.528137423857" y1="205.887450304572" x2="0" y2="102.943725152286"/>
	<line stroke="#EE1032" stroke-width="3" x1="248.528137423857" y1="205.887450304572" x2="248.528137423857" y2="351.471862576143"/>
	<line stroke="#EE1032" stroke-width="3" x1="497.056274847714" y1="102.943725152286" x2="394.112549695428" y2="351.471862576143"/>
	<line stroke="#EE1032" stroke-width="3" x1="394.112549695428" y1="351.471862576143" x2="497.056274847714" y2="600"/>
	<line stroke="#EE1032" stroke-width="3" x1="248.528137423857" y1="351.471862576143" x2="394.112549695428" y2="351.471862576143"/>
	<line stroke="#EE1032" stroke-width="3" x1="497.056274847714" y1="600" x2="248.528137423857" y2="497.056274847714"/>
	<line stroke="#EE1032" stroke-width="3" x1="248.528137423857" y1="497.056274847714" x2="0" y2="600"/>
	<line stroke="#EE1032" stroke-width="3" x1="248.528137423857" y1="351.471862576143" x2="248.528137423857" y2="497.056274847714"/>
	<line stroke="#EE1032" stroke-width="3" x1="0" y1="600" x2="102.943725152286" y2="351.471862576143"/>
	<line stroke="#EE1032" stroke-width="3" x1="102.943725152286" y1="351.471862576143" x2="0" y2="102.943725152286"/>
	<line stroke="#EE1032" stroke-width="3" x1="102.943725152286" y1="351.471862576143" x2="248.528137423857" y2="351.471862576143"/>
	<line stroke="#EE1032" stroke-width="3" x1="475.735931288072" y1="51.471862576143" x2="248.528137423857" y2="51.471862576143"/>
	<line stroke="#EE1032" stroke-width="3" x1="475.735931288072" y1="51.471862576143" x2="497.056274847714" y2="102.943725152286"/>
	<line stroke="#EE1032" stroke-width="3" x1="548.528137423857" y1="124.264068711928" x2="548.528137423857" y2="351.471862576143"/>
	<line stroke="#EE1032" stroke-width="3" x1="497.056274847714" y1="102.943725152286" x2="548.528137423857" y2="124.264068711928"/>
	<line stroke="#EE1032" stroke-width="3" x1="475.735931288072" y1="51.471862576143" x2="475.735931288072" y2="0"/>
	<line stroke="#EE1032" stroke-width="3" x1="548.528137423857" y1="124.264068711928" x2="600" y2="124.264068711928"/>
	<line stroke="#EE1032" stroke-width="3" x1="0" y1="102.943725152286" x2="51.471862576143" y2="51.471862576143"/>
	<line stroke="#EE1032" stroke-width="3" x1="51.471862576143" y1="51.471862576143" x2="0" y2="0"/>
	<line stroke="#EE1032" stroke-width="3" x1="51.471862576143" y1="51.471862576143" x2="248.528137423857" y2="51.471862576143"/>
	<line stroke="#EE1032" stroke-width="3" x1="497.056274847714" y1="600" x2="548.528137423857" y2="548.528137423857"/>
	<line stroke="#EE1032" stroke-width="3" x1="548.528137423857" y1="548.528137423857" x2="600" y2="600"/>
	<line stroke="#EE1032" stroke-width="3" x1="548.528137423857" y1="351.471862576143" x2="548.528137423857" y2="548.528137423857"/>
</g>
<g id="boundary">
	<line stroke="#000000" stroke-width="3" x1="0" y1="0" x2="248.528137423857" y2="0"/>
	<line stroke="#000000" stroke-width="3" x1="248.528137423857" y1="0" x2="351.471862576143" y2="0"/>
	<line stroke="#000000" stroke-width="3" x1="351.471862576143" y1="0" x2="475.735931288072" y2="0"/>
	<line stroke="#000000" stroke-width="3" x1="475.735931288072" y1="0" x2="539.696961966999" y2="0"/>
	<line stroke="#000000" stroke-width="3" x1="539.696961966999" y1="0" x2="600" y2="0"/>
	<line stroke="#000000" stroke-width="3" x1="600" y1="0" x2="600" y2="60.303038033001"/>
	<line stroke="#000000" stroke-width="3" x1="600" y1="60.303038033001" x2="600" y2="124.264068711928"/>
	<line stroke="#000000" stroke-width="3" x1="600" y1="124.264068711928" x2="600" y2="248.528137423857"/>
	<line stroke="#000000" stroke-width="3" x1="600" y1="248.528137423857" x2="600" y2="351.471862576143"/>
	<line stroke="#000000" stroke-width="3" x1="600" y1="351.471862576143" x2="600" y2="600"/>
	<line stroke="#000000" stroke-width="3" x1="0" y1="600" x2="248.528137423857" y2="600"/>
	<line stroke="#000000" stroke-width="3" x1="248.528137423857" y1="600" x2="497.056274847714" y2="600"/>
	<line stroke="#000000" stroke-width="3" x1="497.056274847714" y1="600" x2="548.528137423857" y2="600"/>
	<line stroke="#000000" stroke-width="3" x1="548.528137423857" y1="600" x2="600" y2="600"/>
	<line stroke="#000000" stroke-width="3" x1="0" y1="0" x2="0" y2="51.471862576143"/>
	<line stroke="#000000" stroke-width="3" x1="0" y1="51.471862576143" x2="0" y2="102.943725152286"/>
	<line stroke="#000000" stroke-width="3" x1="0" y1="102.943725152286" x2="0" y2="351.471862576143"/>
	<line stroke="#000000" stroke-width="3" x1="0" y1="351.471862576143" x2="0" y2="600"/>
</g>
</svg>
