<?xml version="1.0" encoding="ISO-8859-1" standalone="no"?>
<!DOCTYPE svg PUBLIC "-//W3C//DTD SVG 20010904//EN"
"http://www.w3.org/TR/2001/REC-SVG-20010904/DTD/svg10.dtd">
<svg xmlns="http://www.w3.org/2000/svg"
 xmlns:xlink="http://www.w3.org/1999/xlink" xml:space="preserve"
 width="1000px" height="1000px"
 viewBox="0 0 1000 1000" >
 <line style="stroke:black;stroke-width:5;" x1="0.0" y1="500.0000000000001" x2="0.0" y2="507.67293736587135" />
 <line style="stroke-dasharray: 15, 10;stroke:red;stroke-width:4;" x1="0.0" y1="507.67293736587135" x2="114.98083406718251" y2="526.3104999999999" />
 <line style="stroke:black;stroke-width:5;" x1="0.0" y1="507.67293736587135" x2="0.0" y2="534.681425188113" />
 <line style="stroke:black;stroke-width:5;" x1="0.0" y1="542.7314370137889" x2="0.0" y2="534.681425188113" />
 <line style="stroke:blue;stroke-width:4;stroke-opacity:1" x1="0.0" y1="534.681425188113" x2="114.98083406718251" y2="526.3104999999999" />
 <line style="stroke:blue;stroke-width:4;stroke-opacity:1" x1="0.0" y1="500.0000000000001" x2="111.91500000000013" y2="500.00000000000006" />
 <line style="stroke:gray;stroke-width:1;" x1="47.11397296610102" y1="515.3097720542098" x2="111.91500000000008" y2="500.0" />
 <line style="stroke:blue;stroke-width:4;stroke-opacity:1" x1="114.98083406718251" y1="526.3104999999999" x2="111.91499999999996" y2="500.0" />
 <line style="stroke:black;stroke-width:5;" x1="0.0" y1="500.0000000000001" x2="0.0" y2="473.5591669164356" />
 <line style="stroke:black;stroke-width:5;" x1="0.0" y1="465.3185748118874" x2="0.0" y2="473.5591669164356" />
 <line style="stroke-dasharray: 15, 10;stroke:red;stroke-width:4;" x1="0.0" y1="473.5591669164356" x2="111.91499999999996" y2="500.0" />
 <line style="stroke:blue;stroke-width:4;stroke-opacity:1" x1="1000.0" y1="500.0" x2="566.5850000000005" y2="500.0" />
 <line style="stroke:black;stroke-width:5;" x1="1000.0" y1="500.0" x2="1000.0" y2="602.397834704135" />
 <line style="stroke-dasharray: 15, 10;stroke:red;stroke-width:4;" x1="566.585" y1="499.99999999999994" x2="1000.0" y2="602.397834704135" />
 <line style="stroke:black;stroke-width:5;" x1="1000.0" y1="500.0" x2="1000.0" y2="401.5590332414404" />
 <line style="stroke:black;stroke-width:5;" x1="1000.0" y1="0.0" x2="1000.0" y2="168.4932446640414" />
 <line style="stroke:gray;stroke-width:1;" x1="566.5850000000003" y1="500.0" x2="944.2722655470577" y2="410.7682978499961" />
 <line style="stroke:black;stroke-width:5;" x1="1000.0" y1="1000.0" x2="1000.0" y2="844.8987639874667" />
 <line style="stroke:blue;stroke-width:4;stroke-opacity:1" x1="0.0" y1="465.3185748118875" x2="114.98083406718223" y2="473.68950000000007" />
 <line style="stroke:blue;stroke-width:4;stroke-opacity:1" x1="111.91500000000008" y1="500.00000000000006" x2="114.98083406718251" y2="473.6895000000001" />
 <line style="stroke:black;stroke-width:5;" x1="0.0" y1="465.3185748118874" x2="0.0" y2="437.3588473014627" />
 <line style="stroke-dasharray: 15, 10;stroke:red;stroke-width:4;" x1="0.0" y1="437.3588473014627" x2="114.98083406718223" y2="473.68950000000007" />
 <line style="stroke:black;stroke-width:5;" x1="0.0" y1="542.7314370137889" x2="0.0" y2="572.6257786304899" />
 <line style="stroke:black;stroke-width:5;" x1="0.0" y1="582.1465053800376" x2="0.0" y2="572.6257786304899" />
 <line style="stroke-dasharray: 15, 10;stroke:red;stroke-width:4;" x1="0.0" y1="542.7314370137889" x2="124.91674999999964" y2="553.5832500000001" />
 <line style="stroke:blue;stroke-width:4;stroke-opacity:1" x1="114.98083406718251" y1="526.3104999999999" x2="124.91674999999975" y2="553.5832500000001" />
 <line style="stroke:blue;stroke-width:4;stroke-opacity:1" x1="0.0" y1="572.6257786304899" x2="124.91674999999964" y2="553.5832500000001" />
 <line style="stroke-dasharray: 15, 10;stroke:red;stroke-width:4;" x1="0.0" y1="582.1465053800376" x2="144.26524906986367" y2="582.65" />
 <line style="stroke:black;stroke-width:5;" x1="0.0" y1="582.1465053800376" x2="0.0" y2="618.5463370058238" />
 <line style="stroke:black;stroke-width:5;" x1="0.0" y1="631.3122168718763" x2="0.0" y2="618.5463370058238" />
 <line style="stroke:blue;stroke-width:4;stroke-opacity:1" x1="124.91674999999964" y1="553.5832500000001" x2="144.26524906986367" y2="582.65" />
 <line style="stroke:blue;stroke-width:4;stroke-opacity:1" x1="-4.547473508864641E-12" y1="618.546337005825" x2="144.26524906986367" y2="582.65" />
 <line style="stroke:black;stroke-width:5;" x1="0.0" y1="631.3122168718763" x2="0.0" y2="681.770708154657" />
 <line style="stroke:black;stroke-width:5;" x1="0.0" y1="701.6794001191463" x2="0.0" y2="681.770708154657" />
 <line style="stroke-dasharray: 15, 10;stroke:red;stroke-width:4;" x1="0.0" y1="631.3122168718763" x2="178.5000000000001" y2="613.6675" />
 <line style="stroke:blue;stroke-width:4;stroke-opacity:1" x1="144.26524906986367" y1="582.65" x2="178.5000000000001" y2="613.6675" />
 <line style="stroke:blue;stroke-width:4;stroke-opacity:1" x1="-4.547473508864641E-12" y1="681.7707081546587" x2="178.5000000000001" y2="613.6675" />
 <line style="stroke:black;stroke-width:5;" x1="0.0" y1="701.6794001191463" x2="0.0" y2="787.8563704680937" />
 <line style="stroke:black;stroke-width:5;" x1="0.0" y1="827.3842196733517" x2="0.0" y2="787.8563704680937" />
 <line style="stroke-dasharray: 15, 10;stroke:red;stroke-width:4;" x1="0.0" y1="701.6794001191463" x2="238.135983429102" y2="643.9740000000006" />
 <line style="stroke:blue;stroke-width:4;stroke-opacity:1" x1="178.5000000000001" y1="613.6675" x2="238.1359834291033" y2="643.9739999999999" />
 <line style="stroke:blue;stroke-width:4;stroke-opacity:1" x1="0.0" y1="787.8563704680937" x2="238.1359834291033" y2="643.9739999999999" />
 <line style="stroke:black;stroke-width:5;" x1="0.0" y1="827.3842196733517" x2="0.0" y2="1000.0000000000045" />
 <line style="stroke-dasharray: 15, 10;stroke:red;stroke-width:4;" x1="0.0" y1="827.3842196733517" x2="339.2499999999999" y2="660.7500000000003" />
 <line style="stroke:black;stroke-width:5;" x1="115.7532894509655" y1="1000.0" x2="4.490630090003833E-12" y2="1000.0" />
 <line style="stroke:blue;stroke-width:4;stroke-opacity:1" x1="238.1359834291033" y1="643.9739999999999" x2="339.2500000000002" y2="660.75" />
 <line style="stroke:blue;stroke-width:4;stroke-opacity:1" x1="0.0" y1="1000.0000000000045" x2="339.25" y2="660.7500000000002" />
 <line style="stroke:black;stroke-width:5;" x1="115.7532894509655" y1="1000.0" x2="275.56810733675553" y2="1000.0" />
 <line style="stroke:black;stroke-width:5;" x1="384.46072365250274" y1="1000.0" x2="275.56810733675553" y2="1000.0" />
 <line style="stroke-dasharray: 15, 10;stroke:red;stroke-width:4;" x1="115.75328945096544" y1="1000.0" x2="440.3640165708959" y2="643.9740000000008" />
 <line style="stroke:blue;stroke-width:4;stroke-opacity:1" x1="339.2500000000002" y1="660.75" x2="440.3640165708963" y2="643.974" />
 <line style="stroke:blue;stroke-width:4;stroke-opacity:1" x1="275.5681073367555" y1="1000.0" x2="440.36401657089607" y2="643.9740000000006" />
 <line style="stroke:black;stroke-width:5;" x1="384.46072365250274" y1="1000.0" x2="490.4762751535196" y2="1000.0" />
 <line style="stroke:black;stroke-width:5;" x1="588.6944219144134" y1="1000.0" x2="490.4762751535196" y2="1000.0" />
 <line style="stroke-dasharray: 15, 10;stroke:red;stroke-width:4;" x1="384.46072365250274" y1="1000.0" x2="499.9999999999999" y2="613.6675000000001" />
 <line style="stroke:blue;stroke-width:4;stroke-opacity:1" x1="440.36401657089635" y1="643.9739999999999" x2="499.9999999999999" y2="613.6675" />
 <line style="stroke:blue;stroke-width:4;stroke-opacity:1" x1="490.47627515351957" y1="1000.0000000000023" x2="499.9999999999999" y2="613.6675000000001" />
 <line style="stroke:black;stroke-width:5;" x1="588.6944219144134" y1="1000.0" x2="699.5353799178611" y2="1000.0" />
 <line style="stroke:black;stroke-width:5;" x1="820.0185460290026" y1="1000.0" x2="699.5353799178611" y2="1000.0" />
 <line style="stroke-dasharray: 15, 10;stroke:red;stroke-width:4;" x1="588.6944219144134" y1="1000.0" x2="534.2347509301364" y2="582.6500000000001" />
 <line style="stroke:blue;stroke-width:4;stroke-opacity:1" x1="499.9999999999999" y1="613.6675000000001" x2="534.2347509301364" y2="582.65" />
 <line style="stroke:blue;stroke-width:4;stroke-opacity:1" x1="699.5353799178611" y1="1000.0" x2="534.2347509301364" y2="582.65" />
 <line style="stroke:black;stroke-width:5;" x1="1000.0" y1="1000.0" x2="991.7025916524062" y2="1000.0" />
 <line style="stroke:black;stroke-width:5;" x1="820.0185460290026" y1="1000.0" x2="991.7025916524062" y2="1000.0" />
 <line style="stroke-dasharray: 15, 10;stroke:red;stroke-width:4;" x1="820.0185460290027" y1="1000.0" x2="553.5832500000004" y2="553.5832499999999" />
 <line style="stroke:blue;stroke-width:4;stroke-opacity:1" x1="534.2347509301364" y1="582.65" x2="553.5832500000005" y2="553.5832499999999" />
 <line style="stroke:blue;stroke-width:4;stroke-opacity:1" x1="991.7025916524062" y1="1000.0" x2="553.5832500000004" y2="553.5832499999999" />
 <line style="stroke:blue;stroke-width:4;stroke-opacity:1" x1="566.585" y1="499.99999999999994" x2="563.5191659328175" y2="526.3104999999998" />
 <line style="stroke-dasharray: 15, 10;stroke:red;stroke-width:4;" x1="1000.0" y1="844.8987639874667" x2="563.5191659328178" y2="526.3105" />
 <line style="stroke:black;stroke-width:5;" x1="1000.0" y1="844.8987639874667" x2="1000.0" y2="709.3840678693405" />
 <line style="stroke:black;stroke-width:5;" x1="1000.0" y1="602.397834704135" x2="1000.0" y2="709.3840678693405" />
 <line style="stroke:blue;stroke-width:4;stroke-opacity:1" x1="553.5832500000004" y1="553.5832499999999" x2="563.5191659328175" y2="526.3104999999998" />
 <line style="stroke:blue;stroke-width:4;stroke-opacity:1" x1="563.5191659328182" y1="526.3105000000002" x2="1000.0000000000023" y2="709.3840678693414" />
 <line style="stroke:blue;stroke-width:4;stroke-opacity:1" x1="566.585" y1="499.99999999999994" x2="563.5191659328175" y2="473.6895000000001" />
 <line style="stroke-dasharray: 15, 10;stroke:red;stroke-width:4;" x1="1000.0" y1="401.5590332414404" x2="563.5191659328176" y2="473.68950000000007" />
 <line style="stroke:black;stroke-width:5;" x1="1000.0" y1="401.5590332414404" x2="1000.0" y2="290.6159321306603" />
 <line style="stroke:black;stroke-width:5;" x1="1000.0" y1="168.4932446640414" x2="1000.0" y2="290.6159321306603" />
 <line style="stroke:blue;stroke-width:4;stroke-opacity:1" x1="563.5191659328176" y1="473.68950000000007" x2="1000.0" y2="290.6159321306603" />
 <line style="stroke-dasharray: 15, 10;stroke:red;stroke-width:4;" x1="1000.0" y1="168.4932446640414" x2="553.5832500000004" y2="446.41674999999987" />
 <line style="stroke:black;stroke-width:5;" x1="1000.0" y1="0.0" x2="991.7025916524108" y2="0.0" />
 <line style="stroke:black;stroke-width:5;" x1="835.0156586066273" y1="0.0" x2="991.7025916524108" y2="0.0" />
 <line style="stroke:blue;stroke-width:4;stroke-opacity:1" x1="563.5191659328176" y1="473.68950000000007" x2="553.5832500000002" y2="446.4167499999999" />
 <line style="stroke:blue;stroke-width:4;stroke-opacity:1" x1="553.5832500000004" y1="446.41674999999987" x2="991.7025916524085" y2="2.2737367544323206E-12" />
 <line style="stroke-dasharray: 15, 10;stroke:red;stroke-width:4;" x1="835.0156586066273" y1="0.0" x2="534.2347509301366" y2="417.34999999999945" />
 <line style="stroke:black;stroke-width:5;" x1="835.0156586066273" y1="0.0" x2="699.5362878629487" y2="0.0" />
 <line style="stroke:black;stroke-width:5;" x1="595.0774771052633" y1="0.0" x2="699.5362878629487" y2="0.0" />
 <line style="stroke:blue;stroke-width:4;stroke-opacity:1" x1="553.5832500000004" y1="446.41674999999987" x2="534.2347509301363" y2="417.34999999999985" />
 <line style="stroke:blue;stroke-width:4;stroke-opacity:1" x1="534.2347509301366" y1="417.3499999999993" x2="699.5362878629487" y2="0.0" />
 <line style="stroke-dasharray: 15, 10;stroke:red;stroke-width:4;" x1="595.0774771052634" y1="0.0" x2="499.99999999999994" y2="386.3324999999998" />
 <line style="stroke:black;stroke-width:5;" x1="595.0774771052633" y1="0.0" x2="490.4762751535209" y2="0.0" />
 <line style="stroke:black;stroke-width:5;" x1="394.6345856281148" y1="0.0" x2="490.4762751535209" y2="0.0" />
 <line style="stroke:blue;stroke-width:4;stroke-opacity:1" x1="534.2347509301363" y1="417.34999999999985" x2="499.99999999999994" y2="386.33249999999987" />
 <line style="stroke:blue;stroke-width:4;stroke-opacity:1" x1="499.9999999999999" y1="386.3324999999987" x2="490.4762751535208" y2="-2.2737367544323206E-12" />
 <line style="stroke-dasharray: 15, 10;stroke:red;stroke-width:4;" x1="394.6345856281148" y1="0.0" x2="440.364016570896" y2="356.0259999999993" />
 <line style="stroke:black;stroke-width:5;" x1="394.6345856281148" y1="0.0" x2="275.56810733675775" y2="0.0" />
 <line style="stroke:black;stroke-width:5;" x1="172.61578032665057" y1="0.0" x2="275.56810733675775" y2="0.0" />
 <line style="stroke:blue;stroke-width:4;stroke-opacity:1" x1="499.99999999999994" y1="386.3325" x2="440.36401657089635" y2="356.02600000000007" />
 <line style="stroke:blue;stroke-width:4;stroke-opacity:1" x1="440.364016570896" y1="356.0259999999993" x2="275.56810733675775" y2="0.0" />
 <line style="stroke:black;stroke-width:5;" x1="172.61578032665057" y1="0.0" x2="9.038103598868474E-12" y2="0.0" />
 <line style="stroke-dasharray: 15, 10;stroke:red;stroke-width:4;" x1="172.61578032665057" y1="0.0" x2="339.24999999999983" y2="339.2499999999998" />
 <line style="stroke:black;stroke-width:5;" x1="0.0" y1="85.34724578783084" x2="5.6843418860808015E-14" y2="-8.952838470577262E-12" />
 <line style="stroke:blue;stroke-width:4;stroke-opacity:1" x1="440.3640165708963" y1="356.02599999999995" x2="339.2500000000001" y2="339.2500000000001" />
 <line style="stroke:blue;stroke-width:4;stroke-opacity:1" x1="339.2499999999999" y1="339.24999999999983" x2="9.094947017729282E-12" y2="0.0" />
 <line style="stroke-dasharray: 15, 10;stroke:red;stroke-width:4;" x1="0.0" y1="85.34724578783084" x2="238.1359834291036" y2="356.02600000000007" />
 <line style="stroke:black;stroke-width:5;" x1="0.0" y1="85.34724578783084" x2="0.0" y2="212.14362953191085" />
 <line style="stroke:black;stroke-width:5;" x1="0.0" y1="256.06582017810405" x2="0.0" y2="212.14362953191085" />
 <line style="stroke:blue;stroke-width:4;stroke-opacity:1" x1="339.2500000000001" y1="339.25" x2="238.1359834291037" y2="356.02600000000007" />
 <line style="stroke:blue;stroke-width:4;stroke-opacity:1" x1="0.0" y1="212.14362953191085" x2="238.1359834291037" y2="356.02600000000007" />
 <line style="stroke-dasharray: 15, 10;stroke:red;stroke-width:4;" x1="0.0" y1="256.0658201781041" x2="178.49999999999994" y2="386.3325000000002" />
 <line style="stroke:black;stroke-width:5;" x1="0.0" y1="256.06582017810405" x2="0.0" y2="318.2292918453413" />
 <line style="stroke:black;stroke-width:5;" x1="0.0" y1="340.1727417502252" x2="0.0" y2="318.2292918453413" />
 <line style="stroke:blue;stroke-width:4;stroke-opacity:1" x1="238.13598342910376" y1="356.0260000000002" x2="178.5" y2="386.3325000000002" />
 <line style="stroke:blue;stroke-width:4;stroke-opacity:1" x1="0.0" y1="318.2292918453413" x2="178.49999999999994" y2="386.3325000000002" />
 <line style="stroke-dasharray: 15, 10;stroke:red;stroke-width:4;" x1="0.0" y1="340.1727417502252" x2="144.26524906986452" y2="417.35" />
 <line style="stroke:black;stroke-width:5;" x1="0.0" y1="340.1727417502252" x2="0.0" y2="381.45366299417503" />
 <line style="stroke:black;stroke-width:5;" x1="0.0" y1="395.1845679717155" x2="0.0" y2="381.45366299417503" />
 <line style="stroke:blue;stroke-width:4;stroke-opacity:1" x1="178.49999999999994" y1="386.3325000000002" x2="144.2652490698639" y2="417.34999999999985" />
 <line style="stroke:blue;stroke-width:4;stroke-opacity:1" x1="0.0" y1="381.45366299417503" x2="144.26524906986464" y2="417.3500000000001" />
 <line style="stroke-dasharray: 15, 10;stroke:red;stroke-width:4;" x1="0.0" y1="395.1845679717155" x2="124.91674999999981" y2="446.4167499999999" />
 <line style="stroke:blue;stroke-width:4;stroke-opacity:1" x1="114.98083406718257" y1="473.6895000000002" x2="124.91674999999975" y2="446.4167499999999" />
 <line style="stroke:black;stroke-width:5;" x1="0.0" y1="395.1845679717155" x2="0.0" y2="427.3742213695107" />
 <line style="stroke:black;stroke-width:5;" x1="0.0" y1="437.3588473014627" x2="0.0" y2="427.3742213695107" />
 <line style="stroke:blue;stroke-width:4;stroke-opacity:1" x1="144.26524906986373" y1="417.34999999999985" x2="124.91674999999975" y2="446.4167499999999" />
 <line style="stroke:blue;stroke-width:4;stroke-opacity:1" x1="0.0" y1="427.3742213695107" x2="124.91674999999975" y2="446.4167499999999" />
 <line style="stroke:gray;stroke-width:1;" x1="402.2934206274211" y1="940.3722212752816" x2="440.3640165708961" y2="643.9739999999997" />
 <line style="stroke:gray;stroke-width:1;" x1="135.20109248553632" y1="239.02441273729525" x2="339.24999999999983" y2="339.24999999999983" />
 <line style="stroke:gray;stroke-width:1;" x1="239.02441273729482" y1="864.7989075144644" x2="339.2500000000001" y2="660.75" />
 <line style="stroke:gray;stroke-width:1;" x1="440.36401657089635" y1="643.9739999999999" x2="385.94552725468" y2="614.0544727453201" />
 <line style="stroke:gray;stroke-width:1;" x1="339.2499999999999" y1="660.7500000000003" x2="385.94552725468" y2="614.0544727453201" />
 <line style="stroke:gray;stroke-width:1;" x1="385.94552725468" y1="614.0544727453201" x2="416.0229078458294" y2="583.9770921541707" />
 <line style="stroke:gray;stroke-width:1;" x1="416.0229078458294" y1="583.9770921541707" x2="439.38663481423254" y2="560.6133651857675" />
 <line style="stroke:gray;stroke-width:1;" x1="439.38663481423254" y1="560.6133651857675" x2="459.8125468750175" y2="540.1874531249824" />
 <line style="stroke:gray;stroke-width:1;" x1="459.8125468750175" y1="540.1874531249824" x2="479.43541044914184" y2="520.5645895508582" />
 <line style="stroke:gray;stroke-width:1;" x1="581.4900749517144" y1="944.7897104308528" x2="499.9999999999999" y2="613.6674999999999" />
 <line style="stroke:gray;stroke-width:1;" x1="416.0229078458294" y1="583.9770921541707" x2="499.9999999999999" y2="613.6674999999999" />
 <line style="stroke:gray;stroke-width:1;" x1="439.38663481423254" y1="560.6133651857675" x2="500.0" y2="574.6960338581557" />
 <line style="stroke:gray;stroke-width:1;" x1="459.8125468750175" y1="540.1874531249824" x2="500.0" y2="545.9285102040689" />
 <line style="stroke:gray;stroke-width:1;" x1="479.43541044914184" y1="520.5645895508582" x2="500.00000000000006" y2="521.9698822771747" />
 <line style="stroke:gray;stroke-width:1;" x1="499.9999999999999" y1="613.6674999999999" x2="500.0" y2="574.6960338581557" />
 <line style="stroke:gray;stroke-width:1;" x1="500.0" y1="574.6960338581557" x2="500.0" y2="545.9285102040689" />
 <line style="stroke:gray;stroke-width:1;" x1="500.0" y1="545.9285102040689" x2="500.00000000000006" y2="521.9698822771747" />
 <line style="stroke:gray;stroke-width:1;" x1="747.7625328496993" y1="878.9338535388695" x2="534.2347509301366" y2="582.6500000000004" />
 <line style="stroke:gray;stroke-width:1;" x1="500.0" y1="574.6960338581557" x2="534.2347509301364" y2="582.6500000000001" />
 <line style="stroke:gray;stroke-width:1;" x1="500.0" y1="545.9285102040689" x2="520.2207394483436" y2="548.8171834174035" />
 <line style="stroke:gray;stroke-width:1;" x1="500.00000000000006" y1="521.9698822771747" x2="509.3653132205912" y2="522.6098661930231" />
 <line style="stroke:gray;stroke-width:1;" x1="534.2347509301364" y1="582.65" x2="520.2207394483436" y2="548.8171834174035" />
 <line style="stroke:gray;stroke-width:1;" x1="520.2207394483436" y1="548.8171834174035" x2="509.3653132205912" y2="522.6098661930231" />
 <line style="stroke:gray;stroke-width:1;" x1="875.2339159841667" y1="753.8317410881275" x2="553.5832500000015" y2="553.583250000001" />
 <line style="stroke:gray;stroke-width:1;" x1="520.2207394483436" y1="548.8171834174035" x2="553.5832500000017" y2="553.5832500000012" />
 <line style="stroke:gray;stroke-width:1;" x1="509.3653132205912" y1="522.6098661930231" x2="523.5813253298552" y2="523.5813253298547" />
 <line style="stroke:gray;stroke-width:1;" x1="523.5813253298552" y1="523.5813253298547" x2="553.5832500000004" y2="553.5832499999999" />
 <line style="stroke:gray;stroke-width:1;" x1="944.2722655470596" y1="589.2317021500053" x2="563.5191659328158" y2="526.3104999999998" />
 <line style="stroke:gray;stroke-width:1;" x1="523.5813253298552" y1="523.5813253298547" x2="563.5191659328158" y2="526.3104999999997" />
 <line style="stroke:gray;stroke-width:1;" x1="339.24999999999983" y1="339.2499999999998" x2="292.55447274531974" y2="385.94552725467895" />
 <line style="stroke:gray;stroke-width:1;" x1="65.38380344329062" y1="375.1509691211953" x2="178.50000000000108" y2="386.3325000000006" />
 <line style="stroke:gray;stroke-width:1;" x1="292.55447274531974" y1="385.94552725467895" x2="262.4770921541705" y2="416.0229078458276" />
 <line style="stroke:gray;stroke-width:1;" x1="178.50000000000108" y1="386.3325000000006" x2="178.49999999999977" y2="425.303966141842" />
 <line style="stroke:gray;stroke-width:1;" x1="262.4770921541705" y1="416.0229078458276" x2="239.1133651857706" y2="439.3866348142271" />
 <line style="stroke:gray;stroke-width:1;" x1="178.49999999999977" y1="425.303966141842" x2="178.49999999999898" y2="454.0714897959298" />
 <line style="stroke:gray;stroke-width:1;" x1="239.1133651857706" y1="439.3866348142271" x2="218.6874531249826" y2="459.81254687501473" />
 <line style="stroke:gray;stroke-width:1;" x1="178.49999999999898" y1="454.0714897959298" x2="178.49999999999818" y2="478.0301177228222" />
 <line style="stroke:gray;stroke-width:1;" x1="218.6874531249826" y1="459.81254687501473" x2="199.064589550859" y2="479.435410449138" />
 <line style="stroke:gray;stroke-width:1;" x1="65.38380344328982" y1="624.8490308788048" x2="144.26524906986396" y2="582.65" />
 <line style="stroke:gray;stroke-width:1;" x1="144.26524906986367" y1="582.65" x2="178.4999999999992" y2="574.6960338581617" />
 <line style="stroke:gray;stroke-width:1;" x1="178.4999999999992" y1="574.6960338581617" x2="206.72393128574407" y2="568.1385976935313" />
 <line style="stroke:gray;stroke-width:1;" x1="206.72393128574407" y1="568.1385976935313" x2="239.11336518577923" y2="560.613365185781" />
 <line style="stroke:gray;stroke-width:1;" x1="239.11336518577923" y1="560.613365185781" x2="274.0020693730181" y2="552.5074621399483" />
 <line style="stroke:gray;stroke-width:1;" x1="274.0020693730181" y1="552.5074621399483" x2="305.99163489091177" y2="545.0751334648924" />
 <line style="stroke:gray;stroke-width:1;" x1="305.99163489091177" y1="545.0751334648924" x2="339.2500000000721" y2="537.3480169290949" />
 <line style="stroke:gray;stroke-width:1;" x1="339.2500000000721" y1="537.3480169290949" x2="377.586969174548" y2="528.4409576834539" />
 <line style="stroke:gray;stroke-width:1;" x1="377.586969174548" y1="528.4409576834539" x2="426.9306345557476" y2="516.9766463304311" />
 <line style="stroke:gray;stroke-width:1;" x1="86.6828529710873" y1="680.6743061298337" x2="178.49999999999994" y2="613.6675" />
 <line style="stroke:gray;stroke-width:1;" x1="178.4999999999992" y1="574.6960338581617" x2="178.5000000000001" y2="613.6675" />
 <line style="stroke:gray;stroke-width:1;" x1="206.72393128574407" y1="568.1385976935313" x2="219.56830202231527" y2="599.1476517259077" />
 <line style="stroke:gray;stroke-width:1;" x1="239.11336518577923" y1="560.613365185781" x2="262.4770921541734" y2="583.9770921541749" />
 <line style="stroke:gray;stroke-width:1;" x1="274.0020693730181" y1="552.5074621399483" x2="304.3277311894786" y2="569.1806457698991" />
 <line style="stroke:gray;stroke-width:1;" x1="305.99163489091177" y1="545.0751334648924" x2="339.2500000000141" y2="556.8337500000055" />
 <line style="stroke:gray;stroke-width:1;" x1="339.2500000000721" y1="537.3480169290949" x2="372.5083651091561" y2="545.0751334648804" />
 <line style="stroke:gray;stroke-width:1;" x1="377.586969174548" y1="528.4409576834539" x2="407.47878965318296" y2="532.711212059414" />
 <line style="stroke:gray;stroke-width:1;" x1="426.9306345557476" y1="516.9766463304311" x2="447.924996534715" y2="518.4113077959437" />
 <line style="stroke:gray;stroke-width:1;" x1="178.49999999999994" y1="613.6675" x2="219.56830202231527" y2="599.1476517259077" />
 <line style="stroke:gray;stroke-width:1;" x1="219.56830202231527" y1="599.1476517259077" x2="262.4770921541734" y2="583.9770921541749" />
 <line style="stroke:gray;stroke-width:1;" x1="262.4770921541734" y1="583.9770921541749" x2="304.3277311894786" y2="569.1806457698991" />
 <line style="stroke:gray;stroke-width:1;" x1="304.3277311894786" y1="569.1806457698991" x2="339.2500000000141" y2="556.8337500000055" />
 <line style="stroke:gray;stroke-width:1;" x1="339.2500000000141" y1="556.8337500000055" x2="372.5083651091561" y2="545.0751334648804" />
 <line style="stroke:gray;stroke-width:1;" x1="372.5083651091561" y1="545.0751334648804" x2="407.47878965318296" y2="532.711212059414" />
 <line style="stroke:gray;stroke-width:1;" x1="407.47878965318296" y1="532.711212059414" x2="447.924996534715" y2="518.4113077959437" />
 <line style="stroke:gray;stroke-width:1;" x1="135.20109248553683" y1="760.9755872627046" x2="238.1359834291049" y2="643.9739999999989" />
 <line style="stroke:gray;stroke-width:1;" x1="219.56830202231527" y1="599.1476517259077" x2="238.1359834291049" y2="643.9739999999989" />
 <line style="stroke:gray;stroke-width:1;" x1="339.2499999999999" y1="660.7500000000003" x2="292.554472745313" y2="614.054472745314" />
 <line style="stroke:gray;stroke-width:1;" x1="262.4770921541734" y1="583.9770921541749" x2="292.554472745313" y2="614.054472745314" />
 <line style="stroke:gray;stroke-width:1;" x1="385.94552725468" y1="614.0544727453201" x2="339.24999999998334" y2="588.3810643518937" />
 <line style="stroke:gray;stroke-width:1;" x1="304.3277311894786" y1="569.1806457698991" x2="339.24999999998334" y2="588.3810643518937" />
 <line style="stroke:gray;stroke-width:1;" x1="416.0229078458294" y1="583.9770921541707" x2="374.17226881050294" y2="569.1806457698848" />
 <line style="stroke:gray;stroke-width:1;" x1="339.2500000000141" y1="556.8337500000055" x2="374.17226881050294" y2="569.1806457698848" />
 <line style="stroke:gray;stroke-width:1;" x1="439.38663481423254" y1="560.6133651857675" x2="404.4979306269721" y2="552.5074621399237" />
 <line style="stroke:gray;stroke-width:1;" x1="372.5083651091561" y1="545.0751334648804" x2="404.4979306269721" y2="552.5074621399237" />
 <line style="stroke:gray;stroke-width:1;" x1="459.8125468750175" y1="540.1874531249824" x2="433.69269537760954" y2="536.4560507423155" />
 <line style="stroke:gray;stroke-width:1;" x1="407.47878965318296" y1="532.711212059414" x2="433.69269537760954" y2="536.4560507423155" />
 <line style="stroke:gray;stroke-width:1;" x1="479.43541044914184" y1="520.5645895508582" x2="464.45808042067085" y2="519.5411053283017" />
 <line style="stroke:gray;stroke-width:1;" x1="447.924996534715" y1="518.4113077959437" x2="464.45808042067085" y2="519.5411053283017" />
 <line style="stroke:gray;stroke-width:1;" x1="238.1359834291049" y1="643.9739999999989" x2="292.554472745313" y2="614.054472745314" />
 <line style="stroke:gray;stroke-width:1;" x1="292.554472745313" y1="614.054472745314" x2="339.24999999998334" y2="588.3810643518937" />
 <line style="stroke:gray;stroke-width:1;" x1="339.24999999998334" y1="588.3810643518937" x2="374.17226881050294" y2="569.1806457698848" />
 <line style="stroke:gray;stroke-width:1;" x1="374.17226881050294" y1="569.1806457698848" x2="404.4979306269721" y2="552.5074621399237" />
 <line style="stroke:gray;stroke-width:1;" x1="404.4979306269721" y1="552.5074621399237" x2="433.69269537760954" y2="536.4560507423155" />
 <line style="stroke:gray;stroke-width:1;" x1="433.69269537760954" y1="536.4560507423155" x2="464.45808042067085" y2="519.5411053283017" />
 <line style="stroke:gray;stroke-width:1;" x1="54.80607854412227" y1="582.3377819755179" x2="124.91674999999992" y2="553.5832500000001" />
 <line style="stroke:gray;stroke-width:1;" x1="178.4999999999992" y1="574.6960338581617" x2="178.49999999999852" y2="545.9285102040559" />
 <line style="stroke:gray;stroke-width:1;" x1="144.26524906986367" y1="582.65" x2="158.27926055165915" y2="548.8171834173945" />
 <line style="stroke:gray;stroke-width:1;" x1="206.72393128574407" y1="568.1385976935313" x2="196.4613780450269" y2="543.3626024752176" />
 <line style="stroke:gray;stroke-width:1;" x1="239.11336518577923" y1="560.613365185781" x2="218.6874531249611" y2="540.1874531249631" />
 <line style="stroke:gray;stroke-width:1;" x1="274.0020693730181" y1="552.5074621399483" x2="244.80730462229877" y2="536.4560507423001" />
 <line style="stroke:gray;stroke-width:1;" x1="305.99163489091177" y1="545.0751334648924" x2="271.02121034677623" y2="532.7112120593854" />
 <line style="stroke:gray;stroke-width:1;" x1="339.2500000000721" y1="537.3480169290949" x2="300.91303082544874" y2="528.4409576834131" />
 <line style="stroke:gray;stroke-width:1;" x1="377.586969174548" y1="528.4409576834539" x2="339.2499999998247" y2="522.9642551020096" />
 <line style="stroke:gray;stroke-width:1;" x1="426.9306345557476" y1="516.9766463304311" x2="395.9722477364531" y2="514.8610876557464" />
 <line style="stroke:gray;stroke-width:1;" x1="124.91674999999975" y1="553.5832500000001" x2="158.27926055165915" y2="548.8171834173945" />
 <line style="stroke:gray;stroke-width:1;" x1="158.27926055165915" y1="548.8171834173945" x2="178.49999999999852" y2="545.9285102040559" />
 <line style="stroke:gray;stroke-width:1;" x1="178.49999999999852" y1="545.9285102040559" x2="196.4613780450269" y2="543.3626024752176" />
 <line style="stroke:gray;stroke-width:1;" x1="196.4613780450269" y1="543.3626024752176" x2="218.6874531249611" y2="540.1874531249631" />
 <line style="stroke:gray;stroke-width:1;" x1="218.6874531249611" y1="540.1874531249631" x2="244.80730462229877" y2="536.4560507423001" />
 <line style="stroke:gray;stroke-width:1;" x1="244.80730462229877" y1="536.4560507423001" x2="271.02121034677623" y2="532.7112120593854" />
 <line style="stroke:gray;stroke-width:1;" x1="271.02121034677623" y1="532.7112120593854" x2="300.91303082544874" y2="528.4409576834131" />
 <line style="stroke:gray;stroke-width:1;" x1="300.91303082544874" y1="528.4409576834131" x2="339.24999999982464" y2="522.9642551020096" />
 <line style="stroke:gray;stroke-width:1;" x1="339.24999999982464" y1="522.9642551020096" x2="395.9722477364531" y2="514.8610876557464" />
 <line style="stroke:gray;stroke-width:1;" x1="49.42292435941181" y1="547.0249231345854" x2="114.98083406718257" y2="526.3104999999999" />
 <line style="stroke:gray;stroke-width:1;" x1="124.91674999999964" y1="553.5832500000001" x2="154.91867467014828" y2="523.5813253298503" />
 <line style="stroke:gray;stroke-width:1;" x1="178.49999999999852" y1="545.9285102040559" x2="178.49999999999795" y2="521.969882277168" />
 <line style="stroke:gray;stroke-width:1;" x1="158.27926055165915" y1="548.8171834173945" x2="169.13468677940955" y2="522.6098661930172" />
 <line style="stroke:gray;stroke-width:1;" x1="196.4613780450269" y1="543.3626024752176" x2="187.34972711573" y2="521.3651312261009" />
 <line style="stroke:gray;stroke-width:1;" x1="218.6874531249611" y1="540.1874531249631" x2="199.06458955084753" y2="520.5645895508497" />
 <line style="stroke:gray;stroke-width:1;" x1="244.80730462229877" y1="536.4560507423001" x2="214.0419195792462" y2="519.5411053282967" />
 <line style="stroke:gray;stroke-width:1;" x1="271.02121034677623" y1="532.7112120593854" x2="230.57500346529486" y2="518.4113077959305" />
 <line style="stroke:gray;stroke-width:1;" x1="300.91303082544874" y1="528.4409576834131" x2="251.56936544436468" y2="516.9766463304087" />
 <line style="stroke:gray;stroke-width:1;" x1="339.2499999998247" y1="522.9642551020096" x2="282.52775226316214" y2="514.8610876557545" />
 <line style="stroke:gray;stroke-width:1;" x1="395.9722477364531" y1="514.8610876557464" x2="339.2499999998223" y2="510.9849411385753" />
 <line style="stroke:gray;stroke-width:1;" x1="509.3653132205912" y1="522.6098661930231" x2="499.9999999999834" y2="499.9999999999597" />
 <line style="stroke:gray;stroke-width:1;" x1="566.5850000000005" y1="500.0" x2="499.9999999993946" y2="499.99999999999994" />
 <line style="stroke:gray;stroke-width:1;" x1="479.43541044914184" y1="520.5645895508582" x2="500.00000000004445" y2="499.99999999995555" />
 <line style="stroke:gray;stroke-width:1;" x1="500.00000000000006" y1="521.9698822771747" x2="500.0000000000001" y2="499.99999999995856" />
 <line style="stroke:gray;stroke-width:1;" x1="523.5813253298552" y1="523.5813253298547" x2="499.9999999999614" y2="499.99999999996123" />
 <line style="stroke:gray;stroke-width:1;" x1="563.5191659328158" y1="526.3104999999998" x2="499.9999999999141" y2="499.9999999999644" />
 <line style="stroke:gray;stroke-width:1;" x1="426.9306345557476" y1="516.9766463304311" x2="500.0000000006293" y2="499.9999999999156" />
 <line style="stroke:gray;stroke-width:1;" x1="447.924996534715" y1="518.4113077959437" x2="500.0000000002183" y2="499.99999999994367" />
 <line style="stroke:gray;stroke-width:1;" x1="464.45808042067085" y1="519.5411053283017" x2="499.9999999999916" y2="499.99999999995913" />
 <line style="stroke:gray;stroke-width:1;" x1="395.9722477364531" y1="514.8610876557464" x2="499.9999999993945" y2="499.99999999999994" />
 <line style="stroke:gray;stroke-width:1;" x1="114.98083406718257" y1="526.3104999999999" x2="154.91867467014828" y2="523.5813253298503" />
 <line style="stroke:gray;stroke-width:1;" x1="154.91867467014828" y1="523.5813253298503" x2="169.13468677940955" y2="522.6098661930172" />
 <line style="stroke:gray;stroke-width:1;" x1="169.13468677940955" y1="522.6098661930172" x2="178.49999999999795" y2="521.969882277168" />
 <line style="stroke:gray;stroke-width:1;" x1="178.49999999999795" y1="521.969882277168" x2="187.34972711573" y2="521.3651312261009" />
 <line style="stroke:gray;stroke-width:1;" x1="187.34972711573" y1="521.3651312261009" x2="199.06458955084753" y2="520.5645895508497" />
 <line style="stroke:gray;stroke-width:1;" x1="199.06458955084753" y1="520.5645895508497" x2="214.0419195792462" y2="519.5411053282967" />
 <line style="stroke:gray;stroke-width:1;" x1="214.0419195792462" y1="519.5411053282967" x2="230.57500346529486" y2="518.4113077959305" />
 <line style="stroke:gray;stroke-width:1;" x1="230.57500346529486" y1="518.4113077959305" x2="251.56936544436468" y2="516.9766463304087" />
 <line style="stroke:gray;stroke-width:1;" x1="251.56936544436468" y1="516.9766463304087" x2="282.52775226316214" y2="514.8610876557545" />
 <line style="stroke:gray;stroke-width:1;" x1="282.52775226316214" y1="514.8610876557545" x2="339.2499999998223" y2="510.9849411385753" />
 <line style="stroke:gray;stroke-width:1;" x1="339.2499999998223" y1="510.9849411385753" x2="499.99999999939456" y2="499.99999999999994" />
 <line style="stroke:gray;stroke-width:1;" x1="47.113972966101414" y1="484.69022794579047" x2="114.9808340671832" y2="473.6895000000001" />
 <line style="stroke:gray;stroke-width:1;" x1="49.42292435941067" y1="452.9750768654151" x2="124.91675000000009" y2="446.41675" />
 <line style="stroke:gray;stroke-width:1;" x1="114.9808340671832" y1="473.6895000000001" x2="154.91867467013276" y2="476.41867467014254" />
 <line style="stroke:gray;stroke-width:1;" x1="154.91867467013276" y1="476.41867467014254" x2="124.91675000000009" y2="446.41675" />
 <line style="stroke:gray;stroke-width:1;" x1="54.80607854412227" y1="417.6622180244822" x2="144.2652490698639" y2="417.3500000000001" />
 <line style="stroke:gray;stroke-width:1;" x1="178.49999999999977" y1="425.303966141842" x2="144.26524906986373" y2="417.34999999999985" />
 <line style="stroke:gray;stroke-width:1;" x1="178.49999999999898" y1="454.0714897959298" x2="158.2792605516443" y2="451.1828165825944" />
 <line style="stroke:gray;stroke-width:1;" x1="124.91675000000009" y1="446.41675" x2="158.2792605516443" y2="451.1828165825944" />
 <line style="stroke:gray;stroke-width:1;" x1="178.49999999999818" y1="478.0301177228222" x2="169.13468677938704" y2="477.3901338069729" />
 <line style="stroke:gray;stroke-width:1;" x1="154.91867467013276" y1="476.41867467014254" x2="169.13468677938704" y2="477.3901338069729" />
 <line style="stroke:gray;stroke-width:1;" x1="169.13468677938704" y1="477.3901338069729" x2="158.2792605516443" y2="451.1828165825944" />
 <line style="stroke:gray;stroke-width:1;" x1="158.2792605516443" y1="451.1828165825944" x2="144.26524906986373" y2="417.34999999999985" />
 <line style="stroke:gray;stroke-width:1;" x1="86.68285297108781" y1="319.3256938701668" x2="238.13598342910348" y2="356.0260000000004" />
 <line style="stroke:gray;stroke-width:1;" x1="292.55447274531974" y1="385.94552725467895" x2="238.13598342910353" y2="356.02600000000007" />
 <line style="stroke:gray;stroke-width:1;" x1="178.50000000000108" y1="386.3325000000006" x2="219.56830202229708" y2="400.8523482740877" />
 <line style="stroke:gray;stroke-width:1;" x1="262.47709215417046" y1="416.0229078458276" x2="219.56830202229708" y2="400.8523482740877" />
 <line style="stroke:gray;stroke-width:1;" x1="178.49999999999977" y1="425.303966141842" x2="206.72393128571156" y2="431.86140230646777" />
 <line style="stroke:gray;stroke-width:1;" x1="239.1133651857706" y1="439.3866348142271" x2="206.72393128571156" y2="431.86140230646777" />
 <line style="stroke:gray;stroke-width:1;" x1="178.49999999999898" y1="454.0714897959298" x2="196.4613780449937" y2="456.6373975247585" />
 <line style="stroke:gray;stroke-width:1;" x1="218.6874531249826" y1="459.81254687501473" x2="196.4613780449937" y2="456.6373975247585" />
 <line style="stroke:gray;stroke-width:1;" x1="178.49999999999818" y1="478.0301177228222" x2="187.34972711568372" y2="478.63486877388476" />
 <line style="stroke:gray;stroke-width:1;" x1="199.064589550859" y1="479.435410449138" x2="187.34972711568372" y2="478.63486877388476" />
 <line style="stroke:gray;stroke-width:1;" x1="187.34972711568372" y1="478.63486877388476" x2="196.4613780449937" y2="456.6373975247585" />
 <line style="stroke:gray;stroke-width:1;" x1="196.4613780449937" y1="456.6373975247585" x2="206.72393128571156" y2="431.86140230646777" />
 <line style="stroke:gray;stroke-width:1;" x1="206.72393128571156" y1="431.86140230646777" x2="219.56830202229708" y2="400.8523482740877" />
 <line style="stroke:gray;stroke-width:1;" x1="219.56830202229708" y1="400.8523482740877" x2="238.1359834291036" y2="356.02600000000007" />
 <line style="stroke:gray;stroke-width:1;" x1="239.02441273729676" y1="135.20109248553666" x2="440.36401657089624" y2="356.0259999999995" />
 <line style="stroke:gray;stroke-width:1;" x1="339.2500000000001" y1="339.2500000000001" x2="385.94552725465985" y2="385.9455272546598" />
 <line style="stroke:gray;stroke-width:1;" x1="292.55447274531974" y1="385.94552725467895" x2="339.2499999999493" y2="411.6189356480678" />
 <line style="stroke:gray;stroke-width:1;" x1="262.47709215417046" y1="416.0229078458276" x2="304.3277311893877" y2="430.81935423007405" />
 <line style="stroke:gray;stroke-width:1;" x1="239.1133651857706" y1="439.3866348142271" x2="274.0020693728804" y2="447.4925378600336" />
 <line style="stroke:gray;stroke-width:1;" x1="218.6874531249826" y1="459.81254687501473" x2="244.8073046221864" y2="463.54394925765155" />
 <line style="stroke:gray;stroke-width:1;" x1="199.064589550859" y1="479.435410449138" x2="214.0419195790651" y2="480.45889467167564" />
 <line style="stroke:gray;stroke-width:1;" x1="214.04191957906505" y1="480.45889467167564" x2="244.8073046221863" y2="463.54394925765155" />
 <line style="stroke:gray;stroke-width:1;" x1="244.8073046221863" y1="463.54394925765155" x2="274.0020693728803" y2="447.4925378600336" />
 <line style="stroke:gray;stroke-width:1;" x1="274.0020693728803" y1="447.4925378600336" x2="304.3277311893877" y2="430.81935423007405" />
 <line style="stroke:gray;stroke-width:1;" x1="304.3277311893877" y1="430.81935423007405" x2="339.2499999999493" y2="411.6189356480678" />
 <line style="stroke:gray;stroke-width:1;" x1="339.2499999999493" y1="411.6189356480678" x2="385.94552725465985" y2="385.9455272546598" />
 <line style="stroke:gray;stroke-width:1;" x1="385.94552725465985" y1="385.9455272546598" x2="440.3640165708962" y2="356.0259999999995" />
 <line style="stroke:gray;stroke-width:1;" x1="402.2934206274223" y1="59.62777872471804" x2="499.9999999999999" y2="386.3324999999987" />
 <line style="stroke:gray;stroke-width:1;" x1="385.94552725465985" y1="385.9455272546598" x2="416.02290784584136" y2="416.02290784584125" />
 <line style="stroke:gray;stroke-width:1;" x1="440.3640165708961" y1="356.0259999999995" x2="458.9316979776891" y2="400.85234827410045" />
 <line style="stroke:gray;stroke-width:1;" x1="339.2499999999493" y1="411.6189356480678" x2="374.17226881055996" y2="430.81935423012004" />
 <line style="stroke:gray;stroke-width:1;" x1="304.3277311893877" y1="430.81935423007405" x2="339.2500000000503" y2="443.1662500000141" />
 <line style="stroke:gray;stroke-width:1;" x1="274.0020693728804" y1="447.4925378600336" x2="305.99163489094906" y2="454.92486653513373" />
 <line style="stroke:gray;stroke-width:1;" x1="244.8073046221864" y1="463.54394925765155" x2="271.02121034694926" y2="467.2887879406" />
 <line style="stroke:gray;stroke-width:1;" x1="214.0419195790651" y1="480.45889467167564" x2="230.5750034654679" y2="481.58869220406336" />
 <line style="stroke:gray;stroke-width:1;" x1="230.57500346546783" y1="481.58869220406336" x2="271.0212103469492" y2="467.2887879406" />
 <line style="stroke:gray;stroke-width:1;" x1="271.0212103469492" y1="467.2887879406" x2="305.99163489094906" y2="454.92486653513373" />
 <line style="stroke:gray;stroke-width:1;" x1="305.99163489094906" y1="454.92486653513373" x2="339.2500000000503" y2="443.1662500000141" />
 <line style="stroke:gray;stroke-width:1;" x1="339.2500000000503" y1="443.1662500000141" x2="374.17226881055996" y2="430.81935423012004" />
 <line style="stroke:gray;stroke-width:1;" x1="374.17226881055996" y1="430.81935423012004" x2="416.02290784584136" y2="416.02290784584125" />
 <line style="stroke:gray;stroke-width:1;" x1="416.02290784584136" y1="416.02290784584125" x2="458.9316979776891" y2="400.85234827410045" />
 <line style="stroke:gray;stroke-width:1;" x1="458.9316979776891" y1="400.85234827410045" x2="499.9999999999999" y2="386.3324999999987" />
 <line style="stroke:gray;stroke-width:1;" x1="581.4900749517152" y1="55.2102895691479" x2="534.2347509301364" y2="417.34999999999985" />
 <line style="stroke:gray;stroke-width:1;" x1="499.9999999999999" y1="386.3324999999987" x2="499.99999999999994" y2="425.3039661418634" />
 <line style="stroke:gray;stroke-width:1;" x1="416.02290784584136" y1="416.02290784584125" x2="439.38663481427534" y2="439.3866348142752" />
 <line style="stroke:gray;stroke-width:1;" x1="458.9316979776891" y1="400.85234827410045" x2="471.77606871427366" y2="431.86140230651" />
 <line style="stroke:gray;stroke-width:1;" x1="374.17226881055996" y1="430.81935423012004" x2="404.4979306271058" y2="447.4925378601173" />
 <line style="stroke:gray;stroke-width:1;" x1="339.2500000000503" y1="443.1662500000141" x2="372.5083651092958" y2="454.924866535177" />
 <line style="stroke:gray;stroke-width:1;" x1="305.99163489094906" y1="454.92486653513373" x2="339.25000000025994" y2="462.6519830709698" />
 <line style="stroke:gray;stroke-width:1;" x1="271.02121034694926" y1="467.2887879406" x2="300.9130308259205" y2="471.559042316607" />
 <line style="stroke:gray;stroke-width:1;" x1="230.5750034654679" y1="481.58869220406336" x2="251.56936544495767" y2="483.0233536696107" />
 <line style="stroke:gray;stroke-width:1;" x1="251.56936544495764" y1="483.0233536696107" x2="300.9130308259205" y2="471.559042316607" />
 <line style="stroke:gray;stroke-width:1;" x1="300.9130308259205" y1="471.559042316607" x2="339.2500000002599" y2="462.6519830709698" />
 <line style="stroke:gray;stroke-width:1;" x1="339.2500000002599" y1="462.6519830709698" x2="372.5083651092958" y2="454.924866535177" />
 <line style="stroke:gray;stroke-width:1;" x1="372.5083651092958" y1="454.924866535177" x2="404.49793062710575" y2="447.4925378601173" />
 <line style="stroke:gray;stroke-width:1;" x1="404.49793062710575" y1="447.4925378601173" x2="439.38663481427534" y2="439.3866348142752" />
 <line style="stroke:gray;stroke-width:1;" x1="439.38663481427534" y1="439.3866348142752" x2="471.77606871427366" y2="431.86140230651" />
 <line style="stroke:gray;stroke-width:1;" x1="471.77606871427366" y1="431.86140230651" x2="499.99999999999994" y2="425.30396614186327" />
 <line style="stroke:gray;stroke-width:1;" x1="499.99999999999994" y1="425.30396614186327" x2="534.2347509301363" y2="417.34999999999985" />
 <line style="stroke:gray;stroke-width:1;" x1="747.7543746056722" y1="121.07981573407898" x2="553.5832500000004" y2="446.41674999999987" />
 <line style="stroke:gray;stroke-width:1;" x1="534.2347509301363" y1="417.34999999999985" x2="520.220739448332" y2="451.18281658262515" />
 <line style="stroke:gray;stroke-width:1;" x1="499.99999999999994" y1="425.3039661418634" x2="499.99999999999994" y2="454.07148979597395" />
 <line style="stroke:gray;stroke-width:1;" x1="439.38663481427534" y1="439.3866348142752" x2="459.81254687508266" y2="459.81254687508255" />
 <line style="stroke:gray;stroke-width:1;" x1="471.77606871427366" y1="431.86140230651" x2="482.0386219549889" y2="456.6373975248199" />
 <line style="stroke:gray;stroke-width:1;" x1="404.4979306271058" y1="447.4925378601173" x2="433.69269537780144" y2="463.54394925775205" />
 <line style="stroke:gray;stroke-width:1;" x1="372.5083651092958" y1="454.924866535177" x2="407.47878965339646" y2="467.28878794067094" />
 <line style="stroke:gray;stroke-width:1;" x1="339.25000000025994" y1="462.6519830709698" x2="377.5869691748509" y2="471.5590423166417" />
 <line style="stroke:gray;stroke-width:1;" x1="300.9130308259205" y1="471.559042316607" x2="339.25000000061766" y2="477.035744898046" />
 <line style="stroke:gray;stroke-width:1;" x1="251.56936544495767" y1="483.0233536696107" x2="282.52775226429566" y2="485.13891234429695" />
 <line style="stroke:gray;stroke-width:1;" x1="282.5277522642956" y1="485.13891234429695" x2="339.25000000061766" y2="477.035744898046" />
 <line style="stroke:gray;stroke-width:1;" x1="339.25000000061766" y1="477.035744898046" x2="377.5869691748509" y2="471.5590423166417" />
 <line style="stroke:gray;stroke-width:1;" x1="377.5869691748509" y1="471.5590423166417" x2="407.47878965339646" y2="467.28878794067094" />
 <line style="stroke:gray;stroke-width:1;" x1="407.47878965339646" y1="467.28878794067094" x2="433.69269537780144" y2="463.54394925775193" />
 <line style="stroke:gray;stroke-width:1;" x1="433.69269537780144" y1="463.54394925775193" x2="459.81254687508266" y2="459.81254687508255" />
 <line style="stroke:gray;stroke-width:1;" x1="459.81254687508266" y1="459.81254687508255" x2="482.0386219549889" y2="456.6373975248199" />
 <line style="stroke:gray;stroke-width:1;" x1="482.0386219549889" y1="456.6373975248199" x2="499.99999999999994" y2="454.07148979597395" />
 <line style="stroke:gray;stroke-width:1;" x1="499.99999999999994" y1="454.07148979597395" x2="520.220739448332" y2="451.18281658262515" />
 <line style="stroke:gray;stroke-width:1;" x1="520.220739448332" y1="451.18281658262515" x2="553.5832500000004" y2="446.41674999999987" />
 <line style="stroke:gray;stroke-width:1;" x1="875.2339159841605" y1="246.16825891187784" x2="563.5191659328173" y2="473.6895000000001" />
 <line style="stroke:gray;stroke-width:1;" x1="500.00000000012074" y1="499.9999999999503" x2="563.5191659328173" y2="473.6895000000002" />
 <line style="stroke:gray;stroke-width:1;" x1="500.0000000000186" y1="499.9999999999573" x2="509.3653132205692" y2="477.3901338070314" />
 <line style="stroke:gray;stroke-width:1;" x1="520.220739448332" y1="451.18281658262515" x2="509.3653132205692" y2="477.3901338070314" />
 <line style="stroke:gray;stroke-width:1;" x1="500.0" y1="499.99999999995856" x2="500.0" y2="478.03011772288744" />
 <line style="stroke:gray;stroke-width:1;" x1="499.99999999999994" y1="454.07148979597395" x2="500.0" y2="478.03011772288744" />
 <line style="stroke:gray;stroke-width:1;" x1="499.9999999999613" y1="499.99999999996123" x2="479.43541044921886" y2="479.4354104492188" />
 <line style="stroke:gray;stroke-width:1;" x1="459.81254687508266" y1="459.81254687508255" x2="479.43541044921886" y2="479.4354104492188" />
 <line style="stroke:gray;stroke-width:1;" x1="499.9999999999855" y1="499.9999999999596" x2="491.1502728842954" y2="478.6348687739603" />
 <line style="stroke:gray;stroke-width:1;" x1="482.0386219549889" y1="456.6373975248199" x2="491.1502728842954" y2="478.6348687739603" />
 <line style="stroke:gray;stroke-width:1;" x1="499.99999999994174" y1="499.99999999996254" x2="464.4580804208987" y2="480.4588946717796" />
 <line style="stroke:gray;stroke-width:1;" x1="433.69269537780144" y1="463.54394925775205" x2="464.4580804208987" y2="480.4588946717796" />
 <line style="stroke:gray;stroke-width:1;" x1="499.99999999992025" y1="499.9999999999641" x2="447.9249965349566" y2="481.5886922041528" />
 <line style="stroke:gray;stroke-width:1;" x1="407.47878965339646" y1="467.28878794067094" x2="447.9249965349566" y2="481.5886922041528" />
 <line style="stroke:gray;stroke-width:1;" x1="499.99999999993963" y1="499.9999999999627" x2="426.9306345560898" y2="483.02335366967895" />
 <line style="stroke:gray;stroke-width:1;" x1="377.5869691748509" y1="471.5590423166417" x2="426.9306345560898" y2="483.02335366967895" />
 <line style="stroke:gray;stroke-width:1;" x1="499.9999999998717" y1="499.9999999999673" x2="395.9722477375733" y2="485.1389123443407" />
 <line style="stroke:gray;stroke-width:1;" x1="339.25000000061766" y1="477.035744898046" x2="395.9722477375733" y2="485.1389123443407" />
 <line style="stroke:gray;stroke-width:1;" x1="499.9999999998305" y1="499.99999999997016" x2="339.2500000016795" y2="489.0150588615168" />
 <line style="stroke:gray;stroke-width:1;" x1="282.52775226429566" y1="485.13891234429695" x2="339.2500000016795" y2="489.0150588615168" />
 <line style="stroke:gray;stroke-width:1;" x1="169.13468677940955" y1="522.6098661930172" x2="178.49999999983737" y2="500.0000000003868" />
 <line style="stroke:gray;stroke-width:1;" x1="187.34972711573" y1="521.3651312261009" x2="178.50000000014887" y2="500.00000000036556" />
 <line style="stroke:gray;stroke-width:1;" x1="199.06458955084753" y1="520.5645895508497" x2="178.50000000034925" y2="500.00000000035186" />
 <line style="stroke:gray;stroke-width:1;" x1="111.91500000000019" y1="500.00000000000006" x2="178.5000000054972" y2="500.00000000000006" />
 <line style="stroke:gray;stroke-width:1;" x1="178.49999999999818" y1="478.0301177228222" x2="178.49999999999744" y2="500.00000000037585" />
 <line style="stroke:gray;stroke-width:1;" x1="199.064589550859" y1="479.435410449138" x2="178.49999999959317" y2="500.00000000040353" />
 <line style="stroke:gray;stroke-width:1;" x1="114.98083406718257" y1="526.3104999999999" x2="178.49999999891077" y2="500.00000000045014" />
 <line style="stroke:gray;stroke-width:1;" x1="154.91867467014828" y1="523.5813253298503" x2="178.49999999959414" y2="500.0000000004035" />
 <line style="stroke:gray;stroke-width:1;" x1="178.49999999999795" y1="521.969882277168" x2="178.49999999999744" y2="500.00000000037585" />
 <line style="stroke:gray;stroke-width:1;" x1="214.0419195792462" y1="519.5411053282967" x2="178.5000000006056" y2="500.0000000003343" />
 <line style="stroke:gray;stroke-width:1;" x1="230.57500346529486" y1="518.4113077959305" x2="178.50000000088806" y2="500.000000000315" />
 <line style="stroke:gray;stroke-width:1;" x1="251.56936544436468" y1="516.9766463304087" x2="178.50000000124737" y2="500.00000000029047" />
 <line style="stroke:gray;stroke-width:1;" x1="282.52775226316214" y1="514.8610876557545" x2="178.50000000177687" y2="500.0000000002543" />
 <line style="stroke:gray;stroke-width:1;" x1="339.2499999998223" y1="510.9849411385753" x2="178.5000000027469" y2="500.00000000018804" />
 <line style="stroke:gray;stroke-width:1;" x1="499.99999999939456" y1="499.99999999999994" x2="178.5000000054972" y2="500.00000000000006" />
 <line style="stroke:gray;stroke-width:1;" x1="114.9808340671832" y1="473.6895000000001" x2="178.5000000007734" y2="500.00000000032287" />
 <line style="stroke:gray;stroke-width:1;" x1="154.91867467013276" y1="476.41867467014254" x2="178.5000000003356" y2="500.00000000035277" />
 <line style="stroke:gray;stroke-width:1;" x1="169.13468677938704" y1="477.3901338069729" x2="178.50000000012426" y2="500.0000000003672" />
 <line style="stroke:gray;stroke-width:1;" x1="187.34972711568372" y1="478.63486877388476" x2="178.4999999997745" y2="500.00000000039114" />
 <line style="stroke:gray;stroke-width:1;" x1="214.04191957906505" y1="480.45889467167564" x2="178.49999999891088" y2="500.00000000045014" />
 <line style="stroke:gray;stroke-width:1;" x1="230.57500346546783" y1="481.58869220406336" x2="178.49999999891082" y2="500.00000000045014" />
 <line style="stroke:gray;stroke-width:1;" x1="251.56936544495764" y1="483.0233536696107" x2="178.4999999989106" y2="500.0000000004502" />
 <line style="stroke:gray;stroke-width:1;" x1="282.5277522642956" y1="485.13891234429695" x2="178.4999999989106" y2="500.0000000004502" />
 <line style="stroke:gray;stroke-width:1;" x1="178.4999999989106" y1="500.0000000004502" x2="339.2500000016795" y2="489.0150588615168" />
 <line style="stroke:gray;stroke-width:1;" x1="339.2500000016795" y1="489.0150588615168" x2="395.9722477375733" y2="485.1389123443407" />
 <line style="stroke:gray;stroke-width:1;" x1="395.9722477375733" y1="485.1389123443407" x2="426.9306345560898" y2="483.02335366967895" />
 <line style="stroke:gray;stroke-width:1;" x1="426.9306345560898" y1="483.02335366967895" x2="447.9249965349566" y2="481.5886922041528" />
 <line style="stroke:gray;stroke-width:1;" x1="447.9249965349566" y1="481.5886922041528" x2="464.4580804208987" y2="480.4588946717795" />
 <line style="stroke:gray;stroke-width:1;" x1="464.4580804208987" y1="480.4588946717795" x2="479.43541044921886" y2="479.4354104492188" />
 <line style="stroke:gray;stroke-width:1;" x1="479.43541044921886" y1="479.4354104492188" x2="491.1502728842954" y2="478.6348687739603" />
 <line style="stroke:gray;stroke-width:1;" x1="491.1502728842954" y1="478.6348687739603" x2="500.0" y2="478.03011772288744" />
 <line style="stroke:gray;stroke-width:1;" x1="500.0" y1="478.03011772288744" x2="509.3653132205692" y2="477.3901338070314" />
 <line style="stroke:gray;stroke-width:1;" x1="509.3653132205692" y1="477.3901338070314" x2="563.5191659328173" y2="473.6895000000002" />
</svg>