<?xml version="1.0" encoding="ISO-8859-1" standalone="no"?>
<!DOCTYPE svg PUBLIC "-//W3C//DTD SVG 20010904//EN"
"http://www.w3.org/TR/2001/REC-SVG-20010904/DTD/svg10.dtd">
<svg xmlns="http://www.w3.org/2000/svg"
 xmlns:xlink="http://www.w3.org/1999/xlink" xml:space="preserve"
 width="1000px" height="1000px"
 viewBox="0 0 1000 1000" >
 <line style="stroke:black;stroke-width:5;" x1="656.854249492394" y1="1000.0" x2="727.9220613578686" y2="1000.0" />
 <line style="stroke:black;stroke-width:5;" x1="727.9220613578686" y1="1000.0" x2="757.3593128806995" y2="1000.0" />
 <line style="stroke:black;stroke-width:5;" x1="1000.0" y1="1000.0" x2="899.4949366117257" y2="1000.0" />
 <line style="stroke:black;stroke-width:5;" x1="1000.0" y1="1000.0" x2="1000.0" y2="899.4949366117419" />
 <line style="stroke:blue;stroke-width:4;stroke-opacity:1" x1="535.5339059327549" y1="707.1067811865578" x2="828.4271247462252" y2="828.4271247462033" />
 <line style="stroke:blue;stroke-width:4;stroke-opacity:1" x1="707.1067811865554" y1="535.533905932755" x2="828.4271247461936" y2="828.4271247462164" />
 <line style="stroke:blue;stroke-width:4;stroke-opacity:1" x1="1000.0" y1="1000.0" x2="828.4271247462095" y2="828.4271247462096" />
 <line style="stroke-dasharray: 15, 10;stroke:red;stroke-width:4;" x1="899.4949366117257" y1="1000.0" x2="828.4271247461936" y2="828.4271247462164" />
 <line style="stroke-dasharray: 15, 10;stroke:red;stroke-width:4;" x1="1000.0" y1="899.4949366117419" x2="828.4271247461176" y2="828.4271247462477" />
 <line style="stroke:black;stroke-width:5;" x1="1000.0" y1="656.854249492394" x2="1000.0" y2="727.9220613578686" />
 <line style="stroke:black;stroke-width:5;" x1="1000.0" y1="757.3593128807493" x2="1000.0" y2="727.9220613578686" />
 <line style="stroke:black;stroke-width:5;" x1="0.0" y1="1000.0" x2="0.0" y2="928.9321881345204" />
 <line style="stroke:black;stroke-width:5;" x1="0.0" y1="878.6796564403514" x2="0.0" y2="899.49493661166" />
 <line style="stroke:black;stroke-width:5;" x1="0.0" y1="928.9321881345204" x2="0.0" y2="899.49493661166" />
 <line style="stroke-dasharray: 15, 10;stroke:red;stroke-width:4;" x1="0.0" y1="1000.0" x2="71.0678118654788" y2="928.9321881345212" />
 <line style="stroke-dasharray: 15, 10;stroke:red;stroke-width:4;" x1="585.7864376268841" y1="-2.1316282072803006E-13" x2="585.7864376269379" y2="242.64068711930685" />
 <line style="stroke:blue;stroke-width:4;stroke-opacity:1" x1="585.7864376268842" y1="0.0" x2="707.106781186522" y2="292.89321881344034" />
 <line style="stroke-dasharray: 15, 10;stroke:red;stroke-width:4;" x1="585.7864376269379" y1="242.64068711930685" x2="707.106781186522" y2="292.89321881344034" />
 <line style="stroke-dasharray: 15, 10;stroke:red;stroke-width:4;" x1="292.89321881346285" y1="707.1067811865311" x2="242.64068711929235" y2="585.7864376268842" />
 <line style="stroke-dasharray: 15, 10;stroke:red;stroke-width:4;" x1="585.786437626884" y1="-3.552713678800501E-13" x2="878.6796564403514" y2="121.32034355964855" />
 <line style="stroke:black;stroke-width:5;" x1="585.7864376268842" y1="0.0" x2="828.4271247461828" y2="0.0" />
 <line style="stroke:black;stroke-width:5;" x1="878.6796564403514" y1="0.0" x2="828.4271247461828" y2="0.0" />
 <line style="stroke:black;stroke-width:5;" x1="1000.0" y1="0.0" x2="928.9321881345152" y2="0.0" />
 <line style="stroke:black;stroke-width:5;" x1="878.6796564403514" y1="0.0" x2="899.4949366116589" y2="0.0" />
 <line style="stroke:black;stroke-width:5;" x1="928.9321881345152" y1="0.0" x2="899.4949366116589" y2="0.0" />
 <line style="stroke:blue;stroke-width:4;stroke-opacity:1" x1="878.6796564403514" y1="121.32034355964855" x2="878.6796564403514" y2="50.25253169416722" />
 <line style="stroke:blue;stroke-width:4;stroke-opacity:1" x1="1000.0" y1="0.0" x2="878.6796564403539" y2="50.25253169416828" />
 <line style="stroke:blue;stroke-width:4;stroke-opacity:1" x1="828.4271247461828" y1="0.0" x2="878.6796564403539" y2="50.25253169416828" />
 <line style="stroke-dasharray: 15, 10;stroke:red;stroke-width:4;" x1="878.6796564403514" y1="121.32034355964855" x2="928.9321881345204" y2="71.06781186547963" />
 <line style="stroke-dasharray: 15, 10;stroke:red;stroke-width:4;" x1="1000.0" y1="0.0" x2="928.9321881345204" y2="71.06781186547963" />
 <line style="stroke-dasharray: 15, 10;stroke:red;stroke-width:4;" x1="878.6796564403539" y1="50.25253169416828" x2="928.9321881345204" y2="71.06781186547963" />
 <line style="stroke:black;stroke-width:5;" x1="585.7864376268842" y1="0.0" x2="499.99999999999875" y2="0.0" />
 <line style="stroke-dasharray: 15, 10;stroke:red;stroke-width:4;" x1="585.7864376269379" y1="242.64068711930685" x2="560.6601717798477" y2="267.7669529663939" />
 <line style="stroke-dasharray: 15, 10;stroke:red;stroke-width:4;" x1="828.4271247462066" y1="828.4271247462107" x2="560.6601717798261" y2="560.6601717798289" />
 <line style="stroke-dasharray: 15, 10;stroke:red;stroke-width:4;" x1="242.64068711929235" y1="585.7864376268842" x2="267.7669529664211" y2="560.6601717797623" />
 <line style="stroke:black;stroke-width:5;" x1="1000.0" y1="656.854249492394" x2="1000.0" y2="585.7864376269056" />
 <line style="stroke-dasharray: 15, 10;stroke:red;stroke-width:4;" x1="707.1067811865554" y1="535.533905932755" x2="878.6796564403501" y2="535.5339059327524" />
 <line style="stroke:blue;stroke-width:4;stroke-opacity:1" x1="878.6796564403501" y1="535.5339059327524" x2="853.5533905932662" y2="474.8737341529353" />
 <line style="stroke:blue;stroke-width:4;stroke-opacity:1" x1="707.1067811865553" y1="535.533905932755" x2="853.5533905932662" y2="474.8737341529353" />
 <line style="stroke-dasharray: 15, 10;stroke:red;stroke-width:4;" x1="621.320343559641" y1="414.2135623731155" x2="828.4271247460983" y2="414.2135623731155" />
 <line style="stroke-dasharray: 15, 10;stroke:red;stroke-width:4;" x1="853.5533905932662" y1="474.8737341529353" x2="828.4271247460983" y2="414.21356237311545" />
 <line style="stroke:blue;stroke-width:4;stroke-opacity:1" x1="828.4271247460983" y1="414.2135623731155" x2="853.5533905932251" y2="353.5533905932405" />
 <line style="stroke:blue;stroke-width:4;stroke-opacity:1" x1="707.106781186522" y1="292.8932188134404" x2="853.5533905932252" y2="353.5533905932405" />
 <line style="stroke-dasharray: 15, 10;stroke:red;stroke-width:4;" x1="585.7864376268839" y1="-5.684341886080801E-13" x2="878.6796564402857" y2="292.8932188134011" />
 <line style="stroke-dasharray: 15, 10;stroke:red;stroke-width:4;" x1="853.5533905932252" y1="353.5533905932405" x2="878.6796564402857" y2="292.8932188134012" />
 <line style="stroke:blue;stroke-width:4;stroke-opacity:1" x1="878.6796564402857" y1="292.8932188134012" x2="939.3398282201537" y2="267.76695296632863" />
 <line style="stroke:black;stroke-width:5;" x1="1000.0" y1="0.0" x2="1000.0" y2="242.64068711911378" />
 <line style="stroke:blue;stroke-width:4;stroke-opacity:1" x1="928.9321881345204" y1="71.06781186547963" x2="999.9999999999452" y2="242.6406871191365" />
 <line style="stroke-dasharray: 15, 10;stroke:red;stroke-width:4;" x1="878.6796564403514" y1="121.32034355964855" x2="939.3398282201537" y2="267.76695296632863" />
 <line style="stroke-dasharray: 15, 10;stroke:red;stroke-width:4;" x1="939.3398282201537" y1="267.76695296632863" x2="999.9999999999452" y2="242.6406871191365" />
 <line style="stroke:blue;stroke-width:4;stroke-opacity:1" x1="535.5339059327548" y1="707.1067811865578" x2="474.87373415293564" y2="853.5533905932778" />
 <line style="stroke-dasharray: 15, 10;stroke:red;stroke-width:4;" x1="414.2135623731156" y1="621.3203435596197" x2="414.2135623731157" y2="828.4271247461945" />
 <line style="stroke-dasharray: 15, 10;stroke:red;stroke-width:4;" x1="474.87373415293564" y1="853.5533905932779" x2="414.2135623731157" y2="828.4271247461945" />
 <line style="stroke:blue;stroke-width:4;stroke-opacity:1" x1="353.5533905932946" y1="853.5533905932783" x2="414.2135623731157" y2="828.4271247461945" />
 <line style="stroke:blue;stroke-width:4;stroke-opacity:1" x1="292.89321881346285" y1="707.1067811865311" x2="353.5533905932946" y2="853.5533905932783" />
 <line style="stroke:black;stroke-width:5;" x1="-1.1368683772161603E-13" y1="1000.0" x2="242.6406871193115" y2="1000.0" />
 <line style="stroke:blue;stroke-width:4;stroke-opacity:1" x1="71.0678118654788" y1="928.9321881345212" x2="242.64068711930884" y2="1000.0000000000066" />
 <line style="stroke-dasharray: 15, 10;stroke:red;stroke-width:4;" x1="242.6406871193115" y1="1000.0" x2="267.7669529663934" y2="939.3398282201804" />
 <line style="stroke-dasharray: 15, 10;stroke:red;stroke-width:4;" x1="535.5339059327548" y1="707.1067811865579" x2="535.5339059327548" y2="878.6796564403608" />
 <line style="stroke:blue;stroke-width:4;stroke-opacity:1" x1="474.87373415293564" y1="853.5533905932779" x2="535.5339059327548" y2="878.6796564403608" />
 <line style="stroke:black;stroke-width:5;" x1="656.854249492394" y1="1000.0" x2="585.786437626921" y2="1000.0" />
 <line style="stroke-dasharray: 15, 10;stroke:red;stroke-width:4;" x1="1000.0" y1="656.854249492394" x2="914.2135623730888" y2="621.3203435596536" />
 <line style="stroke:blue;stroke-width:4;stroke-opacity:1" x1="707.1067811865554" y1="535.533905932755" x2="914.2135623730887" y2="621.3203435596536" />
 <line style="stroke-dasharray: 15, 10;stroke:red;stroke-width:4;" x1="878.6796564403501" y1="535.5339059327524" x2="914.2135623730888" y2="621.3203435596536" />
 <line style="stroke:blue;stroke-width:4;stroke-opacity:1" x1="1000.0" y1="585.7864376269056" x2="914.2135623730888" y2="621.3203435596536" />
 <line style="stroke:black;stroke-width:5;" x1="1000.0" y1="585.7864376269056" x2="1000.0" y2="414.2135623728524" />
 <line style="stroke-dasharray: 15, 10;stroke:red;stroke-width:4;" x1="878.6796564403501" y1="535.5339059327524" x2="999.9999999998299" y2="414.2135623732628" />
 <line style="stroke:blue;stroke-width:4;stroke-opacity:1" x1="853.5533905932662" y1="474.8737341529353" x2="999.9999999998731" y2="414.21356237315865" />
 <line style="stroke-dasharray: 15, 10;stroke:red;stroke-width:4;" x1="828.4271247460983" y1="414.2135623731155" x2="999.999999999891" y2="414.2135623731155" />
 <line style="stroke:blue;stroke-width:4;stroke-opacity:1" x1="853.5533905932252" y1="353.5533905932405" x2="999.9999999999229" y2="414.21356237303837" />
 <line style="stroke-dasharray: 15, 10;stroke:red;stroke-width:4;" x1="878.6796564402857" y1="292.8932188134012" x2="999.9999999999229" y2="414.2135623730383" />
 <line style="stroke:black;stroke-width:5;" x1="1000.0" y1="242.64068711911375" x2="1000.0" y2="414.21356237285244" />
 <line style="stroke-dasharray: 15, 10;stroke:red;stroke-width:4;" x1="939.3398282201537" y1="267.76695296632863" x2="999.9999999999455" y2="414.2135623729838" />
 <line style="stroke-dasharray: 15, 10;stroke:red;stroke-width:4;" x1="914.2135623730888" y1="621.3203435596536" x2="999.9999999999229" y2="414.2135623730383" />
 <line style="stroke-dasharray: 15, 10;stroke:red;stroke-width:4;" x1="656.854249492394" y1="1000.0" x2="621.320343559657" y2="914.2135623730971" />
 <line style="stroke:blue;stroke-width:4;stroke-opacity:1" x1="535.5339059327548" y1="707.1067811865579" x2="621.320343559657" y2="914.2135623730971" />
 <line style="stroke:blue;stroke-width:4;stroke-opacity:1" x1="474.87373415293564" y1="853.5533905932779" x2="414.21356237311574" y2="999.9999999999999" />
 <line style="stroke-dasharray: 15, 10;stroke:red;stroke-width:4;" x1="414.2135623731157" y1="828.4271247461945" x2="414.2135623731157" y2="1000.0" />
 <line style="stroke:blue;stroke-width:4;stroke-opacity:1" x1="353.5533905932946" y1="853.5533905932783" x2="414.2135623731156" y2="1000.0" />
 <line style="stroke-dasharray: 15, 10;stroke:red;stroke-width:4;" x1="292.8932188134771" y1="878.6796564403614" x2="414.2135623731156" y2="1000.0" />
 <line style="stroke:black;stroke-width:5;" x1="242.6406871193115" y1="1000.0" x2="414.21356237311545" y2="1000.0" />
 <line style="stroke-dasharray: 15, 10;stroke:red;stroke-width:4;" x1="267.7669529663934" y1="939.3398282201804" x2="414.2135623731155" y2="1000.0" />
 <line style="stroke-dasharray: 15, 10;stroke:red;stroke-width:4;" x1="535.5339059327548" y1="878.6796564403608" x2="621.320343559657" y2="914.2135623730971" />
 <line style="stroke-dasharray: 15, 10;stroke:red;stroke-width:4;" x1="535.5339059327548" y1="878.6796564403608" x2="414.21356237311596" y2="999.9999999999998" />
 <line style="stroke:blue;stroke-width:4;stroke-opacity:1" x1="585.7864376269015" y1="999.9999999999532" x2="621.320343559657" y2="914.2135623730971" />
 <line style="stroke:black;stroke-width:5;" x1="585.786437626921" y1="1000.0" x2="414.2135623731153" y2="1000.0" />
 <line style="stroke-dasharray: 15, 10;stroke:red;stroke-width:4;" x1="414.2135623731156" y1="1000.0" x2="621.320343559657" y2="914.2135623730971" />
 <line style="stroke-dasharray: 15, 10;stroke:red;stroke-width:4;" x1="707.1067811865554" y1="535.533905932755" x2="828.4271247461853" y2="656.8542494923875" />
 <line style="stroke-dasharray: 15, 10;stroke:red;stroke-width:4;" x1="828.4271247461778" y1="828.4271247462227" x2="828.4271247461853" y2="656.8542494923875" />
 <line style="stroke-dasharray: 15, 10;stroke:red;stroke-width:4;" x1="914.2135623730888" y1="621.3203435596536" x2="828.4271247461853" y2="656.8542494923875" />
 <line style="stroke:blue;stroke-width:4;stroke-opacity:1" x1="828.4271247461853" y1="656.8542494923875" x2="889.0872965260031" y2="681.9805153394726" />
 <line style="stroke:blue;stroke-width:4;stroke-opacity:1" x1="914.2135623730888" y1="621.3203435596537" x2="949.7474683058388" y2="707.1067811865555" />
 <line style="stroke-dasharray: 15, 10;stroke:red;stroke-width:4;" x1="828.4271247461622" y1="828.4271247462293" x2="889.0872965260065" y2="681.9805153394644" />
 <line style="stroke-dasharray: 15, 10;stroke:red;stroke-width:4;" x1="914.2135623730887" y1="621.3203435596537" x2="889.0872965260065" y2="681.9805153394644" />
 <line style="stroke-dasharray: 15, 10;stroke:red;stroke-width:4;" x1="535.5339059327548" y1="707.1067811865578" x2="656.854249492392" y2="828.4271247462048" />
 <line style="stroke-dasharray: 15, 10;stroke:red;stroke-width:4;" x1="828.4271247461936" y1="828.4271247462164" x2="656.854249492392" y2="828.4271247462048" />
 <line style="stroke-dasharray: 15, 10;stroke:red;stroke-width:4;" x1="621.320343559657" y1="914.2135623730971" x2="656.854249492392" y2="828.4271247462048" />
 <line style="stroke:blue;stroke-width:4;stroke-opacity:1" x1="681.9805153394717" y1="889.0872965260161" x2="656.854249492392" y2="828.4271247462048" />
 <line style="stroke:blue;stroke-width:4;stroke-opacity:1" x1="621.320343559657" y1="914.2135623730971" x2="707.1067811865622" y2="949.7474683058318" />
 <line style="stroke-dasharray: 15, 10;stroke:red;stroke-width:4;" x1="621.320343559657" y1="914.2135623730971" x2="681.9805153394793" y2="889.087296526013" />
 <line style="stroke-dasharray: 15, 10;stroke:red;stroke-width:4;" x1="828.4271247462211" y1="828.4271247461847" x2="681.9805153394793" y2="889.0872965260128" />
 <line style="stroke-dasharray: 15, 10;stroke:red;stroke-width:4;" x1="727.9220613578686" y1="1000.0" x2="707.1067811865622" y2="949.7474683058318" />
 <line style="stroke-dasharray: 15, 10;stroke:red;stroke-width:4;" x1="656.854249492394" y1="1000.0" x2="707.1067811865622" y2="949.7474683058318" />
 <line style="stroke-dasharray: 15, 10;stroke:red;stroke-width:4;" x1="828.4271247461669" y1="828.4271247462275" x2="707.1067811865622" y2="949.7474683058318" />
 <line style="stroke-dasharray: 15, 10;stroke:red;stroke-width:4;" x1="681.9805153394793" y1="889.087296526013" x2="707.1067811865622" y2="949.7474683058318" />
 <line style="stroke:blue;stroke-width:4;stroke-opacity:1" x1="707.1067811865622" y1="949.7474683058318" x2="767.7669529663572" y2="974.8737341529402" />
 <line style="stroke:black;stroke-width:5;" x1="757.3593128806995" y1="1000.0" x2="828.4271247463003" y2="1000.0" />
 <line style="stroke:black;stroke-width:5;" x1="899.4949366117257" y1="1000.0" x2="828.4271247463003" y2="1000.0" />
 <line style="stroke:blue;stroke-width:4;stroke-opacity:1" x1="828.4271247461676" y1="828.4271247462272" x2="828.4271247461894" y2="999.9999999999541" />
 <line style="stroke-dasharray: 15, 10;stroke:red;stroke-width:4;" x1="757.3593128806995" y1="1000.0" x2="767.7669529663572" y2="974.8737341529402" />
 <line style="stroke:blue;stroke-width:4;stroke-opacity:1" x1="828.4271247462697" y1="828.4271247461847" x2="767.7669529663572" y2="974.8737341529402" />
 <line style="stroke:blue;stroke-width:4;stroke-opacity:1" x1="767.7669529663572" y1="974.8737341529402" x2="828.4271247461894" y2="999.9999999999541" />
 <line style="stroke-dasharray: 15, 10;stroke:red;stroke-width:4;" x1="1000.0" y1="727.9220613578686" x2="949.7474683058385" y2="707.1067811865554" />
 <line style="stroke-dasharray: 15, 10;stroke:red;stroke-width:4;" x1="1000.0" y1="656.854249492394" x2="949.7474683058385" y2="707.1067811865555" />
 <line style="stroke-dasharray: 15, 10;stroke:red;stroke-width:4;" x1="828.4271247461666" y1="828.4271247462275" x2="949.7474683058385" y2="707.1067811865555" />
 <line style="stroke-dasharray: 15, 10;stroke:red;stroke-width:4;" x1="889.0872965260065" y1="681.9805153394644" x2="949.7474683058385" y2="707.1067811865555" />
 <line style="stroke:blue;stroke-width:4;stroke-opacity:1" x1="974.8737341529632" y1="767.7669529663829" x2="949.7474683058385" y2="707.1067811865555" />
 <line style="stroke:black;stroke-width:5;" x1="1000.0" y1="899.4949366117419" x2="1000.0" y2="828.4271247461945" />
 <line style="stroke:black;stroke-width:5;" x1="1000.0" y1="757.3593128807493" x2="1000.0" y2="828.4271247461945" />
 <line style="stroke:blue;stroke-width:4;stroke-opacity:1" x1="828.4271247462698" y1="828.4271247461847" x2="999.999999999998" y2="828.4271247461896" />
 <line style="stroke:blue;stroke-width:4;stroke-opacity:1" x1="828.4271247462697" y1="828.4271247461847" x2="974.8737341529632" y2="767.7669529663829" />
 <line style="stroke-dasharray: 15, 10;stroke:red;stroke-width:4;" x1="1000.0" y1="757.3593128807493" x2="974.8737341529632" y2="767.7669529663829" />
 <line style="stroke:blue;stroke-width:4;stroke-opacity:1" x1="999.999999999998" y1="828.4271247461895" x2="974.8737341529632" y2="767.7669529663829" />
 <line style="stroke:black;stroke-width:5;" x1="5.6843418860808015E-14" y1="242.64068711930219" x2="5.6843418860808015E-14" y2="267.76695296633204" />
 <line style="stroke:black;stroke-width:5;" x1="242.64068711930582" y1="7.105427357601002E-14" x2="267.7669529663448" y2="7.105427357601002E-14" />
 <line style="stroke:black;stroke-width:5;" x1="146.4466094068033" y1="7.105427357601002E-14" x2="121.3203435595891" y2="7.105427357601002E-14" />
 <line style="stroke:black;stroke-width:5;" x1="499.99999999999875" y1="0.0" x2="414.2135623731003" y2="0.0" />
 <line style="stroke-dasharray: 15, 10;stroke:red;stroke-width:4;" x1="267.7669529663448" y1="146.44660940677468" x2="414.21356237310056" y2="-1.4210854715202004E-13" />
 <line style="stroke:black;stroke-width:5;" x1="121.3203435595891" y1="7.105427357601002E-14" x2="5.6843418860808015E-14" y2="0.0" />
 <line style="stroke:black;stroke-width:5;" x1="-1.1368683772161603E-13" y1="121.3203435595102" x2="0.0" y2="-1.4210854715202004E-13" />
 <line style="stroke-dasharray: 15, 10;stroke:red;stroke-width:4;" x1="267.7669529663448" y1="146.44660940677468" x2="207.10678118659848" y2="207.1067811865288" />
 <line style="stroke-dasharray: 15, 10;stroke:red;stroke-width:4;" x1="146.44660940680308" y1="267.76695296633204" x2="207.10678118659848" y2="207.1067811865288" />
 <line style="stroke-dasharray: 15, 10;stroke:red;stroke-width:4;" x1="5.6843418860808015E-14" y1="0.0" x2="207.1067811865982" y2="207.10678118652876" />
 <line style="stroke:black;stroke-width:5;" x1="0.0" y1="499.9999999999985" x2="0.0" y2="414.21356237315445" />
 <line style="stroke-dasharray: 15, 10;stroke:red;stroke-width:4;" x1="146.44660940680308" y1="267.76695296633204" x2="2.2737367544323206E-13" y2="414.2135623731539" />
 <line style="stroke:black;stroke-width:5;" x1="242.64068711930582" y1="7.105427357601002E-14" x2="207.10678118658404" y2="1.4210854715202004E-13" />
 <line style="stroke:black;stroke-width:5;" x1="146.4466094068033" y1="7.105427357601002E-14" x2="207.10678118658404" y2="7.105427357601002E-14" />
 <line style="stroke:black;stroke-width:5;" x1="0.0" y1="242.64068711930219" x2="0.0" y2="207.10678118654295" />
 <line style="stroke:black;stroke-width:5;" x1="-1.1368683772161603E-13" y1="121.3203435595102" x2="-1.1368683772161603E-13" y2="207.10678118654297" />
 <line style="stroke:black;stroke-width:5;" x1="267.7669529663448" y1="7.105427357601002E-14" x2="292.8932188135788" y2="0.0" />
 <line style="stroke:black;stroke-width:5;" x1="414.2135623731001" y1="7.105427357601002E-14" x2="292.8932188135788" y2="0.0" />
 <line style="stroke:blue;stroke-width:4;stroke-opacity:1" x1="267.7669529663448" y1="146.44660940677468" x2="207.10678118653095" y2="85.78643762695307" />
 <line style="stroke:blue;stroke-width:4;stroke-opacity:1" x1="414.2135623731006" y1="-1.4210854715202004E-13" x2="207.10678118658421" y2="85.78643762689985" />
 <line style="stroke:blue;stroke-width:4;stroke-opacity:1" x1="5.6843418860808015E-14" y1="0.0" x2="207.10678118658421" y2="85.78643762689978" />
 <line style="stroke-dasharray: 15, 10;stroke:red;stroke-width:4;" x1="207.10678118658421" y1="85.78643762689978" x2="292.8932188135788" y2="7.105427357601002E-14" />
 <line style="stroke:black;stroke-width:5;" x1="5.6843418860808015E-14" y1="267.76695296633204" x2="5.6843418860808015E-14" y2="292.8932188135753" />
 <line style="stroke:black;stroke-width:5;" x1="1.1368683772161603E-13" y1="414.2135623731541" x2="5.6843418860808015E-14" y2="292.8932188135753" />
 <line style="stroke:blue;stroke-width:4;stroke-opacity:1" x1="146.44660940680308" y1="267.76695296633204" x2="85.78643762697254" y2="207.1067811864939" />
 <line style="stroke:blue;stroke-width:4;stroke-opacity:1" x1="5.6843418860808015E-14" y1="0.0" x2="85.78643762692354" y2="207.10678118654295" />
 <line style="stroke:blue;stroke-width:4;stroke-opacity:1" x1="2.2737367544323206E-13" y1="414.21356237315393" x2="85.78643762692354" y2="207.10678118654295" />
 <line style="stroke-dasharray: 15, 10;stroke:red;stroke-width:4;" x1="0.0" y1="292.8932188135754" x2="85.78643762692354" y2="207.10678118654295" />
 <line style="stroke-dasharray: 15, 10;stroke:red;stroke-width:4;" x1="414.2135623731156" y1="621.3203435596197" x2="414.2135623731156" y2="563.9996785139562" />
 <line style="stroke-dasharray: 15, 10;stroke:red;stroke-width:4;" x1="414.2135623731156" y1="414.2135623735977" x2="414.2135623731156" y2="563.999678513956" />
 <line style="stroke:blue;stroke-width:4;stroke-opacity:1" x1="535.5339059327548" y1="707.1067811865579" x2="499.9999999999453" y2="621.32034355948" />
 <line style="stroke:blue;stroke-width:4;stroke-opacity:1" x1="560.6601717798262" y1="560.660171779829" x2="499.99999999991775" y2="621.3203435596187" />
 <line style="stroke:blue;stroke-width:4;stroke-opacity:1" x1="414.2135623731156" y1="621.3203435596197" x2="499.99999999992974" y2="621.3203435595585" />
 <line style="stroke:blue;stroke-width:4;stroke-opacity:1" x1="414.2135623730172" y1="414.2135623728782" x2="499.9999999999453" y2="621.3203435594801" />
 <line style="stroke-dasharray: 15, 10;stroke:red;stroke-width:4;" x1="414.2135623731156" y1="563.9996785139562" x2="499.9999999999297" y2="621.3203435595585" />
 <line style="stroke-dasharray: 15, 10;stroke:red;stroke-width:4;" x1="560.6601717798262" y1="560.660171779829" x2="520.1283408237271" y2="520.1283408237298" />
 <line style="stroke-dasharray: 15, 10;stroke:red;stroke-width:4;" x1="414.2135623727762" y1="414.21356237277837" x2="520.1283408237271" y2="520.1283408237298" />
 <line style="stroke-dasharray: 15, 10;stroke:red;stroke-width:4;" x1="499.9999999999297" y1="621.3203435595585" x2="520.1283408237271" y2="520.1283408237298" />
 <line style="stroke:blue;stroke-width:4;stroke-opacity:1" x1="707.1067811865553" y1="535.533905932755" x2="621.3203435594813" y2="499.99999999994765" />
 <line style="stroke:blue;stroke-width:4;stroke-opacity:1" x1="621.320343559641" y1="414.2135623731155" x2="621.3203435595714" y2="500.0000000000824" />
 <line style="stroke-dasharray: 15, 10;stroke:red;stroke-width:4;" x1="560.6601717798262" y1="560.660171779829" x2="621.3203435595324" y2="500.000000000024" />
 <line style="stroke:blue;stroke-width:4;stroke-opacity:1" x1="414.2135623728761" y1="414.21356237301944" x2="621.3203435594813" y2="499.9999999999477" />
 <line style="stroke:blue;stroke-width:4;stroke-opacity:1" x1="520.1283408237271" y1="520.1283408237298" x2="621.3203435594813" y2="499.9999999999477" />
 <line style="stroke-dasharray: 15, 10;stroke:red;stroke-width:4;" x1="621.3203435596408" y1="414.2135623731155" x2="563.9996785137101" y2="414.2135623731155" />
 <line style="stroke-dasharray: 15, 10;stroke:red;stroke-width:4;" x1="414.21356237291576" y1="414.21356237311556" x2="563.9996785137101" y2="414.2135623731155" />
 <line style="stroke-dasharray: 15, 10;stroke:red;stroke-width:4;" x1="621.3203435594813" y1="499.9999999999477" x2="563.9996785137101" y2="414.21356237311556" />
 <line style="stroke:blue;stroke-width:4;stroke-opacity:1" x1="707.106781186522" y1="292.89321881344034" x2="621.3203435595158" y2="328.4271247462317" />
 <line style="stroke:blue;stroke-width:4;stroke-opacity:1" x1="560.6601717798477" y1="267.7669529663939" x2="621.3203435595843" y2="328.42712474624534" />
 <line style="stroke-dasharray: 15, 10;stroke:red;stroke-width:4;" x1="621.320343559641" y1="414.2135623731155" x2="621.3203435595547" y2="328.42712474623943" />
 <line style="stroke:blue;stroke-width:4;stroke-opacity:1" x1="414.21356237294106" y1="414.21356237317644" x2="621.3203435595158" y2="328.4271247462317" />
 <line style="stroke:blue;stroke-width:4;stroke-opacity:1" x1="563.9996785137101" y1="414.21356237311556" x2="621.3203435595158" y2="328.4271247462317" />
 <line style="stroke-dasharray: 15, 10;stroke:red;stroke-width:4;" x1="560.6601717798477" y1="267.7669529663939" x2="520.1283408237617" y2="308.29878392247497" />
 <line style="stroke-dasharray: 15, 10;stroke:red;stroke-width:4;" x1="414.2135623729722" y1="414.2135623732515" x2="520.1283408237617" y2="308.29878392247497" />
 <line style="stroke-dasharray: 15, 10;stroke:red;stroke-width:4;" x1="621.3203435595158" y1="328.4271247462317" x2="520.1283408237617" y2="308.29878392247497" />
 <line style="stroke:blue;stroke-width:4;stroke-opacity:1" x1="585.7864376268842" y1="7.105427357601002E-14" x2="499.9999999999626" y2="207.10678118664896" />
 <line style="stroke:blue;stroke-width:4;stroke-opacity:1" x1="585.7864376269379" y1="242.64068711930685" x2="500.0000000000569" y2="207.10678118658592" />
 <line style="stroke-dasharray: 15, 10;stroke:red;stroke-width:4;" x1="499.99999999999875" y1="0.0" x2="499.99999999999875" y2="207.1067811866248" />
 <line style="stroke-dasharray: 15, 10;stroke:red;stroke-width:4;" x1="560.6601717798477" y1="267.7669529663939" x2="500.0000000000365" y2="207.1067811865996" />
 <line style="stroke:blue;stroke-width:4;stroke-opacity:1" x1="414.2135623730162" y1="414.2135623733577" x2="499.99999999996265" y2="207.1067811866489" />
 <line style="stroke:blue;stroke-width:4;stroke-opacity:1" x1="414.2135623731005" y1="-1.4210854715202004E-13" x2="500.00000000001916" y2="207.1067811866111" />
 <line style="stroke:blue;stroke-width:4;stroke-opacity:1" x1="520.1283408237617" y1="308.29878392247497" x2="499.99999999999875" y2="207.1067811866248" />
 <line style="stroke-dasharray: 15, 10;stroke:red;stroke-width:4;" x1="414.21356237315695" y1="414.2135623736976" x2="414.2135623731366" y2="264.4274462327477" />
 <line style="stroke-dasharray: 15, 10;stroke:red;stroke-width:4;" x1="414.21356237310056" y1="-1.4210854715202004E-13" x2="414.2135623731366" y2="264.4274462327477" />
 <line style="stroke-dasharray: 15, 10;stroke:red;stroke-width:4;" x1="499.99999999999875" y1="207.1067811866248" x2="414.2135623731366" y2="264.4274462327477" />
 <line style="stroke-dasharray: 15, 10;stroke:red;stroke-width:4;" x1="414.2135623727762" y1="414.21356237277837" x2="328.4271247469028" y2="207.10678118844123" />
 <line style="stroke-dasharray: 15, 10;stroke:red;stroke-width:4;" x1="267.7669529663448" y1="146.44660940677468" x2="328.427124747088" y2="207.10678118751005" />
 <line style="stroke:blue;stroke-width:4;stroke-opacity:1" x1="207.10678118659837" y1="207.10678118652893" x2="328.42712474728194" y2="207.10678118653544" />
 <line style="stroke:blue;stroke-width:4;stroke-opacity:1" x1="414.2135623731006" y1="-1.4210854715202004E-13" x2="328.4271247483614" y2="207.1067811811085" />
 <line style="stroke:blue;stroke-width:4;stroke-opacity:1" x1="414.2135623731366" y1="264.4274462327477" x2="328.4271247472819" y2="207.10678118653547" />
 <line style="stroke-dasharray: 15, 10;stroke:red;stroke-width:4;" x1="414.2135623726764" y1="414.21356237253735" x2="308.2987839231613" y2="308.2987839230578" />
 <line style="stroke-dasharray: 15, 10;stroke:red;stroke-width:4;" x1="207.10678118659837" y1="207.1067811865288" x2="308.2987839231613" y2="308.2987839230578" />
 <line style="stroke:blue;stroke-width:4;stroke-opacity:1" x1="328.4271247472819" y1="207.10678118653547" x2="308.2987839231613" y2="308.2987839230578" />
 <line style="stroke:blue;stroke-width:4;stroke-opacity:1" x1="414.2135623727762" y1="414.21356237277837" x2="207.10678118723087" y2="328.4271247464209" />
 <line style="stroke-dasharray: 15, 10;stroke:red;stroke-width:4;" x1="146.44660940680308" y1="267.76695296633204" x2="207.1067811878973" y2="328.4271247474183" />
 <line style="stroke:blue;stroke-width:4;stroke-opacity:1" x1="207.10678118659848" y1="207.10678118652882" x2="207.10678118666596" y2="328.42712474557544" />
 <line style="stroke:blue;stroke-width:4;stroke-opacity:1" x1="2.2737367544323206E-13" y1="414.2135623731541" x2="207.10678118698593" y2="328.4271247460544" />
 <line style="stroke-dasharray: 15, 10;stroke:red;stroke-width:4;" x1="308.2987839231613" y1="308.2987839230578" x2="207.10678118723087" y2="328.4271247464209" />
 <line style="stroke-dasharray: 15, 10;stroke:red;stroke-width:4;" x1="414.21356237292423" y1="414.21356237313574" x2="264.4274462338028" y2="414.2135623731423" />
 <line style="stroke-dasharray: 15, 10;stroke:red;stroke-width:4;" x1="2.2737367544323206E-13" y1="414.21356237315393" x2="264.4274462338028" y2="414.2135623731423" />
 <line style="stroke:blue;stroke-width:4;stroke-opacity:1" x1="207.10678118723087" y1="328.4271247464209" x2="264.4274462338028" y2="414.2135623731423" />
 <line style="stroke:blue;stroke-width:4;stroke-opacity:1" x1="242.64068711929235" y1="585.7864376268842" x2="207.10678118643125" y2="499.9999999996836" />
 <line style="stroke-dasharray: 15, 10;stroke:red;stroke-width:4;" x1="0.0" y1="499.9999999999984" x2="207.1067811880144" y2="499.9999999999984" />
 <line style="stroke-dasharray: 15, 10;stroke:red;stroke-width:4;" x1="267.7669529664211" y1="560.6601717797623" x2="207.10678118634223" y2="499.9999999996658" />
 <line style="stroke:blue;stroke-width:4;stroke-opacity:1" x1="414.21356237294526" y1="414.2135623731865" x2="207.106781187033" y2="499.99999999980326" />
 <line style="stroke:blue;stroke-width:4;stroke-opacity:1" x1="1.1368683772161603E-13" y1="414.213562373154" x2="207.10678118521946" y2="499.9999999994426" />
 <line style="stroke-dasharray: 15, 10;stroke:red;stroke-width:4;" x1="264.4274462338028" y1="414.2135623731423" x2="207.10678118643125" y2="499.9999999996836" />
 <line style="stroke:blue;stroke-width:4;stroke-opacity:1" x1="292.89321881346285" y1="707.1067811865311" x2="328.4271247459516" y2="621.3203435602456" />
 <line style="stroke-dasharray: 15, 10;stroke:red;stroke-width:4;" x1="414.2135623731156" y1="621.3203435596197" x2="328.42712474580804" y2="621.3203435595243" />
 <line style="stroke:blue;stroke-width:4;stroke-opacity:1" x1="267.7669529664211" y1="560.6601717797623" x2="328.4271247456982" y2="621.3203435589721" />
 <line style="stroke:blue;stroke-width:4;stroke-opacity:1" x1="414.2135623730162" y1="414.2135623733577" x2="328.4271247459515" y2="621.3203435602458" />
 <line style="stroke:blue;stroke-width:4;stroke-opacity:1" x1="414.2135623731156" y1="563.9996785139562" x2="328.42712474585994" y2="621.3203435597852" />
 <line style="stroke-dasharray: 15, 10;stroke:red;stroke-width:4;" x1="267.7669529664211" y1="560.6601717797623" x2="308.2987839241732" y2="520.1283408220213" />
 <line style="stroke-dasharray: 15, 10;stroke:red;stroke-width:4;" x1="414.2135623729722" y1="414.21356237325153" x2="308.2987839241732" y2="520.1283408220213" />
 <line style="stroke:blue;stroke-width:4;stroke-opacity:1" x1="207.10678118643125" y1="499.9999999996836" x2="308.2987839241732" y2="520.1283408220213" />
 <line style="stroke-dasharray: 15, 10;stroke:red;stroke-width:4;" x1="328.4271247456982" y1="621.3203435589721" x2="308.2987839241732" y2="520.1283408220213" />
 <line style="stroke-dasharray: 15, 10;stroke:red;stroke-width:4;" x1="353.5533905932946" y1="853.5533905932783" x2="292.8932188134771" y2="878.6796564403614" />
 <line style="stroke:blue;stroke-width:4;stroke-opacity:1" x1="267.7669529663934" y1="939.3398282201804" x2="292.8932188134771" y2="878.6796564403614" />
 <line style="stroke-dasharray: 15, 10;stroke:red;stroke-width:4;" x1="71.0678118654788" y1="928.9321881345212" x2="121.32034355964856" y2="878.6796564403514" />
 <line style="stroke-dasharray: 15, 10;stroke:red;stroke-width:4;" x1="267.7669529663934" y1="939.3398282201804" x2="121.32034355964856" y2="878.6796564403514" />
 <line style="stroke:blue;stroke-width:4;stroke-opacity:1" x1="292.89321881346285" y1="707.1067811865311" x2="2.2737367544323206E-13" y2="585.7864376268842" />
 <line style="stroke-dasharray: 15, 10;stroke:red;stroke-width:4;" x1="242.6406871192923" y1="585.7864376268842" x2="1.1368683772161603E-13" y2="585.7864376268842" />
 <line style="stroke:black;stroke-width:5;" x1="0.0" y1="499.9999999999985" x2="-5.6843418860808015E-14" y2="585.7864376268838" />
 <line style="stroke:blue;stroke-width:4;stroke-opacity:1" x1="207.10678118703294" y1="499.99999999980326" x2="1.1368683772161603E-13" y2="585.7864376268842" />
 <line style="stroke-dasharray: 15, 10;stroke:red;stroke-width:4;" x1="292.8932188134771" y1="878.6796564403614" x2="2.2737367544323206E-13" y2="585.7864376268842" />
 <line style="stroke-dasharray: 15, 10;stroke:red;stroke-width:4;" x1="121.32034355964856" y1="878.6796564403514" x2="1.1368683772161603E-13" y2="585.7864376268842" />
 <line style="stroke:black;stroke-width:5;" x1="0.0" y1="878.6796564403514" x2="0.0" y2="828.4271247461828" />
 <line style="stroke:blue;stroke-width:4;stroke-opacity:1" x1="0.0" y1="1000.0" x2="50.252531694169306" y2="878.6796564403514" />
 <line style="stroke-dasharray: 15, 10;stroke:red;stroke-width:4;" x1="71.0678118654788" y1="928.9321881345212" x2="50.25253169416936" y2="878.6796564403514" />
 <line style="stroke:blue;stroke-width:4;stroke-opacity:1" x1="121.32034355964856" y1="878.6796564403514" x2="50.25253169416936" y2="878.6796564403514" />
 <line style="stroke:black;stroke-width:5;" x1="-5.6843418860808015E-14" y1="585.7864376268838" x2="-5.6843418860808015E-14" y2="828.4271247461828" />
 <line style="stroke:blue;stroke-width:4;stroke-opacity:1" x1="0.0" y1="828.4271247461828" x2="50.252531694169306" y2="878.6796564403514" />
</svg>