<?xml version="1.0" encoding="utf-8"?>
<!-- generated by crease pattern Javascript library by Robby Kraft  -->
<svg version="1.1" xmlns="http://www.w3.org/2000/svg" x="0px" y="0px" width="600px" height="519.6152422709264px" viewBox="0 0 600 519.6152422709264">
<g id="valley">
	<line stroke="#4379FF" stroke-linecap="round" stroke-dasharray="6,6" stroke-width="3" x1="350" y1="0" x2="325" y2="43.301270189244"/>
	<line stroke="#4379FF" stroke-linecap="round" stroke-dasharray="6,6" stroke-width="3" x1="375" y1="43.301270189244" x2="350" y2="86.602540378488"/>
	<line stroke="#4379FF" stroke-linecap="round" stroke-dasharray="6,6" stroke-width="3" x1="450" y1="86.602540378488" x2="425" y2="129.903810567732"/>
	<line stroke="#4379FF" stroke-linecap="round" stroke-dasharray="6,6" stroke-width="3" x1="500" y1="86.602540378488" x2="475" y2="129.903810567732"/>
	<line stroke="#4379FF" stroke-linecap="round" stroke-dasharray="6,6" stroke-width="3" x1="125" y1="389.711431703195" x2="100" y2="433.012701892439"/>
	<line stroke="#4379FF" stroke-linecap="round" stroke-dasharray="6,6" stroke-width="3" x1="175" y1="389.711431703195" x2="150" y2="433.012701892439"/>
	<line stroke="#4379FF" stroke-linecap="round" stroke-dasharray="6,6" stroke-width="3" x1="250" y1="433.012701892439" x2="225" y2="476.313972081683"/>
	<line stroke="#4379FF" stroke-linecap="round" stroke-dasharray="6,6" stroke-width="3" x1="275" y1="476.313972081683" x2="250" y2="519.615242270926"/>
	<line stroke="#4379FF" stroke-linecap="round" stroke-dasharray="6,6" stroke-width="3" x1="50" y1="173.205080756975" x2="100" y2="173.205080756975"/>
	<line stroke="#4379FF" stroke-linecap="round" stroke-dasharray="6,6" stroke-width="3" x1="75" y1="216.506350946219" x2="125" y2="216.506350946219"/>
	<line stroke="#4379FF" stroke-linecap="round" stroke-dasharray="6,6" stroke-width="3" x1="50" y1="346.410161513951" x2="100" y2="346.410161513951"/>
	<line stroke="#4379FF" stroke-linecap="round" stroke-dasharray="6,6" stroke-width="3" x1="75" y1="303.108891324707" x2="125" y2="303.108891324707"/>
	<line stroke="#4379FF" stroke-linecap="round" stroke-dasharray="6,6" stroke-width="3" x1="500" y1="173.205080756975" x2="550" y2="173.205080756975"/>
	<line stroke="#4379FF" stroke-linecap="round" stroke-dasharray="6,6" stroke-width="3" x1="475" y1="216.506350946219" x2="525" y2="216.506350946219"/>
	<line stroke="#4379FF" stroke-linecap="round" stroke-dasharray="6,6" stroke-width="3" x1="500" y1="346.410161513951" x2="550" y2="346.410161513951"/>
	<line stroke="#4379FF" stroke-linecap="round" stroke-dasharray="6,6" stroke-width="3" x1="475" y1="303.108891324707" x2="525" y2="303.108891324707"/>
	<line stroke="#4379FF" stroke-linecap="round" stroke-dasharray="6,6" stroke-width="3" x1="250" y1="0" x2="275" y2="43.301270189244"/>
	<line stroke="#4379FF" stroke-linecap="round" stroke-dasharray="6,6" stroke-width="3" x1="475" y1="389.711431703195" x2="500" y2="433.012701892439"/>
	<line stroke="#4379FF" stroke-linecap="round" stroke-dasharray="6,6" stroke-width="3" x1="225" y1="43.301270189244" x2="250" y2="86.602540378488"/>
	<line stroke="#4379FF" stroke-linecap="round" stroke-dasharray="6,6" stroke-width="3" x1="425" y1="389.711431703195" x2="450" y2="433.012701892439"/>
	<line stroke="#4379FF" stroke-linecap="round" stroke-dasharray="6,6" stroke-width="3" x1="150" y1="86.602540378488" x2="175" y2="129.903810567732"/>
	<line stroke="#4379FF" stroke-linecap="round" stroke-dasharray="6,6" stroke-width="3" x1="350" y1="433.012701892439" x2="375" y2="476.313972081683"/>
	<line stroke="#4379FF" stroke-linecap="round" stroke-dasharray="6,6" stroke-width="3" x1="100" y1="86.602540378488" x2="125" y2="129.903810567732"/>
	<line stroke="#4379FF" stroke-linecap="round" stroke-dasharray="6,6" stroke-width="3" x1="325" y1="476.313972081683" x2="350" y2="519.615242270926"/>
	<line stroke="#4379FF" stroke-linecap="round" stroke-dasharray="6,6" stroke-width="3" x1="250" y1="433.012701892439" x2="350" y2="433.012701892439"/>
	<line stroke="#4379FF" stroke-linecap="round" stroke-dasharray="6,6" stroke-width="3" x1="475" y1="216.506350946219" x2="391.666666666667" y2="216.506350946219"/>
	<line stroke="#4379FF" stroke-linecap="round" stroke-dasharray="6,6" stroke-width="3" x1="250" y1="433.012701892439" x2="291.666666666667" y2="360.843918243814"/>
	<line stroke="#4379FF" stroke-linecap="round" stroke-dasharray="6,6" stroke-width="3" x1="425" y1="129.903810567732" x2="383.333333333333" y2="202.072594216356"/>
	<line stroke="#4379FF" stroke-linecap="round" stroke-dasharray="6,6" stroke-width="3" x1="291.666666666667" y1="158.771324027112" x2="250" y2="86.602540378488"/>
	<line stroke="#4379FF" stroke-linecap="round" stroke-dasharray="6,6" stroke-width="3" x1="350" y1="86.602540378488" x2="308.333333333333" y2="158.771324027112"/>
	<line stroke="#4379FF" stroke-linecap="round" stroke-dasharray="6,6" stroke-width="3" x1="125" y1="216.506350946219" x2="208.333333333333" y2="216.506350946219"/>
	<line stroke="#4379FF" stroke-linecap="round" stroke-dasharray="6,6" stroke-width="3" x1="175" y1="129.903810567732" x2="216.666666666667" y2="202.072594216356"/>
	<line stroke="#4379FF" stroke-linecap="round" stroke-dasharray="6,6" stroke-width="3" x1="125" y1="303.108891324707" x2="208.333333333333" y2="303.108891324707"/>
	<line stroke="#4379FF" stroke-linecap="round" stroke-dasharray="6,6" stroke-width="3" x1="175" y1="389.711431703195" x2="216.666666666667" y2="317.542648054571"/>
	<line stroke="#4379FF" stroke-linecap="round" stroke-dasharray="6,6" stroke-width="3" x1="350" y1="433.012701892439" x2="308.333333333333" y2="360.843918243814"/>
	<line stroke="#4379FF" stroke-linecap="round" stroke-dasharray="6,6" stroke-width="3" x1="425" y1="389.711431703195" x2="383.333333333333" y2="317.542648054571"/>
	<line stroke="#4379FF" stroke-linecap="round" stroke-dasharray="6,6" stroke-width="3" x1="475" y1="303.108891324707" x2="391.666666666667" y2="303.108891324707"/>
	<line stroke="#4379FF" stroke-linecap="round" stroke-dasharray="6,6" stroke-width="3" x1="125" y1="216.506350946219" x2="175" y2="129.903810567732"/>
	<line stroke="#4379FF" stroke-linecap="round" stroke-dasharray="6,6" stroke-width="3" x1="425" y1="129.903810567732" x2="475" y2="216.506350946219"/>
	<line stroke="#4379FF" stroke-linecap="round" stroke-dasharray="6,6" stroke-width="3" x1="291.666666666667" y1="158.771324027112" x2="308.333333333333" y2="158.771324027112"/>
	<line stroke="#4379FF" stroke-linecap="round" stroke-dasharray="6,6" stroke-width="3" x1="475" y1="303.108891324707" x2="425" y2="389.711431703195"/>
	<line stroke="#4379FF" stroke-linecap="round" stroke-dasharray="6,6" stroke-width="3" x1="350" y1="86.602540378488" x2="250" y2="86.602540378488"/>
	<line stroke="#4379FF" stroke-linecap="round" stroke-dasharray="6,6" stroke-width="3" x1="383.333333333333" y1="202.072594216356" x2="391.666666666667" y2="216.506350946219"/>
	<line stroke="#4379FF" stroke-linecap="round" stroke-dasharray="6,6" stroke-width="3" x1="175" y1="389.711431703195" x2="125" y2="303.108891324707"/>
	<line stroke="#4379FF" stroke-linecap="round" stroke-dasharray="6,6" stroke-width="3" x1="291.666666666667" y1="360.843918243814" x2="308.333333333333" y2="360.843918243814"/>
	<line stroke="#4379FF" stroke-linecap="round" stroke-dasharray="6,6" stroke-width="3" x1="208.333333333333" y1="216.506350946219" x2="216.666666666667" y2="202.072594216356"/>
	<line stroke="#4379FF" stroke-linecap="round" stroke-dasharray="6,6" stroke-width="3" x1="208.333333333333" y1="303.108891324707" x2="216.666666666667" y2="317.542648054571"/>
	<line stroke="#4379FF" stroke-linecap="round" stroke-dasharray="6,6" stroke-width="3" x1="383.333333333333" y1="317.542648054571" x2="391.666666666667" y2="303.108891324707"/>
	<line stroke="#4379FF" stroke-linecap="round" stroke-dasharray="6,6" stroke-width="3" x1="208.333333333333" y1="303.108891324707" x2="216.666666666667" y2="288.675134594844"/>
	<line stroke="#4379FF" stroke-linecap="round" stroke-dasharray="6,6" stroke-width="3" x1="283.333333333333" y1="173.205080756975" x2="291.666666666667" y2="158.771324027112"/>
	<line stroke="#4379FF" stroke-linecap="round" stroke-dasharray="6,6" stroke-width="3" x1="308.333333333333" y1="158.771324027112" x2="316.666666666667" y2="173.205080756975"/>
	<line stroke="#4379FF" stroke-linecap="round" stroke-dasharray="6,6" stroke-width="3" x1="383.333333333333" y1="288.675134594844" x2="391.666666666667" y2="303.108891324707"/>
	<line stroke="#4379FF" stroke-linecap="round" stroke-dasharray="6,6" stroke-width="3" x1="216.666666666667" y1="317.542648054571" x2="233.333333333333" y2="317.542648054571"/>
	<line stroke="#4379FF" stroke-linecap="round" stroke-dasharray="6,6" stroke-width="3" x1="366.666666666667" y1="317.542648054571" x2="383.333333333333" y2="317.542648054571"/>
	<line stroke="#4379FF" stroke-linecap="round" stroke-dasharray="6,6" stroke-width="3" x1="308.333333333333" y1="360.843918243814" x2="316.666666666667" y2="346.410161513951"/>
	<line stroke="#4379FF" stroke-linecap="round" stroke-dasharray="6,6" stroke-width="3" x1="383.333333333333" y1="230.940107676083" x2="391.666666666667" y2="216.506350946219"/>
	<line stroke="#4379FF" stroke-linecap="round" stroke-dasharray="6,6" stroke-width="3" x1="208.333333333333" y1="216.506350946219" x2="216.666666666667" y2="230.940107676083"/>
	<line stroke="#4379FF" stroke-linecap="round" stroke-dasharray="6,6" stroke-width="3" x1="283.333333333333" y1="346.410161513951" x2="291.666666666667" y2="360.843918243814"/>
	<line stroke="#4379FF" stroke-linecap="round" stroke-dasharray="6,6" stroke-width="3" x1="216.666666666667" y1="202.072594216356" x2="233.333333333333" y2="202.072594216356"/>
	<line stroke="#4379FF" stroke-linecap="round" stroke-dasharray="6,6" stroke-width="3" x1="366.666666666667" y1="202.072594216356" x2="383.333333333333" y2="202.072594216356"/>
	<line stroke="#4379FF" stroke-linecap="round" stroke-dasharray="6,6" stroke-width="3" x1="316.666666666667" y1="173.205080756975" x2="333.333333333333" y2="173.205080756975"/>
	<line stroke="#4379FF" stroke-linecap="round" stroke-dasharray="6,6" stroke-width="3" x1="358.333333333333" y1="187.638837486839" x2="366.666666666667" y2="202.072594216356"/>
	<line stroke="#4379FF" stroke-linecap="round" stroke-dasharray="6,6" stroke-width="3" x1="233.333333333333" y1="317.542648054571" x2="241.666666666667" y2="331.976404784087"/>
	<line stroke="#4379FF" stroke-linecap="round" stroke-dasharray="6,6" stroke-width="3" x1="266.666666666667" y1="346.410161513951" x2="283.333333333333" y2="346.410161513951"/>
	<line stroke="#4379FF" stroke-linecap="round" stroke-dasharray="6,6" stroke-width="3" x1="250" y1="317.542648054571" x2="258.333333333333" y2="303.108891324707"/>
	<line stroke="#4379FF" stroke-linecap="round" stroke-dasharray="6,6" stroke-width="3" x1="316.666666666667" y1="202.072594216356" x2="325" y2="187.638837486839"/>
	<line stroke="#4379FF" stroke-linecap="round" stroke-dasharray="6,6" stroke-width="3" x1="341.666666666667" y1="216.506350946219" x2="350" y2="202.072594216356"/>
	<line stroke="#4379FF" stroke-linecap="round" stroke-dasharray="6,6" stroke-width="3" x1="275" y1="331.976404784087" x2="283.333333333333" y2="317.542648054571"/>
	<line stroke="#4379FF" stroke-linecap="round" stroke-dasharray="6,6" stroke-width="3" x1="275" y1="187.638837486839" x2="283.333333333333" y2="202.072594216356"/>
	<line stroke="#4379FF" stroke-linecap="round" stroke-dasharray="6,6" stroke-width="3" x1="341.666666666667" y1="303.108891324707" x2="350" y2="317.542648054571"/>
	<line stroke="#4379FF" stroke-linecap="round" stroke-dasharray="6,6" stroke-width="3" x1="316.666666666667" y1="317.542648054571" x2="325" y2="331.976404784087"/>
	<line stroke="#4379FF" stroke-linecap="round" stroke-dasharray="6,6" stroke-width="3" x1="250" y1="202.072594216356" x2="258.333333333333" y2="216.506350946219"/>
	<line stroke="#4379FF" stroke-linecap="round" stroke-dasharray="6,6" stroke-width="3" x1="358.333333333333" y1="274.241377865327" x2="375" y2="274.241377865327"/>
	<line stroke="#4379FF" stroke-linecap="round" stroke-dasharray="6,6" stroke-width="3" x1="225" y1="274.241377865327" x2="241.666666666667" y2="274.241377865327"/>
	<line stroke="#4379FF" stroke-linecap="round" stroke-dasharray="6,6" stroke-width="3" x1="225" y1="245.3738644056" x2="241.666666666667" y2="245.3738644056"/>
	<line stroke="#4379FF" stroke-linecap="round" stroke-dasharray="6,6" stroke-width="3" x1="358.333333333333" y1="245.3738644056" x2="375" y2="245.3738644056"/>
	<line stroke="#4379FF" stroke-linecap="round" stroke-dasharray="6,6" stroke-width="3" x1="366.666666666667" y1="202.072594216356" x2="358.333333333333" y2="216.506350946219"/>
	<line stroke="#4379FF" stroke-linecap="round" stroke-dasharray="6,6" stroke-width="3" x1="383.333333333333" y1="230.940107676083" x2="366.666666666667" y2="230.940107676083"/>
	<line stroke="#4379FF" stroke-linecap="round" stroke-dasharray="6,6" stroke-width="3" x1="316.666666666667" y1="173.205080756975" x2="308.333333333333" y2="187.638837486839"/>
	<line stroke="#4379FF" stroke-linecap="round" stroke-dasharray="6,6" stroke-width="3" x1="283.333333333333" y1="173.205080756975" x2="291.666666666667" y2="187.638837486839"/>
	<line stroke="#4379FF" stroke-linecap="round" stroke-dasharray="6,6" stroke-width="3" x1="233.333333333333" y1="202.072594216356" x2="241.666666666667" y2="216.506350946219"/>
	<line stroke="#4379FF" stroke-linecap="round" stroke-dasharray="6,6" stroke-width="3" x1="216.666666666667" y1="230.940107676083" x2="233.333333333333" y2="230.940107676083"/>
	<line stroke="#4379FF" stroke-linecap="round" stroke-dasharray="6,6" stroke-width="3" x1="216.666666666667" y1="288.675134594844" x2="233.333333333333" y2="288.675134594844"/>
	<line stroke="#4379FF" stroke-linecap="round" stroke-dasharray="6,6" stroke-width="3" x1="233.333333333333" y1="317.542648054571" x2="241.666666666667" y2="303.108891324707"/>
	<line stroke="#4379FF" stroke-linecap="round" stroke-dasharray="6,6" stroke-width="3" x1="283.333333333333" y1="346.410161513951" x2="291.666666666667" y2="331.976404784087"/>
	<line stroke="#4379FF" stroke-linecap="round" stroke-dasharray="6,6" stroke-width="3" x1="316.666666666667" y1="346.410161513951" x2="308.333333333333" y2="331.976404784087"/>
	<line stroke="#4379FF" stroke-linecap="round" stroke-dasharray="6,6" stroke-width="3" x1="366.666666666667" y1="317.542648054571" x2="358.333333333333" y2="303.108891324707"/>
	<line stroke="#4379FF" stroke-linecap="round" stroke-dasharray="6,6" stroke-width="3" x1="383.333333333333" y1="288.675134594844" x2="366.666666666667" y2="288.675134594844"/>
	<line stroke="#4379FF" stroke-linecap="round" stroke-dasharray="6,6" stroke-width="3" x1="383.333333333333" y1="288.675134594844" x2="391.666666666667" y2="274.241377865327"/>
	<line stroke="#4379FF" stroke-linecap="round" stroke-dasharray="6,6" stroke-width="3" x1="208.333333333333" y1="274.241377865327" x2="216.666666666667" y2="288.675134594844"/>
	<line stroke="#4379FF" stroke-linecap="round" stroke-dasharray="6,6" stroke-width="3" x1="383.333333333333" y1="230.940107676083" x2="391.666666666667" y2="245.3738644056"/>
	<line stroke="#4379FF" stroke-linecap="round" stroke-dasharray="6,6" stroke-width="3" x1="208.333333333333" y1="245.3738644056" x2="216.666666666667" y2="230.940107676083"/>
	<line stroke="#4379FF" stroke-linecap="round" stroke-dasharray="6,6" stroke-width="3" x1="358.333333333333" y1="274.241377865327" x2="341.666666666667" y2="303.108891324707"/>
	<line stroke="#4379FF" stroke-linecap="round" stroke-dasharray="6,6" stroke-width="3" x1="241.666666666667" y1="245.3738644056" x2="258.333333333333" y2="216.506350946219"/>
	<line stroke="#4379FF" stroke-linecap="round" stroke-dasharray="6,6" stroke-width="3" x1="241.666666666667" y1="274.241377865327" x2="258.333333333333" y2="303.108891324707"/>
	<line stroke="#4379FF" stroke-linecap="round" stroke-dasharray="6,6" stroke-width="3" x1="358.333333333333" y1="245.3738644056" x2="341.666666666667" y2="216.506350946219"/>
	<line stroke="#4379FF" stroke-linecap="round" stroke-dasharray="6,6" stroke-width="3" x1="322.222222222222" y1="240.562612162543" x2="327.777777777777" y2="240.562612162543"/>
	<line stroke="#4379FF" stroke-linecap="round" stroke-dasharray="6,6" stroke-width="3" x1="272.222222222222" y1="279.052630108383" x2="277.777777777777" y2="279.052630108383"/>
	<line stroke="#4379FF" stroke-linecap="round" stroke-dasharray="6,6" stroke-width="3" x1="233.333333333333" y1="202.072594216356" x2="241.666666666667" y2="187.638837486839"/>
	<line stroke="#4379FF" stroke-linecap="round" stroke-dasharray="6,6" stroke-width="3" x1="266.666666666667" y1="173.205080756975" x2="283.333333333333" y2="173.205080756975"/>
	<line stroke="#4379FF" stroke-linecap="round" stroke-dasharray="6,6" stroke-width="3" x1="358.333333333333" y1="331.976404784087" x2="366.666666666667" y2="317.542648054571"/>
	<line stroke="#4379FF" stroke-linecap="round" stroke-dasharray="6,6" stroke-width="3" x1="316.666666666667" y1="346.410161513951" x2="333.333333333333" y2="346.410161513951"/>
	<line stroke="#4379FF" stroke-linecap="round" stroke-dasharray="6,6" stroke-width="3" x1="283.333333333333" y1="202.072594216356" x2="316.666666666667" y2="202.072594216356"/>
	<line stroke="#4379FF" stroke-linecap="round" stroke-dasharray="6,6" stroke-width="3" x1="316.666666666667" y1="317.542648054571" x2="283.333333333333" y2="317.542648054571"/>
	<line stroke="#4379FF" stroke-linecap="round" stroke-dasharray="6,6" stroke-width="3" x1="286.111111111111" y1="245.3738644056" x2="291.666666666667" y2="245.3738644056"/>
	<line stroke="#4379FF" stroke-linecap="round" stroke-dasharray="6,6" stroke-width="3" x1="308.333333333333" y1="274.241377865327" x2="313.888888888889" y2="274.241377865327"/>
	<line stroke="#4379FF" stroke-linecap="round" stroke-dasharray="6,6" stroke-width="3" x1="272.222222222222" y1="240.562612162543" x2="277.777777777777" y2="240.562612162543"/>
	<line stroke="#4379FF" stroke-linecap="round" stroke-dasharray="6,6" stroke-width="3" x1="288.888888888889" y1="240.562612162543" x2="294.444444444444" y2="240.562612162543"/>
	<line stroke="#4379FF" stroke-linecap="round" stroke-dasharray="6,6" stroke-width="3" x1="272.222222222222" y1="250.185116649003" x2="277.777777777777" y2="250.185116649003"/>
	<line stroke="#4379FF" stroke-linecap="round" stroke-dasharray="6,6" stroke-width="3" x1="322.222222222222" y1="250.185116649003" x2="327.777777777777" y2="250.185116649003"/>
	<line stroke="#4379FF" stroke-linecap="round" stroke-dasharray="6,6" stroke-width="3" x1="275" y1="254.996368892233" x2="280.555555555556" y2="254.996368892233"/>
	<line stroke="#4379FF" stroke-linecap="round" stroke-dasharray="6,6" stroke-width="3" x1="319.444444444444" y1="254.996368892233" x2="325" y2="254.996368892233"/>
	<line stroke="#4379FF" stroke-linecap="round" stroke-dasharray="6,6" stroke-width="3" x1="275" y1="264.618873378693" x2="280.555555555556" y2="264.618873378693"/>
	<line stroke="#4379FF" stroke-linecap="round" stroke-dasharray="6,6" stroke-width="3" x1="319.444444444444" y1="264.618873378693" x2="325" y2="264.618873378693"/>
	<line stroke="#4379FF" stroke-linecap="round" stroke-dasharray="6,6" stroke-width="3" x1="272.222222222222" y1="269.430125621923" x2="277.77777777802" y2="269.430125621923"/>
	<line stroke="#4379FF" stroke-linecap="round" stroke-dasharray="6,6" stroke-width="3" x1="322.222222222222" y1="269.430125621923" x2="327.777777777777" y2="269.430125621923"/>
	<line stroke="#4379FF" stroke-linecap="round" stroke-dasharray="6,6" stroke-width="3" x1="305.555555555556" y1="279.052630108383" x2="311.111111111111" y2="279.052630108383"/>
	<line stroke="#4379FF" stroke-linecap="round" stroke-dasharray="6,6" stroke-width="3" x1="322.222222222222" y1="279.052630108383" x2="327.777777777777" y2="279.052630108383"/>
	<line stroke="#4379FF" stroke-linecap="round" stroke-dasharray="6,6" stroke-width="3" x1="311.111111111111" y1="240.562612162543" x2="313.888888888889" y2="245.3738644056"/>
	<line stroke="#4379FF" stroke-linecap="round" stroke-dasharray="6,6" stroke-width="3" x1="327.777777777777" y1="269.430125621923" x2="330.555555555556" y2="274.241377865327"/>
	<line stroke="#4379FF" stroke-linecap="round" stroke-dasharray="6,6" stroke-width="3" x1="305.555555555556" y1="240.562612162543" x2="308.333333333333" y2="245.3738644056"/>
	<line stroke="#4379FF" stroke-linecap="round" stroke-dasharray="6,6" stroke-width="3" x1="294.444444444444" y1="230.940107676083" x2="297.222222222222" y2="235.751359919313"/>
	<line stroke="#4379FF" stroke-linecap="round" stroke-dasharray="6,6" stroke-width="3" x1="319.444444444444" y1="274.241377865327" x2="322.222222222222" y2="279.052630108383"/>
	<line stroke="#4379FF" stroke-linecap="round" stroke-dasharray="6,6" stroke-width="3" x1="291.666666666667" y1="235.751359919313" x2="294.444444444444" y2="240.562612162543"/>
	<line stroke="#4379FF" stroke-linecap="round" stroke-dasharray="6,6" stroke-width="3" x1="313.888888888889" y1="274.241377865327" x2="316.666666666667" y2="279.052630108383"/>
	<line stroke="#4379FF" stroke-linecap="round" stroke-dasharray="6,6" stroke-width="3" x1="283.333333333333" y1="240.562612162543" x2="286.111111111111" y2="245.3738644056"/>
	<line stroke="#4379FF" stroke-linecap="round" stroke-dasharray="6,6" stroke-width="3" x1="305.555555555556" y1="279.052630108383" x2="308.333333333333" y2="283.863882351614"/>
	<line stroke="#4379FF" stroke-linecap="round" stroke-dasharray="6,6" stroke-width="3" x1="277.777777777777" y1="240.562612162543" x2="280.555555555556" y2="245.3738644056"/>
	<line stroke="#4379FF" stroke-linecap="round" stroke-dasharray="6,6" stroke-width="3" x1="302.777777778683" y1="283.863882351614" x2="305.555555555556" y2="288.675134594844"/>
	<line stroke="#4379FF" stroke-linecap="round" stroke-dasharray="6,6" stroke-width="3" x1="291.666666666667" y1="274.241377865327" x2="294.444444444444" y2="279.052630108383"/>
	<line stroke="#4379FF" stroke-linecap="round" stroke-dasharray="6,6" stroke-width="3" x1="269.444444444444" y1="245.3738644056" x2="272.222222222222" y2="250.185116649003"/>
	<line stroke="#4379FF" stroke-linecap="round" stroke-dasharray="6,6" stroke-width="3" x1="286.111111111111" y1="274.241377865327" x2="288.888888888889" y2="279.052630108383"/>
	<line stroke="#4379FF" stroke-linecap="round" stroke-dasharray="6,6" stroke-width="3" x1="319.444444444444" y1="264.618873378693" x2="322.222222222222" y2="259.807621135463"/>
	<line stroke="#4379FF" stroke-linecap="round" stroke-dasharray="6,6" stroke-width="3" x1="313.888888888889" y1="245.3738644056" x2="316.666666666667" y2="240.562612162543"/>
	<line stroke="#4379FF" stroke-linecap="round" stroke-dasharray="6,6" stroke-width="3" x1="277.777777777777" y1="259.807621135463" x2="280.555555555556" y2="254.996368892233"/>
	<line stroke="#4379FF" stroke-linecap="round" stroke-dasharray="6,6" stroke-width="3" x1="283.333333333333" y1="279.052630108383" x2="286.111111111111" y2="274.241377865327"/>
	<line stroke="#4379FF" stroke-linecap="round" stroke-dasharray="6,6" stroke-width="3" x1="316.666666666667" y1="259.807621135463" x2="319.444444444444" y2="254.996368892233"/>
	<line stroke="#4379FF" stroke-linecap="round" stroke-dasharray="6,6" stroke-width="3" x1="280.555555555556" y1="264.618873378693" x2="283.333333333333" y2="259.807621135463"/>
	<line stroke="#4379FF" stroke-linecap="round" stroke-dasharray="6,6" stroke-width="3" x1="291.666666666667" y1="283.863882351614" x2="294.444444444444" y2="279.052630108383"/>
	<line stroke="#4379FF" stroke-linecap="round" stroke-dasharray="6,6" stroke-width="3" x1="308.333333333333" y1="235.751359919313" x2="305.555555555556" y2="240.562612162543"/>
	<line stroke="#4379FF" stroke-linecap="round" stroke-dasharray="6,6" stroke-width="3" x1="319.444444444444" y1="245.3738644056" x2="322.222222222222" y2="240.562612162543"/>
	<line stroke="#4379FF" stroke-linecap="round" stroke-dasharray="6,6" stroke-width="3" x1="302.777777777777" y1="235.751359919313" x2="305.555555555556" y2="230.940107676083"/>
	<line stroke="#4379FF" stroke-linecap="round" stroke-dasharray="6,6" stroke-width="3" x1="294.444444444444" y1="288.675134594844" x2="297.222222222222" y2="283.863882351614"/>
	<line stroke="#4379FF" stroke-linecap="round" stroke-dasharray="6,6" stroke-width="3" x1="294.444444444444" y1="288.675134594844" x2="297.222222222222" y2="293.486386837376"/>
	<line stroke="#4379FF" stroke-linecap="round" stroke-dasharray="6,6" stroke-width="3" x1="269.444444444444" y1="245.3738644056" x2="272.222222222222" y2="240.562612162543"/>
	<line stroke="#4379FF" stroke-linecap="round" stroke-dasharray="6,6" stroke-width="3" x1="327.777777777777" y1="279.052630108383" x2="330.555555555556" y2="274.241377865327"/>
	<line stroke="#4379FF" stroke-linecap="round" stroke-dasharray="6,6" stroke-width="3" x1="283.333333333333" y1="317.542648054571" x2="297.222222222222" y2="293.486386837376"/>
	<line stroke="#4379FF" stroke-linecap="round" stroke-dasharray="6,6" stroke-width="3" x1="316.666666666667" y1="317.542648054571" x2="302.777777777777" y2="293.486386837205"/>
	<line stroke="#4379FF" stroke-linecap="round" stroke-dasharray="6,6" stroke-width="3" x1="297.222222222222" y1="293.486386837376" x2="302.777777777777" y2="293.486386837205"/>
	<line stroke="#4379FF" stroke-linecap="round" stroke-dasharray="6,6" stroke-width="3" x1="269.444444444444" y1="274.241377865327" x2="272.222222222222" y2="279.052630108383"/>
	<line stroke="#4379FF" stroke-linecap="round" stroke-dasharray="6,6" stroke-width="3" x1="327.777777777777" y1="240.562612162543" x2="330.555555555556" y2="245.3738644056"/>
	<line stroke="#4379FF" stroke-linecap="round" stroke-dasharray="6,6" stroke-width="3" x1="327.777777777777" y1="250.185116649003" x2="330.555555555556" y2="245.3738644056"/>
	<line stroke="#4379FF" stroke-linecap="round" stroke-dasharray="6,6" stroke-width="3" x1="302.777777777777" y1="226.128855433601" x2="305.555555555556" y2="230.940107676083"/>
	<line stroke="#4379FF" stroke-linecap="round" stroke-dasharray="6,6" stroke-width="3" x1="294.444444444444" y1="230.940107676083" x2="297.222222222222" y2="226.12885543379"/>
	<line stroke="#4379FF" stroke-linecap="round" stroke-dasharray="6,6" stroke-width="3" x1="302.777777777777" y1="293.486386837205" x2="305.555555555556" y2="288.675134594844"/>
	<line stroke="#4379FF" stroke-linecap="round" stroke-dasharray="6,6" stroke-width="3" x1="475" y1="303.108891324707" x2="500" y2="259.807621135463"/>
	<line stroke="#4379FF" stroke-linecap="round" stroke-dasharray="6,6" stroke-width="3" x1="100" y1="259.807621135463" x2="125" y2="303.108891324707"/>
	<line stroke="#4379FF" stroke-linecap="round" stroke-dasharray="6,6" stroke-width="3" x1="400" y1="259.807621135463" x2="400" y2="288.675134594844"/>
	<line stroke="#4379FF" stroke-linecap="round" stroke-dasharray="6,6" stroke-width="3" x1="200" y1="259.807621135463" x2="200" y2="288.675134594844"/>
	<line stroke="#4379FF" stroke-linecap="round" stroke-dasharray="6,6" stroke-width="3" x1="412.5" y1="281.458256230085" x2="412.5" y2="238.156986040841"/>
	<line stroke="#4379FF" stroke-linecap="round" stroke-dasharray="6,6" stroke-width="3" x1="187.5" y1="281.458256230085" x2="187.5" y2="238.156986040841"/>
	<line stroke="#4379FF" stroke-linecap="round" stroke-dasharray="6,6" stroke-width="3" x1="137.5" y1="281.458256230085" x2="137.5" y2="238.156986040841"/>
	<line stroke="#4379FF" stroke-linecap="round" stroke-dasharray="6,6" stroke-width="3" x1="462.5" y1="281.458256230085" x2="462.5" y2="238.156986040841"/>
	<line stroke="#4379FF" stroke-linecap="round" stroke-dasharray="6,6" stroke-width="3" x1="358.333333333333" y1="274.241377865327" x2="366.666666666667" y2="259.807621135463"/>
	<line stroke="#4379FF" stroke-linecap="round" stroke-dasharray="6,6" stroke-width="3" x1="327.777777777777" y1="269.430125621923" x2="330.555555555556" y2="264.618873378693"/>
	<line stroke="#4379FF" stroke-linecap="round" stroke-dasharray="6,6" stroke-width="3" x1="269.444444444444" y1="264.618873378693" x2="272.222222222222" y2="269.430125621923"/>
	<line stroke="#4379FF" stroke-linecap="round" stroke-dasharray="6,6" stroke-width="3" x1="305.555555555556" y1="269.430125621923" x2="308.333333333333" y2="264.618873378693"/>
	<line stroke="#4379FF" stroke-linecap="round" stroke-dasharray="6,6" stroke-width="3" x1="300" y1="269.430125621923" x2="302.777777777777" y2="264.618873378693"/>
	<line stroke="#4379FF" stroke-linecap="round" stroke-dasharray="6,6" stroke-width="3" x1="286.111111111111" y1="274.241377865327" x2="291.666666666667" y2="264.618873378693"/>
	<line stroke="#4379FF" stroke-linecap="round" stroke-dasharray="6,6" stroke-width="3" x1="100" y1="259.807621135463" x2="125" y2="216.506350946219"/>
	<line stroke="#4379FF" stroke-linecap="round" stroke-dasharray="6,6" stroke-width="3" x1="475" y1="216.506350946219" x2="500" y2="259.807621135463"/>
	<line stroke="#4379FF" stroke-linecap="round" stroke-dasharray="6,6" stroke-width="3" x1="200" y1="230.940107676083" x2="200" y2="259.807621135463"/>
	<line stroke="#4379FF" stroke-linecap="round" stroke-dasharray="6,6" stroke-width="3" x1="400" y1="230.940107676083" x2="400" y2="259.807621135463"/>
	<line stroke="#4379FF" stroke-linecap="round" stroke-dasharray="6,6" stroke-width="3" x1="233.333333333333" y1="259.807621135463" x2="241.666666666667" y2="245.3738644056"/>
	<line stroke="#4379FF" stroke-linecap="round" stroke-dasharray="6,6" stroke-width="3" x1="327.777777777777" y1="250.185116649003" x2="330.555555555556" y2="254.996368892233"/>
	<line stroke="#4379FF" stroke-linecap="round" stroke-dasharray="6,6" stroke-width="3" x1="269.444444444444" y1="254.996368892233" x2="272.222222222222" y2="250.185116649003"/>
	<line stroke="#4379FF" stroke-linecap="round" stroke-dasharray="6,6" stroke-width="3" x1="297.222222222222" y1="254.996368892233" x2="299.99999999917" y2="250.185116649003"/>
	<line stroke="#4379FF" stroke-linecap="round" stroke-dasharray="6,6" stroke-width="3" x1="291.666666666667" y1="254.996368892233" x2="294.444444444444" y2="250.185116649003"/>
	<line stroke="#4379FF" stroke-linecap="round" stroke-dasharray="6,6" stroke-width="3" x1="308.333333333333" y1="254.996368892233" x2="313.888888888889" y2="245.3738644056"/>
	<line stroke="#4379FF" stroke-linecap="round" stroke-dasharray="6,6" stroke-width="3" x1="277.777777777777" y1="240.562612162543" x2="280.555555555556" y2="235.751359919313"/>
	<line stroke="#4379FF" stroke-linecap="round" stroke-dasharray="6,6" stroke-width="3" x1="350" y1="433.012701892439" x2="400" y2="433.012701892439"/>
	<line stroke="#4379FF" stroke-linecap="round" stroke-dasharray="6,6" stroke-width="3" x1="175" y1="129.903810567732" x2="200" y2="86.602540378488"/>
	<line stroke="#4379FF" stroke-linecap="round" stroke-dasharray="6,6" stroke-width="3" x1="325" y1="360.843918243814" x2="350" y2="346.410161513951"/>
	<line stroke="#4379FF" stroke-linecap="round" stroke-dasharray="6,6" stroke-width="3" x1="200" y1="129.903810567732" x2="237.5" y2="108.25317547311"/>
	<line stroke="#4379FF" stroke-linecap="round" stroke-dasharray="6,6" stroke-width="3" x1="225" y1="187.638837486839" x2="250" y2="173.205080756975"/>
	<line stroke="#4379FF" stroke-linecap="round" stroke-dasharray="6,6" stroke-width="3" x1="337.5" y1="368.060796608573" x2="375" y2="346.410161513951"/>
	<line stroke="#4379FF" stroke-linecap="round" stroke-dasharray="6,6" stroke-width="3" x1="362.5" y1="411.362066797817" x2="400" y2="389.711431703195"/>
	<line stroke="#4379FF" stroke-linecap="round" stroke-dasharray="6,6" stroke-width="3" x1="316.666666666667" y1="317.542648054571" x2="333.333333333333" y2="317.542648054571"/>
	<line stroke="#4379FF" stroke-linecap="round" stroke-dasharray="6,6" stroke-width="3" x1="305.555555555556" y1="288.675134594844" x2="311.111111111111" y2="288.675134594844"/>
	<line stroke="#4379FF" stroke-linecap="round" stroke-dasharray="6,6" stroke-width="3" x1="280.555555555556" y1="254.996368892233" x2="291.666666666667" y2="254.996368892233"/>
	<line stroke="#4379FF" stroke-linecap="round" stroke-dasharray="6,6" stroke-width="3" x1="291.666666666667" y1="264.618873378693" x2="297.222222222222" y2="264.618873378693"/>
	<line stroke="#4379FF" stroke-linecap="round" stroke-dasharray="6,6" stroke-width="3" x1="294.444444444444" y1="269.430125621923" x2="300" y2="269.430125621923"/>
	<line stroke="#4379FF" stroke-linecap="round" stroke-dasharray="6,6" stroke-width="3" x1="305.555555555556" y1="279.052630108383" x2="294.444444444444" y2="279.052630108383"/>
	<line stroke="#4379FF" stroke-linecap="round" stroke-dasharray="6,6" stroke-width="3" x1="225" y1="173.205080756975" x2="262.5" y2="151.554445662354"/>
	<line stroke="#4379FF" stroke-linecap="round" stroke-dasharray="6,6" stroke-width="3" x1="280.555555555556" y1="254.996368892233" x2="286.111111111111" y2="245.3738644056"/>
	<line stroke="#4379FF" stroke-linecap="round" stroke-dasharray="6,6" stroke-width="3" x1="319.444444444444" y1="283.863882351614" x2="322.222222222222" y2="279.052630108383"/>
	<line stroke="#4379FF" stroke-linecap="round" stroke-dasharray="6,6" stroke-width="3" x1="200" y1="86.602540378488" x2="250" y2="86.602540378488"/>
	<line stroke="#4379FF" stroke-linecap="round" stroke-dasharray="6,6" stroke-width="3" x1="400" y1="433.012701892439" x2="425" y2="389.711431703195"/>
	<line stroke="#4379FF" stroke-linecap="round" stroke-dasharray="6,6" stroke-width="3" x1="250" y1="173.205080756975" x2="275" y2="158.771324027112"/>
	<line stroke="#4379FF" stroke-linecap="round" stroke-dasharray="6,6" stroke-width="3" x1="350" y1="346.410161513951" x2="375" y2="331.976404784087"/>
	<line stroke="#4379FF" stroke-linecap="round" stroke-dasharray="6,6" stroke-width="3" x1="266.666666666667" y1="202.072594216356" x2="283.333333333333" y2="202.072594216356"/>
	<line stroke="#4379FF" stroke-linecap="round" stroke-dasharray="6,6" stroke-width="3" x1="288.888888888889" y1="230.940107676083" x2="294.444444444444" y2="230.940107676083"/>
	<line stroke="#4379FF" stroke-linecap="round" stroke-dasharray="6,6" stroke-width="3" x1="299.99999999917" y1="250.185116649003" x2="305.555555555556" y2="250.185116649003"/>
	<line stroke="#4379FF" stroke-linecap="round" stroke-dasharray="6,6" stroke-width="3" x1="302.777777777777" y1="254.996368892233" x2="308.333333333333" y2="254.996368892233"/>
	<line stroke="#4379FF" stroke-linecap="round" stroke-dasharray="6,6" stroke-width="3" x1="308.333333333333" y1="264.618873378693" x2="319.444444444444" y2="264.618873378693"/>
	<line stroke="#4379FF" stroke-linecap="round" stroke-dasharray="6,6" stroke-width="3" x1="313.888888888889" y1="274.241377865327" x2="319.444444444444" y2="264.618873378693"/>
	<line stroke="#4379FF" stroke-linecap="round" stroke-dasharray="6,6" stroke-width="3" x1="400" y1="86.602540378488" x2="425" y2="129.903810567732"/>
	<line stroke="#4379FF" stroke-linecap="round" stroke-dasharray="6,6" stroke-width="3" x1="200" y1="433.012701892439" x2="250" y2="433.012701892439"/>
	<line stroke="#4379FF" stroke-linecap="round" stroke-dasharray="6,6" stroke-width="3" x1="350" y1="173.205080756975" x2="375" y2="187.638837486839"/>
	<line stroke="#4379FF" stroke-linecap="round" stroke-dasharray="6,6" stroke-width="3" x1="250" y1="346.410161513951" x2="275" y2="360.843918243814"/>
	<line stroke="#4379FF" stroke-linecap="round" stroke-dasharray="6,6" stroke-width="3" x1="333.333333333333" y1="202.072594216356" x2="341.666666666667" y2="216.506350946219"/>
	<line stroke="#4379FF" stroke-linecap="round" stroke-dasharray="6,6" stroke-width="3" x1="319.444444444444" y1="235.751359919313" x2="322.222222222222" y2="240.562612162543"/>
	<line stroke="#4379FF" stroke-linecap="round" stroke-dasharray="6,6" stroke-width="3" x1="288.888888888889" y1="288.675134594844" x2="294.444444444444" y2="288.675134594844"/>
	<line stroke="#4379FF" stroke-linecap="round" stroke-dasharray="6,6" stroke-width="3" x1="308.333333333333" y1="254.996368892233" x2="311.111111111111" y2="259.807621135463"/>
	<line stroke="#4379FF" stroke-linecap="round" stroke-dasharray="6,6" stroke-width="3" x1="305.555555555556" y1="259.807621135463" x2="308.333333333333" y2="264.618873378693"/>
	<line stroke="#4379FF" stroke-linecap="round" stroke-dasharray="6,6" stroke-width="3" x1="300" y1="269.430125621923" x2="305.555555555556" y2="279.052630108383"/>
	<line stroke="#4379FF" stroke-linecap="round" stroke-dasharray="6,6" stroke-width="3" x1="313.888888888889" y1="245.3738644056" x2="319.444444444444" y2="254.996368892233"/>
	<line stroke="#4379FF" stroke-linecap="round" stroke-dasharray="6,6" stroke-width="3" x1="175" y1="389.711431703195" x2="200" y2="433.012701892439"/>
	<line stroke="#4379FF" stroke-linecap="round" stroke-dasharray="6,6" stroke-width="3" x1="350" y1="86.602540378488" x2="400" y2="86.602540378488"/>
	<line stroke="#4379FF" stroke-linecap="round" stroke-dasharray="6,6" stroke-width="3" x1="225" y1="331.976404784087" x2="250" y2="346.410161513951"/>
	<line stroke="#4379FF" stroke-linecap="round" stroke-dasharray="6,6" stroke-width="3" x1="325" y1="158.771324027112" x2="350" y2="173.205080756975"/>
	<line stroke="#4379FF" stroke-linecap="round" stroke-dasharray="6,6" stroke-width="3" x1="258.333333333333" y1="303.108891324707" x2="266.666666666667" y2="317.542648054571"/>
	<line stroke="#4379FF" stroke-linecap="round" stroke-dasharray="6,6" stroke-width="3" x1="277.777777777777" y1="279.052630108383" x2="280.555555555556" y2="283.863882351614"/>
	<line stroke="#4379FF" stroke-linecap="round" stroke-dasharray="6,6" stroke-width="3" x1="294.444444444444" y1="240.562612162543" x2="299.99999999917" y2="250.185116649003"/>
	<line stroke="#4379FF" stroke-linecap="round" stroke-dasharray="6,6" stroke-width="3" x1="291.666666666667" y1="254.996368892233" x2="294.444444444444" y2="259.807621135463"/>
	<line stroke="#4379FF" stroke-linecap="round" stroke-dasharray="6,6" stroke-width="3" x1="288.888888888889" y1="259.807621135463" x2="291.666666666667" y2="264.618873378693"/>
	<line stroke="#4379FF" stroke-linecap="round" stroke-dasharray="6,6" stroke-width="3" x1="280.555555555556" y1="264.618873378693" x2="286.111111111111" y2="274.241377865327"/>
	<line stroke="#4379FF" stroke-linecap="round" stroke-dasharray="6,6" stroke-width="3" x1="294.444444444444" y1="240.562612162543" x2="305.555555555556" y2="240.562612162543"/>
	<line stroke="#4379FF" stroke-linecap="round" stroke-dasharray="6,6" stroke-width="3" x1="362.5" y1="108.25317547311" x2="400" y2="129.903810567732"/>
	<line stroke="#4379FF" stroke-linecap="round" stroke-dasharray="6,6" stroke-width="3" x1="337.5" y1="151.554445662354" x2="375" y2="173.205080756975"/>
	<line stroke="#4379FF" stroke-linecap="round" stroke-dasharray="6,6" stroke-width="3" x1="225" y1="346.410161513951" x2="262.5" y2="368.060796608573"/>
	<line stroke="#4379FF" stroke-linecap="round" stroke-dasharray="6,6" stroke-width="3" x1="200" y1="389.711431703195" x2="237.5" y2="411.362066797817"/>
	<line stroke="#4379FF" stroke-linecap="round" stroke-dasharray="6,6" stroke-width="3" x1="305.555555555556" y1="230.940107676083" x2="311.111111111111" y2="230.940107676083"/>
	<line stroke="#4379FF" stroke-linecap="round" stroke-dasharray="6,6" stroke-width="3" x1="327.777777777777" y1="240.562612162543" x2="341.666666666667" y2="216.506350946219"/>
	<line stroke="#4379FF" stroke-linecap="round" stroke-dasharray="6,6" stroke-width="3" x1="330.555555555556" y1="274.241377865327" x2="358.333333333333" y2="274.241377865327"/>
	<line stroke="#4379FF" stroke-linecap="round" stroke-dasharray="6,6" stroke-width="3" x1="341.666666666667" y1="303.108891324707" x2="327.777777777777" y2="279.052630108383"/>
	<line stroke="#4379FF" stroke-linecap="round" stroke-dasharray="6,6" stroke-width="3" x1="330.555555555556" y1="245.3738644056" x2="358.333333333333" y2="245.3738644056"/>
	<line stroke="#4379FF" stroke-linecap="round" stroke-dasharray="6,6" stroke-width="3" x1="333.333333333333" y1="250.185116649003" x2="333.333333333333" y2="259.807621135463"/>
	<line stroke="#4379FF" stroke-linecap="round" stroke-dasharray="6,6" stroke-width="3" x1="333.333333333333" y1="259.807621135463" x2="333.333333333333" y2="269.430125621923"/>
	<line stroke="#4379FF" stroke-linecap="round" stroke-dasharray="6,6" stroke-width="3" x1="283.333333333333" y1="202.072594216356" x2="297.222222222222" y2="226.12885543379"/>
	<line stroke="#4379FF" stroke-linecap="round" stroke-dasharray="6,6" stroke-width="3" x1="302.777777777777" y1="226.128855433601" x2="316.666666666667" y2="202.072594216356"/>
	<line stroke="#4379FF" stroke-linecap="round" stroke-dasharray="6,6" stroke-width="3" x1="258.333333333333" y1="303.108891324707" x2="272.222222222222" y2="279.052630108383"/>
	<line stroke="#4379FF" stroke-linecap="round" stroke-dasharray="6,6" stroke-width="3" x1="241.666666666667" y1="274.241377865327" x2="269.444444444444" y2="274.241377865327"/>
	<line stroke="#4379FF" stroke-linecap="round" stroke-dasharray="6,6" stroke-width="3" x1="241.666666666667" y1="245.3738644056" x2="269.444444444444" y2="245.3738644056"/>
	<line stroke="#4379FF" stroke-linecap="round" stroke-dasharray="6,6" stroke-width="3" x1="272.222222222222" y1="240.562612162543" x2="258.333333333333" y2="216.506350946219"/>
	<line stroke="#4379FF" stroke-linecap="round" stroke-dasharray="6,6" stroke-width="3" x1="275" y1="235.751359919313" x2="283.333333333333" y2="230.940107676083"/>
	<line stroke="#4379FF" stroke-linecap="round" stroke-dasharray="6,6" stroke-width="3" x1="283.333333333333" y1="230.940107676083" x2="291.666666666667" y2="226.128855433978"/>
	<line stroke="#4379FF" stroke-linecap="round" stroke-dasharray="6,6" stroke-width="3" x1="266.666666666667" y1="259.807621135463" x2="266.666666666667" y2="269.430125621729"/>
	<line stroke="#4379FF" stroke-linecap="round" stroke-dasharray="6,6" stroke-width="3" x1="316.666666666667" y1="202.072594216356" x2="333.333333333333" y2="202.072594216356"/>
	<line stroke="#4379FF" stroke-linecap="round" stroke-dasharray="6,6" stroke-width="3" x1="266.666666666667" y1="202.072594216356" x2="258.333333333333" y2="216.506350946219"/>
	<line stroke="#4379FF" stroke-linecap="round" stroke-dasharray="6,6" stroke-width="3" x1="233.333333333333" y1="259.807621135463" x2="241.666666666667" y2="274.241377865327"/>
	<line stroke="#4379FF" stroke-linecap="round" stroke-dasharray="6,6" stroke-width="3" x1="266.666666666667" y1="317.542648054571" x2="283.333333333333" y2="317.542648054571"/>
	<line stroke="#4379FF" stroke-linecap="round" stroke-dasharray="6,6" stroke-width="3" x1="333.333333333333" y1="317.542648054571" x2="341.666666666667" y2="303.108891324707"/>
	<line stroke="#4379FF" stroke-linecap="round" stroke-dasharray="6,6" stroke-width="3" x1="358.333333333333" y1="245.3738644056" x2="366.666666666667" y2="259.807621135463"/>
	<line stroke="#4379FF" stroke-linecap="round" stroke-dasharray="6,6" stroke-width="3" x1="354.166666666667" y1="252.590742770531" x2="354.166666666667" y2="267.024499500395"/>
	<line stroke="#4379FF" stroke-linecap="round" stroke-dasharray="6,6" stroke-width="3" x1="320.833333333179" y1="310.325769689872" x2="333.333333333333" y2="303.108891324707"/>
	<line stroke="#4379FF" stroke-linecap="round" stroke-dasharray="6,6" stroke-width="3" x1="266.666666666667" y1="303.108891324707" x2="279.166666666667" y2="310.325769689419"/>
	<line stroke="#4379FF" stroke-linecap="round" stroke-dasharray="6,6" stroke-width="3" x1="245.833333333314" y1="252.590742770531" x2="245.833333333314" y2="267.024499500395"/>
	<line stroke="#4379FF" stroke-linecap="round" stroke-dasharray="6,6" stroke-width="3" x1="266.666666666667" y1="216.506350946219" x2="279.166666666667" y2="209.289472581288"/>
	<line stroke="#4379FF" stroke-linecap="round" stroke-dasharray="6,6" stroke-width="3" x1="320.833333333337" y1="209.289472581328" x2="333.333333333333" y2="216.506350946219"/>
	<line stroke="#4379FF" stroke-linecap="round" stroke-dasharray="6,6" stroke-width="3" x1="277.777777777777" y1="279.052630108383" x2="280.555555555556" y2="274.241377865327"/>
	<line stroke="#4379FF" stroke-linecap="round" stroke-dasharray="6,6" stroke-width="3" x1="269.444444444444" y1="274.241377865327" x2="272.222222222222" y2="269.430125621923"/>
	<line stroke="#4379FF" stroke-linecap="round" stroke-dasharray="6,6" stroke-width="3" x1="297.222222222222" y1="226.12885543379" x2="302.777777777777" y2="226.128855433601"/>
	<line stroke="#4379FF" stroke-linecap="round" stroke-dasharray="6,6" stroke-width="3" x1="308.333333333333" y1="226.12885543212" x2="316.666666666667" y2="230.940107676083"/>
	<line stroke="#4379FF" stroke-linecap="round" stroke-dasharray="6,6" stroke-width="3" x1="316.666666666667" y1="230.940107676083" x2="325" y2="235.751359919313"/>
	<line stroke="#4379FF" stroke-linecap="round" stroke-dasharray="6,6" stroke-width="3" x1="308.333333333333" y1="293.486386837033" x2="316.666666666667" y2="288.675134594844"/>
	<line stroke="#4379FF" stroke-linecap="round" stroke-dasharray="6,6" stroke-width="3" x1="316.666666666667" y1="288.675134594844" x2="325" y2="283.863882351614"/>
	<line stroke="#4379FF" stroke-linecap="round" stroke-dasharray="6,6" stroke-width="3" x1="275" y1="283.863882351614" x2="283.333333333333" y2="288.675134594844"/>
	<line stroke="#4379FF" stroke-linecap="round" stroke-dasharray="6,6" stroke-width="3" x1="283.333333333333" y1="288.675134594844" x2="291.666666666667" y2="293.486386838813"/>
	<line stroke="#4379FF" stroke-linecap="round" stroke-dasharray="6,6" stroke-width="3" x1="312.5" y1="295.892012959974" x2="325" y2="288.675134594544"/>
	<line stroke="#4379FF" stroke-linecap="round" stroke-dasharray="6,6" stroke-width="3" x1="337.5" y1="267.024499500395" x2="337.5" y2="252.590742770531"/>
	<line stroke="#4379FF" stroke-linecap="round" stroke-dasharray="6,6" stroke-width="3" x1="325" y1="230.940107676266" x2="312.5" y2="223.723229311452"/>
	<line stroke="#4379FF" stroke-linecap="round" stroke-dasharray="6,6" stroke-width="3" x1="287.5" y1="223.72322931133" x2="275" y2="230.940107675924"/>
	<line stroke="#4379FF" stroke-linecap="round" stroke-dasharray="6,6" stroke-width="3" x1="262.5" y1="252.590742770531" x2="262.5" y2="267.024499500395"/>
	<line stroke="#4379FF" stroke-linecap="round" stroke-dasharray="6,6" stroke-width="3" x1="274.999999998713" y1="288.675134595566" x2="287.5" y2="295.89201295944"/>
	<line stroke="#4379FF" stroke-linecap="round" stroke-dasharray="6,6" stroke-width="3" x1="266.666666666667" y1="259.807621135463" x2="266.666666666667" y2="250.185116649003"/>
</g>
<g id="mountain">
	<line stroke="#EE1032" stroke-width="3" x1="400" y1="0" x2="375" y2="43.301270189244"/>
	<line stroke="#EE1032" stroke-width="3" x1="275" y1="43.301270189244" x2="250" y2="86.602540378488"/>
	<line stroke="#EE1032" stroke-width="3" x1="475" y1="43.301270189244" x2="450" y2="86.602540378488"/>
	<line stroke="#EE1032" stroke-width="3" x1="150" y1="86.602540378488" x2="125" y2="129.903810567732"/>
	<line stroke="#EE1032" stroke-width="3" x1="100" y1="173.205080756975" x2="75" y2="216.506350946219"/>
	<line stroke="#EE1032" stroke-width="3" x1="500" y1="173.205080756975" x2="475" y2="216.506350946219"/>
	<line stroke="#EE1032" stroke-width="3" x1="125" y1="303.108891324707" x2="100" y2="346.410161513951"/>
	<line stroke="#EE1032" stroke-width="3" x1="525" y1="303.108891324707" x2="500" y2="346.410161513951"/>
	<line stroke="#EE1032" stroke-width="3" x1="150" y1="433.012701892439" x2="125" y2="476.313972081683"/>
	<line stroke="#EE1032" stroke-width="3" x1="475" y1="389.711431703195" x2="450" y2="433.012701892439"/>
	<line stroke="#EE1032" stroke-width="3" x1="225" y1="476.313972081683" x2="200" y2="519.615242270926"/>
	<line stroke="#EE1032" stroke-width="3" x1="350" y1="433.012701892439" x2="325" y2="476.313972081683"/>
	<line stroke="#EE1032" stroke-width="3" x1="25" y1="216.506350946219" x2="75" y2="216.506350946219"/>
	<line stroke="#EE1032" stroke-width="3" x1="25" y1="303.108891324707" x2="75" y2="303.108891324707"/>
	<line stroke="#EE1032" stroke-width="3" x1="125" y1="129.903810567732" x2="175" y2="129.903810567732"/>
	<line stroke="#EE1032" stroke-width="3" x1="225" y1="43.301270189244" x2="275" y2="43.301270189244"/>
	<line stroke="#EE1032" stroke-width="3" x1="125" y1="389.711431703195" x2="175" y2="389.711431703195"/>
	<line stroke="#EE1032" stroke-width="3" x1="325" y1="43.301270189244" x2="375" y2="43.301270189244"/>
	<line stroke="#EE1032" stroke-width="3" x1="225" y1="476.313972081683" x2="275" y2="476.313972081683"/>
	<line stroke="#EE1032" stroke-width="3" x1="425" y1="129.903810567732" x2="475" y2="129.903810567732"/>
	<line stroke="#EE1032" stroke-width="3" x1="275" y1="476.313972081683" x2="325" y2="476.313972081683"/>
	<line stroke="#EE1032" stroke-width="3" x1="325" y1="476.313972081683" x2="375" y2="476.313972081683"/>
	<line stroke="#EE1032" stroke-width="3" x1="525" y1="216.506350946219" x2="575" y2="216.506350946219"/>
	<line stroke="#EE1032" stroke-width="3" x1="425" y1="389.711431703195" x2="475" y2="389.711431703195"/>
	<line stroke="#EE1032" stroke-width="3" x1="525" y1="303.108891324707" x2="575" y2="303.108891324707"/>
	<line stroke="#EE1032" stroke-width="3" x1="450" y1="86.602540378488" x2="475" y2="129.903810567732"/>
	<line stroke="#EE1032" stroke-width="3" x1="500" y1="173.205080756975" x2="525" y2="216.506350946219"/>
	<line stroke="#EE1032" stroke-width="3" x1="325" y1="43.301270189244" x2="350" y2="86.602540378488"/>
	<line stroke="#EE1032" stroke-width="3" x1="475" y1="303.108891324707" x2="500" y2="346.410161513951"/>
	<line stroke="#EE1032" stroke-width="3" x1="200" y1="0" x2="225" y2="43.301270189244"/>
	<line stroke="#EE1032" stroke-width="3" x1="450" y1="433.012701892439" x2="475" y2="476.313972081683"/>
	<line stroke="#EE1032" stroke-width="3" x1="125" y1="43.301270189244" x2="150" y2="86.602540378488"/>
	<line stroke="#EE1032" stroke-width="3" x1="375" y1="476.313972081683" x2="400" y2="519.615242270926"/>
	<line stroke="#EE1032" stroke-width="3" x1="100" y1="173.205080756975" x2="125" y2="216.506350946219"/>
	<line stroke="#EE1032" stroke-width="3" x1="250" y1="433.012701892439" x2="275" y2="476.313972081683"/>
	<line stroke="#EE1032" stroke-width="3" x1="75" y1="303.108891324707" x2="100" y2="346.410161513951"/>
	<line stroke="#EE1032" stroke-width="3" x1="125" y1="389.711431703195" x2="150" y2="433.012701892439"/>
	<line stroke="#EE1032" stroke-width="3" x1="237.5" y1="411.362066797817" x2="250" y2="433.012701892439"/>
	<line stroke="#EE1032" stroke-width="3" x1="175" y1="389.711431703195" x2="200" y2="389.711431703195"/>
	<line stroke="#EE1032" stroke-width="3" x1="350" y1="86.602540378488" x2="362.5" y2="108.25317547311"/>
	<line stroke="#EE1032" stroke-width="3" x1="400" y1="129.903810567732" x2="425" y2="129.903810567732"/>
	<line stroke="#EE1032" stroke-width="3" x1="412.5" y1="238.156986040841" x2="462.5" y2="238.156986040841"/>
	<line stroke="#EE1032" stroke-width="3" x1="137.5" y1="238.156986040841" x2="187.5" y2="238.156986040841"/>
	<line stroke="#EE1032" stroke-width="3" x1="237.5" y1="411.362066797817" x2="262.5" y2="368.060796608573"/>
	<line stroke="#EE1032" stroke-width="3" x1="337.5" y1="368.060796608573" x2="362.5" y2="411.362066797817"/>
	<line stroke="#EE1032" stroke-width="3" x1="100" y1="173.205080756975" x2="125" y2="129.903810567732"/>
	<line stroke="#EE1032" stroke-width="3" x1="475" y1="129.903810567732" x2="500" y2="173.205080756975"/>
	<line stroke="#EE1032" stroke-width="3" x1="375" y1="173.205080756975" x2="400" y2="129.903810567732"/>
	<line stroke="#EE1032" stroke-width="3" x1="200" y1="129.903810567732" x2="225" y2="173.205080756975"/>
	<line stroke="#EE1032" stroke-width="3" x1="275" y1="158.771324027112" x2="291.666666666667" y2="158.771324027112"/>
	<line stroke="#EE1032" stroke-width="3" x1="308.333333333333" y1="158.771324027112" x2="325" y2="158.771324027112"/>
	<line stroke="#EE1032" stroke-width="3" x1="475" y1="389.711431703195" x2="500" y2="346.410161513951"/>
	<line stroke="#EE1032" stroke-width="3" x1="275" y1="43.301270189244" x2="325" y2="43.301270189244"/>
	<line stroke="#EE1032" stroke-width="3" x1="412.5" y1="281.458256230085" x2="462.5" y2="281.458256230085"/>
	<line stroke="#EE1032" stroke-width="3" x1="337.5" y1="151.554445662354" x2="362.5" y2="108.25317547311"/>
	<line stroke="#EE1032" stroke-width="3" x1="375" y1="187.638837486839" x2="383.333333333333" y2="202.072594216356"/>
	<line stroke="#EE1032" stroke-width="3" x1="391.666666666667" y1="216.506350946219" x2="400" y2="230.940107676083"/>
	<line stroke="#EE1032" stroke-width="3" x1="100" y1="346.410161513951" x2="125" y2="389.711431703195"/>
	<line stroke="#EE1032" stroke-width="3" x1="200" y1="389.711431703195" x2="225" y2="346.410161513951"/>
	<line stroke="#EE1032" stroke-width="3" x1="375" y1="346.410161513951" x2="400" y2="389.711431703195"/>
	<line stroke="#EE1032" stroke-width="3" x1="275" y1="360.843918243814" x2="291.666666666667" y2="360.843918243814"/>
	<line stroke="#EE1032" stroke-width="3" x1="308.333333333333" y1="360.843918243814" x2="325" y2="360.843918243814"/>
	<line stroke="#EE1032" stroke-width="3" x1="237.5" y1="108.25317547311" x2="262.5" y2="151.554445662354"/>
	<line stroke="#EE1032" stroke-width="3" x1="137.5" y1="281.458256230085" x2="187.5" y2="281.458256230085"/>
	<line stroke="#EE1032" stroke-width="3" x1="200" y1="230.940107676083" x2="208.333333333333" y2="216.506350946219"/>
	<line stroke="#EE1032" stroke-width="3" x1="216.666666666667" y1="202.072594216356" x2="225" y2="187.638837486839"/>
	<line stroke="#EE1032" stroke-width="3" x1="200" y1="288.675134594844" x2="208.333333333333" y2="303.108891324707"/>
	<line stroke="#EE1032" stroke-width="3" x1="216.666666666667" y1="317.542648054571" x2="225" y2="331.976404784087"/>
	<line stroke="#EE1032" stroke-width="3" x1="375" y1="331.976404784087" x2="383.333333333333" y2="317.542648054571"/>
	<line stroke="#EE1032" stroke-width="3" x1="391.666666666667" y1="303.108891324707" x2="400" y2="288.675134594844"/>
	<line stroke="#EE1032" stroke-width="3" x1="337.5" y1="151.554445662354" x2="325" y2="158.771324027112"/>
	<line stroke="#EE1032" stroke-width="3" x1="375" y1="173.205080756975" x2="375" y2="187.638837486839"/>
	<line stroke="#EE1032" stroke-width="3" x1="262.5" y1="368.060796608573" x2="275" y2="360.843918243814"/>
	<line stroke="#EE1032" stroke-width="3" x1="225" y1="346.410161513951" x2="225" y2="331.976404784087"/>
	<line stroke="#EE1032" stroke-width="3" x1="216.666666666667" y1="288.675134594844" x2="233.333333333333" y2="317.542648054571"/>
	<line stroke="#EE1032" stroke-width="3" x1="383.333333333333" y1="288.675134594844" x2="366.666666666667" y2="317.542648054571"/>
	<line stroke="#EE1032" stroke-width="3" x1="383.333333333333" y1="230.940107676083" x2="366.666666666667" y2="202.072594216356"/>
	<line stroke="#EE1032" stroke-width="3" x1="316.666666666667" y1="346.410161513951" x2="283.333333333333" y2="346.410161513951"/>
	<line stroke="#EE1032" stroke-width="3" x1="341.666666666667" y1="216.506350946219" x2="358.333333333333" y2="216.506350946219"/>
	<line stroke="#EE1032" stroke-width="3" x1="325" y1="158.771324027112" x2="333.333333333333" y2="173.205080756975"/>
	<line stroke="#EE1032" stroke-width="3" x1="350" y1="202.072594216356" x2="358.333333333333" y2="216.506350946219"/>
	<line stroke="#EE1032" stroke-width="3" x1="358.333333333333" y1="187.638837486839" x2="375" y2="187.638837486839"/>
	<line stroke="#EE1032" stroke-width="3" x1="225" y1="331.976404784087" x2="241.666666666667" y2="331.976404784087"/>
	<line stroke="#EE1032" stroke-width="3" x1="241.666666666667" y1="303.108891324707" x2="258.333333333333" y2="303.108891324707"/>
	<line stroke="#EE1032" stroke-width="3" x1="241.666666666667" y1="303.108891324707" x2="250" y2="317.542648054571"/>
	<line stroke="#EE1032" stroke-width="3" x1="266.666666666667" y1="346.410161513951" x2="275" y2="360.843918243814"/>
	<line stroke="#EE1032" stroke-width="3" x1="241.666666666667" y1="331.976404784087" x2="250" y2="317.542648054571"/>
	<line stroke="#EE1032" stroke-width="3" x1="325" y1="187.638837486839" x2="333.333333333333" y2="173.205080756975"/>
	<line stroke="#EE1032" stroke-width="3" x1="266.666666666667" y1="346.410161513951" x2="275" y2="331.976404784087"/>
	<line stroke="#EE1032" stroke-width="3" x1="350" y1="202.072594216356" x2="358.333333333333" y2="187.638837486839"/>
	<line stroke="#EE1032" stroke-width="3" x1="266.666666666667" y1="173.205080756975" x2="275" y2="187.638837486839"/>
	<line stroke="#EE1032" stroke-width="3" x1="350" y1="317.542648054571" x2="358.333333333333" y2="331.976404784087"/>
	<line stroke="#EE1032" stroke-width="3" x1="241.666666666667" y1="187.638837486839" x2="250" y2="202.072594216356"/>
	<line stroke="#EE1032" stroke-width="3" x1="325" y1="331.976404784087" x2="333.333333333333" y2="346.410161513951"/>
	<line stroke="#EE1032" stroke-width="3" x1="208.333333333333" y1="274.241377865327" x2="225" y2="274.241377865327"/>
	<line stroke="#EE1032" stroke-width="3" x1="375" y1="274.241377865327" x2="391.666666666667" y2="274.241377865327"/>
	<line stroke="#EE1032" stroke-width="3" x1="208.333333333333" y1="245.3738644056" x2="225" y2="245.3738644056"/>
	<line stroke="#EE1032" stroke-width="3" x1="375" y1="245.3738644056" x2="391.666666666667" y2="245.3738644056"/>
	<line stroke="#EE1032" stroke-width="3" x1="283.333333333333" y1="173.205080756975" x2="316.666666666667" y2="173.205080756975"/>
	<line stroke="#EE1032" stroke-width="3" x1="291.666666666667" y1="187.638837486839" x2="308.333333333333" y2="187.638837486839"/>
	<line stroke="#EE1032" stroke-width="3" x1="308.333333333333" y1="187.638837486839" x2="325" y2="187.638837486839"/>
	<line stroke="#EE1032" stroke-width="3" x1="308.333333333333" y1="187.638837486839" x2="316.666666666667" y2="202.072594216356"/>
	<line stroke="#EE1032" stroke-width="3" x1="216.666666666667" y1="230.940107676083" x2="233.333333333333" y2="202.072594216356"/>
	<line stroke="#EE1032" stroke-width="3" x1="233.333333333333" y1="230.940107676083" x2="241.666666666667" y2="216.506350946219"/>
	<line stroke="#EE1032" stroke-width="3" x1="233.333333333333" y1="288.675134594844" x2="241.666666666667" y2="303.108891324707"/>
	<line stroke="#EE1032" stroke-width="3" x1="275" y1="331.976404784087" x2="291.666666666667" y2="331.976404784087"/>
	<line stroke="#EE1032" stroke-width="3" x1="291.666666666667" y1="331.976404784087" x2="308.333333333333" y2="331.976404784087"/>
	<line stroke="#EE1032" stroke-width="3" x1="283.333333333333" y1="317.542648054571" x2="291.666666666667" y2="331.976404784087"/>
	<line stroke="#EE1032" stroke-width="3" x1="358.333333333333" y1="303.108891324707" x2="366.666666666667" y2="288.675134594844"/>
	<line stroke="#EE1032" stroke-width="3" x1="358.333333333333" y1="216.506350946219" x2="366.666666666667" y2="230.940107676083"/>
	<line stroke="#EE1032" stroke-width="3" x1="125" y1="303.108891324707" x2="137.5" y2="281.458256230085"/>
	<line stroke="#EE1032" stroke-width="3" x1="125" y1="216.506350946219" x2="137.5" y2="238.156986040841"/>
	<line stroke="#EE1032" stroke-width="3" x1="462.5" y1="238.156986040841" x2="475" y2="216.506350946219"/>
	<line stroke="#EE1032" stroke-width="3" x1="462.5" y1="281.458256230085" x2="475" y2="303.108891324707"/>
	<line stroke="#EE1032" stroke-width="3" x1="400" y1="230.940107676083" x2="412.5" y2="238.156986040841"/>
	<line stroke="#EE1032" stroke-width="3" x1="400" y1="288.675134594844" x2="412.5" y2="281.458256230085"/>
	<line stroke="#EE1032" stroke-width="3" x1="187.5" y1="281.458256230085" x2="200" y2="288.675134594844"/>
	<line stroke="#EE1032" stroke-width="3" x1="187.5" y1="238.156986040841" x2="200" y2="230.940107676083"/>
	<line stroke="#EE1032" stroke-width="3" x1="391.666666666667" y1="274.241377865327" x2="400" y2="288.675134594844"/>
	<line stroke="#EE1032" stroke-width="3" x1="233.333333333333" y1="230.940107676083" x2="241.666666666667" y2="245.3738644056"/>
	<line stroke="#EE1032" stroke-width="3" x1="200" y1="288.675134594844" x2="208.333333333333" y2="274.241377865327"/>
	<line stroke="#EE1032" stroke-width="3" x1="225" y1="245.3738644056" x2="233.333333333333" y2="230.940107676083"/>
	<line stroke="#EE1032" stroke-width="3" x1="358.333333333333" y1="274.241377865327" x2="366.666666666667" y2="288.675134594844"/>
	<line stroke="#EE1032" stroke-width="3" x1="366.666666666667" y1="288.675134594844" x2="375" y2="274.241377865327"/>
	<line stroke="#EE1032" stroke-width="3" x1="391.666666666667" y1="245.3738644056" x2="400" y2="230.940107676083"/>
	<line stroke="#EE1032" stroke-width="3" x1="200" y1="230.940107676083" x2="208.333333333333" y2="245.3738644056"/>
	<line stroke="#EE1032" stroke-width="3" x1="316.666666666667" y1="230.940107676083" x2="319.444444444444" y2="235.751359919313"/>
	<line stroke="#EE1032" stroke-width="3" x1="322.222222222222" y1="240.562612162543" x2="327.777777777777" y2="250.185116649003"/>
	<line stroke="#EE1032" stroke-width="3" x1="330.555555555556" y1="254.996368892233" x2="333.333333333333" y2="259.807621135463"/>
	<line stroke="#EE1032" stroke-width="3" x1="327.777777777777" y1="269.430125621923" x2="322.222222222222" y2="279.052630108383"/>
	<line stroke="#EE1032" stroke-width="3" x1="330.555555555556" y1="264.618873378693" x2="333.333333333333" y2="259.807621135463"/>
	<line stroke="#EE1032" stroke-width="3" x1="316.666666666667" y1="288.675134594844" x2="319.444444444444" y2="283.863882351614"/>
	<line stroke="#EE1032" stroke-width="3" x1="280.555555555556" y1="283.863882351614" x2="283.333333333333" y2="288.675134594844"/>
	<line stroke="#EE1032" stroke-width="3" x1="266.666666666667" y1="259.807621135463" x2="269.444444444444" y2="264.618873378693"/>
	<line stroke="#EE1032" stroke-width="3" x1="266.666666666667" y1="259.807621135463" x2="269.444444444444" y2="254.996368892233"/>
	<line stroke="#EE1032" stroke-width="3" x1="272.222222222222" y1="250.185116649003" x2="277.777777777777" y2="240.562612162543"/>
	<line stroke="#EE1032" stroke-width="3" x1="280.555555555556" y1="235.751359919313" x2="283.333333333333" y2="230.940107676083"/>
	<line stroke="#EE1032" stroke-width="3" x1="225" y1="274.241377865327" x2="233.333333333333" y2="288.675134594844"/>
	<line stroke="#EE1032" stroke-width="3" x1="233.333333333333" y1="288.675134594844" x2="241.666666666667" y2="274.241377865327"/>
	<line stroke="#EE1032" stroke-width="3" x1="366.666666666667" y1="230.940107676083" x2="375" y2="245.3738644056"/>
	<line stroke="#EE1032" stroke-width="3" x1="358.333333333333" y1="245.3738644056" x2="366.666666666667" y2="230.940107676083"/>
	<line stroke="#EE1032" stroke-width="3" x1="175" y1="129.903810567732" x2="200" y2="129.903810567732"/>
	<line stroke="#EE1032" stroke-width="3" x1="237.5" y1="108.25317547311" x2="250" y2="86.602540378488"/>
	<line stroke="#EE1032" stroke-width="3" x1="400" y1="389.711431703195" x2="425" y2="389.711431703195"/>
	<line stroke="#EE1032" stroke-width="3" x1="350" y1="433.012701892439" x2="362.5" y2="411.362066797817"/>
	<line stroke="#EE1032" stroke-width="3" x1="375" y1="331.976404784087" x2="375" y2="346.410161513951"/>
	<line stroke="#EE1032" stroke-width="3" x1="325" y1="360.843918243814" x2="337.5" y2="368.060796608573"/>
	<line stroke="#EE1032" stroke-width="3" x1="225" y1="173.205080756975" x2="225" y2="187.638837486839"/>
	<line stroke="#EE1032" stroke-width="3" x1="262.5" y1="151.554445662354" x2="275" y2="158.771324027112"/>
	<line stroke="#EE1032" stroke-width="3" x1="283.333333333333" y1="202.072594216356" x2="291.666666666667" y2="187.638837486839"/>
	<line stroke="#EE1032" stroke-width="3" x1="225" y1="187.638837486839" x2="241.666666666667" y2="187.638837486839"/>
	<line stroke="#EE1032" stroke-width="3" x1="275" y1="187.638837486839" x2="291.666666666667" y2="187.638837486839"/>
	<line stroke="#EE1032" stroke-width="3" x1="266.666666666667" y1="173.205080756975" x2="275" y2="158.771324027112"/>
	<line stroke="#EE1032" stroke-width="3" x1="308.333333333333" y1="331.976404784087" x2="316.666666666667" y2="317.542648054571"/>
	<line stroke="#EE1032" stroke-width="3" x1="308.333333333333" y1="331.976404784087" x2="325" y2="331.976404784087"/>
	<line stroke="#EE1032" stroke-width="3" x1="358.333333333333" y1="331.976404784087" x2="375" y2="331.976404784087"/>
	<line stroke="#EE1032" stroke-width="3" x1="325" y1="360.843918243814" x2="333.333333333333" y2="346.410161513951"/>
	<line stroke="#EE1032" stroke-width="3" x1="283.333333333333" y1="230.940107676083" x2="288.888888888889" y2="230.940107676083"/>
	<line stroke="#EE1032" stroke-width="3" x1="294.444444444444" y1="230.940107676083" x2="305.555555555556" y2="230.940107676083"/>
	<line stroke="#EE1032" stroke-width="3" x1="311.111111111111" y1="230.940107676083" x2="316.666666666667" y2="230.940107676083"/>
	<line stroke="#EE1032" stroke-width="3" x1="305.555555555556" y1="288.675134594844" x2="294.444444444444" y2="288.675134594844"/>
	<line stroke="#EE1032" stroke-width="3" x1="311.111111111111" y1="288.675134594844" x2="316.666666666667" y2="288.675134594844"/>
	<line stroke="#EE1032" stroke-width="3" x1="283.333333333333" y1="288.675134594844" x2="288.888888888889" y2="288.675134594844"/>
	<line stroke="#EE1032" stroke-width="3" x1="241.666666666667" y1="216.506350946219" x2="250" y2="202.072594216356"/>
	<line stroke="#EE1032" stroke-width="3" x1="241.666666666667" y1="216.506350946219" x2="258.333333333333" y2="216.506350946219"/>
	<line stroke="#EE1032" stroke-width="3" x1="350" y1="317.542648054571" x2="358.333333333333" y2="303.108891324707"/>
	<line stroke="#EE1032" stroke-width="3" x1="341.666666666667" y1="303.108891324707" x2="358.333333333333" y2="303.108891324707"/>
	<line stroke="#EE1032" stroke-width="3" x1="308.333333333333" y1="245.3738644056" x2="313.888888888889" y2="245.3738644056"/>
	<line stroke="#EE1032" stroke-width="3" x1="277.777777777777" y1="259.807621135463" x2="283.333333333333" y2="259.807621135463"/>
	<line stroke="#EE1032" stroke-width="3" x1="283.333333333333" y1="259.807621135463" x2="288.888888888889" y2="259.807621135463"/>
	<line stroke="#EE1032" stroke-width="3" x1="311.111111111111" y1="259.807621135463" x2="316.666666666667" y2="259.807621135463"/>
	<line stroke="#EE1032" stroke-width="3" x1="316.666666666667" y1="259.807621135463" x2="322.222222222222" y2="259.807621135463"/>
	<line stroke="#EE1032" stroke-width="3" x1="286.111111111111" y1="274.241377865327" x2="291.666666666667" y2="274.241377865327"/>
	<line stroke="#EE1032" stroke-width="3" x1="297.222222222222" y1="235.751359919313" x2="302.777777777777" y2="235.751359919313"/>
	<line stroke="#EE1032" stroke-width="3" x1="283.333333333333" y1="240.562612162543" x2="288.888888888889" y2="240.562612162543"/>
	<line stroke="#EE1032" stroke-width="3" x1="311.111111111111" y1="240.562612162543" x2="316.666666666667" y2="240.562612162543"/>
	<line stroke="#EE1032" stroke-width="3" x1="269.444444444444" y1="254.996368892233" x2="275" y2="254.996368892233"/>
	<line stroke="#EE1032" stroke-width="3" x1="297.222222222222" y1="254.996368892233" x2="302.777777777777" y2="254.996368892233"/>
	<line stroke="#EE1032" stroke-width="3" x1="325" y1="254.996368892233" x2="330.555555555556" y2="254.996368892233"/>
	<line stroke="#EE1032" stroke-width="3" x1="269.444444444444" y1="264.618873378693" x2="275" y2="264.618873378693"/>
	<line stroke="#EE1032" stroke-width="3" x1="297.222222222222" y1="264.618873378693" x2="302.777777777777" y2="264.618873378693"/>
	<line stroke="#EE1032" stroke-width="3" x1="325" y1="264.618873378693" x2="330.555555555556" y2="264.618873378693"/>
	<line stroke="#EE1032" stroke-width="3" x1="283.333333333333" y1="279.052630108383" x2="288.888888888889" y2="279.052630108383"/>
	<line stroke="#EE1032" stroke-width="3" x1="311.111111111111" y1="279.052630108383" x2="316.666666666667" y2="279.052630108383"/>
	<line stroke="#EE1032" stroke-width="3" x1="297.222222222222" y1="283.863882351614" x2="302.777777778683" y2="283.863882351614"/>
	<line stroke="#EE1032" stroke-width="3" x1="319.444444444444" y1="245.3738644056" x2="322.222222222222" y2="250.185116649003"/>
	<line stroke="#EE1032" stroke-width="3" x1="308.333333333333" y1="235.751359919313" x2="311.111111111111" y2="240.562612162543"/>
	<line stroke="#EE1032" stroke-width="3" x1="322.222222222222" y1="259.807621135463" x2="325" y2="264.618873378693"/>
	<line stroke="#EE1032" stroke-width="3" x1="316.666666666667" y1="259.807621135463" x2="319.444444444444" y2="264.618873378693"/>
	<line stroke="#EE1032" stroke-width="3" x1="288.888888888889" y1="230.940107676083" x2="291.666666666667" y2="235.751359919313"/>
	<line stroke="#EE1032" stroke-width="3" x1="302.777777777777" y1="254.996368892233" x2="305.555555555556" y2="259.807621135463"/>
	<line stroke="#EE1032" stroke-width="3" x1="316.666666666667" y1="279.052630108383" x2="319.444444444444" y2="283.863882351614"/>
	<line stroke="#EE1032" stroke-width="3" x1="288.888888888889" y1="240.562612162543" x2="291.666666666667" y2="245.3738644056"/>
	<line stroke="#EE1032" stroke-width="3" x1="291.666666666667" y1="245.3738644056" x2="294.444444444444" y2="250.185116649003"/>
	<line stroke="#EE1032" stroke-width="3" x1="305.555555555556" y1="269.430125621923" x2="308.333333333333" y2="274.241377865327"/>
	<line stroke="#EE1032" stroke-width="3" x1="308.333333333333" y1="274.241377865327" x2="311.111111111111" y2="279.052630108383"/>
	<line stroke="#EE1032" stroke-width="3" x1="280.555555555556" y1="235.751359919313" x2="283.333333333333" y2="240.562612162543"/>
	<line stroke="#EE1032" stroke-width="3" x1="294.444444444444" y1="259.807621135463" x2="297.222222222222" y2="264.618873378693"/>
	<line stroke="#EE1032" stroke-width="3" x1="308.333333333333" y1="283.863882351614" x2="311.111111111111" y2="288.675134594844"/>
	<line stroke="#EE1032" stroke-width="3" x1="280.555555555556" y1="254.996368892233" x2="283.333333333333" y2="259.807621135463"/>
	<line stroke="#EE1032" stroke-width="3" x1="275" y1="254.996368892233" x2="277.777777777777" y2="259.807621135463"/>
	<line stroke="#EE1032" stroke-width="3" x1="288.888888888889" y1="279.052630108383" x2="291.666666666667" y2="283.863882351614"/>
	<line stroke="#EE1032" stroke-width="3" x1="277.77777777802" y1="269.430125621923" x2="280.555555555556" y2="274.241377865327"/>
	<line stroke="#EE1032" stroke-width="3" x1="275" y1="264.618873378693" x2="277.777777777777" y2="259.807621135463"/>
	<line stroke="#EE1032" stroke-width="3" x1="322.222222222222" y1="259.807621135463" x2="325" y2="254.996368892233"/>
	<line stroke="#EE1032" stroke-width="3" x1="319.444444444444" y1="235.751359919313" x2="316.666666666667" y2="240.562612162543"/>
	<line stroke="#EE1032" stroke-width="3" x1="311.111111111111" y1="230.940107676083" x2="308.333333333333" y2="235.751359919313"/>
	<line stroke="#EE1032" stroke-width="3" x1="288.888888888889" y1="240.562612162543" x2="291.666666666667" y2="235.751359919313"/>
	<line stroke="#EE1032" stroke-width="3" x1="308.333333333333" y1="283.863882351614" x2="311.111111111111" y2="279.052630108383"/>
	<line stroke="#EE1032" stroke-width="3" x1="288.888888888889" y1="288.675134594844" x2="291.666666666667" y2="283.863882351614"/>
	<line stroke="#EE1032" stroke-width="3" x1="280.555555555556" y1="283.863882351614" x2="283.333333333333" y2="279.052630108383"/>
	<line stroke="#EE1032" stroke-width="3" x1="294.444444444444" y1="259.807621135463" x2="297.222222222222" y2="254.996368892233"/>
	<line stroke="#EE1032" stroke-width="3" x1="305.555555555556" y1="259.807621135463" x2="302.777777777777" y2="264.618873378693"/>
	<line stroke="#EE1032" stroke-width="3" x1="305.555555555556" y1="250.185116649003" x2="308.333333333333" y2="245.3738644056"/>
	<line stroke="#EE1032" stroke-width="3" x1="308.333333333333" y1="245.3738644056" x2="311.111111111111" y2="240.562612162543"/>
	<line stroke="#EE1032" stroke-width="3" x1="288.888888888889" y1="279.052630108383" x2="291.666666666667" y2="274.241377865327"/>
	<line stroke="#EE1032" stroke-width="3" x1="291.666666666667" y1="274.241377865327" x2="294.444444444444" y2="269.430125621923"/>
	<line stroke="#EE1032" stroke-width="3" x1="291.666666666667" y1="245.3738644056" x2="294.444444444444" y2="240.562612162543"/>
	<line stroke="#EE1032" stroke-width="3" x1="305.555555555556" y1="279.052630108383" x2="308.333333333333" y2="274.241377865327"/>
	<line stroke="#EE1032" stroke-width="3" x1="319.444444444444" y1="274.241377865327" x2="322.222222222222" y2="269.430125621923"/>
	<line stroke="#EE1032" stroke-width="3" x1="277.777777777777" y1="250.185116649003" x2="280.555555555556" y2="245.3738644056"/>
	<line stroke="#EE1032" stroke-width="3" x1="266.666666666667" y1="250.185116649003" x2="269.444444444444" y2="245.3738644056"/>
	<line stroke="#EE1032" stroke-width="3" x1="272.222222222222" y1="240.562612162543" x2="275" y2="235.751359919313"/>
	<line stroke="#EE1032" stroke-width="3" x1="325" y1="283.863882351614" x2="327.777777777777" y2="279.052630108383"/>
	<line stroke="#EE1032" stroke-width="3" x1="330.555555555556" y1="274.241377865327" x2="333.333333333333" y2="269.430125621923"/>
	<line stroke="#EE1032" stroke-width="3" x1="316.666666666667" y1="288.675134594844" x2="312.5" y2="295.892012959974"/>
	<line stroke="#EE1032" stroke-width="3" x1="302.777777777777" y1="293.486386837205" x2="308.333333333333" y2="293.486386837033"/>
	<line stroke="#EE1032" stroke-width="3" x1="330.555555555556" y1="245.3738644056" x2="333.333333333333" y2="250.185116649003"/>
	<line stroke="#EE1032" stroke-width="3" x1="291.666666666667" y1="226.128855433978" x2="297.222222222222" y2="226.12885543379"/>
	<line stroke="#EE1032" stroke-width="3" x1="75" y1="303.108891324707" x2="100" y2="259.807621135463"/>
	<line stroke="#EE1032" stroke-width="3" x1="500" y1="259.807621135463" x2="525" y2="303.108891324707"/>
	<line stroke="#EE1032" stroke-width="3" x1="100" y1="259.807621135463" x2="137.5" y2="281.458256230085"/>
	<line stroke="#EE1032" stroke-width="3" x1="462.5" y1="281.458256230085" x2="500" y2="259.807621135463"/>
	<line stroke="#EE1032" stroke-width="3" x1="187.5" y1="281.458256230085" x2="200" y2="259.807621135463"/>
	<line stroke="#EE1032" stroke-width="3" x1="354.166666666667" y1="267.024499500395" x2="358.333333333333" y2="274.241377865327"/>
	<line stroke="#EE1032" stroke-width="3" x1="391.666666666667" y1="274.241377865327" x2="400" y2="259.807621135463"/>
	<line stroke="#EE1032" stroke-width="3" x1="200" y1="259.807621135463" x2="208.333333333333" y2="274.241377865327"/>
	<line stroke="#EE1032" stroke-width="3" x1="366.666666666667" y1="259.807621135463" x2="375" y2="274.241377865327"/>
	<line stroke="#EE1032" stroke-width="3" x1="225" y1="274.241377865327" x2="233.333333333333" y2="259.807621135463"/>
	<line stroke="#EE1032" stroke-width="3" x1="241.666666666667" y1="274.241377865327" x2="245.833333333314" y2="267.024499500395"/>
	<line stroke="#EE1032" stroke-width="3" x1="400" y1="259.807621135463" x2="412.5" y2="281.458256230085"/>
	<line stroke="#EE1032" stroke-width="3" x1="330.555555555556" y1="264.618873378693" x2="333.333333333333" y2="269.430125621923"/>
	<line stroke="#EE1032" stroke-width="3" x1="319.444444444444" y1="264.618873378693" x2="322.222222222222" y2="269.430125621923"/>
	<line stroke="#EE1032" stroke-width="3" x1="291.666666666667" y1="264.618873378693" x2="294.444444444444" y2="269.430125621923"/>
	<line stroke="#EE1032" stroke-width="3" x1="275" y1="264.618873378693" x2="277.77777777802" y2="269.430125621923"/>
	<line stroke="#EE1032" stroke-width="3" x1="322.222222222222" y1="269.430125621923" x2="325" y2="264.618873378693"/>
	<line stroke="#EE1032" stroke-width="3" x1="277.77777777802" y1="269.430125621923" x2="280.555555555556" y2="264.618873378693"/>
	<line stroke="#EE1032" stroke-width="3" x1="500" y1="259.807621135463" x2="525" y2="216.506350946219"/>
	<line stroke="#EE1032" stroke-width="3" x1="75" y1="216.506350946219" x2="100" y2="259.807621135463"/>
	<line stroke="#EE1032" stroke-width="3" x1="100" y1="259.807621135463" x2="137.5" y2="238.156986040841"/>
	<line stroke="#EE1032" stroke-width="3" x1="462.5" y1="238.156986040841" x2="500" y2="259.807621135463"/>
	<line stroke="#EE1032" stroke-width="3" x1="400" y1="259.807621135463" x2="412.5" y2="238.156986040841"/>
	<line stroke="#EE1032" stroke-width="3" x1="187.5" y1="238.156986040841" x2="200" y2="259.807621135463"/>
	<line stroke="#EE1032" stroke-width="3" x1="241.666666666667" y1="245.3738644056" x2="245.833333333314" y2="252.590742770531"/>
	<line stroke="#EE1032" stroke-width="3" x1="366.666666666667" y1="259.807621135463" x2="375" y2="245.3738644056"/>
	<line stroke="#EE1032" stroke-width="3" x1="225" y1="245.3738644056" x2="233.333333333333" y2="259.807621135463"/>
	<line stroke="#EE1032" stroke-width="3" x1="391.666666666667" y1="245.3738644056" x2="400" y2="259.807621135463"/>
	<line stroke="#EE1032" stroke-width="3" x1="200" y1="259.807621135463" x2="208.333333333333" y2="245.3738644056"/>
	<line stroke="#EE1032" stroke-width="3" x1="354.166666666667" y1="252.590742770531" x2="358.333333333333" y2="245.3738644056"/>
	<line stroke="#EE1032" stroke-width="3" x1="322.222222222222" y1="250.185116649003" x2="325" y2="254.996368892233"/>
	<line stroke="#EE1032" stroke-width="3" x1="305.555555555556" y1="250.185116649003" x2="308.333333333333" y2="254.996368892233"/>
	<line stroke="#EE1032" stroke-width="3" x1="277.777777777777" y1="250.185116649003" x2="280.555555555556" y2="254.996368892233"/>
	<line stroke="#EE1032" stroke-width="3" x1="266.666666666667" y1="250.185116649003" x2="269.444444444444" y2="254.996368892233"/>
	<line stroke="#EE1032" stroke-width="3" x1="275" y1="254.996368892233" x2="277.777777777777" y2="250.185116649003"/>
	<line stroke="#EE1032" stroke-width="3" x1="319.444444444444" y1="254.996368892233" x2="322.222222222222" y2="250.185116649003"/>
	<line stroke="#EE1032" stroke-width="3" x1="375" y1="476.313972081683" x2="400" y2="433.012701892439"/>
	<line stroke="#EE1032" stroke-width="3" x1="150" y1="86.602540378488" x2="200" y2="86.602540378488"/>
	<line stroke="#EE1032" stroke-width="3" x1="200" y1="86.602540378488" x2="200" y2="129.903810567732"/>
	<line stroke="#EE1032" stroke-width="3" x1="362.5" y1="411.362066797817" x2="400" y2="433.012701892439"/>
	<line stroke="#EE1032" stroke-width="3" x1="225" y1="173.205080756975" x2="250" y2="173.205080756975"/>
	<line stroke="#EE1032" stroke-width="3" x1="316.666666666667" y1="317.542648054571" x2="320.833333333179" y2="310.325769689872"/>
	<line stroke="#EE1032" stroke-width="3" x1="241.666666666667" y1="187.638837486839" x2="250" y2="173.205080756975"/>
	<line stroke="#EE1032" stroke-width="3" x1="250" y1="202.072594216356" x2="266.666666666667" y2="202.072594216356"/>
	<line stroke="#EE1032" stroke-width="3" x1="325" y1="331.976404784087" x2="333.333333333333" y2="317.542648054571"/>
	<line stroke="#EE1032" stroke-width="3" x1="333.333333333333" y1="346.410161513951" x2="350" y2="346.410161513951"/>
	<line stroke="#EE1032" stroke-width="3" x1="258.333333333333" y1="216.506350946219" x2="266.666666666667" y2="216.506350946219"/>
	<line stroke="#EE1032" stroke-width="3" x1="280.555555555556" y1="245.3738644056" x2="286.111111111111" y2="245.3738644056"/>
	<line stroke="#EE1032" stroke-width="3" x1="302.777777778683" y1="283.863882351614" x2="308.333333333333" y2="283.863882351614"/>
	<line stroke="#EE1032" stroke-width="3" x1="337.5" y1="368.060796608573" x2="350" y2="346.410161513951"/>
	<line stroke="#EE1032" stroke-width="3" x1="288.888888888889" y1="259.807621135463" x2="291.666666666667" y2="254.996368892233"/>
	<line stroke="#EE1032" stroke-width="3" x1="280.555555555556" y1="245.3738644056" x2="283.333333333333" y2="240.562612162543"/>
	<line stroke="#EE1032" stroke-width="3" x1="302.777777778683" y1="283.863882351614" x2="305.555555555556" y2="279.052630108383"/>
	<line stroke="#EE1032" stroke-width="3" x1="294.444444444444" y1="269.430125621923" x2="297.222222222222" y2="264.618873378693"/>
	<line stroke="#EE1032" stroke-width="3" x1="312.5" y1="295.892012959974" x2="320.833333333179" y2="310.325769689872"/>
	<line stroke="#EE1032" stroke-width="3" x1="200" y1="86.602540378488" x2="225" y2="43.301270189244"/>
	<line stroke="#EE1032" stroke-width="3" x1="400" y1="433.012701892439" x2="450" y2="433.012701892439"/>
	<line stroke="#EE1032" stroke-width="3" x1="200" y1="86.602540378488" x2="237.5" y2="108.25317547311"/>
	<line stroke="#EE1032" stroke-width="3" x1="400" y1="389.711431703195" x2="400" y2="433.012701892439"/>
	<line stroke="#EE1032" stroke-width="3" x1="350" y1="346.410161513951" x2="375" y2="346.410161513951"/>
	<line stroke="#EE1032" stroke-width="3" x1="279.166666666667" y1="209.289472581288" x2="283.333333333333" y2="202.072594216356"/>
	<line stroke="#EE1032" stroke-width="3" x1="266.666666666667" y1="202.072594216356" x2="275" y2="187.638837486839"/>
	<line stroke="#EE1032" stroke-width="3" x1="250" y1="173.205080756975" x2="266.666666666667" y2="173.205080756975"/>
	<line stroke="#EE1032" stroke-width="3" x1="350" y1="346.410161513951" x2="358.333333333333" y2="331.976404784087"/>
	<line stroke="#EE1032" stroke-width="3" x1="333.333333333333" y1="317.542648054571" x2="350" y2="317.542648054571"/>
	<line stroke="#EE1032" stroke-width="3" x1="333.333333333333" y1="303.108891324707" x2="341.666666666667" y2="303.108891324707"/>
	<line stroke="#EE1032" stroke-width="3" x1="305.555555555556" y1="259.807621135463" x2="311.111111111111" y2="259.807621135463"/>
	<line stroke="#EE1032" stroke-width="3" x1="313.888888888889" y1="274.241377865327" x2="319.444444444444" y2="274.241377865327"/>
	<line stroke="#EE1032" stroke-width="3" x1="291.666666666667" y1="235.751359919313" x2="297.222222222222" y2="235.751359919313"/>
	<line stroke="#EE1032" stroke-width="3" x1="319.444444444444" y1="283.863882351614" x2="325" y2="283.863882351614"/>
	<line stroke="#EE1032" stroke-width="3" x1="250" y1="173.205080756975" x2="262.5" y2="151.554445662354"/>
	<line stroke="#EE1032" stroke-width="3" x1="308.333333333333" y1="264.618873378693" x2="311.111111111111" y2="259.807621135463"/>
	<line stroke="#EE1032" stroke-width="3" x1="316.666666666667" y1="279.052630108383" x2="319.444444444444" y2="274.241377865327"/>
	<line stroke="#EE1032" stroke-width="3" x1="294.444444444444" y1="240.562612162543" x2="297.222222222222" y2="235.751359919313"/>
	<line stroke="#EE1032" stroke-width="3" x1="302.777777777777" y1="254.996368892233" x2="305.555555555556" y2="250.185116649003"/>
	<line stroke="#EE1032" stroke-width="3" x1="400" y1="86.602540378488" x2="450" y2="86.602540378488"/>
	<line stroke="#EE1032" stroke-width="3" x1="200" y1="433.012701892439" x2="225" y2="476.313972081683"/>
	<line stroke="#EE1032" stroke-width="3" x1="200" y1="433.012701892439" x2="237.5" y2="411.362066797817"/>
	<line stroke="#EE1032" stroke-width="3" x1="400" y1="86.602540378488" x2="400" y2="129.903810567732"/>
	<line stroke="#EE1032" stroke-width="3" x1="350" y1="173.205080756975" x2="375" y2="173.205080756975"/>
	<line stroke="#EE1032" stroke-width="3" x1="250" y1="346.410161513951" x2="262.5" y2="368.060796608573"/>
	<line stroke="#EE1032" stroke-width="3" x1="333.333333333333" y1="216.506350946219" x2="341.666666666667" y2="216.506350946219"/>
	<line stroke="#EE1032" stroke-width="3" x1="333.333333333333" y1="202.072594216356" x2="350" y2="202.072594216356"/>
	<line stroke="#EE1032" stroke-width="3" x1="350" y1="173.205080756975" x2="358.333333333333" y2="187.638837486839"/>
	<line stroke="#EE1032" stroke-width="3" x1="266.666666666667" y1="317.542648054571" x2="275" y2="331.976404784087"/>
	<line stroke="#EE1032" stroke-width="3" x1="250" y1="346.410161513951" x2="266.666666666667" y2="346.410161513951"/>
	<line stroke="#EE1032" stroke-width="3" x1="279.166666666667" y1="310.325769689419" x2="283.333333333333" y2="317.542648054571"/>
	<line stroke="#EE1032" stroke-width="3" x1="319.444444444444" y1="235.751359919313" x2="325" y2="235.751359919313"/>
	<line stroke="#EE1032" stroke-width="3" x1="313.888888888889" y1="245.3738644056" x2="319.444444444444" y2="245.3738644056"/>
	<line stroke="#EE1032" stroke-width="3" x1="300" y1="269.430125621923" x2="305.555555555556" y2="269.430125621923"/>
	<line stroke="#EE1032" stroke-width="3" x1="291.666666666667" y1="283.863882351614" x2="297.222222222222" y2="283.863882351614"/>
	<line stroke="#EE1032" stroke-width="3" x1="316.666666666667" y1="240.562612162543" x2="319.444444444444" y2="245.3738644056"/>
	<line stroke="#EE1032" stroke-width="3" x1="294.444444444444" y1="279.052630108383" x2="297.222222222222" y2="283.863882351614"/>
	<line stroke="#EE1032" stroke-width="3" x1="288.888888888889" y1="288.675134594844" x2="291.666666666667" y2="293.486386838813"/>
	<line stroke="#EE1032" stroke-width="3" x1="283.333333333333" y1="288.675134594844" x2="287.5" y2="295.89201295944"/>
	<line stroke="#EE1032" stroke-width="3" x1="302.777777777777" y1="264.618873378693" x2="305.555555555556" y2="269.430125621923"/>
	<line stroke="#EE1032" stroke-width="3" x1="279.166666666667" y1="310.325769689419" x2="287.5" y2="295.89201295944"/>
	<line stroke="#EE1032" stroke-width="3" x1="150" y1="433.012701892439" x2="200" y2="433.012701892439"/>
	<line stroke="#EE1032" stroke-width="3" x1="375" y1="43.301270189244" x2="400" y2="86.602540378488"/>
	<line stroke="#EE1032" stroke-width="3" x1="200" y1="389.711431703195" x2="200" y2="433.012701892439"/>
	<line stroke="#EE1032" stroke-width="3" x1="362.5" y1="108.25317547311" x2="400" y2="86.602540378488"/>
	<line stroke="#EE1032" stroke-width="3" x1="337.5" y1="151.554445662354" x2="350" y2="173.205080756975"/>
	<line stroke="#EE1032" stroke-width="3" x1="225" y1="346.410161513951" x2="250" y2="346.410161513951"/>
	<line stroke="#EE1032" stroke-width="3" x1="258.333333333333" y1="303.108891324707" x2="266.666666666667" y2="303.108891324707"/>
	<line stroke="#EE1032" stroke-width="3" x1="333.333333333333" y1="173.205080756975" x2="350" y2="173.205080756975"/>
	<line stroke="#EE1032" stroke-width="3" x1="325" y1="187.638837486839" x2="333.333333333333" y2="202.072594216356"/>
	<line stroke="#EE1032" stroke-width="3" x1="241.666666666667" y1="331.976404784087" x2="250" y2="346.410161513951"/>
	<line stroke="#EE1032" stroke-width="3" x1="250" y1="317.542648054571" x2="266.666666666667" y2="317.542648054571"/>
	<line stroke="#EE1032" stroke-width="3" x1="280.555555555556" y1="283.863882351614" x2="275" y2="283.863882351614"/>
	<line stroke="#EE1032" stroke-width="3" x1="280.555555555556" y1="274.241377865327" x2="286.111111111111" y2="274.241377865327"/>
	<line stroke="#EE1032" stroke-width="3" x1="294.444444444444" y1="250.185116649003" x2="299.99999999917" y2="250.185116649003"/>
	<line stroke="#EE1032" stroke-width="3" x1="302.777777777777" y1="235.751359919313" x2="305.555555555556" y2="240.562612162543"/>
	<line stroke="#EE1032" stroke-width="3" x1="280.555555555556" y1="274.241377865327" x2="283.333333333333" y2="279.052630108383"/>
	<line stroke="#EE1032" stroke-width="3" x1="294.444444444444" y1="250.185116649003" x2="297.222222222222" y2="254.996368892233"/>
	<line stroke="#EE1032" stroke-width="3" x1="288.888888888889" y1="259.807621135463" x2="294.444444444444" y2="259.807621135463"/>
	<line stroke="#EE1032" stroke-width="3" x1="316.666666666667" y1="202.072594216356" x2="320.833333333337" y2="209.289472581328"/>
	<line stroke="#EE1032" stroke-width="3" x1="302.777777777777" y1="235.751359919313" x2="308.333333333333" y2="235.751359919313"/>
	<line stroke="#EE1032" stroke-width="3" x1="311.111111111111" y1="230.940107676083" x2="308.333333333333" y2="226.12885543212"/>
	<line stroke="#EE1032" stroke-width="3" x1="333.333333333333" y1="202.072594216356" x2="333.333333333333" y2="216.506350946219"/>
	<line stroke="#EE1032" stroke-width="3" x1="333.333333333333" y1="303.108891324707" x2="333.333333333333" y2="317.542648054571"/>
	<line stroke="#EE1032" stroke-width="3" x1="266.666666666667" y1="202.072594216356" x2="279.166666666667" y2="209.289472581288"/>
	<line stroke="#EE1032" stroke-width="3" x1="354.166666666667" y1="252.590742770531" x2="366.666666666667" y2="259.807621135463"/>
	<line stroke="#EE1032" stroke-width="3" x1="233.333333333333" y1="259.807621135463" x2="245.833333333314" y2="267.024499500395"/>
	<line stroke="#EE1032" stroke-width="3" x1="320.833333333179" y1="310.325769689872" x2="333.333333333333" y2="317.542648054571"/>
	<line stroke="#EE1032" stroke-width="3" x1="233.333333333333" y1="259.807621135463" x2="245.833333333314" y2="252.590742770531"/>
	<line stroke="#EE1032" stroke-width="3" x1="320.833333333337" y1="209.289472581328" x2="333.333333333333" y2="202.072594216356"/>
	<line stroke="#EE1032" stroke-width="3" x1="266.666666666667" y1="202.072594216356" x2="266.666666666667" y2="216.506350946219"/>
	<line stroke="#EE1032" stroke-width="3" x1="266.666666666667" y1="303.108891324707" x2="266.666666666667" y2="317.542648054571"/>
	<line stroke="#EE1032" stroke-width="3" x1="266.666666666667" y1="317.542648054571" x2="279.166666666667" y2="310.325769689419"/>
	<line stroke="#EE1032" stroke-width="3" x1="354.166666666667" y1="267.024499500395" x2="366.666666666667" y2="259.807621135463"/>
	<line stroke="#EE1032" stroke-width="3" x1="312.5" y1="223.723229311452" x2="320.833333333337" y2="209.289472581328"/>
	<line stroke="#EE1032" stroke-width="3" x1="312.5" y1="223.723229311452" x2="316.666666666667" y2="230.940107676083"/>
	<line stroke="#EE1032" stroke-width="3" x1="325" y1="230.940107676266" x2="333.333333333333" y2="216.506350946219"/>
	<line stroke="#EE1032" stroke-width="3" x1="316.666666666667" y1="230.940107676083" x2="325" y2="230.940107676266"/>
	<line stroke="#EE1032" stroke-width="3" x1="279.166666666667" y1="209.289472581288" x2="287.5" y2="223.72322931133"/>
	<line stroke="#EE1032" stroke-width="3" x1="283.333333333333" y1="230.940107676083" x2="287.5" y2="223.72322931133"/>
	<line stroke="#EE1032" stroke-width="3" x1="266.666666666667" y1="216.506350946219" x2="275" y2="230.940107675924"/>
	<line stroke="#EE1032" stroke-width="3" x1="275" y1="230.940107675924" x2="283.333333333333" y2="230.940107676083"/>
	<line stroke="#EE1032" stroke-width="3" x1="245.833333333314" y1="252.590742770531" x2="262.5" y2="252.590742770531"/>
	<line stroke="#EE1032" stroke-width="3" x1="262.5" y1="252.590742770531" x2="266.666666666667" y2="259.807621135463"/>
	<line stroke="#EE1032" stroke-width="3" x1="245.833333333314" y1="267.024499500395" x2="262.5" y2="267.024499500395"/>
	<line stroke="#EE1032" stroke-width="3" x1="262.5" y1="267.024499500395" x2="266.666666666667" y2="259.807621135463"/>
	<line stroke="#EE1032" stroke-width="3" x1="266.666666666667" y1="303.108891324707" x2="274.999999998713" y2="288.675134595566"/>
	<line stroke="#EE1032" stroke-width="3" x1="274.999999998713" y1="288.675134595566" x2="283.333333333333" y2="288.675134594844"/>
	<line stroke="#EE1032" stroke-width="3" x1="325" y1="288.675134594544" x2="333.333333333333" y2="303.108891324707"/>
	<line stroke="#EE1032" stroke-width="3" x1="316.666666666667" y1="288.675134594844" x2="325" y2="288.675134594544"/>
	<line stroke="#EE1032" stroke-width="3" x1="337.5" y1="267.024499500395" x2="354.166666666667" y2="267.024499500395"/>
	<line stroke="#EE1032" stroke-width="3" x1="333.333333333333" y1="259.807621135463" x2="337.5" y2="267.024499500395"/>
	<line stroke="#EE1032" stroke-width="3" x1="337.5" y1="252.590742770531" x2="354.166666666667" y2="252.590742770531"/>
	<line stroke="#EE1032" stroke-width="3" x1="333.333333333333" y1="259.807621135463" x2="337.5" y2="252.590742770531"/>
	<line stroke="#EE1032" stroke-width="3" x1="312.5" y1="223.723229311452" x2="308.333333333333" y2="226.12885543212"/>
	<line stroke="#EE1032" stroke-width="3" x1="325" y1="230.940107676266" x2="325" y2="235.751359919313"/>
	<line stroke="#EE1032" stroke-width="3" x1="337.5" y1="252.590742770531" x2="333.333333333333" y2="250.185116649003"/>
	<line stroke="#EE1032" stroke-width="3" x1="337.5" y1="267.024499500395" x2="333.333333333333" y2="269.430125621923"/>
	<line stroke="#EE1032" stroke-width="3" x1="287.5" y1="223.72322931133" x2="291.666666666667" y2="226.128855433978"/>
	<line stroke="#EE1032" stroke-width="3" x1="275" y1="230.940107675924" x2="275" y2="235.751359919313"/>
	<line stroke="#EE1032" stroke-width="3" x1="262.5" y1="252.590742770531" x2="266.666666666667" y2="250.185116649003"/>
	<line stroke="#EE1032" stroke-width="3" x1="274.999999998713" y1="288.675134595566" x2="275" y2="283.863882351614"/>
	<line stroke="#EE1032" stroke-width="3" x1="272.222222222222" y1="269.430125621923" x2="277.777777777777" y2="279.052630108383"/>
	<line stroke="#EE1032" stroke-width="3" x1="262.5" y1="267.024499500395" x2="266.666666666667" y2="269.430125621729"/>
	<line stroke="#EE1032" stroke-width="3" x1="287.5" y1="295.89201295944" x2="291.666666666667" y2="293.486386838813"/>
	<line stroke="#EE1032" stroke-width="3" x1="312.5" y1="295.892012959974" x2="308.333333333333" y2="293.486386837033"/>
	<line stroke="#EE1032" stroke-width="3" x1="325" y1="288.675134594544" x2="325" y2="283.863882351614"/>
	<line stroke="#EE1032" stroke-width="3" x1="288.888888888889" y1="230.940107676083" x2="291.666666666667" y2="226.128855433978"/>
	<line stroke="#EE1032" stroke-width="3" x1="308.333333333333" y1="226.12885543212" x2="302.777777777777" y2="226.128855433601"/>
	<line stroke="#EE1032" stroke-width="3" x1="325" y1="235.751359919313" x2="327.777777777777" y2="240.562612162543"/>
	<line stroke="#EE1032" stroke-width="3" x1="330.555555555556" y1="254.996368892233" x2="333.333333333333" y2="250.185116649003"/>
	<line stroke="#EE1032" stroke-width="3" x1="311.111111111111" y1="288.675134594844" x2="308.333333333333" y2="293.486386837033"/>
	<line stroke="#EE1032" stroke-width="3" x1="297.222222222222" y1="293.486386837376" x2="291.666666666667" y2="293.486386838813"/>
	<line stroke="#EE1032" stroke-width="3" x1="266.666666666667" y1="269.430125621729" x2="269.444444444444" y2="264.618873378693"/>
	<line stroke="#EE1032" stroke-width="3" x1="280.555555555556" y1="235.751359919313" x2="275" y2="235.751359919313"/>
	<line stroke="#EE1032" stroke-width="3" x1="275" y1="283.863882351614" x2="272.222222222222" y2="279.052630108383"/>
	<line stroke="#EE1032" stroke-width="3" x1="266.666666666667" y1="269.430125621729" x2="269.444444444444" y2="274.241377865327"/>
</g>
<g id="boundary">
	<line stroke="#000000" stroke-width="3" x1="200" y1="0" x2="250" y2="0"/>
	<line stroke="#000000" stroke-width="3" x1="250" y1="0" x2="350" y2="0"/>
	<line stroke="#000000" stroke-width="3" x1="350" y1="0" x2="400" y2="0"/>
	<line stroke="#000000" stroke-width="3" x1="475" y1="43.301270189244" x2="500" y2="86.602540378488"/>
	<line stroke="#000000" stroke-width="3" x1="500" y1="86.602540378488" x2="550" y2="173.205080756975"/>
	<line stroke="#000000" stroke-width="3" x1="550" y1="173.205080756975" x2="575" y2="216.506350946219"/>
	<line stroke="#000000" stroke-width="3" x1="475" y1="476.313972081683" x2="500" y2="433.012701892439"/>
	<line stroke="#000000" stroke-width="3" x1="500" y1="433.012701892439" x2="550" y2="346.410161513951"/>
	<line stroke="#000000" stroke-width="3" x1="550" y1="346.410161513951" x2="575" y2="303.108891324707"/>
	<line stroke="#000000" stroke-width="3" x1="200" y1="519.615242270926" x2="250" y2="519.615242270926"/>
	<line stroke="#000000" stroke-width="3" x1="250" y1="519.615242270926" x2="350" y2="519.615242270926"/>
	<line stroke="#000000" stroke-width="3" x1="350" y1="519.615242270926" x2="400" y2="519.615242270926"/>
	<line stroke="#000000" stroke-width="3" x1="25" y1="303.108891324707" x2="50" y2="346.410161513951"/>
	<line stroke="#000000" stroke-width="3" x1="50" y1="346.410161513951" x2="100" y2="433.012701892439"/>
	<line stroke="#000000" stroke-width="3" x1="100" y1="433.012701892439" x2="125" y2="476.313972081683"/>
	<line stroke="#000000" stroke-width="3" x1="25" y1="216.506350946219" x2="50" y2="173.205080756975"/>
	<line stroke="#000000" stroke-width="3" x1="50" y1="173.205080756975" x2="100" y2="86.602540378488"/>
	<line stroke="#000000" stroke-width="3" x1="100" y1="86.602540378488" x2="125" y2="43.301270189244"/>
	<line stroke="#000000" stroke-width="3" x1="0" y1="259.807621135463" x2="25" y2="303.108891324707"/>
	<line stroke="#000000" stroke-width="3" x1="575" y1="303.108891324707" x2="600" y2="259.807621135463"/>
	<line stroke="#000000" stroke-width="3" x1="575" y1="216.506350946219" x2="600" y2="259.807621135463"/>
	<line stroke="#000000" stroke-width="3" x1="0" y1="259.807621135463" x2="25" y2="216.506350946219"/>
	<line stroke="#000000" stroke-width="3" x1="400" y1="519.615242270926" x2="450" y2="519.615242270926"/>
	<line stroke="#000000" stroke-width="3" x1="125" y1="43.301270189244" x2="150" y2="0"/>
	<line stroke="#000000" stroke-width="3" x1="150" y1="0" x2="200" y2="0"/>
	<line stroke="#000000" stroke-width="3" x1="450" y1="519.615242270926" x2="475" y2="476.313972081683"/>
	<line stroke="#000000" stroke-width="3" x1="450" y1="0" x2="475" y2="43.301270189244"/>
	<line stroke="#000000" stroke-width="3" x1="150" y1="519.615242270926" x2="200" y2="519.615242270926"/>
	<line stroke="#000000" stroke-width="3" x1="400" y1="0" x2="450" y2="0"/>
	<line stroke="#000000" stroke-width="3" x1="125" y1="476.313972081683" x2="150" y2="519.615242270926"/>
</g>
</svg>
