<?xml version="1.0" encoding="utf-8"?>
<!-- Generator: Adobe Illustrator 16.0.0, SVG Export Plug-In . SVG Version: 6.00 Build 0)  -->
<!DOCTYPE svg PUBLIC "-//W3C//DTD SVG 1.1//EN" "http://www.w3.org/Graphics/SVG/1.1/DTD/svg11.dtd">
<svg version="1.1" id="Layer_1" xmlns="http://www.w3.org/2000/svg" xmlns:xlink="http://www.w3.org/1999/xlink" x="0px" y="0px"
	 width="300px" height="300px" viewBox="0 0 300 300" enable-background="new 0 0 300 300" xml:space="preserve">
<g id="mountain">
	<line fill="none" stroke="#2463E2" stroke-miterlimit="10" x1="173.086" y1="70.002" x2="161.535" y2="49.997"/>
	<line fill="none" stroke="#2463E2" stroke-miterlimit="10" x1="126.903" y1="70" x2="138.448" y2="50.002"/>
	<line fill="none" stroke="#2463E2" stroke-miterlimit="10" x1="126.913" y1="230.001" x2="138.464" y2="250.008"/>
	<line fill="none" stroke="#2463E2" stroke-miterlimit="10" x1="173.096" y1="230.003" x2="161.55" y2="250.001"/>
	<line fill="none" stroke="#2463E2" stroke-miterlimit="10" x1="184.643" y1="249.999" x2="196.186" y2="269.996"/>
	<line fill="none" stroke="#2463E2" stroke-miterlimit="10" x1="230.822" y1="250.002" x2="219.285" y2="230.002"/>
	<line fill="none" stroke="#2463E2" stroke-miterlimit="10" x1="219.285" y1="230.002" x2="196.186" y2="230.005"/>
	<line fill="none" stroke="#2463E2" stroke-miterlimit="10" x1="196.186" y1="230.005" x2="184.643" y2="249.999"/>
	<line fill="none" stroke="#2463E2" stroke-miterlimit="10" x1="103.813" y1="229.999" x2="115.353" y2="250.014"/>
	<line fill="none" stroke="#2463E2" stroke-miterlimit="10" x1="115.353" y1="250.014" x2="103.812" y2="270.002"/>
	<line fill="none" stroke="#2463E2" stroke-miterlimit="10" x1="69.172" y1="250.002" x2="80.716" y2="229.999"/>
	<line fill="none" stroke="#2463E2" stroke-miterlimit="10" x1="80.716" y1="229.999" x2="103.813" y2="229.999"/>
	<line fill="none" stroke="#2463E2" stroke-miterlimit="10" x1="22.982" y1="170.002" x2="46.078" y2="170"/>
	<line fill="none" stroke="#2463E2" stroke-miterlimit="10" x1="46.078" y1="170" x2="57.625" y2="150"/>
	<line fill="none" stroke="#2463E2" stroke-miterlimit="10" x1="57.625" y1="150" x2="46.076" y2="130.004"/>
	<line fill="none" stroke="#2463E2" stroke-miterlimit="10" x1="46.076" y1="130.004" x2="22.984" y2="130.004"/>
	<line fill="none" stroke="#2463E2" stroke-miterlimit="10" x1="69.174" y1="50.002" x2="80.717" y2="70.004"/>
	<line fill="none" stroke="#2463E2" stroke-miterlimit="10" x1="103.813" y1="69.999" x2="115.359" y2="50.001"/>
	<line fill="none" stroke="#2463E2" stroke-miterlimit="10" x1="115.359" y1="50.001" x2="103.812" y2="30.001"/>
	<line fill="none" stroke="#2463E2" stroke-miterlimit="10" x1="230.828" y1="50.002" x2="219.285" y2="69.995"/>
	<line fill="none" stroke="#2463E2" stroke-miterlimit="10" x1="219.285" y1="69.995" x2="196.184" y2="69.995"/>
	<line fill="none" stroke="#2463E2" stroke-miterlimit="10" x1="196.184" y1="69.995" x2="184.639" y2="50.004"/>
	<line fill="none" stroke="#2463E2" stroke-miterlimit="10" x1="184.639" y1="50.004" x2="196.188" y2="30"/>
	<line fill="none" stroke="#2463E2" stroke-miterlimit="10" x1="277.016" y1="170.002" x2="253.922" y2="169.999"/>
	<line fill="none" stroke="#2463E2" stroke-miterlimit="10" x1="253.922" y1="169.999" x2="242.378" y2="150.004"/>
	<line fill="none" stroke="#2463E2" stroke-miterlimit="10" x1="242.378" y1="150.004" x2="253.926" y2="129.995"/>
	<line fill="none" stroke="#2463E2" stroke-miterlimit="10" x1="253.926" y1="129.995" x2="277.018" y2="130.002"/>
	<line fill="none" stroke="#2463E2" stroke-miterlimit="10" x1="184.645" y1="250.007" x2="115.362" y2="250.009"/>
	<line fill="none" stroke="#2463E2" stroke-miterlimit="10" x1="115.354" y1="49.997" x2="184.637" y2="49.997"/>
	<line fill="none" stroke="#2463E2" stroke-miterlimit="10" x1="80.71" y1="70.002" x2="103.804" y2="70.002"/>
	<line fill="none" stroke="#2463E2" stroke-miterlimit="10" x1="253.922" y1="130.006" x2="219.273" y2="69.996"/>
	<line fill="none" stroke="#2463E2" stroke-miterlimit="10" x1="80.729" y1="70" x2="46.086" y2="130.016"/>
	<line fill="none" stroke="#2463E2" stroke-miterlimit="10" x1="46.086" y1="169.994" x2="80.74" y2="230"/>
	<line fill="none" stroke="#2463E2" stroke-miterlimit="10" x1="219.273" y1="230" x2="253.918" y2="169.984"/>
	<line fill="none" stroke="#2463E2" stroke-miterlimit="10" x1="242.377" y1="150.004" x2="225.055" y2="140"/>
	<line fill="none" stroke="#2463E2" stroke-miterlimit="10" x1="242.377" y1="150.004" x2="225.057" y2="160.004"/>
	<line fill="none" stroke="#2463E2" stroke-miterlimit="10" x1="230.822" y1="129.996" x2="242.375" y2="109.99"/>
	<line fill="none" stroke="#2463E2" stroke-miterlimit="10" x1="225.055" y1="140" x2="230.822" y2="129.996"/>
	<line fill="none" stroke="#2463E2" stroke-miterlimit="10" x1="225.057" y1="160.004" x2="230.832" y2="170"/>
	<line fill="none" stroke="#2463E2" stroke-miterlimit="10" x1="230.832" y1="170" x2="242.377" y2="189.998"/>
	<line fill="none" stroke="#2463E2" stroke-miterlimit="10" x1="196.191" y1="70.004" x2="178.863" y2="80.004"/>
	<line fill="none" stroke="#2463E2" stroke-miterlimit="10" x1="196.191" y1="70.004" x2="196.191" y2="90.004"/>
	<line fill="none" stroke="#2463E2" stroke-miterlimit="10" x1="178.863" y1="80.004" x2="173.084" y2="70.004"/>
	<line fill="none" stroke="#2463E2" stroke-miterlimit="10" x1="196.191" y1="90.004" x2="207.734" y2="90.002"/>
	<line fill="none" stroke="#2463E2" stroke-miterlimit="10" x1="207.734" y1="90.002" x2="230.824" y2="90"/>
	<line fill="none" stroke="#2463E2" stroke-miterlimit="10" x1="103.812" y1="70" x2="103.809" y2="90.004"/>
	<line fill="none" stroke="#2463E2" stroke-miterlimit="10" x1="103.812" y1="70" x2="121.133" y2="80.002"/>
	<line fill="none" stroke="#2463E2" stroke-miterlimit="10" x1="92.26" y1="90.012" x2="69.16" y2="90.012"/>
	<line fill="none" stroke="#2463E2" stroke-miterlimit="10" x1="103.809" y1="90.004" x2="92.26" y2="90.012"/>
	<line fill="none" stroke="#2463E2" stroke-miterlimit="10" x1="121.133" y1="80.002" x2="126.902" y2="70"/>
	<line fill="none" stroke="#2463E2" stroke-miterlimit="10" x1="57.621" y1="150" x2="74.945" y2="160.004"/>
	<line fill="none" stroke="#2463E2" stroke-miterlimit="10" x1="57.621" y1="150" x2="74.941" y2="140"/>
	<line fill="none" stroke="#2463E2" stroke-miterlimit="10" x1="69.176" y1="170.008" x2="57.625" y2="190.016"/>
	<line fill="none" stroke="#2463E2" stroke-miterlimit="10" x1="74.945" y1="160.004" x2="69.176" y2="170.008"/>
	<line fill="none" stroke="#2463E2" stroke-miterlimit="10" x1="74.941" y1="140" x2="69.168" y2="130.004"/>
	<line fill="none" stroke="#2463E2" stroke-miterlimit="10" x1="69.168" y1="130.004" x2="57.621" y2="110.008"/>
	<line fill="none" stroke="#2463E2" stroke-miterlimit="10" x1="103.807" y1="230.004" x2="121.133" y2="220.004"/>
	<line fill="none" stroke="#2463E2" stroke-miterlimit="10" x1="103.807" y1="230.004" x2="103.807" y2="210.002"/>
	<line fill="none" stroke="#2463E2" stroke-miterlimit="10" x1="121.133" y1="220.004" x2="126.912" y2="230.004"/>
	<line fill="none" stroke="#2463E2" stroke-miterlimit="10" x1="103.807" y1="210.002" x2="92.262" y2="210.008"/>
	<line fill="none" stroke="#2463E2" stroke-miterlimit="10" x1="92.262" y1="210.008" x2="69.172" y2="210.008"/>
	<line fill="none" stroke="#2463E2" stroke-miterlimit="10" x1="196.182" y1="230.006" x2="196.188" y2="210.002"/>
	<line fill="none" stroke="#2463E2" stroke-miterlimit="10" x1="196.182" y1="230.006" x2="178.863" y2="220.004"/>
	<line fill="none" stroke="#2463E2" stroke-miterlimit="10" x1="207.736" y1="209.996" x2="230.836" y2="209.996"/>
	<line fill="none" stroke="#2463E2" stroke-miterlimit="10" x1="196.188" y1="210.002" x2="207.736" y2="209.996"/>
	<line fill="none" stroke="#2463E2" stroke-miterlimit="10" x1="178.863" y1="220.004" x2="173.094" y2="230.004"/>
	<line fill="none" stroke="#2463E2" stroke-miterlimit="10" x1="225.059" y1="160.004" x2="201.961" y2="160.004"/>
	<line fill="none" stroke="#2463E2" stroke-miterlimit="10" x1="225.055" y1="140" x2="201.961" y2="140"/>
	<line fill="none" stroke="#2463E2" stroke-miterlimit="10" x1="201.961" y1="140" x2="196.184" y2="149.996"/>
	<line fill="none" stroke="#2463E2" stroke-miterlimit="10" x1="196.184" y1="149.996" x2="201.961" y2="160.008"/>
	<line fill="none" stroke="#2463E2" stroke-miterlimit="10" x1="196.184" y1="149.996" x2="192.336" y2="156.676"/>
	<line fill="none" stroke="#2463E2" stroke-miterlimit="10" x1="196.184" y1="149.996" x2="192.34" y2="143.336"/>
	<line fill="none" stroke="#2463E2" stroke-miterlimit="10" x1="192.34" y1="143.336" x2="196.189" y2="136.668"/>
	<line fill="none" stroke="#2463E2" stroke-miterlimit="10" x1="192.336" y1="156.676" x2="196.184" y2="163.344"/>
	<line fill="none" stroke="#2463E2" stroke-miterlimit="10" x1="201.961" y1="160.008" x2="196.184" y2="163.344"/>
	<line fill="none" stroke="#2463E2" stroke-miterlimit="10" x1="201.961" y1="140" x2="196.189" y2="136.668"/>
	<line fill="none" stroke="#2463E2" stroke-miterlimit="10" x1="192.336" y1="170.006" x2="196.184" y2="163.344"/>
	<line fill="none" stroke="#2463E2" stroke-miterlimit="10" x1="192.34" y1="130.004" x2="196.189" y2="136.668"/>
	<line fill="none" stroke="#2463E2" stroke-miterlimit="10" x1="196.191" y1="90.004" x2="184.646" y2="110.004"/>
	<line fill="none" stroke="#2463E2" stroke-miterlimit="10" x1="178.863" y1="80.004" x2="167.32" y2="100"/>
	<line fill="none" stroke="#2463E2" stroke-miterlimit="10" x1="167.32" y1="100" x2="173.086" y2="110.004"/>
	<line fill="none" stroke="#2463E2" stroke-miterlimit="10" x1="173.086" y1="110.004" x2="184.646" y2="110.004"/>
	<line fill="none" stroke="#2463E2" stroke-miterlimit="10" x1="173.086" y1="110.004" x2="176.947" y2="116.676"/>
	<line fill="none" stroke="#2463E2" stroke-miterlimit="10" x1="173.086" y1="110.004" x2="165.398" y2="110.006"/>
	<line fill="none" stroke="#2463E2" stroke-miterlimit="10" x1="165.398" y1="110.006" x2="161.549" y2="103.338"/>
	<line fill="none" stroke="#2463E2" stroke-miterlimit="10" x1="176.947" y1="116.676" x2="184.646" y2="116.676"/>
	<line fill="none" stroke="#2463E2" stroke-miterlimit="10" x1="184.646" y1="110.004" x2="184.646" y2="116.676"/>
	<line fill="none" stroke="#2463E2" stroke-miterlimit="10" x1="167.32" y1="100" x2="161.549" y2="103.338"/>
	<line fill="none" stroke="#2463E2" stroke-miterlimit="10" x1="188.492" y1="123.342" x2="184.646" y2="116.676"/>
	<line fill="none" stroke="#2463E2" stroke-miterlimit="10" x1="153.85" y1="103.338" x2="161.549" y2="103.338"/>
	<line fill="none" stroke="#2463E2" stroke-miterlimit="10" x1="121.133" y1="80.002" x2="132.68" y2="100"/>
	<line fill="none" stroke="#2463E2" stroke-miterlimit="10" x1="103.809" y1="90.004" x2="115.355" y2="110.004"/>
	<line fill="none" stroke="#2463E2" stroke-miterlimit="10" x1="115.355" y1="110.004" x2="126.9" y2="110.012"/>
	<line fill="none" stroke="#2463E2" stroke-miterlimit="10" x1="126.9" y1="110.012" x2="132.68" y2="100"/>
	<line fill="none" stroke="#2463E2" stroke-miterlimit="10" x1="126.9" y1="110.012" x2="134.609" y2="110.004"/>
	<line fill="none" stroke="#2463E2" stroke-miterlimit="10" x1="126.9" y1="110.012" x2="123.057" y2="116.672"/>
	<line fill="none" stroke="#2463E2" stroke-miterlimit="10" x1="123.057" y1="116.672" x2="115.357" y2="116.672"/>
	<line fill="none" stroke="#2463E2" stroke-miterlimit="10" x1="134.609" y1="110.004" x2="138.461" y2="103.338"/>
	<line fill="none" stroke="#2463E2" stroke-miterlimit="10" x1="132.68" y1="100" x2="138.461" y2="103.338"/>
	<line fill="none" stroke="#2463E2" stroke-miterlimit="10" x1="115.355" y1="110.004" x2="115.357" y2="116.672"/>
	<line fill="none" stroke="#2463E2" stroke-miterlimit="10" x1="146.154" y1="103.338" x2="138.461" y2="103.338"/>
	<line fill="none" stroke="#2463E2" stroke-miterlimit="10" x1="111.51" y1="123.336" x2="115.357" y2="116.672"/>
	<line fill="none" stroke="#2463E2" stroke-miterlimit="10" x1="74.941" y1="140" x2="98.035" y2="140"/>
	<line fill="none" stroke="#2463E2" stroke-miterlimit="10" x1="74.945" y1="160.004" x2="98.037" y2="160.004"/>
	<line fill="none" stroke="#2463E2" stroke-miterlimit="10" x1="98.037" y1="160.004" x2="103.816" y2="150.012"/>
	<line fill="none" stroke="#2463E2" stroke-miterlimit="10" x1="103.816" y1="150.012" x2="98.035" y2="140"/>
	<line fill="none" stroke="#2463E2" stroke-miterlimit="10" x1="103.816" y1="150.012" x2="107.664" y2="143.332"/>
	<line fill="none" stroke="#2463E2" stroke-miterlimit="10" x1="103.816" y1="150.012" x2="107.66" y2="156.668"/>
	<line fill="none" stroke="#2463E2" stroke-miterlimit="10" x1="107.66" y1="156.668" x2="103.812" y2="163.338"/>
	<line fill="none" stroke="#2463E2" stroke-miterlimit="10" x1="107.664" y1="143.332" x2="103.816" y2="136.664"/>
	<line fill="none" stroke="#2463E2" stroke-miterlimit="10" x1="98.035" y1="140" x2="103.816" y2="136.664"/>
	<line fill="none" stroke="#2463E2" stroke-miterlimit="10" x1="98.037" y1="160.004" x2="103.812" y2="163.338"/>
	<line fill="none" stroke="#2463E2" stroke-miterlimit="10" x1="107.664" y1="129.998" x2="103.816" y2="136.664"/>
	<line fill="none" stroke="#2463E2" stroke-miterlimit="10" x1="107.66" y1="170" x2="103.812" y2="163.338"/>
	<line fill="none" stroke="#2463E2" stroke-miterlimit="10" x1="103.809" y1="210.002" x2="115.355" y2="190.004"/>
	<line fill="none" stroke="#2463E2" stroke-miterlimit="10" x1="121.133" y1="220.004" x2="132.68" y2="200.006"/>
	<line fill="none" stroke="#2463E2" stroke-miterlimit="10" x1="132.68" y1="200.006" x2="126.912" y2="190.004"/>
	<line fill="none" stroke="#2463E2" stroke-miterlimit="10" x1="126.912" y1="190.004" x2="115.355" y2="190.004"/>
	<line fill="none" stroke="#2463E2" stroke-miterlimit="10" x1="126.912" y1="190.004" x2="123.055" y2="183.33"/>
	<line fill="none" stroke="#2463E2" stroke-miterlimit="10" x1="126.912" y1="190.004" x2="134.602" y2="190.004"/>
	<line fill="none" stroke="#2463E2" stroke-miterlimit="10" x1="134.602" y1="190.004" x2="138.453" y2="196.666"/>
	<line fill="none" stroke="#2463E2" stroke-miterlimit="10" x1="123.055" y1="183.33" x2="115.355" y2="183.33"/>
	<line fill="none" stroke="#2463E2" stroke-miterlimit="10" x1="115.355" y1="190.004" x2="115.355" y2="183.33"/>
	<line fill="none" stroke="#2463E2" stroke-miterlimit="10" x1="132.68" y1="200.006" x2="138.453" y2="196.666"/>
	<line fill="none" stroke="#2463E2" stroke-miterlimit="10" x1="111.508" y1="176.662" x2="115.355" y2="183.33"/>
	<line fill="none" stroke="#2463E2" stroke-miterlimit="10" x1="146.148" y1="196.672" x2="138.453" y2="196.666"/>
	<line fill="none" stroke="#2463E2" stroke-miterlimit="10" x1="178.863" y1="220.004" x2="167.316" y2="200.006"/>
	<line fill="none" stroke="#2463E2" stroke-miterlimit="10" x1="196.189" y1="210.002" x2="184.641" y2="190.004"/>
	<line fill="none" stroke="#2463E2" stroke-miterlimit="10" x1="184.641" y1="190.004" x2="173.098" y2="189.996"/>
	<line fill="none" stroke="#2463E2" stroke-miterlimit="10" x1="173.098" y1="189.996" x2="167.316" y2="200.006"/>
	<line fill="none" stroke="#2463E2" stroke-miterlimit="10" x1="173.098" y1="189.996" x2="165.387" y2="190.004"/>
	<line fill="none" stroke="#2463E2" stroke-miterlimit="10" x1="173.098" y1="189.996" x2="176.941" y2="183.336"/>
	<line fill="none" stroke="#2463E2" stroke-miterlimit="10" x1="176.941" y1="183.336" x2="184.641" y2="183.336"/>
	<line fill="none" stroke="#2463E2" stroke-miterlimit="10" x1="165.387" y1="190.004" x2="161.537" y2="196.666"/>
	<line fill="none" stroke="#2463E2" stroke-miterlimit="10" x1="167.316" y1="200.006" x2="161.537" y2="196.666"/>
	<line fill="none" stroke="#2463E2" stroke-miterlimit="10" x1="184.641" y1="190.004" x2="184.641" y2="183.336"/>
	<line fill="none" stroke="#2463E2" stroke-miterlimit="10" x1="153.844" y1="196.666" x2="161.537" y2="196.666"/>
	<line fill="none" stroke="#2463E2" stroke-miterlimit="10" x1="188.49" y1="176.672" x2="184.641" y2="183.336"/>
	<line fill="none" stroke="#2463E2" stroke-miterlimit="10" x1="180.785" y1="150.002" x2="184.629" y2="143.346"/>
	<line fill="none" stroke="#2463E2" stroke-miterlimit="10" x1="184.629" y1="143.346" x2="192.328" y2="143.34"/>
	<line fill="none" stroke="#2463E2" stroke-miterlimit="10" x1="180.785" y1="150.002" x2="184.629" y2="156.676"/>
	<line fill="none" stroke="#2463E2" stroke-miterlimit="10" x1="184.629" y1="156.676" x2="192.328" y2="156.682"/>
	<line fill="none" stroke="#2463E2" stroke-miterlimit="10" x1="188.484" y1="163.344" x2="180.785" y2="163.332"/>
	<line fill="none" stroke="#2463E2" stroke-miterlimit="10" x1="188.484" y1="136.678" x2="180.785" y2="136.672"/>
	<line fill="none" stroke="#2463E2" stroke-miterlimit="10" x1="165.387" y1="123.348" x2="161.543" y2="116.68"/>
	<line fill="none" stroke="#2463E2" stroke-miterlimit="10" x1="161.543" y1="116.68" x2="165.393" y2="110.012"/>
	<line fill="none" stroke="#2463E2" stroke-miterlimit="10" x1="165.387" y1="123.348" x2="173.086" y2="123.342"/>
	<line fill="none" stroke="#2463E2" stroke-miterlimit="10" x1="173.086" y1="123.342" x2="176.941" y2="116.68"/>
	<line fill="none" stroke="#2463E2" stroke-miterlimit="10" x1="180.785" y1="123.348" x2="176.924" y2="130.004"/>
	<line fill="none" stroke="#2463E2" stroke-miterlimit="10" x1="157.693" y1="110.012" x2="153.838" y2="116.68"/>
	<line fill="none" stroke="#2463E2" stroke-miterlimit="10" x1="184.629" y1="143.346" x2="173.086" y2="123.342"/>
	<line fill="none" stroke="#2463E2" stroke-miterlimit="10" x1="161.543" y1="116.68" x2="138.445" y2="116.68"/>
	<line fill="none" stroke="#2463E2" stroke-miterlimit="10" x1="134.596" y1="123.348" x2="126.902" y2="123.342"/>
	<line fill="none" stroke="#2463E2" stroke-miterlimit="10" x1="126.902" y1="123.342" x2="123.053" y2="116.674"/>
	<line fill="none" stroke="#2463E2" stroke-miterlimit="10" x1="134.596" y1="123.348" x2="138.445" y2="116.674"/>
	<line fill="none" stroke="#2463E2" stroke-miterlimit="10" x1="138.445" y1="116.674" x2="134.602" y2="110.012"/>
	<line fill="none" stroke="#2463E2" stroke-miterlimit="10" x1="142.295" y1="110.012" x2="146.139" y2="116.68"/>
	<line fill="none" stroke="#2463E2" stroke-miterlimit="10" x1="119.203" y1="123.342" x2="123.053" y2="130.016"/>
	<line fill="none" stroke="#2463E2" stroke-miterlimit="10" x1="126.902" y1="123.342" x2="115.359" y2="143.352"/>
	<line fill="none" stroke="#2463E2" stroke-miterlimit="10" x1="119.203" y1="150.008" x2="115.359" y2="156.676"/>
	<line fill="none" stroke="#2463E2" stroke-miterlimit="10" x1="115.359" y1="156.676" x2="107.66" y2="156.676"/>
	<line fill="none" stroke="#2463E2" stroke-miterlimit="10" x1="119.203" y1="150.008" x2="115.354" y2="143.346"/>
	<line fill="none" stroke="#2463E2" stroke-miterlimit="10" x1="115.354" y1="143.346" x2="107.66" y2="143.334"/>
	<line fill="none" stroke="#2463E2" stroke-miterlimit="10" x1="111.504" y1="136.672" x2="119.203" y2="136.678"/>
	<line fill="none" stroke="#2463E2" stroke-miterlimit="10" x1="111.504" y1="163.332" x2="119.203" y2="163.344"/>
	<line fill="none" stroke="#2463E2" stroke-miterlimit="10" x1="115.359" y1="156.676" x2="126.902" y2="176.668"/>
	<line fill="none" stroke="#2463E2" stroke-miterlimit="10" x1="134.602" y1="176.668" x2="138.445" y2="183.336"/>
	<line fill="none" stroke="#2463E2" stroke-miterlimit="10" x1="138.445" y1="183.336" x2="134.596" y2="190.01"/>
	<line fill="none" stroke="#2463E2" stroke-miterlimit="10" x1="134.602" y1="176.668" x2="126.902" y2="176.68"/>
	<line fill="none" stroke="#2463E2" stroke-miterlimit="10" x1="126.902" y1="176.68" x2="123.047" y2="183.33"/>
	<line fill="none" stroke="#2463E2" stroke-miterlimit="10" x1="119.203" y1="176.668" x2="123.059" y2="170.006"/>
	<line fill="none" stroke="#2463E2" stroke-miterlimit="10" x1="142.295" y1="190.01" x2="146.15" y2="183.336"/>
	<line fill="none" stroke="#2463E2" stroke-miterlimit="10" x1="138.445" y1="183.336" x2="161.543" y2="183.336"/>
	<line fill="none" stroke="#2463E2" stroke-miterlimit="10" x1="165.393" y1="176.668" x2="173.086" y2="176.668"/>
	<line fill="none" stroke="#2463E2" stroke-miterlimit="10" x1="173.086" y1="176.668" x2="176.93" y2="183.336"/>
	<line fill="none" stroke="#2463E2" stroke-miterlimit="10" x1="165.393" y1="176.668" x2="161.543" y2="183.336"/>
	<line fill="none" stroke="#2463E2" stroke-miterlimit="10" x1="161.543" y1="183.336" x2="165.387" y2="190.01"/>
	<line fill="none" stroke="#2463E2" stroke-miterlimit="10" x1="157.693" y1="190.01" x2="153.844" y2="183.33"/>
	<line fill="none" stroke="#2463E2" stroke-miterlimit="10" x1="180.785" y1="176.68" x2="176.93" y2="170.006"/>
	<line fill="none" stroke="#2463E2" stroke-miterlimit="10" x1="173.086" y1="176.668" x2="184.629" y2="156.67"/>
	<line fill="none" stroke="#2463E2" stroke-miterlimit="10" x1="153.832" y1="156.682" x2="146.139" y2="156.699"/>
	<line fill="none" stroke="#2463E2" stroke-miterlimit="10" x1="146.139" y1="156.699" x2="142.295" y2="150.02"/>
	<line fill="none" stroke="#2463E2" stroke-miterlimit="10" x1="142.295" y1="150.02" x2="146.174" y2="143.352"/>
	<line fill="none" stroke="#2463E2" stroke-miterlimit="10" x1="146.174" y1="143.352" x2="153.855" y2="143.334"/>
	<line fill="none" stroke="#2463E2" stroke-miterlimit="10" x1="153.855" y1="143.334" x2="157.682" y2="150.02"/>
	<line fill="none" stroke="#2463E2" stroke-miterlimit="10" x1="153.832" y1="156.682" x2="157.682" y2="150.02"/>
	<line fill="none" stroke="#2463E2" stroke-miterlimit="10" x1="146.174" y1="143.352" x2="134.596" y2="123.348"/>
	<line fill="none" stroke="#2463E2" stroke-miterlimit="10" x1="153.855" y1="143.334" x2="165.387" y2="123.348"/>
	<line fill="none" stroke="#2463E2" stroke-miterlimit="10" x1="157.682" y1="150.02" x2="180.785" y2="150.002"/>
	<line fill="none" stroke="#2463E2" stroke-miterlimit="10" x1="153.832" y1="156.682" x2="165.393" y2="176.668"/>
	<line fill="none" stroke="#2463E2" stroke-miterlimit="10" x1="146.139" y1="156.699" x2="134.602" y2="176.668"/>
	<line fill="none" stroke="#2463E2" stroke-miterlimit="10" x1="142.295" y1="150.02" x2="119.203" y2="150.008"/>
	<line fill="none" stroke="#2463E2" stroke-miterlimit="10" x1="169.254" y1="169.988" x2="161.525" y2="170.023"/>
	<line fill="none" stroke="#2463E2" stroke-miterlimit="10" x1="142.295" y1="176.668" x2="138.445" y2="170.023"/>
	<line fill="none" stroke="#2463E2" stroke-miterlimit="10" x1="123.07" y1="156.699" x2="126.943" y2="149.984"/>
	<line fill="none" stroke="#2463E2" stroke-miterlimit="10" x1="130.758" y1="130.021" x2="138.445" y2="130.062"/>
	<line fill="none" stroke="#2463E2" stroke-miterlimit="10" x1="157.682" y1="123.365" x2="161.508" y2="130.062"/>
	<line fill="none" stroke="#2463E2" stroke-miterlimit="10" x1="176.924" y1="143.322" x2="173.039" y2="149.984"/>
</g>
<g id="valley">
	<line fill="none" stroke="#FF005C" stroke-miterlimit="10" x1="196.191" y1="70.002" x2="103.804" y2="70.002"/>
	<line fill="none" stroke="#FF005C" stroke-miterlimit="10" x1="103.813" y1="69.999" x2="126.903" y2="70"/>
	<line fill="none" stroke="#FF005C" stroke-miterlimit="10" x1="103.808" y1="230.002" x2="196.195" y2="230.001"/>
	<line fill="none" stroke="#FF005C" stroke-miterlimit="10" x1="103.807" y1="230.001" x2="196.193" y2="230.001"/>
	<line fill="none" stroke="#FF005C" stroke-miterlimit="10" x1="173.086" y1="70.002" x2="184.637" y2="49.997"/>
	<line fill="none" stroke="#FF005C" stroke-miterlimit="10" x1="126.903" y1="70" x2="115.354" y2="49.997"/>
	<line fill="none" stroke="#FF005C" stroke-miterlimit="10" x1="126.913" y1="230.001" x2="115.362" y2="250.009"/>
	<line fill="none" stroke="#FF005C" stroke-miterlimit="10" x1="173.096" y1="230.003" x2="184.645" y2="250.007"/>
	<line fill="none" stroke="#FF005C" stroke-miterlimit="10" x1="161.535" y1="49.997" x2="173.094" y2="30.001"/>
	<line fill="none" stroke="#FF005C" stroke-miterlimit="10" x1="138.448" y1="50.002" x2="126.908" y2="30.004"/>
	<line fill="none" stroke="#FF005C" stroke-miterlimit="10" x1="57.622" y1="110.005" x2="34.527" y2="110.002"/>
	<line fill="none" stroke="#FF005C" stroke-miterlimit="10" x1="57.625" y1="190.016" x2="34.53" y2="190.001"/>
	<line fill="none" stroke="#FF005C" stroke-miterlimit="10" x1="138.464" y1="250.008" x2="126.906" y2="270.001"/>
	<line fill="none" stroke="#FF005C" stroke-miterlimit="10" x1="161.55" y1="250.001" x2="173.094" y2="270.002"/>
	<line fill="none" stroke="#FF005C" stroke-miterlimit="10" x1="242.378" y1="189.997" x2="265.471" y2="190.001"/>
	<line fill="none" stroke="#FF005C" stroke-miterlimit="10" x1="242.375" y1="109.988" x2="265.469" y2="110.002"/>
	<line fill="none" stroke="#FF005C" stroke-miterlimit="10" x1="242.377" y1="70.002" x2="230.811" y2="90.004"/>
	<line fill="none" stroke="#FF005C" stroke-miterlimit="10" x1="57.633" y1="69.998" x2="69.174" y2="90.016"/>
	<line fill="none" stroke="#FF005C" stroke-miterlimit="10" x1="57.625" y1="230" x2="69.195" y2="210"/>
	<line fill="none" stroke="#FF005C" stroke-miterlimit="10" x1="242.367" y1="230.004" x2="230.828" y2="209.984"/>
	<line fill="none" stroke="#FF005C" stroke-miterlimit="10" x1="225.055" y1="140" x2="225.057" y2="160.004"/>
	<line fill="none" stroke="#FF005C" stroke-miterlimit="10" x1="242.377" y1="150.004" x2="196.182" y2="69.998"/>
	<line fill="none" stroke="#FF005C" stroke-miterlimit="10" x1="242.377" y1="150.004" x2="230.832" y2="170"/>
	<line fill="none" stroke="#FF005C" stroke-miterlimit="10" x1="178.863" y1="80.004" x2="196.191" y2="90.004"/>
	<line fill="none" stroke="#FF005C" stroke-miterlimit="10" x1="196.191" y1="70.004" x2="207.734" y2="90.002"/>
	<line fill="none" stroke="#FF005C" stroke-miterlimit="10" x1="103.809" y1="90.004" x2="121.133" y2="80.002"/>
	<line fill="none" stroke="#FF005C" stroke-miterlimit="10" x1="103.812" y1="70" x2="57.621" y2="150.012"/>
	<line fill="none" stroke="#FF005C" stroke-miterlimit="10" x1="103.814" y1="70" x2="57.621" y2="150.012"/>
	<line fill="none" stroke="#FF005C" stroke-miterlimit="10" x1="74.945" y1="160.004" x2="74.941" y2="140"/>
	<line fill="none" stroke="#FF005C" stroke-miterlimit="10" x1="57.621" y1="150" x2="103.816" y2="230.008"/>
	<line fill="none" stroke="#FF005C" stroke-miterlimit="10" x1="57.621" y1="150" x2="103.814" y2="230.008"/>
	<line fill="none" stroke="#FF005C" stroke-miterlimit="10" x1="121.133" y1="220.004" x2="103.807" y2="210.002"/>
	<line fill="none" stroke="#FF005C" stroke-miterlimit="10" x1="196.188" y1="210.002" x2="178.863" y2="220.004"/>
	<line fill="none" stroke="#FF005C" stroke-miterlimit="10" x1="196.182" y1="230.006" x2="242.377" y2="149.996"/>
	<line fill="none" stroke="#FF005C" stroke-miterlimit="10" x1="230.832" y1="170" x2="253.92" y2="170"/>
	<line fill="none" stroke="#FF005C" stroke-miterlimit="10" x1="230.822" y1="129.996" x2="253.926" y2="129.996"/>
	<line fill="none" stroke="#FF005C" stroke-miterlimit="10" x1="207.734" y1="90.002" x2="219.285" y2="69.998"/>
	<line fill="none" stroke="#FF005C" stroke-miterlimit="10" x1="92.26" y1="90.012" x2="80.711" y2="70.004"/>
	<line fill="none" stroke="#FF005C" stroke-miterlimit="10" x1="69.168" y1="130.004" x2="46.07" y2="130.004"/>
	<line fill="none" stroke="#FF005C" stroke-miterlimit="10" x1="69.176" y1="170.008" x2="46.074" y2="170.008"/>
	<line fill="none" stroke="#FF005C" stroke-miterlimit="10" x1="92.262" y1="210.008" x2="80.715" y2="230.008"/>
	<line fill="none" stroke="#FF005C" stroke-miterlimit="10" x1="207.736" y1="209.996" x2="219.285" y2="230.004"/>
	<line fill="none" stroke="#FF005C" stroke-miterlimit="10" x1="201.961" y1="140" x2="201.961" y2="160.008"/>
	<line fill="none" stroke="#FF005C" stroke-miterlimit="10" x1="196.189" y1="136.668" x2="196.184" y2="149.996"/>
	<line fill="none" stroke="#FF005C" stroke-miterlimit="10" x1="196.184" y1="149.996" x2="196.184" y2="163.344"/>
	<line fill="none" stroke="#FF005C" stroke-miterlimit="10" x1="192.336" y1="170.006" x2="188.49" y2="176.668"/>
	<line fill="none" stroke="#FF005C" stroke-miterlimit="10" x1="188.49" y1="163.336" x2="192.336" y2="156.676"/>
	<line fill="none" stroke="#FF005C" stroke-miterlimit="10" x1="188.49" y1="163.336" x2="192.336" y2="170.006"/>
	<line fill="none" stroke="#FF005C" stroke-miterlimit="10" x1="188.49" y1="136.672" x2="192.34" y2="143.336"/>
	<line fill="none" stroke="#FF005C" stroke-miterlimit="10" x1="230.832" y1="170" x2="192.334" y2="170.006"/>
	<line fill="none" stroke="#FF005C" stroke-miterlimit="10" x1="230.824" y1="129.996" x2="192.34" y2="130.004"/>
	<line fill="none" stroke="#FF005C" stroke-miterlimit="10" x1="188.49" y1="136.672" x2="192.34" y2="130.004"/>
	<line fill="none" stroke="#FF005C" stroke-miterlimit="10" x1="188.49" y1="123.34" x2="192.34" y2="130.004"/>
	<line fill="none" stroke="#FF005C" stroke-miterlimit="10" x1="167.32" y1="100" x2="184.646" y2="110.004"/>
	<line fill="none" stroke="#FF005C" stroke-miterlimit="10" x1="161.549" y1="103.338" x2="173.086" y2="110.004"/>
	<line fill="none" stroke="#FF005C" stroke-miterlimit="10" x1="173.086" y1="110.004" x2="184.646" y2="116.676"/>
	<line fill="none" stroke="#FF005C" stroke-miterlimit="10" x1="180.791" y1="123.338" x2="176.947" y2="116.676"/>
	<line fill="none" stroke="#FF005C" stroke-miterlimit="10" x1="180.791" y1="123.338" x2="188.492" y2="123.342"/>
	<line fill="none" stroke="#FF005C" stroke-miterlimit="10" x1="157.699" y1="110.006" x2="165.398" y2="110.006"/>
	<line fill="none" stroke="#FF005C" stroke-miterlimit="10" x1="207.734" y1="90.002" x2="188.49" y2="123.342"/>
	<line fill="none" stroke="#FF005C" stroke-miterlimit="10" x1="173.086" y1="70.004" x2="153.85" y2="103.338"/>
	<line fill="none" stroke="#FF005C" stroke-miterlimit="10" x1="157.699" y1="110.006" x2="153.85" y2="103.338"/>
	<line fill="none" stroke="#FF005C" stroke-miterlimit="10" x1="146.152" y1="103.34" x2="153.85" y2="103.338"/>
	<line fill="none" stroke="#FF005C" stroke-miterlimit="10" x1="115.355" y1="110.004" x2="132.68" y2="100"/>
	<line fill="none" stroke="#FF005C" stroke-miterlimit="10" x1="115.357" y1="116.672" x2="126.9" y2="110.012"/>
	<line fill="none" stroke="#FF005C" stroke-miterlimit="10" x1="126.9" y1="110.012" x2="138.461" y2="103.338"/>
	<line fill="none" stroke="#FF005C" stroke-miterlimit="10" x1="142.301" y1="110.004" x2="134.609" y2="110.004"/>
	<line fill="none" stroke="#FF005C" stroke-miterlimit="10" x1="142.301" y1="110.004" x2="146.154" y2="103.338"/>
	<line fill="none" stroke="#FF005C" stroke-miterlimit="10" x1="119.211" y1="123.336" x2="123.057" y2="116.672"/>
	<line fill="none" stroke="#FF005C" stroke-miterlimit="10" x1="126.902" y1="70" x2="146.154" y2="103.34"/>
	<line fill="none" stroke="#FF005C" stroke-miterlimit="10" x1="92.26" y1="90.012" x2="111.51" y2="123.336"/>
	<line fill="none" stroke="#FF005C" stroke-miterlimit="10" x1="119.211" y1="123.336" x2="111.51" y2="123.336"/>
	<line fill="none" stroke="#FF005C" stroke-miterlimit="10" x1="107.664" y1="130.004" x2="111.51" y2="123.336"/>
	<line fill="none" stroke="#FF005C" stroke-miterlimit="10" x1="98.037" y1="160.004" x2="98.035" y2="140"/>
	<line fill="none" stroke="#FF005C" stroke-miterlimit="10" x1="103.812" y1="163.338" x2="103.816" y2="150.012"/>
	<line fill="none" stroke="#FF005C" stroke-miterlimit="10" x1="103.816" y1="150.012" x2="103.816" y2="136.664"/>
	<line fill="none" stroke="#FF005C" stroke-miterlimit="10" x1="111.51" y1="136.668" x2="107.664" y2="143.332"/>
	<line fill="none" stroke="#FF005C" stroke-miterlimit="10" x1="111.51" y1="136.668" x2="107.664" y2="129.998"/>
	<line fill="none" stroke="#FF005C" stroke-miterlimit="10" x1="111.51" y1="163.332" x2="107.66" y2="156.668"/>
	<line fill="none" stroke="#FF005C" stroke-miterlimit="10" x1="69.168" y1="130.004" x2="107.666" y2="130"/>
	<line fill="none" stroke="#FF005C" stroke-miterlimit="10" x1="69.176" y1="170.006" x2="107.66" y2="170"/>
	<line fill="none" stroke="#FF005C" stroke-miterlimit="10" x1="111.51" y1="163.332" x2="107.66" y2="170"/>
	<line fill="none" stroke="#FF005C" stroke-miterlimit="10" x1="111.512" y1="176.668" x2="107.66" y2="170"/>
	<line fill="none" stroke="#FF005C" stroke-miterlimit="10" x1="132.68" y1="200.006" x2="115.355" y2="190.004"/>
	<line fill="none" stroke="#FF005C" stroke-miterlimit="10" x1="138.453" y1="196.666" x2="126.912" y2="190.004"/>
	<line fill="none" stroke="#FF005C" stroke-miterlimit="10" x1="126.912" y1="190.004" x2="115.355" y2="183.33"/>
	<line fill="none" stroke="#FF005C" stroke-miterlimit="10" x1="119.207" y1="176.668" x2="123.055" y2="183.33"/>
	<line fill="none" stroke="#FF005C" stroke-miterlimit="10" x1="119.207" y1="176.668" x2="111.508" y2="176.662"/>
	<line fill="none" stroke="#FF005C" stroke-miterlimit="10" x1="142.299" y1="189.998" x2="134.602" y2="190.004"/>
	<line fill="none" stroke="#FF005C" stroke-miterlimit="10" x1="92.262" y1="210.008" x2="111.51" y2="176.662"/>
	<line fill="none" stroke="#FF005C" stroke-miterlimit="10" x1="126.912" y1="230.004" x2="146.148" y2="196.672"/>
	<line fill="none" stroke="#FF005C" stroke-miterlimit="10" x1="142.299" y1="189.998" x2="146.148" y2="196.672"/>
	<line fill="none" stroke="#FF005C" stroke-miterlimit="10" x1="153.85" y1="196.666" x2="146.148" y2="196.672"/>
	<line fill="none" stroke="#FF005C" stroke-miterlimit="10" x1="184.641" y1="190.004" x2="167.316" y2="200.006"/>
	<line fill="none" stroke="#FF005C" stroke-miterlimit="10" x1="184.641" y1="183.336" x2="173.098" y2="189.996"/>
	<line fill="none" stroke="#FF005C" stroke-miterlimit="10" x1="173.098" y1="189.996" x2="161.537" y2="196.666"/>
	<line fill="none" stroke="#FF005C" stroke-miterlimit="10" x1="157.699" y1="190.004" x2="165.387" y2="190.004"/>
	<line fill="none" stroke="#FF005C" stroke-miterlimit="10" x1="157.699" y1="190.004" x2="153.844" y2="196.666"/>
	<line fill="none" stroke="#FF005C" stroke-miterlimit="10" x1="180.785" y1="176.672" x2="176.941" y2="183.336"/>
	<line fill="none" stroke="#FF005C" stroke-miterlimit="10" x1="173.094" y1="230.004" x2="153.844" y2="196.666"/>
	<line fill="none" stroke="#FF005C" stroke-miterlimit="10" x1="207.738" y1="209.996" x2="188.49" y2="176.672"/>
	<line fill="none" stroke="#FF005C" stroke-miterlimit="10" x1="180.785" y1="176.672" x2="188.49" y2="176.672"/>
	<line fill="none" stroke="#FF005C" stroke-miterlimit="10" x1="192.334" y1="170.004" x2="188.49" y2="176.672"/>
	<line fill="none" stroke="#FF005C" stroke-miterlimit="10" x1="188.484" y1="163.344" x2="184.629" y2="156.676"/>
	<line fill="none" stroke="#FF005C" stroke-miterlimit="10" x1="184.629" y1="143.346" x2="188.484" y2="136.678"/>
	<line fill="none" stroke="#FF005C" stroke-miterlimit="10" x1="180.785" y1="123.348" x2="173.086" y2="123.342"/>
	<line fill="none" stroke="#FF005C" stroke-miterlimit="10" x1="161.543" y1="116.68" x2="157.693" y2="110.012"/>
	<line fill="none" stroke="#FF005C" stroke-miterlimit="10" x1="142.295" y1="110.012" x2="138.445" y2="116.674"/>
	<line fill="none" stroke="#FF005C" stroke-miterlimit="10" x1="126.902" y1="123.342" x2="119.203" y2="123.342"/>
	<line fill="none" stroke="#FF005C" stroke-miterlimit="10" x1="111.504" y1="136.672" x2="115.354" y2="143.346"/>
	<line fill="none" stroke="#FF005C" stroke-miterlimit="10" x1="115.359" y1="156.676" x2="111.504" y2="163.332"/>
	<line fill="none" stroke="#FF005C" stroke-miterlimit="10" x1="119.203" y1="176.668" x2="126.902" y2="176.68"/>
	<line fill="none" stroke="#FF005C" stroke-miterlimit="10" x1="138.445" y1="183.336" x2="142.295" y2="190.01"/>
	<line fill="none" stroke="#FF005C" stroke-miterlimit="10" x1="157.693" y1="190.01" x2="161.543" y2="183.336"/>
	<line fill="none" stroke="#FF005C" stroke-miterlimit="10" x1="173.086" y1="176.668" x2="180.785" y2="176.68"/>
	<line fill="none" stroke="#FF005C" stroke-miterlimit="10" x1="157.682" y1="150.02" x2="169.254" y2="169.988"/>
	<line fill="none" stroke="#FF005C" stroke-miterlimit="10" x1="153.855" y1="143.334" x2="176.924" y2="143.322"/>
	<line fill="none" stroke="#FF005C" stroke-miterlimit="10" x1="146.174" y1="143.352" x2="157.682" y2="123.365"/>
	<line fill="none" stroke="#FF005C" stroke-miterlimit="10" x1="142.295" y1="150.02" x2="130.758" y2="130.021"/>
	<line fill="none" stroke="#FF005C" stroke-miterlimit="10" x1="146.139" y1="156.699" x2="123.07" y2="156.699"/>
	<line fill="none" stroke="#FF005C" stroke-miterlimit="10" x1="153.832" y1="156.682" x2="142.295" y2="176.668"/>
	<line fill="none" stroke="#FF005C" stroke-miterlimit="10" x1="169.254" y1="169.988" x2="165.393" y2="176.668"/>
	<line fill="none" stroke="#FF005C" stroke-miterlimit="10" x1="142.295" y1="176.668" x2="134.602" y2="176.668"/>
	<line fill="none" stroke="#FF005C" stroke-miterlimit="10" x1="176.924" y1="143.322" x2="180.785" y2="150.002"/>
	<line fill="none" stroke="#FF005C" stroke-miterlimit="10" x1="123.07" y1="156.699" x2="119.203" y2="150.008"/>
	<line fill="none" stroke="#FF005C" stroke-miterlimit="10" x1="130.758" y1="130.021" x2="134.596" y2="123.348"/>
	<line fill="none" stroke="#FF005C" stroke-miterlimit="10" x1="157.682" y1="123.365" x2="165.387" y2="123.348"/>
	<line fill="none" stroke="#FF005C" stroke-miterlimit="10" x1="161.508" y1="130.062" x2="176.924" y2="130.004"/>
	<line fill="none" stroke="#FF005C" stroke-miterlimit="10" x1="173.039" y1="149.984" x2="180.785" y2="163.332"/>
	<line fill="none" stroke="#FF005C" stroke-miterlimit="10" x1="161.525" y1="170.023" x2="153.844" y2="183.33"/>
	<line fill="none" stroke="#FF005C" stroke-miterlimit="10" x1="123.059" y1="170.006" x2="138.445" y2="170.023"/>
	<line fill="none" stroke="#FF005C" stroke-miterlimit="10" x1="126.943" y1="149.984" x2="119.203" y2="136.678"/>
	<line fill="none" stroke="#FF005C" stroke-miterlimit="10" x1="138.445" y1="130.062" x2="146.139" y2="116.68"/>
	<line fill="none" stroke="#FF005C" stroke-miterlimit="10" x1="130.758" y1="130.021" x2="123.053" y2="130.016"/>
	<line fill="none" stroke="#FF005C" stroke-miterlimit="10" x1="157.682" y1="123.365" x2="153.838" y2="116.68"/>
	<line fill="none" stroke="#FF005C" stroke-miterlimit="10" x1="176.924" y1="143.322" x2="180.785" y2="136.672"/>
	<line fill="none" stroke="#FF005C" stroke-miterlimit="10" x1="169.254" y1="169.988" x2="176.93" y2="170.006"/>
	<line fill="none" stroke="#FF005C" stroke-miterlimit="10" x1="142.295" y1="176.668" x2="146.15" y2="183.336"/>
	<line fill="none" stroke="#FF005C" stroke-miterlimit="10" x1="123.07" y1="156.699" x2="119.203" y2="163.344"/>
</g>
<g id="outline">
	<line fill="none" stroke="#000000" stroke-miterlimit="10" x1="11.437" y1="150.002" x2="80.717" y2="30.002"/>
	<line fill="none" stroke="#000000" stroke-miterlimit="10" x1="80.717" y1="30.002" x2="219.281" y2="30.001"/>
	<line fill="none" stroke="#000000" stroke-miterlimit="10" x1="219.281" y1="30.001" x2="288.564" y2="150.001"/>
	<line fill="none" stroke="#000000" stroke-miterlimit="10" x1="288.564" y1="150.001" x2="219.281" y2="270.001"/>
	<line fill="none" stroke="#000000" stroke-miterlimit="10" x1="219.281" y1="270.001" x2="80.718" y2="270.001"/>
	<line fill="none" stroke="#000000" stroke-miterlimit="10" x1="80.718" y1="270.001" x2="11.437" y2="150.002"/>
</g>
</svg>
