<?xml version="1.0" encoding="utf-8"?>
<!-- generated by crease pattern Javascript library by Robby Kraft  -->
<svg version="1.1" xmlns="http://www.w3.org/2000/svg" x="0px" y="0px" width="600px" height="600px" viewBox="0 0 600 600">
<g id="valley">
	<line stroke="#4379FF" stroke-linecap="round" stroke-dasharray="6,6" stroke-width="3" x1="343.9362" y1="43.9362" x2="387.8718" y2="87.8718"/>
	<line stroke="#4379FF" stroke-linecap="round" stroke-dasharray="6,6" stroke-width="3" x1="256.0638" y1="43.9362" x2="212.1282" y2="87.8718"/>
	<line stroke="#4379FF" stroke-linecap="round" stroke-dasharray="6,6" stroke-width="3" x1="170.7108" y1="87.8718" x2="212.1282" y2="87.8718"/>
	<line stroke="#4379FF" stroke-linecap="round" stroke-dasharray="6,6" stroke-width="3" x1="170.7108" y1="43.9362" x2="170.7108" y2="0"/>
	<line stroke="#4379FF" stroke-linecap="round" stroke-dasharray="6,6" stroke-width="3" x1="170.7108" y1="129.2892" x2="170.7108" y2="87.8718"/>
	<line stroke="#4379FF" stroke-linecap="round" stroke-dasharray="6,6" stroke-width="3" x1="429.2892" y1="87.8718" x2="387.8718" y2="87.8718"/>
	<line stroke="#4379FF" stroke-linecap="round" stroke-dasharray="6,6" stroke-width="3" x1="429.2892" y1="43.9362" x2="429.2892" y2="0"/>
	<line stroke="#4379FF" stroke-linecap="round" stroke-dasharray="6,6" stroke-width="3" x1="429.2892" y1="129.2892" x2="429.2892" y2="87.8718"/>
	<line stroke="#4379FF" stroke-linecap="round" stroke-dasharray="6,6" stroke-width="3" x1="212.1282" y1="170.7072" x2="212.1282" y2="87.8718"/>
	<line stroke="#4379FF" stroke-linecap="round" stroke-dasharray="6,6" stroke-width="3" x1="387.8718" y1="170.7072" x2="387.8718" y2="87.8718"/>
	<line stroke="#4379FF" stroke-linecap="round" stroke-dasharray="6,6" stroke-width="3" x1="329.289" y1="529.2888" x2="270.711" y2="529.2888"/>
	<line stroke="#4379FF" stroke-linecap="round" stroke-dasharray="6,6" stroke-width="3" x1="300" y1="500.0004" x2="199.9998" y2="500.0004"/>
	<line stroke="#4379FF" stroke-linecap="round" stroke-dasharray="6,6" stroke-width="3" x1="300" y1="500.0004" x2="400.0002" y2="500.0004"/>
	<line stroke="#4379FF" stroke-linecap="round" stroke-dasharray="6,6" stroke-width="3" x1="129.288" y1="370.7124" x2="129.288" y2="399.9996"/>
	<line stroke="#4379FF" stroke-linecap="round" stroke-dasharray="6,6" stroke-width="3" x1="129.288" y1="370.7124" x2="199.9998" y2="300"/>
	<line stroke="#4379FF" stroke-linecap="round" stroke-dasharray="6,6" stroke-width="3" x1="129.288" y1="370.7124" x2="79.2882" y2="320.7096"/>
	<line stroke="#4379FF" stroke-linecap="round" stroke-dasharray="6,6" stroke-width="3" x1="470.712" y1="370.7124" x2="470.712" y2="399.9996"/>
	<line stroke="#4379FF" stroke-linecap="round" stroke-dasharray="6,6" stroke-width="3" x1="470.712" y1="370.7124" x2="400.0002" y2="300"/>
	<line stroke="#4379FF" stroke-linecap="round" stroke-dasharray="6,6" stroke-width="3" x1="470.712" y1="370.7124" x2="520.7118" y2="320.7096"/>
	<line stroke="#4379FF" stroke-linecap="round" stroke-dasharray="6,6" stroke-width="3" x1="70.2282" y1="240.942" x2="0" y2="287.8668"/>
	<line stroke="#4379FF" stroke-linecap="round" stroke-dasharray="6,6" stroke-width="3" x1="70.2282" y1="240.942" x2="129.288" y2="299.9994"/>
	<line stroke="#4379FF" stroke-linecap="round" stroke-dasharray="6,6" stroke-width="3" x1="529.7718" y1="240.942" x2="600" y2="287.8668"/>
	<line stroke="#4379FF" stroke-linecap="round" stroke-dasharray="6,6" stroke-width="3" x1="529.7718" y1="240.942" x2="470.712" y2="299.9994"/>
	<line stroke="#4379FF" stroke-linecap="round" stroke-dasharray="6,6" stroke-width="3" x1="435.3582" y1="285.3552" x2="387.8718" y2="170.7072"/>
	<line stroke="#4379FF" stroke-linecap="round" stroke-dasharray="6,6" stroke-width="3" x1="164.6418" y1="285.3552" x2="212.1282" y2="170.7072"/>
	<line stroke="#4379FF" stroke-linecap="round" stroke-dasharray="6,6" stroke-width="3" x1="300" y1="258.579" x2="387.8718" y2="170.7072"/>
	<line stroke="#4379FF" stroke-linecap="round" stroke-dasharray="6,6" stroke-width="3" x1="300" y1="258.579" x2="212.1282" y2="170.7072"/>
	<line stroke="#4379FF" stroke-linecap="round" stroke-dasharray="6,6" stroke-width="3" x1="343.9362" y1="152.508" x2="256.0638" y2="152.508"/>
	<line stroke="#4379FF" stroke-linecap="round" stroke-dasharray="6,6" stroke-width="3" x1="137.1084" y1="600" x2="129.288" y2="529.2888"/>
	<line stroke="#4379FF" stroke-linecap="round" stroke-dasharray="6,6" stroke-width="3" x1="300" y1="600" x2="199.9998" y2="500.0004"/>
	<line stroke="#4379FF" stroke-linecap="round" stroke-dasharray="6,6" stroke-width="3" x1="300" y1="600" x2="400.0002" y2="500.0004"/>
	<line stroke="#4379FF" stroke-linecap="round" stroke-dasharray="6,6" stroke-width="3" x1="462.89124" y1="600" x2="470.712" y2="529.2888"/>
	<line stroke="#4379FF" stroke-linecap="round" stroke-dasharray="6,6" stroke-width="3" x1="129.288" y1="470.712" x2="79.2882" y2="399.9996"/>
	<line stroke="#4379FF" stroke-linecap="round" stroke-dasharray="6,6" stroke-width="3" x1="129.288" y1="470.712" x2="199.9998" y2="399.9996"/>
	<line stroke="#4379FF" stroke-linecap="round" stroke-dasharray="6,6" stroke-width="3" x1="129.288" y1="470.712" x2="199.9998" y2="500.0004"/>
	<line stroke="#4379FF" stroke-linecap="round" stroke-dasharray="6,6" stroke-width="3" x1="129.288" y1="470.712" x2="0" y2="600"/>
	<line stroke="#4379FF" stroke-linecap="round" stroke-dasharray="6,6" stroke-width="3" x1="129.288" y1="470.712" x2="0" y2="456.0636"/>
	<line stroke="#4379FF" stroke-linecap="round" stroke-dasharray="6,6" stroke-width="3" x1="470.712" y1="470.712" x2="400.0002" y2="399.9996"/>
	<line stroke="#4379FF" stroke-linecap="round" stroke-dasharray="6,6" stroke-width="3" x1="470.712" y1="470.712" x2="520.7118" y2="399.9996"/>
	<line stroke="#4379FF" stroke-linecap="round" stroke-dasharray="6,6" stroke-width="3" x1="470.712" y1="470.712" x2="400.0002" y2="500.0004"/>
	<line stroke="#4379FF" stroke-linecap="round" stroke-dasharray="6,6" stroke-width="3" x1="470.712" y1="470.712" x2="600" y2="600"/>
	<line stroke="#4379FF" stroke-linecap="round" stroke-dasharray="6,6" stroke-width="3" x1="470.712" y1="470.712" x2="600" y2="456.0636"/>
	<line stroke="#4379FF" stroke-linecap="round" stroke-dasharray="6,6" stroke-width="3" x1="387.8718" y1="170.7072" x2="482.845991558696" y2="170.709061403272"/>
	<line stroke="#4379FF" stroke-linecap="round" stroke-dasharray="6,6" stroke-width="3" x1="482.845991558696" y1="170.709061403272" x2="529.7718" y2="240.942"/>
	<line stroke="#4379FF" stroke-linecap="round" stroke-dasharray="6,6" stroke-width="3" x1="482.845991558696" y1="170.709061403272" x2="510.524499446665" y2="129.2892"/>
	<line stroke="#4379FF" stroke-linecap="round" stroke-dasharray="6,6" stroke-width="3" x1="482.847636372743" y1="87.8718" x2="512.207267476352" y2="43.9362"/>
	<line stroke="#4379FF" stroke-linecap="round" stroke-dasharray="6,6" stroke-width="3" x1="429.2892" y1="87.8718" x2="482.847636372743" y2="87.8718"/>
	<line stroke="#4379FF" stroke-linecap="round" stroke-dasharray="6,6" stroke-width="3" x1="482.847636372743" y1="87.8718" x2="600" y2="87.8718"/>
	<line stroke="#4379FF" stroke-linecap="round" stroke-dasharray="6,6" stroke-width="3" x1="117.154008441304" y1="170.709061403272" x2="212.1282" y2="170.7072"/>
	<line stroke="#4379FF" stroke-linecap="round" stroke-dasharray="6,6" stroke-width="3" x1="70.2282" y1="240.942" x2="117.154008441304" y2="170.709061403272"/>
	<line stroke="#4379FF" stroke-linecap="round" stroke-dasharray="6,6" stroke-width="3" x1="117.154008441304" y1="170.709061403272" x2="89.475500553335" y2="129.2892"/>
	<line stroke="#4379FF" stroke-linecap="round" stroke-dasharray="6,6" stroke-width="3" x1="117.152363627257" y1="87.8718" x2="87.792732523648" y2="43.9362"/>
	<line stroke="#4379FF" stroke-linecap="round" stroke-dasharray="6,6" stroke-width="3" x1="0" y1="87.8718" x2="117.152363627257" y2="87.8718"/>
	<line stroke="#4379FF" stroke-linecap="round" stroke-dasharray="6,6" stroke-width="3" x1="117.152363627257" y1="87.8718" x2="170.7108" y2="87.8718"/>
</g>
<g id="mountain">
	<line stroke="#EE1032" stroke-width="3" x1="170.7108" y1="129.2892" x2="212.1282" y2="87.8718"/>
	<line stroke="#EE1032" stroke-width="3" x1="170.7108" y1="87.8718" x2="170.7108" y2="43.9362"/>
	<line stroke="#EE1032" stroke-width="3" x1="429.2892" y1="129.2892" x2="387.8718" y2="87.8718"/>
	<line stroke="#EE1032" stroke-width="3" x1="429.2892" y1="87.8718" x2="429.2892" y2="43.9362"/>
	<line stroke="#EE1032" stroke-width="3" x1="170.7108" y1="43.9362" x2="256.0638" y2="43.9362"/>
	<line stroke="#EE1032" stroke-width="3" x1="429.2892" y1="43.9362" x2="343.9362" y2="43.9362"/>
	<line stroke="#EE1032" stroke-width="3" x1="212.1282" y1="170.7072" x2="170.7108" y2="129.2892"/>
	<line stroke="#EE1032" stroke-width="3" x1="387.8718" y1="170.7072" x2="429.2892" y2="129.2892"/>
	<line stroke="#EE1032" stroke-width="3" x1="343.9362" y1="152.508" x2="343.9362" y2="43.9362"/>
	<line stroke="#EE1032" stroke-width="3" x1="256.0638" y1="152.508" x2="256.0638" y2="43.9362"/>
	<line stroke="#EE1032" stroke-width="3" x1="256.0638" y1="152.508" x2="212.1282" y2="170.7072"/>
	<line stroke="#EE1032" stroke-width="3" x1="343.9362" y1="152.508" x2="387.8718" y2="170.7072"/>
	<line stroke="#EE1032" stroke-width="3" x1="470.712" y1="399.9996" x2="400.0002" y2="399.9996"/>
	<line stroke="#EE1032" stroke-width="3" x1="199.9998" y1="399.9996" x2="199.9998" y2="300"/>
	<line stroke="#EE1032" stroke-width="3" x1="270.711" y1="529.2888" x2="199.9998" y2="500.0004"/>
	<line stroke="#EE1032" stroke-width="3" x1="329.289" y1="529.2888" x2="400.0002" y2="500.0004"/>
	<line stroke="#EE1032" stroke-width="3" x1="520.7118" y1="399.9996" x2="470.712" y2="399.9996"/>
	<line stroke="#EE1032" stroke-width="3" x1="400.0002" y1="399.9996" x2="400.0002" y2="300"/>
	<line stroke="#EE1032" stroke-width="3" x1="79.2882" y1="399.9996" x2="129.288" y2="399.9996"/>
	<line stroke="#EE1032" stroke-width="3" x1="199.9998" y1="399.9996" x2="129.288" y2="399.9996"/>
	<line stroke="#EE1032" stroke-width="3" x1="300" y1="500.0004" x2="199.9998" y2="399.9996"/>
	<line stroke="#EE1032" stroke-width="3" x1="300" y1="500.0004" x2="270.711" y2="529.2888"/>
	<line stroke="#EE1032" stroke-width="3" x1="300" y1="500.0004" x2="329.289" y2="529.2888"/>
	<line stroke="#EE1032" stroke-width="3" x1="79.2882" y1="320.7096" x2="79.2882" y2="399.9996"/>
	<line stroke="#EE1032" stroke-width="3" x1="129.288" y1="299.9994" x2="129.288" y2="370.7124"/>
	<line stroke="#EE1032" stroke-width="3" x1="129.288" y1="299.9994" x2="79.2882" y2="320.7096"/>
	<line stroke="#EE1032" stroke-width="3" x1="520.7118" y1="320.7096" x2="520.7118" y2="399.9996"/>
	<line stroke="#EE1032" stroke-width="3" x1="470.712" y1="370.7124" x2="470.712" y2="299.9994"/>
	<line stroke="#EE1032" stroke-width="3" x1="520.7118" y1="320.7096" x2="470.712" y2="299.9994"/>
	<line stroke="#EE1032" stroke-width="3" x1="0" y1="287.8668" x2="79.2882" y2="320.7096"/>
	<line stroke="#EE1032" stroke-width="3" x1="600" y1="287.8668" x2="520.7118" y2="320.7096"/>
	<line stroke="#EE1032" stroke-width="3" x1="164.6418" y1="285.3552" x2="199.9998" y2="300"/>
	<line stroke="#EE1032" stroke-width="3" x1="164.6418" y1="285.3552" x2="129.288" y2="299.9994"/>
	<line stroke="#EE1032" stroke-width="3" x1="435.3582" y1="285.3552" x2="400.0002" y2="300"/>
	<line stroke="#EE1032" stroke-width="3" x1="435.3582" y1="285.3552" x2="470.712" y2="299.9994"/>
	<line stroke="#EE1032" stroke-width="3" x1="300" y1="500.0004" x2="400.0002" y2="399.9996"/>
	<line stroke="#EE1032" stroke-width="3" x1="300" y1="0" x2="343.9362" y2="43.9362"/>
	<line stroke="#EE1032" stroke-width="3" x1="300" y1="0" x2="256.0638" y2="43.9362"/>
	<line stroke="#EE1032" stroke-width="3" x1="300" y1="258.579" x2="400.0002" y2="300"/>
	<line stroke="#EE1032" stroke-width="3" x1="300" y1="258.579" x2="343.9362" y2="152.508"/>
	<line stroke="#EE1032" stroke-width="3" x1="300" y1="258.579" x2="256.0638" y2="152.508"/>
	<line stroke="#EE1032" stroke-width="3" x1="300" y1="258.579" x2="199.9998" y2="300"/>
	<line stroke="#EE1032" stroke-width="3" x1="129.288" y1="529.2888" x2="0" y2="600"/>
	<line stroke="#EE1032" stroke-width="3" x1="300" y1="600" x2="270.711" y2="529.2888"/>
	<line stroke="#EE1032" stroke-width="3" x1="300" y1="600" x2="329.289" y2="529.2888"/>
	<line stroke="#EE1032" stroke-width="3" x1="300" y1="600" x2="129.288" y2="529.2888"/>
	<line stroke="#EE1032" stroke-width="3" x1="470.712" y1="529.2888" x2="300" y2="600"/>
	<line stroke="#EE1032" stroke-width="3" x1="470.712" y1="529.2888" x2="600" y2="600"/>
	<line stroke="#EE1032" stroke-width="3" x1="600" y1="456.0636" x2="520.7118" y2="399.9996"/>
	<line stroke="#EE1032" stroke-width="3" x1="0" y1="456.0636" x2="79.2882" y2="399.9996"/>
	<line stroke="#EE1032" stroke-width="3" x1="129.288" y1="470.712" x2="129.288" y2="399.9996"/>
	<line stroke="#EE1032" stroke-width="3" x1="129.288" y1="470.712" x2="129.288" y2="529.2888"/>
	<line stroke="#EE1032" stroke-width="3" x1="129.288" y1="470.712" x2="0" y2="533.514"/>
	<line stroke="#EE1032" stroke-width="3" x1="470.712" y1="470.712" x2="470.712" y2="399.9996"/>
	<line stroke="#EE1032" stroke-width="3" x1="470.712" y1="470.712" x2="470.712" y2="529.2888"/>
	<line stroke="#EE1032" stroke-width="3" x1="600" y1="533.514" x2="470.712" y2="470.712"/>
	<line stroke="#EE1032" stroke-width="3" x1="529.7718" y1="240.942" x2="600" y2="170.7072"/>
	<line stroke="#EE1032" stroke-width="3" x1="435.3582" y1="285.3552" x2="482.845991558696" y2="170.709061403272"/>
	<line stroke="#EE1032" stroke-width="3" x1="510.524499446665" y1="129.2892" x2="482.847636372743" y2="87.8718"/>
	<line stroke="#EE1032" stroke-width="3" x1="512.207267476352" y1="43.9362" x2="482.847235427299" y2="0"/>
	<line stroke="#EE1032" stroke-width="3" x1="429.2892" y1="129.2892" x2="510.524499446665" y2="129.2892"/>
	<line stroke="#EE1032" stroke-width="3" x1="510.524499446665" y1="129.2892" x2="600" y2="129.2892"/>
	<line stroke="#EE1032" stroke-width="3" x1="429.2892" y1="43.9362" x2="512.207267476352" y2="43.9362"/>
	<line stroke="#EE1032" stroke-width="3" x1="512.207267476352" y1="43.9362" x2="600" y2="43.9362"/>
	<line stroke="#EE1032" stroke-width="3" x1="70.2282" y1="240.942" x2="0" y2="170.7072"/>
	<line stroke="#EE1032" stroke-width="3" x1="164.6418" y1="285.3552" x2="117.154008441304" y2="170.709061403272"/>
	<line stroke="#EE1032" stroke-width="3" x1="89.475500553335" y1="129.2892" x2="117.152363627257" y2="87.8718"/>
	<line stroke="#EE1032" stroke-width="3" x1="87.792732523648" y1="43.9362" x2="117.152764572701" y2="0"/>
	<line stroke="#EE1032" stroke-width="3" x1="0" y1="129.2892" x2="89.475500553335" y2="129.2892"/>
	<line stroke="#EE1032" stroke-width="3" x1="89.475500553335" y1="129.2892" x2="170.7108" y2="129.2892"/>
	<line stroke="#EE1032" stroke-width="3" x1="0" y1="43.9362" x2="87.792732523648" y2="43.9362"/>
	<line stroke="#EE1032" stroke-width="3" x1="87.792732523648" y1="43.9362" x2="170.7108" y2="43.9362"/>
</g>
<g id="boundary">
	<line stroke="#000000" stroke-width="3" x1="600" y1="87.8718" x2="600" y2="129.2892"/>
	<line stroke="#000000" stroke-width="3" x1="600" y1="43.9362" x2="600" y2="0"/>
	<line stroke="#000000" stroke-width="3" x1="600" y1="43.9362" x2="600" y2="87.8718"/>
	<line stroke="#000000" stroke-width="3" x1="0" y1="87.8718" x2="0" y2="129.2892"/>
	<line stroke="#000000" stroke-width="3" x1="0" y1="43.9362" x2="0" y2="87.8718"/>
	<line stroke="#000000" stroke-width="3" x1="0" y1="170.7072" x2="0" y2="129.2892"/>
	<line stroke="#000000" stroke-width="3" x1="600" y1="170.7072" x2="600" y2="129.2892"/>
	<line stroke="#000000" stroke-width="3" x1="0" y1="43.9362" x2="0" y2="0"/>
	<line stroke="#000000" stroke-width="3" x1="300" y1="0" x2="170.7108" y2="0"/>
	<line stroke="#000000" stroke-width="3" x1="300" y1="0" x2="429.2892" y2="0"/>
	<line stroke="#000000" stroke-width="3" x1="137.1084" y1="600" x2="0" y2="600"/>
	<line stroke="#000000" stroke-width="3" x1="300" y1="600" x2="137.1084" y2="600"/>
	<line stroke="#000000" stroke-width="3" x1="462.89124" y1="600" x2="300" y2="600"/>
	<line stroke="#000000" stroke-width="3" x1="462.89124" y1="600" x2="600" y2="600"/>
	<line stroke="#000000" stroke-width="3" x1="600" y1="456.0636" x2="600" y2="287.8668"/>
	<line stroke="#000000" stroke-width="3" x1="0" y1="456.0636" x2="0" y2="287.8668"/>
	<line stroke="#000000" stroke-width="3" x1="0" y1="533.514" x2="0" y2="600"/>
	<line stroke="#000000" stroke-width="3" x1="0" y1="533.514" x2="0" y2="456.0636"/>
	<line stroke="#000000" stroke-width="3" x1="600" y1="533.514" x2="600" y2="600"/>
	<line stroke="#000000" stroke-width="3" x1="600" y1="533.514" x2="600" y2="456.0636"/>
	<line stroke="#000000" stroke-width="3" x1="600" y1="287.8668" x2="600" y2="170.7072"/>
	<line stroke="#000000" stroke-width="3" x1="429.2892" y1="0" x2="482.847235427299" y2="0"/>
	<line stroke="#000000" stroke-width="3" x1="482.847235427299" y1="0" x2="600" y2="0"/>
	<line stroke="#000000" stroke-width="3" x1="0" y1="287.8668" x2="0" y2="170.7072"/>
	<line stroke="#000000" stroke-width="3" x1="0" y1="0" x2="117.152764572701" y2="0"/>
	<line stroke="#000000" stroke-width="3" x1="117.152764572701" y1="0" x2="170.7108" y2="0"/>
</g>
</svg>
