<?xml version="1.0" encoding="utf-8"?>
<!-- generated by crease pattern Javascript library by Robby Kraft  -->
<svg version="1.1" xmlns="http://www.w3.org/2000/svg" x="0px" y="0px" width="600px" height="519.6152422706623px" viewBox="0 0 600 519.6152422706623">
<g id="valley">
	<line stroke="#4379FF" stroke-linecap="round" stroke-dasharray="6,6" stroke-width="3" x1="350" y1="0" x2="325" y2="43.301270189222"/>
	<line stroke="#4379FF" stroke-linecap="round" stroke-dasharray="6,6" stroke-width="3" x1="375" y1="43.301270189222" x2="350" y2="86.602540378444"/>
	<line stroke="#4379FF" stroke-linecap="round" stroke-dasharray="6,6" stroke-width="3" x1="450" y1="86.602540378444" x2="425" y2="129.903810567666"/>
	<line stroke="#4379FF" stroke-linecap="round" stroke-dasharray="6,6" stroke-width="3" x1="500" y1="86.602540378444" x2="475" y2="129.903810567666"/>
	<line stroke="#4379FF" stroke-linecap="round" stroke-dasharray="6,6" stroke-width="3" x1="125" y1="216.506350946109" x2="175" y2="129.903810567666"/>
	<line stroke="#4379FF" stroke-linecap="round" stroke-dasharray="6,6" stroke-width="3" x1="250" y1="173.205080756887" x2="225" y2="216.506350946109"/>
	<line stroke="#4379FF" stroke-linecap="round" stroke-dasharray="6,6" stroke-width="3" x1="300" y1="173.205080756887" x2="275" y2="216.506350946109"/>
	<line stroke="#4379FF" stroke-linecap="round" stroke-dasharray="6,6" stroke-width="3" x1="375" y1="216.506350946109" x2="425" y2="129.903810567666"/>
	<line stroke="#4379FF" stroke-linecap="round" stroke-dasharray="6,6" stroke-width="3" x1="125" y1="216.506350946109" x2="100" y2="259.807621135331"/>
	<line stroke="#4379FF" stroke-linecap="round" stroke-dasharray="6,6" stroke-width="3" x1="475" y1="216.506350946109" x2="450" y2="259.807621135331"/>
	<line stroke="#4379FF" stroke-linecap="round" stroke-dasharray="6,6" stroke-width="3" x1="150" y1="259.807621135331" x2="125" y2="303.108891324553"/>
	<line stroke="#4379FF" stroke-linecap="round" stroke-dasharray="6,6" stroke-width="3" x1="500" y1="259.807621135331" x2="475" y2="303.108891324553"/>
	<line stroke="#4379FF" stroke-linecap="round" stroke-dasharray="6,6" stroke-width="3" x1="325" y1="303.108891324553" x2="300" y2="346.410161513775"/>
	<line stroke="#4379FF" stroke-linecap="round" stroke-dasharray="6,6" stroke-width="3" x1="375" y1="303.108891324553" x2="350" y2="346.410161513775"/>
	<line stroke="#4379FF" stroke-linecap="round" stroke-dasharray="6,6" stroke-width="3" x1="125" y1="389.711431702997" x2="100" y2="433.012701892219"/>
	<line stroke="#4379FF" stroke-linecap="round" stroke-dasharray="6,6" stroke-width="3" x1="175" y1="389.711431702997" x2="225" y2="303.108891324553"/>
	<line stroke="#4379FF" stroke-linecap="round" stroke-dasharray="6,6" stroke-width="3" x1="425" y1="389.711431702997" x2="475" y2="303.108891324553"/>
	<line stroke="#4379FF" stroke-linecap="round" stroke-dasharray="6,6" stroke-width="3" x1="175" y1="389.711431702997" x2="150" y2="433.012701892219"/>
	<line stroke="#4379FF" stroke-linecap="round" stroke-dasharray="6,6" stroke-width="3" x1="250" y1="433.012701892219" x2="225" y2="476.31397208144"/>
	<line stroke="#4379FF" stroke-linecap="round" stroke-dasharray="6,6" stroke-width="3" x1="275" y1="476.31397208144" x2="250" y2="519.615242270662"/>
	<line stroke="#4379FF" stroke-linecap="round" stroke-dasharray="6,6" stroke-width="3" x1="50" y1="173.205080756887" x2="100" y2="173.205080756887"/>
	<line stroke="#4379FF" stroke-linecap="round" stroke-dasharray="6,6" stroke-width="3" x1="75" y1="216.506350946109" x2="125" y2="216.506350946109"/>
	<line stroke="#4379FF" stroke-linecap="round" stroke-dasharray="6,6" stroke-width="3" x1="50" y1="346.410161513775" x2="100" y2="346.410161513775"/>
	<line stroke="#4379FF" stroke-linecap="round" stroke-dasharray="6,6" stroke-width="3" x1="75" y1="303.108891324553" x2="125" y2="303.108891324553"/>
	<line stroke="#4379FF" stroke-linecap="round" stroke-dasharray="6,6" stroke-width="3" x1="125" y1="216.506350946109" x2="225" y2="216.506350946109"/>
	<line stroke="#4379FF" stroke-linecap="round" stroke-dasharray="6,6" stroke-width="3" x1="175" y1="129.903810567666" x2="225" y2="129.903810567666"/>
	<line stroke="#4379FF" stroke-linecap="round" stroke-dasharray="6,6" stroke-width="3" x1="200" y1="86.602540378444" x2="250" y2="86.602540378444"/>
	<line stroke="#4379FF" stroke-linecap="round" stroke-dasharray="6,6" stroke-width="3" x1="250" y1="86.602540378444" x2="350" y2="86.602540378444"/>
	<line stroke="#4379FF" stroke-linecap="round" stroke-dasharray="6,6" stroke-width="3" x1="225" y1="303.108891324553" x2="275" y2="303.108891324553"/>
	<line stroke="#4379FF" stroke-linecap="round" stroke-dasharray="6,6" stroke-width="3" x1="300" y1="173.205080756887" x2="350" y2="173.205080756887"/>
	<line stroke="#4379FF" stroke-linecap="round" stroke-dasharray="6,6" stroke-width="3" x1="250" y1="346.410161513775" x2="300" y2="346.410161513775"/>
	<line stroke="#4379FF" stroke-linecap="round" stroke-dasharray="6,6" stroke-width="3" x1="325" y1="216.506350946109" x2="375" y2="216.506350946109"/>
	<line stroke="#4379FF" stroke-linecap="round" stroke-dasharray="6,6" stroke-width="3" x1="250" y1="433.012701892219" x2="350" y2="433.012701892219"/>
	<line stroke="#4379FF" stroke-linecap="round" stroke-dasharray="6,6" stroke-width="3" x1="375" y1="303.108891324553" x2="475" y2="303.108891324553"/>
	<line stroke="#4379FF" stroke-linecap="round" stroke-dasharray="6,6" stroke-width="3" x1="500" y1="173.205080756887" x2="550" y2="173.205080756887"/>
	<line stroke="#4379FF" stroke-linecap="round" stroke-dasharray="6,6" stroke-width="3" x1="350" y1="433.012701892219" x2="400" y2="433.012701892219"/>
	<line stroke="#4379FF" stroke-linecap="round" stroke-dasharray="6,6" stroke-width="3" x1="375" y1="389.711431702997" x2="425" y2="389.711431702997"/>
	<line stroke="#4379FF" stroke-linecap="round" stroke-dasharray="6,6" stroke-width="3" x1="475" y1="216.506350946109" x2="525" y2="216.506350946109"/>
	<line stroke="#4379FF" stroke-linecap="round" stroke-dasharray="6,6" stroke-width="3" x1="500" y1="346.410161513775" x2="550" y2="346.410161513775"/>
	<line stroke="#4379FF" stroke-linecap="round" stroke-dasharray="6,6" stroke-width="3" x1="475" y1="303.108891324553" x2="525" y2="303.108891324553"/>
	<line stroke="#4379FF" stroke-linecap="round" stroke-dasharray="6,6" stroke-width="3" x1="400" y1="86.602540378444" x2="425" y2="129.903810567666"/>
	<line stroke="#4379FF" stroke-linecap="round" stroke-dasharray="6,6" stroke-width="3" x1="475" y1="216.506350946109" x2="425" y2="129.903810567666"/>
	<line stroke="#4379FF" stroke-linecap="round" stroke-dasharray="6,6" stroke-width="3" x1="350" y1="86.602540378444" x2="375" y2="129.903810567666"/>
	<line stroke="#4379FF" stroke-linecap="round" stroke-dasharray="6,6" stroke-width="3" x1="250" y1="0" x2="275" y2="43.301270189222"/>
	<line stroke="#4379FF" stroke-linecap="round" stroke-dasharray="6,6" stroke-width="3" x1="375" y1="216.506350946109" x2="400" y2="259.807621135331"/>
	<line stroke="#4379FF" stroke-linecap="round" stroke-dasharray="6,6" stroke-width="3" x1="475" y1="389.711431702997" x2="500" y2="433.012701892219"/>
	<line stroke="#4379FF" stroke-linecap="round" stroke-dasharray="6,6" stroke-width="3" x1="225" y1="43.301270189222" x2="250" y2="86.602540378444"/>
	<line stroke="#4379FF" stroke-linecap="round" stroke-dasharray="6,6" stroke-width="3" x1="300" y1="173.205080756887" x2="250" y2="86.602540378444"/>
	<line stroke="#4379FF" stroke-linecap="round" stroke-dasharray="6,6" stroke-width="3" x1="350" y1="259.807621135331" x2="375" y2="303.108891324553"/>
	<line stroke="#4379FF" stroke-linecap="round" stroke-dasharray="6,6" stroke-width="3" x1="425" y1="389.711431702997" x2="450" y2="433.012701892219"/>
	<line stroke="#4379FF" stroke-linecap="round" stroke-dasharray="6,6" stroke-width="3" x1="150" y1="86.602540378444" x2="175" y2="129.903810567666"/>
	<line stroke="#4379FF" stroke-linecap="round" stroke-dasharray="6,6" stroke-width="3" x1="225" y1="216.506350946109" x2="250" y2="259.807621135331"/>
	<line stroke="#4379FF" stroke-linecap="round" stroke-dasharray="6,6" stroke-width="3" x1="350" y1="433.012701892219" x2="300" y2="346.410161513775"/>
	<line stroke="#4379FF" stroke-linecap="round" stroke-dasharray="6,6" stroke-width="3" x1="350" y1="433.012701892219" x2="375" y2="476.31397208144"/>
	<line stroke="#4379FF" stroke-linecap="round" stroke-dasharray="6,6" stroke-width="3" x1="100" y1="86.602540378444" x2="125" y2="129.903810567666"/>
	<line stroke="#4379FF" stroke-linecap="round" stroke-dasharray="6,6" stroke-width="3" x1="200" y1="259.807621135331" x2="225" y2="303.108891324553"/>
	<line stroke="#4379FF" stroke-linecap="round" stroke-dasharray="6,6" stroke-width="3" x1="325" y1="476.31397208144" x2="350" y2="519.615242270662"/>
	<line stroke="#4379FF" stroke-linecap="round" stroke-dasharray="6,6" stroke-width="3" x1="225" y1="389.711431702997" x2="250" y2="433.012701892219"/>
	<line stroke="#4379FF" stroke-linecap="round" stroke-dasharray="6,6" stroke-width="3" x1="175" y1="389.711431702997" x2="125" y2="303.108891324553"/>
	<line stroke="#4379FF" stroke-linecap="round" stroke-dasharray="6,6" stroke-width="3" x1="175" y1="389.711431702997" x2="200" y2="433.012701892219"/>
</g>
<g id="mountain">
	<line stroke="#EE1032" stroke-width="3" x1="400" y1="0" x2="375" y2="43.301270189222"/>
	<line stroke="#EE1032" stroke-width="3" x1="225" y1="43.301270189222" x2="200" y2="86.602540378444"/>
	<line stroke="#EE1032" stroke-width="3" x1="275" y1="43.301270189222" x2="250" y2="86.602540378444"/>
	<line stroke="#EE1032" stroke-width="3" x1="475" y1="43.301270189222" x2="450" y2="86.602540378444"/>
	<line stroke="#EE1032" stroke-width="3" x1="150" y1="86.602540378444" x2="125" y2="129.903810567666"/>
	<line stroke="#EE1032" stroke-width="3" x1="250" y1="86.602540378444" x2="225" y2="129.903810567666"/>
	<line stroke="#EE1032" stroke-width="3" x1="400" y1="86.602540378444" x2="375" y2="129.903810567666"/>
	<line stroke="#EE1032" stroke-width="3" x1="125" y1="129.903810567666" x2="100" y2="173.205080756887"/>
	<line stroke="#EE1032" stroke-width="3" x1="375" y1="129.903810567666" x2="350" y2="173.205080756887"/>
	<line stroke="#EE1032" stroke-width="3" x1="100" y1="173.205080756887" x2="75" y2="216.506350946109"/>
	<line stroke="#EE1032" stroke-width="3" x1="350" y1="173.205080756887" x2="325" y2="216.506350946109"/>
	<line stroke="#EE1032" stroke-width="3" x1="500" y1="173.205080756887" x2="475" y2="216.506350946109"/>
	<line stroke="#EE1032" stroke-width="3" x1="225" y1="216.506350946109" x2="200" y2="259.807621135331"/>
	<line stroke="#EE1032" stroke-width="3" x1="275" y1="216.506350946109" x2="250" y2="259.807621135331"/>
	<line stroke="#EE1032" stroke-width="3" x1="525" y1="216.506350946109" x2="500" y2="259.807621135331"/>
	<line stroke="#EE1032" stroke-width="3" x1="100" y1="259.807621135331" x2="75" y2="303.108891324553"/>
	<line stroke="#EE1032" stroke-width="3" x1="350" y1="259.807621135331" x2="325" y2="303.108891324553"/>
	<line stroke="#EE1032" stroke-width="3" x1="400" y1="259.807621135331" x2="375" y2="303.108891324553"/>
	<line stroke="#EE1032" stroke-width="3" x1="125" y1="303.108891324553" x2="100" y2="346.410161513775"/>
	<line stroke="#EE1032" stroke-width="3" x1="275" y1="303.108891324553" x2="250" y2="346.410161513775"/>
	<line stroke="#EE1032" stroke-width="3" x1="525" y1="303.108891324553" x2="500" y2="346.410161513775"/>
	<line stroke="#EE1032" stroke-width="3" x1="250" y1="346.410161513775" x2="225" y2="389.711431702997"/>
	<line stroke="#EE1032" stroke-width="3" x1="500" y1="346.410161513775" x2="475" y2="389.711431702997"/>
	<line stroke="#EE1032" stroke-width="3" x1="150" y1="433.012701892219" x2="125" y2="476.31397208144"/>
	<line stroke="#EE1032" stroke-width="3" x1="225" y1="389.711431702997" x2="200" y2="433.012701892219"/>
	<line stroke="#EE1032" stroke-width="3" x1="375" y1="389.711431702997" x2="350" y2="433.012701892219"/>
	<line stroke="#EE1032" stroke-width="3" x1="475" y1="389.711431702997" x2="450" y2="433.012701892219"/>
	<line stroke="#EE1032" stroke-width="3" x1="225" y1="476.31397208144" x2="200" y2="519.615242270662"/>
	<line stroke="#EE1032" stroke-width="3" x1="350" y1="433.012701892219" x2="325" y2="476.31397208144"/>
	<line stroke="#EE1032" stroke-width="3" x1="400" y1="433.012701892219" x2="375" y2="476.31397208144"/>
	<line stroke="#EE1032" stroke-width="3" x1="25" y1="216.506350946109" x2="75" y2="216.506350946109"/>
	<line stroke="#EE1032" stroke-width="3" x1="25" y1="303.108891324553" x2="75" y2="303.108891324553"/>
	<line stroke="#EE1032" stroke-width="3" x1="125" y1="129.903810567666" x2="175" y2="129.903810567666"/>
	<line stroke="#EE1032" stroke-width="3" x1="150" y1="86.602540378444" x2="200" y2="86.602540378444"/>
	<line stroke="#EE1032" stroke-width="3" x1="100" y1="259.807621135331" x2="150" y2="259.807621135331"/>
	<line stroke="#EE1032" stroke-width="3" x1="225" y1="43.301270189222" x2="275" y2="43.301270189222"/>
	<line stroke="#EE1032" stroke-width="3" x1="150" y1="259.807621135331" x2="200" y2="259.807621135331"/>
	<line stroke="#EE1032" stroke-width="3" x1="275" y1="43.301270189222" x2="325" y2="43.301270189222"/>
	<line stroke="#EE1032" stroke-width="3" x1="125" y1="389.711431702997" x2="175" y2="389.711431702997"/>
	<line stroke="#EE1032" stroke-width="3" x1="200" y1="259.807621135331" x2="250" y2="259.807621135331"/>
	<line stroke="#EE1032" stroke-width="3" x1="250" y1="173.205080756887" x2="300" y2="173.205080756887"/>
	<line stroke="#EE1032" stroke-width="3" x1="325" y1="43.301270189222" x2="375" y2="43.301270189222"/>
	<line stroke="#EE1032" stroke-width="3" x1="150" y1="433.012701892219" x2="200" y2="433.012701892219"/>
	<line stroke="#EE1032" stroke-width="3" x1="175" y1="389.711431702997" x2="225" y2="389.711431702997"/>
	<line stroke="#EE1032" stroke-width="3" x1="275" y1="216.506350946109" x2="325" y2="216.506350946109"/>
	<line stroke="#EE1032" stroke-width="3" x1="275" y1="303.108891324553" x2="325" y2="303.108891324553"/>
	<line stroke="#EE1032" stroke-width="3" x1="375" y1="129.903810567666" x2="425" y2="129.903810567666"/>
	<line stroke="#EE1032" stroke-width="3" x1="400" y1="86.602540378444" x2="450" y2="86.602540378444"/>
	<line stroke="#EE1032" stroke-width="3" x1="225" y1="476.31397208144" x2="275" y2="476.31397208144"/>
	<line stroke="#EE1032" stroke-width="3" x1="300" y1="346.410161513775" x2="350" y2="346.410161513775"/>
	<line stroke="#EE1032" stroke-width="3" x1="350" y1="259.807621135331" x2="400" y2="259.807621135331"/>
	<line stroke="#EE1032" stroke-width="3" x1="425" y1="129.903810567666" x2="475" y2="129.903810567666"/>
	<line stroke="#EE1032" stroke-width="3" x1="275" y1="476.31397208144" x2="325" y2="476.31397208144"/>
	<line stroke="#EE1032" stroke-width="3" x1="400" y1="259.807621135331" x2="450" y2="259.807621135331"/>
	<line stroke="#EE1032" stroke-width="3" x1="325" y1="476.31397208144" x2="375" y2="476.31397208144"/>
	<line stroke="#EE1032" stroke-width="3" x1="450" y1="259.807621135331" x2="500" y2="259.807621135331"/>
	<line stroke="#EE1032" stroke-width="3" x1="525" y1="216.506350946109" x2="575" y2="216.506350946109"/>
	<line stroke="#EE1032" stroke-width="3" x1="400" y1="433.012701892219" x2="450" y2="433.012701892219"/>
	<line stroke="#EE1032" stroke-width="3" x1="425" y1="389.711431702997" x2="475" y2="389.711431702997"/>
	<line stroke="#EE1032" stroke-width="3" x1="525" y1="303.108891324553" x2="575" y2="303.108891324553"/>
	<line stroke="#EE1032" stroke-width="3" x1="450" y1="86.602540378444" x2="475" y2="129.903810567666"/>
	<line stroke="#EE1032" stroke-width="3" x1="475" y1="129.903810567666" x2="500" y2="173.205080756887"/>
	<line stroke="#EE1032" stroke-width="3" x1="500" y1="173.205080756887" x2="525" y2="216.506350946109"/>
	<line stroke="#EE1032" stroke-width="3" x1="375" y1="43.301270189222" x2="400" y2="86.602540378444"/>
	<line stroke="#EE1032" stroke-width="3" x1="500" y1="259.807621135331" x2="525" y2="303.108891324553"/>
	<line stroke="#EE1032" stroke-width="3" x1="325" y1="43.301270189222" x2="350" y2="86.602540378444"/>
	<line stroke="#EE1032" stroke-width="3" x1="450" y1="259.807621135331" x2="475" y2="303.108891324553"/>
	<line stroke="#EE1032" stroke-width="3" x1="475" y1="303.108891324553" x2="500" y2="346.410161513775"/>
	<line stroke="#EE1032" stroke-width="3" x1="350" y1="173.205080756887" x2="375" y2="216.506350946109"/>
	<line stroke="#EE1032" stroke-width="3" x1="200" y1="0" x2="225" y2="43.301270189222"/>
	<line stroke="#EE1032" stroke-width="3" x1="325" y1="216.506350946109" x2="350" y2="259.807621135331"/>
	<line stroke="#EE1032" stroke-width="3" x1="450" y1="433.012701892219" x2="475" y2="476.31397208144"/>
	<line stroke="#EE1032" stroke-width="3" x1="200" y1="86.602540378444" x2="225" y2="129.903810567666"/>
	<line stroke="#EE1032" stroke-width="3" x1="225" y1="129.903810567666" x2="250" y2="173.205080756887"/>
	<line stroke="#EE1032" stroke-width="3" x1="250" y1="173.205080756887" x2="275" y2="216.506350946109"/>
	<line stroke="#EE1032" stroke-width="3" x1="325" y1="303.108891324553" x2="350" y2="346.410161513775"/>
	<line stroke="#EE1032" stroke-width="3" x1="350" y1="346.410161513775" x2="375" y2="389.711431702997"/>
	<line stroke="#EE1032" stroke-width="3" x1="375" y1="389.711431702997" x2="400" y2="433.012701892219"/>
	<line stroke="#EE1032" stroke-width="3" x1="125" y1="43.301270189222" x2="150" y2="86.602540378444"/>
	<line stroke="#EE1032" stroke-width="3" x1="250" y1="259.807621135331" x2="275" y2="303.108891324553"/>
	<line stroke="#EE1032" stroke-width="3" x1="375" y1="476.31397208144" x2="400" y2="519.615242270662"/>
	<line stroke="#EE1032" stroke-width="3" x1="225" y1="303.108891324553" x2="250" y2="346.410161513775"/>
	<line stroke="#EE1032" stroke-width="3" x1="100" y1="173.205080756887" x2="125" y2="216.506350946109"/>
	<line stroke="#EE1032" stroke-width="3" x1="125" y1="216.506350946109" x2="150" y2="259.807621135331"/>
	<line stroke="#EE1032" stroke-width="3" x1="250" y1="433.012701892219" x2="275" y2="476.31397208144"/>
	<line stroke="#EE1032" stroke-width="3" x1="75" y1="216.506350946109" x2="100" y2="259.807621135331"/>
	<line stroke="#EE1032" stroke-width="3" x1="200" y1="433.012701892219" x2="225" y2="476.31397208144"/>
	<line stroke="#EE1032" stroke-width="3" x1="75" y1="303.108891324553" x2="100" y2="346.410161513775"/>
	<line stroke="#EE1032" stroke-width="3" x1="100" y1="346.410161513775" x2="125" y2="389.711431702997"/>
	<line stroke="#EE1032" stroke-width="3" x1="125" y1="389.711431702997" x2="150" y2="433.012701892219"/>
</g>
<g id="boundary">
	<line stroke="#000000" stroke-width="3" x1="450" y1="0" x2="475" y2="43.301270189222"/>
	<line stroke="#000000" stroke-width="3" x1="475" y1="43.301270189222" x2="500" y2="86.602540378444"/>
	<line stroke="#000000" stroke-width="3" x1="550" y1="173.205080756887" x2="500" y2="86.602540378444"/>
	<line stroke="#000000" stroke-width="3" x1="550" y1="173.205080756887" x2="575" y2="216.506350946109"/>
	<line stroke="#000000" stroke-width="3" x1="575" y1="216.506350946109" x2="600" y2="259.807621135331"/>
	<line stroke="#000000" stroke-width="3" x1="450" y1="519.615242270662" x2="475" y2="476.31397208144"/>
	<line stroke="#000000" stroke-width="3" x1="475" y1="476.31397208144" x2="500" y2="433.012701892219"/>
	<line stroke="#000000" stroke-width="3" x1="500" y1="433.012701892219" x2="550" y2="346.410161513775"/>
	<line stroke="#000000" stroke-width="3" x1="550" y1="346.410161513775" x2="575" y2="303.108891324553"/>
	<line stroke="#000000" stroke-width="3" x1="575" y1="303.108891324553" x2="600" y2="259.807621135331"/>
	<line stroke="#000000" stroke-width="3" x1="0" y1="259.807621135331" x2="25" y2="303.108891324553"/>
	<line stroke="#000000" stroke-width="3" x1="25" y1="303.108891324553" x2="50" y2="346.410161513775"/>
	<line stroke="#000000" stroke-width="3" x1="100" y1="433.012701892219" x2="50" y2="346.410161513775"/>
	<line stroke="#000000" stroke-width="3" x1="100" y1="433.012701892219" x2="125" y2="476.31397208144"/>
	<line stroke="#000000" stroke-width="3" x1="125" y1="476.31397208144" x2="150" y2="519.615242270662"/>
	<line stroke="#000000" stroke-width="3" x1="0" y1="259.807621135331" x2="25" y2="216.506350946109"/>
	<line stroke="#000000" stroke-width="3" x1="25" y1="216.506350946109" x2="50" y2="173.205080756887"/>
	<line stroke="#000000" stroke-width="3" x1="50" y1="173.205080756887" x2="100" y2="86.602540378444"/>
	<line stroke="#000000" stroke-width="3" x1="100" y1="86.602540378444" x2="125" y2="43.301270189222"/>
	<line stroke="#000000" stroke-width="3" x1="125" y1="43.301270189222" x2="150" y2="0"/>
	<line stroke="#000000" stroke-width="3" x1="150" y1="0" x2="200" y2="0"/>
	<line stroke="#000000" stroke-width="3" x1="200" y1="0" x2="250" y2="0"/>
	<line stroke="#000000" stroke-width="3" x1="250" y1="0" x2="350" y2="0"/>
	<line stroke="#000000" stroke-width="3" x1="350" y1="0" x2="400" y2="0"/>
	<line stroke="#000000" stroke-width="3" x1="400" y1="0" x2="450" y2="0"/>
	<line stroke="#000000" stroke-width="3" x1="150" y1="519.615242270662" x2="200" y2="519.615242270662"/>
	<line stroke="#000000" stroke-width="3" x1="200" y1="519.615242270662" x2="250" y2="519.615242270662"/>
	<line stroke="#000000" stroke-width="3" x1="250" y1="519.615242270662" x2="350" y2="519.615242270662"/>
	<line stroke="#000000" stroke-width="3" x1="350" y1="519.615242270662" x2="400" y2="519.615242270662"/>
	<line stroke="#000000" stroke-width="3" x1="400" y1="519.615242270662" x2="450" y2="519.615242270662"/>
</g>
</svg>
