<?xml version="1.0" encoding="utf-8"?>
<!-- Generator: Adobe Illustrator 22.1.0, SVG Export Plug-In . SVG Version: 6.00 Build 0)  -->
<svg version="1.1" id="Layer_1" xmlns="http://www.w3.org/2000/svg" xmlns:xlink="http://www.w3.org/1999/xlink" x="0px" y="0px"
	 viewBox="0 0 498 498" style="enable-background:new 0 0 498 498;" xml:space="preserve">
<style type="text/css">
	.st0{fill:none;stroke:#231F20;stroke-width:0.7;stroke-linecap:round;stroke-linejoin:round;stroke-miterlimit:3.864;}
	
		.st1{fill:none;stroke:#0088A5;stroke-width:0.7;stroke-linecap:round;stroke-linejoin:round;stroke-miterlimit:3.864;stroke-dasharray:2,2;}
</style>
<rect x="1.2" y="1.3" class="st0" width="495.5" height="495.5"/>
<line class="st1" x1="411.4" y1="86.6" x2="411.4" y2="1.6"/>
<line class="st1" x1="429" y1="43.1" x2="429" y2="18.8"/>
<line class="st1" x1="453.9" y1="18.3" x2="429" y2="18.3"/>
<line class="st1" x1="440.9" y1="31.2" x2="453.4" y2="43.6"/>
<line class="st1" x1="411.2" y1="1.6" x2="428.5" y2="18.8"/>
<line class="st1" x1="453.8" y1="44.1" x2="496.7" y2="1.3"/>
<line class="st1" x1="393.7" y1="43.1" x2="393.7" y2="18.8"/>
<line class="st1" x1="368.8" y1="18.3" x2="393.7" y2="18.3"/>
<line class="st1" x1="411.5" y1="1.6" x2="394.2" y2="18.8"/>
<line class="st1" x1="368.9" y1="44.1" x2="326" y2="1.3"/>
<line class="st1" x1="411.4" y1="86.6" x2="368.8" y2="44.1"/>
<line class="st1" x1="386.1" y1="11.2" x2="386.1" y2="1.2"/>
<line class="st1" x1="411.5" y1="86.5" x2="206.3" y2="171.5"/>
<line class="st1" x1="206.3" y1="171.5" x2="1.2" y2="86.5"/>
<line class="st1" x1="86.2" y1="291.6" x2="1.2" y2="86.5"/>
<line class="st1" x1="206.3" y1="231.5" x2="146.5" y2="291.3"/>
<line class="st1" x1="206.3" y1="231.5" x2="236.4" y2="261.6"/>
<line class="st1" x1="206.4" y1="171.3" x2="206.5" y2="86.7"/>
<line class="st1" x1="86.8" y1="291.5" x2="0.7" y2="291.5"/>
<line class="st1" x1="146.5" y1="291.5" x2="86.8" y2="291.5"/>
<line class="st1" x1="206.4" y1="232" x2="206.5" y2="171.3"/>
<line class="st1" x1="206.3" y1="171.5" x2="105.9" y2="191.4"/>
<line class="st1" x1="105.9" y1="191.4" x2="86.2" y2="291.6"/>
<line class="st1" x1="105.6" y1="190.7" x2="1.2" y2="86.5"/>
<line class="st1" x1="149.2" y1="86.7" x2="127.6" y2="138.9"/>
<line class="st1" x1="127.6" y1="138.9" x2="90.3" y2="176.3"/>
<line class="st1" x1="127.6" y1="34.1" x2="127.6" y2="86.3"/>
<line class="st1" x1="112.6" y1="0.7" x2="127.6" y2="34.1"/>
<line class="st1" x1="53.7" y1="212.9" x2="1.3" y2="212.9"/>
<line class="st1" x1="149.2" y1="86.7" x2="206.5" y2="1.2"/>
<line class="st1" x1="206.3" y1="171.5" x2="266.3" y2="182.9"/>
<line class="st1" x1="266.3" y1="231.3" x2="266.3" y2="182.9"/>
<line class="st1" x1="266.3" y1="182.9" x2="411.5" y2="86.5"/>
<line class="st1" x1="253.3" y1="151.6" x2="240.7" y2="121"/>
<line class="st1" x1="206.3" y1="1.5" x2="240.7" y2="52.1"/>
<line class="st1" x1="206.5" y1="86.3" x2="240.7" y2="52.1"/>
<line class="st1" x1="240.7" y1="52.1" x2="411.5" y2="86.5"/>
<line class="st1" x1="253.6" y1="20.7" x2="261.2" y2="1.7"/>
<line class="st1" x1="206.4" y1="291.5" x2="236.3" y2="261.6"/>
<line class="st1" x1="1.4" y1="496.6" x2="86.4" y2="291.4"/>
<line class="st1" x1="146.4" y1="291.4" x2="176.5" y2="321.5"/>
<line class="st1" x1="86.4" y1="291.5" x2="97.8" y2="351.5"/>
<line class="st1" x1="146.2" y1="351.5" x2="97.8" y2="351.5"/>
<line class="st1" x1="97.8" y1="351.5" x2="1.4" y2="496.6"/>
<line class="st1" x1="66.5" y1="338.5" x2="35.8" y2="325.8"/>
<line class="st1" x1="206.4" y1="291.5" x2="176.5" y2="321.5"/>
<line class="st1" x1="411.4" y1="86.6" x2="496.4" y2="86.7"/>
<line class="st1" x1="454.9" y1="69" x2="479.2" y2="69"/>
<line class="st1" x1="479.7" y1="44.1" x2="479.7" y2="69"/>
<line class="st1" x1="466.8" y1="57.1" x2="454.4" y2="44.6"/>
<line class="st1" x1="496.4" y1="86.8" x2="479.2" y2="69.5"/>
<line class="st1" x1="453.9" y1="44.2" x2="496.7" y2="1.3"/>
<line class="st1" x1="454.9" y1="104.3" x2="479.2" y2="104.3"/>
<line class="st1" x1="479.7" y1="129.2" x2="479.7" y2="104.3"/>
<line class="st1" x1="496.4" y1="86.5" x2="479.2" y2="103.8"/>
<line class="st1" x1="453.9" y1="129.1" x2="496.7" y2="172"/>
<line class="st1" x1="411.4" y1="86.6" x2="453.9" y2="129.2"/>
<line class="st1" x1="486.8" y1="111.9" x2="496.8" y2="111.9"/>
<line class="st1" x1="411.5" y1="86.5" x2="326.5" y2="291.7"/>
<line class="st1" x1="326.5" y1="291.7" x2="411.5" y2="496.8"/>
<line class="st1" x1="206.4" y1="411.8" x2="411.5" y2="496.8"/>
<line class="st1" x1="266.5" y1="291.7" x2="206.7" y2="351.5"/>
<line class="st1" x1="266.5" y1="291.7" x2="236.4" y2="261.6"/>
<line class="st1" x1="326.7" y1="291.6" x2="411.3" y2="291.6"/>
<line class="st1" x1="206.5" y1="411.3" x2="206.5" y2="497.3"/>
<line class="st1" x1="206.5" y1="351.5" x2="206.5" y2="411.2"/>
<line class="st1" x1="266" y1="291.6" x2="326.7" y2="291.6"/>
<line class="st1" x1="326.5" y1="291.7" x2="306.6" y2="392.1"/>
<line class="st1" x1="306.6" y1="392.1" x2="206.4" y2="411.8"/>
<line class="st1" x1="307.3" y1="392.4" x2="411.5" y2="496.8"/>
<line class="st1" x1="411.3" y1="348.8" x2="359.1" y2="370.4"/>
<line class="st1" x1="359.1" y1="370.4" x2="321.7" y2="407.7"/>
<line class="st1" x1="463.9" y1="370.4" x2="411.7" y2="370.4"/>
<line class="st1" x1="497.3" y1="385.4" x2="463.9" y2="370.4"/>
<line class="st1" x1="285.1" y1="444.3" x2="285.1" y2="496.8"/>
<line class="st1" x1="411.3" y1="348.8" x2="496.8" y2="291.6"/>
<line class="st1" x1="326.5" y1="291.7" x2="315" y2="231.7"/>
<line class="st1" x1="266.7" y1="231.7" x2="315" y2="231.7"/>
<line class="st1" x1="315" y1="231.7" x2="411.5" y2="86.5"/>
<line class="st1" x1="346.4" y1="244.7" x2="377" y2="257.3"/>
<line class="st1" x1="496.5" y1="291.7" x2="445.9" y2="257.3"/>
<line class="st1" x1="411.7" y1="291.6" x2="445.9" y2="257.3"/>
<line class="st1" x1="445.9" y1="257.3" x2="411.5" y2="86.5"/>
<line class="st1" x1="477.3" y1="244.4" x2="496.3" y2="236.8"/>
<line class="st1" x1="206.5" y1="291.6" x2="236.4" y2="261.7"/>
<line class="st1" x1="1.4" y1="496.6" x2="206.5" y2="411.6"/>
<line class="st1" x1="206.6" y1="351.6" x2="176.5" y2="321.5"/>
<line class="st1" x1="206.5" y1="411.6" x2="146.5" y2="400.2"/>
<line class="st1" x1="146.5" y1="351.8" x2="146.5" y2="400.2"/>
<line class="st1" x1="146.5" y1="400.2" x2="1.4" y2="496.6"/>
<line class="st1" x1="159.5" y1="431.5" x2="172.2" y2="462.2"/>
<line class="st1" x1="206.4" y1="291.6" x2="176.5" y2="321.5"/>
<line class="st0" x1="1.2" y1="86.5" x2="411.5" y2="86.5"/>
<line class="st0" x1="496.7" y1="1.3" x2="453.9" y2="18.3"/>
<line class="st0" x1="411.4" y1="1.6" x2="429" y2="43.1"/>
<line class="st0" x1="411.4" y1="1.6" x2="453.9" y2="18.3"/>
<polyline class="st0" points="411.1,86.9 429,43.1 453.9,18.3 "/>
<line class="st0" x1="428.5" y1="18.8" x2="441" y2="31.2"/>
<line class="st0" x1="411.3" y1="86.6" x2="453.9" y2="44.1"/>
<line class="st0" x1="326" y1="1.3" x2="368.8" y2="18.3"/>
<line class="st0" x1="411.4" y1="1.6" x2="393.7" y2="43.1"/>
<line class="st0" x1="411.4" y1="1.6" x2="368.8" y2="18.3"/>
<polyline class="st0" points="411.6,86.9 393.7,43.1 368.8,18.3 "/>
<line class="st0" x1="393.7" y1="18.8" x2="386.1" y2="11.2"/>
<line class="st0" x1="206.5" y1="86.7" x2="206.5" y2="1.2"/>
<line class="st0" x1="206.3" y1="171.5" x2="266.5" y2="231.6"/>
<line class="st0" x1="206.3" y1="171.5" x2="86.2" y2="291.6"/>
<line class="st0" x1="411.5" y1="86.5" x2="206.3" y2="1.5"/>
<line class="st0" x1="206.3" y1="1.5" x2="1.2" y2="86.5"/>
<line class="st0" x1="206.4" y1="291.5" x2="146.5" y2="291.5"/>
<line class="st0" x1="206.4" y1="291.5" x2="206.4" y2="232"/>
<line class="st0" x1="127.6" y1="138.9" x2="105.9" y2="191.4"/>
<line class="st0" x1="90.3" y1="176.3" x2="53.7" y2="212.9"/>
<line class="st0" x1="127.6" y1="138.9" x2="127.6" y2="86.7"/>
<polyline class="st0" points="149.2,86.3 127.6,34.1 94.4,1 "/>
<line class="st0" x1="86.2" y1="291.6" x2="1.2" y2="233"/>
<line class="st0" x1="206.3" y1="171.5" x2="149.2" y2="86.7"/>
<line class="st0" x1="206.3" y1="171.5" x2="240.7" y2="121"/>
<polyline class="st0" points="206.4,86.7 240.7,121 411.5,86.5 "/>
<line class="st0" x1="266.3" y1="182.9" x2="253.4" y2="151.6"/>
<line class="st0" x1="253.3" y1="21.4" x2="240.7" y2="52.1"/>
<line class="st0" x1="282.7" y1="1.2" x2="411.5" y2="86.5"/>
<line class="st0" x1="266.4" y1="231.5" x2="411.4" y2="86.6"/>
<line class="st0" x1="236.3" y1="261.6" x2="266.5" y2="231.5"/>
<line class="st0" x1="86.4" y1="291.5" x2="146.5" y2="351.6"/>
<line class="st0" x1="86.4" y1="291.5" x2="35.8" y2="325.8"/>
<polyline class="st0" points="1.6,291.6 35.8,325.8 1.4,496.6 "/>
<line class="st0" x1="97.8" y1="351.4" x2="66.5" y2="338.5"/>
<line class="st0" x1="146.4" y1="351.5" x2="1.5" y2="496.5"/>
<line class="st0" x1="176.5" y1="321.4" x2="146.4" y2="351.6"/>
<line class="st0" x1="411.5" y1="496.8" x2="411.5" y2="86.5"/>
<line class="st0" x1="496.7" y1="1.3" x2="479.7" y2="44.1"/>
<line class="st0" x1="496.4" y1="86.7" x2="454.9" y2="69"/>
<line class="st0" x1="496.4" y1="86.7" x2="479.7" y2="44.1"/>
<polyline class="st0" points="411.1,86.9 454.9,69 479.7,44.1 "/>
<line class="st0" x1="479.2" y1="69.5" x2="466.8" y2="57"/>
<line class="st0" x1="411.4" y1="86.7" x2="453.9" y2="44.1"/>
<line class="st0" x1="496.7" y1="172" x2="479.7" y2="129.2"/>
<line class="st0" x1="496.4" y1="86.7" x2="454.9" y2="104.3"/>
<line class="st0" x1="496.4" y1="86.7" x2="479.7" y2="129.2"/>
<polyline class="st0" points="411.1,86.4 454.9,104.3 479.7,129.2 "/>
<line class="st0" x1="479.2" y1="104.3" x2="486.8" y2="111.9"/>
<line class="st0" x1="411.3" y1="291.6" x2="496.8" y2="291.6"/>
<line class="st0" x1="326.5" y1="291.7" x2="266.4" y2="231.5"/>
<line class="st0" x1="326.5" y1="291.7" x2="206.4" y2="411.8"/>
<line class="st0" x1="411.5" y1="86.5" x2="496.5" y2="291.7"/>
<line class="st0" x1="496.5" y1="291.7" x2="411.5" y2="496.8"/>
<line class="st0" x1="206.5" y1="291.6" x2="206.5" y2="351.5"/>
<line class="st0" x1="206.5" y1="291.6" x2="266" y2="291.6"/>
<line class="st0" x1="359.1" y1="370.4" x2="306.6" y2="392.1"/>
<line class="st0" x1="321.7" y1="407.7" x2="285.1" y2="444.3"/>
<line class="st0" x1="359.1" y1="370.4" x2="411.3" y2="370.4"/>
<polyline class="st0" points="411.7,348.8 463.9,370.4 497,403.6 "/>
<line class="st0" x1="206.4" y1="411.8" x2="265" y2="496.8"/>
<line class="st0" x1="326.5" y1="291.7" x2="411.3" y2="348.8"/>
<line class="st0" x1="326.5" y1="291.7" x2="377" y2="257.3"/>
<polyline class="st0" points="411.3,291.6 377,257.3 411.5,86.5 "/>
<line class="st0" x1="315.1" y1="231.7" x2="346.4" y2="244.6"/>
<line class="st0" x1="476.6" y1="244.7" x2="445.9" y2="257.3"/>
<line class="st0" x1="496.8" y1="215.3" x2="411.5" y2="86.5"/>
<line class="st0" x1="266.5" y1="231.6" x2="411.4" y2="86.6"/>
<line class="st0" x1="236.4" y1="261.7" x2="266.5" y2="231.5"/>
<line class="st0" x1="206.5" y1="411.6" x2="146.4" y2="351.5"/>
<line class="st0" x1="206.5" y1="411.6" x2="172.2" y2="462.2"/>
<polyline class="st0" points="206.4,496.4 172.2,462.2 1.4,496.6 "/>
<line class="st0" x1="146.6" y1="400.2" x2="159.5" y2="431.5"/>
<line class="st0" x1="146.4" y1="351.6" x2="1.5" y2="496.5"/>
<line class="st0" x1="176.6" y1="321.5" x2="146.4" y2="351.6"/>
</svg>
