<?xml version="1.0" encoding="utf-8"?>
<!-- generated by crease pattern Javascript library by Robby Kraft  -->
<svg version="1.1" xmlns="http://www.w3.org/2000/svg" x="0px" y="0px" width="600px" height="600px" viewBox="0 0 600 600">
<g id="valley">
	<line stroke="#4379FF" stroke-linecap="round" stroke-dasharray="6,6" stroke-width="3" x1="0" y1="300" x2="150" y2="450"/>
	<line stroke="#4379FF" stroke-linecap="round" stroke-dasharray="6,6" stroke-width="3" x1="150" y1="450" x2="300" y2="600"/>
	<line stroke="#4379FF" stroke-linecap="round" stroke-dasharray="6,6" stroke-width="3" x1="123.101818624299" y1="476.898181375701" x2="150" y2="450"/>
	<line stroke="#4379FF" stroke-linecap="round" stroke-dasharray="6,6" stroke-width="3" x1="300" y1="450" x2="225" y2="375"/>
	<line stroke="#4379FF" stroke-linecap="round" stroke-dasharray="6,6" stroke-width="3" x1="225" y1="375" x2="150" y2="300"/>
	<line stroke="#4379FF" stroke-linecap="round" stroke-dasharray="6,6" stroke-width="3" x1="225" y1="375" x2="300" y2="300"/>
	<line stroke="#4379FF" stroke-linecap="round" stroke-dasharray="6,6" stroke-width="3" x1="300" y1="450" x2="450" y2="300"/>
	<line stroke="#4379FF" stroke-linecap="round" stroke-dasharray="6,6" stroke-width="3" x1="450" y1="300" x2="375" y2="225"/>
	<line stroke="#4379FF" stroke-linecap="round" stroke-dasharray="6,6" stroke-width="3" x1="375" y1="225" x2="300" y2="150"/>
	<line stroke="#4379FF" stroke-linecap="round" stroke-dasharray="6,6" stroke-width="3" x1="300" y1="150" x2="150" y2="300"/>
	<line stroke="#4379FF" stroke-linecap="round" stroke-dasharray="6,6" stroke-width="3" x1="300" y1="300" x2="375" y2="225"/>
	<line stroke="#4379FF" stroke-linecap="round" stroke-dasharray="6,6" stroke-width="3" x1="0" y1="300" x2="300" y2="0"/>
	<line stroke="#4379FF" stroke-linecap="round" stroke-dasharray="6,6" stroke-width="3" x1="300" y1="600" x2="600" y2="300"/>
	<line stroke="#4379FF" stroke-linecap="round" stroke-dasharray="6,6" stroke-width="3" x1="0" y1="300" x2="150" y2="300"/>
	<line stroke="#4379FF" stroke-linecap="round" stroke-dasharray="6,6" stroke-width="3" x1="300" y1="450" x2="300" y2="600"/>
	<line stroke="#4379FF" stroke-linecap="round" stroke-dasharray="6,6" stroke-width="3" x1="450" y1="300" x2="600" y2="300"/>
	<line stroke="#4379FF" stroke-linecap="round" stroke-dasharray="6,6" stroke-width="3" x1="300" y1="0" x2="300" y2="150"/>
</g>
<g id="mountain">
	<line stroke="#EE1032" stroke-width="3" x1="0" y1="600" x2="123.101818624299" y2="476.898181375701"/>
	<line stroke="#EE1032" stroke-width="3" x1="0" y1="353.796362751402" x2="123.101818624299" y2="476.898181375701"/>
	<line stroke="#EE1032" stroke-width="3" x1="123.101818624299" y1="476.898181375701" x2="246.203637248598" y2="600"/>
	<line stroke="#EE1032" stroke-width="3" x1="150" y1="300" x2="300" y2="300"/>
	<line stroke="#EE1032" stroke-width="3" x1="150" y1="450" x2="225" y2="375"/>
	<line stroke="#EE1032" stroke-width="3" x1="300" y1="300" x2="300" y2="450"/>
	<line stroke="#EE1032" stroke-width="3" x1="375" y1="225" x2="600" y2="0"/>
	<line stroke="#EE1032" stroke-width="3" x1="300" y1="300" x2="450" y2="300"/>
	<line stroke="#EE1032" stroke-width="3" x1="300" y1="150" x2="300" y2="300"/>
	<line stroke="#EE1032" stroke-width="3" x1="150" y1="0" x2="0" y2="150"/>
	<line stroke="#EE1032" stroke-width="3" x1="600" y1="450" x2="450" y2="600"/>
</g>
<g id="boundary">
	<line stroke="#000000" stroke-width="3" x1="600" y1="0" x2="600" y2="300"/>
	<line stroke="#000000" stroke-width="3" x1="300" y1="0" x2="600" y2="0"/>
	<line stroke="#000000" stroke-width="3" x1="0" y1="600" x2="0" y2="353.796362751402"/>
	<line stroke="#000000" stroke-width="3" x1="0" y1="300" x2="0" y2="353.796362751402"/>
	<line stroke="#000000" stroke-width="3" x1="0" y1="600" x2="246.203637248598" y2="600"/>
	<line stroke="#000000" stroke-width="3" x1="246.203637248598" y1="600" x2="300" y2="600"/>
	<line stroke="#000000" stroke-width="3" x1="0" y1="0" x2="150" y2="0"/>
	<line stroke="#000000" stroke-width="3" x1="150" y1="0" x2="300" y2="0"/>
	<line stroke="#000000" stroke-width="3" x1="600" y1="300" x2="600" y2="450"/>
	<line stroke="#000000" stroke-width="3" x1="600" y1="450" x2="600" y2="600"/>
	<line stroke="#000000" stroke-width="3" x1="0" y1="0" x2="0" y2="150"/>
	<line stroke="#000000" stroke-width="3" x1="0" y1="150" x2="0" y2="300"/>
	<line stroke="#000000" stroke-width="3" x1="300" y1="600" x2="450" y2="600"/>
	<line stroke="#000000" stroke-width="3" x1="450" y1="600" x2="600" y2="600"/>
</g>
</svg>
