<?xml version="1.0" encoding="utf-8"?>
<!-- generated by crease pattern Javascript library by Robby Kraft  -->
<svg version="1.1" xmlns="http://www.w3.org/2000/svg" x="0px" y="0px" width="600px" height="600px" viewBox="0 0 600 600">
<g id="valley">
	<line stroke="#4379FF" stroke-linecap="round" stroke-dasharray="6,6" stroke-width="3" x1="300" y1="0" x2="300" y2="300"/>
	<line stroke="#4379FF" stroke-linecap="round" stroke-dasharray="6,6" stroke-width="3" x1="300" y1="300" x2="600" y2="300"/>
	<line stroke="#4379FF" stroke-linecap="round" stroke-dasharray="6,6" stroke-width="3" x1="150" y1="150" x2="0" y2="300"/>
	<line stroke="#4379FF" stroke-linecap="round" stroke-dasharray="6,6" stroke-width="3" x1="300" y1="0" x2="600" y2="300"/>
	<line stroke="#4379FF" stroke-linecap="round" stroke-dasharray="6,6" stroke-width="3" x1="300" y1="600" x2="450" y2="450"/>
	<line stroke="#4379FF" stroke-linecap="round" stroke-dasharray="6,6" stroke-width="3" x1="300" y1="600" x2="0" y2="300"/>
	<line stroke="#4379FF" stroke-linecap="round" stroke-dasharray="6,6" stroke-width="3" x1="150" y1="150" x2="87.867965644036" y2="0"/>
	<line stroke="#4379FF" stroke-linecap="round" stroke-dasharray="6,6" stroke-width="3" x1="450" y1="450" x2="600" y2="512.132034355964"/>
	<line stroke="#4379FF" stroke-linecap="round" stroke-dasharray="6,6" stroke-width="3" x1="375" y1="0" x2="600" y2="225"/>
</g>
<g id="mountain">
	<line stroke="#EE1032" stroke-width="3" x1="300" y1="300" x2="300" y2="600"/>
	<line stroke="#EE1032" stroke-width="3" x1="0" y1="300" x2="300" y2="300"/>
	<line stroke="#EE1032" stroke-width="3" x1="300" y1="0" x2="150" y2="150"/>
	<line stroke="#EE1032" stroke-width="3" x1="0" y1="0" x2="150" y2="150"/>
	<line stroke="#EE1032" stroke-width="3" x1="150" y1="150" x2="300" y2="300"/>
	<line stroke="#EE1032" stroke-width="3" x1="450" y1="450" x2="600" y2="300"/>
	<line stroke="#EE1032" stroke-width="3" x1="300" y1="300" x2="450" y2="450"/>
	<line stroke="#EE1032" stroke-width="3" x1="450" y1="450" x2="600" y2="600"/>
	<line stroke="#EE1032" stroke-width="3" x1="450" y1="0" x2="600" y2="150"/>
	<line stroke="#EE1032" stroke-width="3" x1="150" y1="150" x2="0" y2="87.867965644036"/>
	<line stroke="#EE1032" stroke-width="3" x1="450" y1="450" x2="512.132034355964" y2="600"/>
</g>
<g id="boundary">
	<line stroke="#000000" stroke-width="3" x1="300" y1="600" x2="0" y2="600"/>
	<line stroke="#000000" stroke-width="3" x1="0" y1="600" x2="0" y2="300"/>
	<line stroke="#000000" stroke-width="3" x1="450" y1="0" x2="600" y2="0"/>
	<line stroke="#000000" stroke-width="3" x1="600" y1="0" x2="600" y2="150"/>
	<line stroke="#000000" stroke-width="3" x1="0" y1="0" x2="87.867965644036" y2="0"/>
	<line stroke="#000000" stroke-width="3" x1="87.867965644036" y1="0" x2="300" y2="0"/>
	<line stroke="#000000" stroke-width="3" x1="600" y1="300" x2="600" y2="512.132034355964"/>
	<line stroke="#000000" stroke-width="3" x1="600" y1="512.132034355964" x2="600" y2="600"/>
	<line stroke="#000000" stroke-width="3" x1="0" y1="300" x2="0" y2="87.867965644036"/>
	<line stroke="#000000" stroke-width="3" x1="0" y1="87.867965644036" x2="0" y2="0"/>
	<line stroke="#000000" stroke-width="3" x1="300" y1="0" x2="375" y2="0"/>
	<line stroke="#000000" stroke-width="3" x1="375" y1="0" x2="450" y2="0"/>
	<line stroke="#000000" stroke-width="3" x1="600" y1="150" x2="600" y2="225"/>
	<line stroke="#000000" stroke-width="3" x1="600" y1="225" x2="600" y2="300"/>
	<line stroke="#000000" stroke-width="3" x1="600" y1="600" x2="512.132034355964" y2="600"/>
	<line stroke="#000000" stroke-width="3" x1="512.132034355964" y1="600" x2="300" y2="600"/>
</g>
</svg>