<?xml version="1.0" encoding="utf-8"?>
<!-- Generator: Adobe Illustrator 16.0.0, SVG Export Plug-In . SVG Version: 6.00 Build 0)  -->
<!DOCTYPE svg PUBLIC "-//W3C//DTD SVG 1.1//EN" "http://www.w3.org/Graphics/SVG/1.1/DTD/svg11.dtd">
<svg version="1.1" id="Layer_1" xmlns="http://www.w3.org/2000/svg" xmlns:xlink="http://www.w3.org/1999/xlink" x="0px" y="0px"
	 width="1000px" height="1000px" viewBox="0 0 1000 1000" enable-background="new 0 0 1000 1000" xml:space="preserve">
<line fill="none" stroke="#000000" stroke-width="5" x1="1000" y1="146.453" x2="1000" y2="215.482"/>
<line fill="none" stroke="#0000FF" stroke-width="4" x1="573.227" y1="73.227" x2="646.453" y2="146.453"/>
<line fill="none" stroke="#000000" stroke-width="5" x1="1000" y1="73.227" x2="1000" y2="0"/>
<line fill="none" stroke="#000000" stroke-width="5" x1="1000" y1="73.227" x2="1000" y2="146.453"/>
<line fill="none" stroke="#000000" stroke-width="5" x1="0" y1="146.453" x2="0" y2="215.482"/>
<line fill="none" stroke="#0000FF" stroke-width="4" x1="426.773" y1="73.227" x2="353.547" y2="146.453"/>
<line fill="none" stroke="#000000" stroke-width="5" x1="0" y1="73.227" x2="0" y2="146.453"/>
<line fill="none" stroke="#FF0000" stroke-width="4" stroke-dasharray="15,10" x1="284.518" y1="215.482" x2="353.547" y2="146.453"/>
<line fill="none" stroke="#0000FF" stroke-width="4" x1="284.518" y1="146.453" x2="353.547" y2="146.453"/>
<line fill="none" stroke="#0000FF" stroke-width="4" x1="284.518" y1="73.227" x2="284.518" y2="0"/>
<line fill="none" stroke="#FF0000" stroke-width="4" stroke-dasharray="15,10" x1="284.518" y1="146.453" x2="284.518" y2="73.227"/>
<line fill="none" stroke="#0000FF" stroke-width="4" x1="284.518" y1="215.482" x2="284.518" y2="146.453"/>
<line fill="none" stroke="#FF0000" stroke-width="4" stroke-dasharray="15,10" x1="715.482" y1="215.482" x2="646.453" y2="146.453"/>
<line fill="none" stroke="#0000FF" stroke-width="4" x1="715.482" y1="146.453" x2="646.453" y2="146.453"/>
<line fill="none" stroke="#0000FF" stroke-width="4" x1="715.482" y1="73.227" x2="715.482" y2="0"/>
<line fill="none" stroke="#FF0000" stroke-width="4" stroke-dasharray="15,10" x1="715.482" y1="146.453" x2="715.482" y2="73.227"/>
<line fill="none" stroke="#0000FF" stroke-width="4" x1="715.482" y1="215.482" x2="715.482" y2="146.453"/>
<line fill="none" stroke="#FF0000" stroke-width="4" stroke-dasharray="15,10" x1="284.518" y1="73.227" x2="426.773" y2="73.227"/>
<line fill="none" stroke="#FF0000" stroke-width="4" stroke-dasharray="15,10" x1="715.482" y1="73.227" x2="573.227" y2="73.227"/>
<line fill="none" stroke="#000000" stroke-width="5" x1="0" y1="284.512" x2="0" y2="215.482"/>
<line fill="none" stroke="#0000FF" stroke-width="4" x1="353.547" y1="284.512" x2="353.547" y2="146.453"/>
<line fill="none" stroke="#FF0000" stroke-width="4" stroke-dasharray="15,10" x1="353.547" y1="284.512" x2="284.518" y2="215.482"/>
<line fill="none" stroke="#000000" stroke-width="5" x1="1000" y1="284.512" x2="1000" y2="215.482"/>
<line fill="none" stroke="#0000FF" stroke-width="4" x1="646.453" y1="284.512" x2="646.453" y2="146.453"/>
<line fill="none" stroke="#FF0000" stroke-width="4" stroke-dasharray="15,10" x1="646.453" y1="284.512" x2="715.482" y2="215.482"/>
<line fill="none" stroke="#FF0000" stroke-width="4" stroke-dasharray="15,10" x1="573.227" y1="254.18" x2="573.227" y2="73.227"/>
<line fill="none" stroke="#FF0000" stroke-width="4" stroke-dasharray="15,10" x1="426.773" y1="254.18" x2="426.773" y2="73.227"/>
<line fill="none" stroke="#FF0000" stroke-width="4" stroke-dasharray="15,10" x1="426.773" y1="254.18" x2="353.547" y2="284.512"/>
<line fill="none" stroke="#FF0000" stroke-width="4" stroke-dasharray="15,10" x1="573.227" y1="254.18" x2="646.453" y2="284.512"/>
<line fill="none" stroke="#FF0000" stroke-width="4" stroke-dasharray="15,10" x1="784.52" y1="666.666" x2="666.667" y2="666.666"/>
<line fill="none" stroke="#FF0000" stroke-width="4" stroke-dasharray="15,10" x1="333.333" y1="666.666" x2="333.333" y2="500"/>
<line fill="none" stroke="#FF0000" stroke-width="4" stroke-dasharray="15,10" x1="451.185" y1="882.148" x2="333.333" y2="833.334"/>
<line fill="none" stroke="#FF0000" stroke-width="4" stroke-dasharray="15,10" x1="548.815" y1="882.148" x2="666.667" y2="833.334"/>
<line fill="none" stroke="#0000FF" stroke-width="4" x1="548.815" y1="882.148" x2="451.185" y2="882.148"/>
<line fill="none" stroke="#FF0000" stroke-width="4" stroke-dasharray="15,10" x1="867.853" y1="666.666" x2="784.52" y2="666.666"/>
<line fill="none" stroke="#FF0000" stroke-width="4" stroke-dasharray="15,10" x1="666.667" y1="666.666" x2="666.667" y2="500"/>
<line fill="none" stroke="#000000" stroke-width="5" x1="0" y1="73.227" x2="0" y2="0"/>
<line fill="none" stroke="#FF0000" stroke-width="4" stroke-dasharray="15,10" x1="132.147" y1="666.666" x2="215.48" y2="666.666"/>
<line fill="none" stroke="#FF0000" stroke-width="4" stroke-dasharray="15,10" x1="333.333" y1="666.666" x2="215.48" y2="666.666"/>
<line fill="none" stroke="#FF0000" stroke-width="4" stroke-dasharray="15,10" x1="500" y1="833.334" x2="333.333" y2="666.666"/>
<line fill="none" stroke="#FF0000" stroke-width="4" stroke-dasharray="15,10" x1="500" y1="833.334" x2="451.185" y2="882.148"/>
<line fill="none" stroke="#FF0000" stroke-width="4" stroke-dasharray="15,10" x1="500" y1="833.334" x2="548.815" y2="882.148"/>
<line fill="none" stroke="#0000FF" stroke-width="4" x1="500" y1="833.334" x2="333.333" y2="833.334"/>
<line fill="none" stroke="#0000FF" stroke-width="4" x1="500" y1="833.334" x2="666.667" y2="833.334"/>
<line fill="none" stroke="#0000FF" stroke-width="4" x1="215.48" y1="617.854" x2="215.48" y2="666.666"/>
<line fill="none" stroke="#FF0000" stroke-width="4" stroke-dasharray="15,10" x1="132.147" y1="534.516" x2="132.147" y2="666.666"/>
<line fill="none" stroke="#0000FF" stroke-width="4" x1="215.48" y1="617.854" x2="333.333" y2="500"/>
<line fill="none" stroke="#0000FF" stroke-width="4" x1="215.48" y1="617.854" x2="132.147" y2="534.516"/>
<line fill="none" stroke="#FF0000" stroke-width="4" stroke-dasharray="15,10" x1="215.48" y1="499.999" x2="215.48" y2="617.854"/>
<line fill="none" stroke="#FF0000" stroke-width="4" stroke-dasharray="15,10" x1="215.48" y1="499.999" x2="132.147" y2="534.516"/>
<line fill="none" stroke="#0000FF" stroke-width="4" x1="784.52" y1="617.854" x2="784.52" y2="666.666"/>
<line fill="none" stroke="#FF0000" stroke-width="4" stroke-dasharray="15,10" x1="867.853" y1="534.516" x2="867.853" y2="666.666"/>
<line fill="none" stroke="#0000FF" stroke-width="4" x1="784.52" y1="617.854" x2="666.667" y2="500"/>
<line fill="none" stroke="#FF0000" stroke-width="4" stroke-dasharray="15,10" x1="784.52" y1="617.854" x2="784.52" y2="499.999"/>
<line fill="none" stroke="#FF0000" stroke-width="4" stroke-dasharray="15,10" x1="867.853" y1="534.516" x2="784.52" y2="499.999"/>
<line fill="none" stroke="#0000FF" stroke-width="4" x1="784.52" y1="617.854" x2="867.853" y2="534.516"/>
<line fill="none" stroke="#000000" stroke-width="5" x1="0" y1="479.778" x2="0" y2="284.523"/>
<line fill="none" stroke="#FF0000" stroke-width="4" stroke-dasharray="15,10" x1="0" y1="479.778" x2="132.147" y2="534.516"/>
<line fill="none" stroke="#000000" stroke-width="5" x1="1000" y1="479.778" x2="1000" y2="284.523"/>
<line fill="none" stroke="#FF0000" stroke-width="4" stroke-dasharray="15,10" x1="1000" y1="479.778" x2="867.853" y2="534.516"/>
<line fill="none" stroke="#FF0000" stroke-width="4" stroke-dasharray="15,10" x1="117.047" y1="401.57" x2="0" y2="284.523"/>
<line fill="none" stroke="#0000FF" stroke-width="4" x1="117.047" y1="401.57" x2="0" y2="479.778"/>
<line fill="none" stroke="#0000FF" stroke-width="4" x1="117.047" y1="401.57" x2="215.48" y2="499.999"/>
<line fill="none" stroke="#FF0000" stroke-width="4" stroke-dasharray="15,10" x1="882.953" y1="401.57" x2="1000" y2="284.523"/>
<line fill="none" stroke="#0000FF" stroke-width="4" x1="882.953" y1="401.57" x2="1000" y2="479.778"/>
<line fill="none" stroke="#0000FF" stroke-width="4" x1="882.953" y1="401.57" x2="784.52" y2="499.999"/>
<line fill="none" stroke="#FF0000" stroke-width="4" stroke-dasharray="15,10" x1="157.435" y1="215.482" x2="0" y2="215.482"/>
<line fill="none" stroke="#FF0000" stroke-width="4" stroke-dasharray="15,10" x1="842.565" y1="215.482" x2="1000" y2="215.482"/>
<line fill="none" stroke="#FF0000" stroke-width="4" stroke-dasharray="15,10" x1="842.565" y1="215.482" x2="715.482" y2="215.482"/>
<line fill="none" stroke="#FF0000" stroke-width="4" stroke-dasharray="15,10" x1="274.403" y1="475.592" x2="333.333" y2="500"/>
<line fill="none" stroke="#FF0000" stroke-width="4" stroke-dasharray="15,10" x1="274.403" y1="475.592" x2="215.48" y2="499.999"/>
<line fill="none" stroke="#0000FF" stroke-width="4" x1="215.48" y1="284.512" x2="117.047" y2="401.57"/>
<line fill="none" stroke="#0000FF" stroke-width="4" x1="215.48" y1="284.512" x2="157.435" y2="215.482"/>
<line fill="none" stroke="#FF0000" stroke-width="4" stroke-dasharray="15,10" x1="274.403" y1="475.592" x2="215.48" y2="284.512"/>
<line fill="none" stroke="#FF0000" stroke-width="4" stroke-dasharray="15,10" x1="725.597" y1="475.592" x2="666.667" y2="500"/>
<line fill="none" stroke="#0000FF" stroke-width="4" x1="725.597" y1="475.592" x2="646.453" y2="284.512"/>
<line fill="none" stroke="#FF0000" stroke-width="4" stroke-dasharray="15,10" x1="725.597" y1="475.592" x2="784.52" y2="499.999"/>
<line fill="none" stroke="#0000FF" stroke-width="4" x1="784.52" y1="284.512" x2="646.453" y2="284.512"/>
<line fill="none" stroke="#0000FF" stroke-width="4" x1="784.52" y1="284.512" x2="882.953" y2="401.57"/>
<line fill="none" stroke="#0000FF" stroke-width="4" x1="784.52" y1="284.512" x2="842.565" y2="215.482"/>
<line fill="none" stroke="#FF0000" stroke-width="4" stroke-dasharray="15,10" x1="725.597" y1="475.592" x2="784.52" y2="284.512"/>
<line fill="none" stroke="#0000FF" stroke-width="4" x1="215.48" y1="146.453" x2="0" y2="146.453"/>
<line fill="none" stroke="#0000FF" stroke-width="4" x1="215.48" y1="146.453" x2="284.518" y2="146.453"/>
<line fill="none" stroke="#FF0000" stroke-width="4" stroke-dasharray="15,10" x1="215.48" y1="146.453" x2="157.435" y2="215.482"/>
<line fill="none" stroke="#FF0000" stroke-width="4" stroke-dasharray="15,10" x1="500" y1="833.334" x2="666.667" y2="666.666"/>
<line fill="none" stroke="#0000FF" stroke-width="4" x1="274.403" y1="475.592" x2="353.547" y2="284.512"/>
<line fill="none" stroke="#0000FF" stroke-width="4" x1="215.48" y1="284.512" x2="353.547" y2="284.512"/>
<line fill="none" stroke="#FF0000" stroke-width="4" stroke-dasharray="15,10" x1="157.435" y1="215.482" x2="284.518" y2="215.482"/>
<line fill="none" stroke="#FF0000" stroke-width="4" stroke-dasharray="15,10" x1="153.905" y1="73.227" x2="0" y2="73.227"/>
<line fill="none" stroke="#FF0000" stroke-width="4" stroke-dasharray="15,10" x1="153.905" y1="73.227" x2="284.518" y2="73.227"/>
<line fill="none" stroke="#000000" stroke-width="5" x1="215.48" y1="0" x2="284.518" y2="0"/>
<line fill="none" stroke="#000000" stroke-width="5" x1="215.48" y1="0" x2="0" y2="0"/>
<line fill="none" stroke="#0000FF" stroke-width="4" x1="153.905" y1="73.227" x2="215.48" y2="146.453"/>
<line fill="none" stroke="#FF0000" stroke-width="4" stroke-dasharray="15,10" x1="153.905" y1="73.227" x2="215.48" y2="0"/>
<line fill="none" stroke="#FF0000" stroke-width="4" stroke-dasharray="15,10" x1="500" y1="0" x2="573.227" y2="73.227"/>
<line fill="none" stroke="#FF0000" stroke-width="4" stroke-dasharray="15,10" x1="500" y1="0" x2="426.773" y2="73.227"/>
<line fill="none" stroke="#000000" stroke-width="5" x1="500" y1="0" x2="284.518" y2="0"/>
<line fill="none" stroke="#000000" stroke-width="5" x1="500" y1="0" x2="715.482" y2="0"/>
<line fill="none" stroke="#FF0000" stroke-width="4" stroke-dasharray="15,10" x1="500" y1="430.965" x2="666.667" y2="500"/>
<line fill="none" stroke="#0000FF" stroke-width="4" x1="500" y1="430.965" x2="646.453" y2="284.512"/>
<line fill="none" stroke="#FF0000" stroke-width="4" stroke-dasharray="15,10" x1="500" y1="430.965" x2="573.227" y2="254.18"/>
<line fill="none" stroke="#FF0000" stroke-width="4" stroke-dasharray="15,10" x1="500" y1="430.965" x2="426.773" y2="254.18"/>
<line fill="none" stroke="#0000FF" stroke-width="4" x1="500" y1="430.965" x2="353.547" y2="284.512"/>
<line fill="none" stroke="#FF0000" stroke-width="4" stroke-dasharray="15,10" x1="500" y1="430.965" x2="333.333" y2="500"/>
<line fill="none" stroke="#0000FF" stroke-width="4" x1="784.52" y1="146.453" x2="1000" y2="146.453"/>
<line fill="none" stroke="#0000FF" stroke-width="4" x1="784.52" y1="146.453" x2="715.482" y2="146.453"/>
<line fill="none" stroke="#FF0000" stroke-width="4" stroke-dasharray="15,10" x1="784.52" y1="146.453" x2="842.565" y2="215.482"/>
<line fill="none" stroke="#000000" stroke-width="5" x1="784.52" y1="0" x2="1000" y2="0"/>
<line fill="none" stroke="#000000" stroke-width="5" x1="784.52" y1="0" x2="715.482" y2="0"/>
<line fill="none" stroke="#FF0000" stroke-width="4" stroke-dasharray="15,10" x1="846.095" y1="73.227" x2="1000" y2="73.227"/>
<line fill="none" stroke="#FF0000" stroke-width="4" stroke-dasharray="15,10" x1="846.095" y1="73.227" x2="715.482" y2="73.227"/>
<line fill="none" stroke="#0000FF" stroke-width="4" x1="846.095" y1="73.227" x2="784.52" y2="146.453"/>
<line fill="none" stroke="#FF0000" stroke-width="4" stroke-dasharray="15,10" x1="846.095" y1="73.227" x2="784.52" y2="0"/>
<line fill="none" stroke="#0000FF" stroke-width="4" x1="573.227" y1="254.18" x2="426.773" y2="254.18"/>
<line fill="none" stroke="#FF0000" stroke-width="4" stroke-dasharray="15,10" x1="215.48" y1="882.148" x2="0" y2="1000"/>
<line fill="none" stroke="#000000" stroke-width="5" x1="228.514" y1="1000" x2="0" y2="1000"/>
<line fill="none" stroke="#0000FF" stroke-width="4" x1="228.514" y1="1000" x2="215.48" y2="882.148"/>
<line fill="none" stroke="#FF0000" stroke-width="4" stroke-dasharray="15,10" x1="500" y1="1000" x2="451.185" y2="882.148"/>
<line fill="none" stroke="#FF0000" stroke-width="4" stroke-dasharray="15,10" x1="500" y1="1000" x2="548.815" y2="882.148"/>
<line fill="none" stroke="#0000FF" stroke-width="4" x1="500" y1="1000" x2="333.333" y2="833.334"/>
<line fill="none" stroke="#0000FF" stroke-width="4" x1="500" y1="1000" x2="666.667" y2="833.334"/>
<line fill="none" stroke="#0000FF" stroke-width="4" x1="500" y1="1000" x2="215.48" y2="882.148"/>
<line fill="none" stroke="#000000" stroke-width="5" x1="500" y1="1000" x2="228.514" y2="1000"/>
<line fill="none" stroke="#FF0000" stroke-width="4" stroke-dasharray="15,10" x1="784.52" y1="882.148" x2="500" y2="1000"/>
<line fill="none" stroke="#FF0000" stroke-width="4" stroke-dasharray="15,10" x1="784.52" y1="882.148" x2="1000" y2="1000"/>
<line fill="none" stroke="#000000" stroke-width="5" x1="771.4854" y1="1000" x2="500" y2="1000"/>
<line fill="none" stroke="#000000" stroke-width="5" x1="771.4854" y1="1000" x2="1000" y2="1000"/>
<line fill="none" stroke="#0000FF" stroke-width="4" x1="771.4854" y1="1000" x2="784.52" y2="882.148"/>
<line fill="none" stroke="#FF0000" stroke-width="4" stroke-dasharray="15,10" x1="1000" y1="760.106" x2="867.853" y2="666.666"/>
<line fill="none" stroke="#000000" stroke-width="5" x1="1000" y1="760.106" x2="1000" y2="479.778"/>
<line fill="none" stroke="#FF0000" stroke-width="4" stroke-dasharray="15,10" x1="0" y1="760.106" x2="132.147" y2="666.666"/>
<line fill="none" stroke="#000000" stroke-width="5" x1="0" y1="760.106" x2="0" y2="479.778"/>
<line fill="none" stroke="#FF0000" stroke-width="4" stroke-dasharray="15,10" x1="215.48" y1="784.52" x2="215.48" y2="666.666"/>
<line fill="none" stroke="#0000FF" stroke-width="4" x1="215.48" y1="784.52" x2="132.147" y2="666.666"/>
<line fill="none" stroke="#0000FF" stroke-width="4" x1="215.48" y1="784.52" x2="333.333" y2="666.666"/>
<line fill="none" stroke="#0000FF" stroke-width="4" x1="215.48" y1="784.52" x2="333.333" y2="833.334"/>
<line fill="none" stroke="#0000FF" stroke-width="4" x1="215.48" y1="784.52" x2="0" y2="1000"/>
<line fill="none" stroke="#FF0000" stroke-width="4" stroke-dasharray="15,10" x1="215.48" y1="784.52" x2="215.48" y2="882.148"/>
<line fill="none" stroke="#000000" stroke-width="5" x1="0" y1="889.190" x2="0" y2="1000"/>
<line fill="none" stroke="#000000" stroke-width="5" x1="0" y1="889.190" x2="0" y2="760.106"/>
<line fill="none" stroke="#0000FF" stroke-width="4" x1="215.48" y1="784.52" x2="0" y2="760.106"/>
<line fill="none" stroke="#FF0000" stroke-width="4" stroke-dasharray="15,10" x1="215.48" y1="784.52" x2="0" y2="889.190"/>
<line fill="none" stroke="#FF0000" stroke-width="4" stroke-dasharray="15,10" x1="784.52" y1="784.52" x2="784.52" y2="666.666"/>
<line fill="none" stroke="#0000FF" stroke-width="4" x1="784.52" y1="784.52" x2="666.667" y2="666.666"/>
<line fill="none" stroke="#0000FF" stroke-width="4" x1="784.52" y1="784.52" x2="867.853" y2="666.666"/>
<line fill="none" stroke="#0000FF" stroke-width="4" x1="784.52" y1="784.52" x2="666.667" y2="833.334"/>
<line fill="none" stroke="#0000FF" stroke-width="4" x1="784.52" y1="784.52" x2="1000" y2="1000"/>
<line fill="none" stroke="#FF0000" stroke-width="4" stroke-dasharray="15,10" x1="784.52" y1="784.52" x2="784.52" y2="882.148"/>
<line fill="none" stroke="#000000" stroke-width="5" x1="1000" y1="889.190" x2="1000" y2="1000"/>
<line fill="none" stroke="#000000" stroke-width="5" x1="1000" y1="889.190" x2="1000" y2="760.106"/>
<line fill="none" stroke="#0000FF" stroke-width="4" x1="784.52" y1="784.52" x2="1000" y2="760.106"/>
<line fill="none" stroke="#FF0000" stroke-width="4" stroke-dasharray="15,10" x1="1000" y1="889.190" x2="784.52" y2="784.52"/>
</svg>
