<?xml version="1.0" encoding="utf-8"?>
<!-- generated by crease pattern Javascript library by Robby Kraft  -->
<svg version="1.1" xmlns="http://www.w3.org/2000/svg" x="0px" y="0px" width="600px" height="600px" viewBox="0 0 600 600">
<g id="valley">
	<line stroke="#4379FF" stroke-linecap="round" stroke-dasharray="6,6" stroke-width="3" x1="550" y1="75" x2="600" y2="75"/>
	<line stroke="#4379FF" stroke-linecap="round" stroke-dasharray="6,6" stroke-width="3" x1="550" y1="125" x2="600" y2="125"/>
	<line stroke="#4379FF" stroke-linecap="round" stroke-dasharray="6,6" stroke-width="3" x1="550" y1="475" x2="600" y2="475"/>
	<line stroke="#4379FF" stroke-linecap="round" stroke-dasharray="6,6" stroke-width="3" x1="550" y1="525" x2="600" y2="525"/>
	<line stroke="#4379FF" stroke-linecap="round" stroke-dasharray="6,6" stroke-width="3" x1="450" y1="25" x2="550" y2="25"/>
	<line stroke="#4379FF" stroke-linecap="round" stroke-dasharray="6,6" stroke-width="3" x1="450" y1="175" x2="550" y2="175"/>
	<line stroke="#4379FF" stroke-linecap="round" stroke-dasharray="6,6" stroke-width="3" x1="450" y1="225" x2="550" y2="225"/>
	<line stroke="#4379FF" stroke-linecap="round" stroke-dasharray="6,6" stroke-width="3" x1="450" y1="575" x2="550" y2="575"/>
	<line stroke="#4379FF" stroke-linecap="round" stroke-dasharray="6,6" stroke-width="3" x1="350" y1="75" x2="450" y2="75"/>
	<line stroke="#4379FF" stroke-linecap="round" stroke-dasharray="6,6" stroke-width="3" x1="350" y1="125" x2="450" y2="125"/>
	<line stroke="#4379FF" stroke-linecap="round" stroke-dasharray="6,6" stroke-width="3" x1="350" y1="325" x2="450" y2="325"/>
	<line stroke="#4379FF" stroke-linecap="round" stroke-dasharray="6,6" stroke-width="3" x1="350" y1="475" x2="450" y2="475"/>
	<line stroke="#4379FF" stroke-linecap="round" stroke-dasharray="6,6" stroke-width="3" x1="350" y1="525" x2="450" y2="525"/>
	<line stroke="#4379FF" stroke-linecap="round" stroke-dasharray="6,6" stroke-width="3" x1="350" y1="575" x2="250" y2="575"/>
	<line stroke="#4379FF" stroke-linecap="round" stroke-dasharray="6,6" stroke-width="3" x1="250" y1="25" x2="350" y2="25"/>
	<line stroke="#4379FF" stroke-linecap="round" stroke-dasharray="6,6" stroke-width="3" x1="250" y1="375" x2="350" y2="375"/>
	<line stroke="#4379FF" stroke-linecap="round" stroke-dasharray="6,6" stroke-width="3" x1="250" y1="425" x2="350" y2="425"/>
	<line stroke="#4379FF" stroke-linecap="round" stroke-dasharray="6,6" stroke-width="3" x1="150" y1="75" x2="250" y2="75"/>
	<line stroke="#4379FF" stroke-linecap="round" stroke-dasharray="6,6" stroke-width="3" x1="150" y1="275" x2="250" y2="275"/>
	<line stroke="#4379FF" stroke-linecap="round" stroke-dasharray="6,6" stroke-width="3" x1="150" y1="325" x2="250" y2="325"/>
	<line stroke="#4379FF" stroke-linecap="round" stroke-dasharray="6,6" stroke-width="3" x1="150" y1="475" x2="250" y2="475"/>
	<line stroke="#4379FF" stroke-linecap="round" stroke-dasharray="6,6" stroke-width="3" x1="150" y1="525" x2="250" y2="525"/>
	<line stroke="#4379FF" stroke-linecap="round" stroke-dasharray="6,6" stroke-width="3" x1="50" y1="25" x2="150" y2="25"/>
	<line stroke="#4379FF" stroke-linecap="round" stroke-dasharray="6,6" stroke-width="3" x1="50" y1="175" x2="150" y2="175"/>
	<line stroke="#4379FF" stroke-linecap="round" stroke-dasharray="6,6" stroke-width="3" x1="50" y1="225" x2="150" y2="225"/>
	<line stroke="#4379FF" stroke-linecap="round" stroke-dasharray="6,6" stroke-width="3" x1="50" y1="375" x2="150" y2="375"/>
	<line stroke="#4379FF" stroke-linecap="round" stroke-dasharray="6,6" stroke-width="3" x1="50" y1="425" x2="150" y2="425"/>
	<line stroke="#4379FF" stroke-linecap="round" stroke-dasharray="6,6" stroke-width="3" x1="50" y1="575" x2="150" y2="575"/>
	<line stroke="#4379FF" stroke-linecap="round" stroke-dasharray="6,6" stroke-width="3" x1="0" y1="75" x2="50" y2="75"/>
	<line stroke="#4379FF" stroke-linecap="round" stroke-dasharray="6,6" stroke-width="3" x1="50" y1="125" x2="0" y2="125"/>
	<line stroke="#4379FF" stroke-linecap="round" stroke-dasharray="6,6" stroke-width="3" x1="0" y1="275" x2="50" y2="275"/>
	<line stroke="#4379FF" stroke-linecap="round" stroke-dasharray="6,6" stroke-width="3" x1="0" y1="325" x2="50" y2="325"/>
	<line stroke="#4379FF" stroke-linecap="round" stroke-dasharray="6,6" stroke-width="3" x1="0" y1="475" x2="50" y2="475"/>
	<line stroke="#4379FF" stroke-linecap="round" stroke-dasharray="6,6" stroke-width="3" x1="0" y1="525" x2="50" y2="525"/>
	<line stroke="#4379FF" stroke-linecap="round" stroke-dasharray="6,6" stroke-width="3" x1="25" y1="600" x2="25" y2="550"/>
	<line stroke="#4379FF" stroke-linecap="round" stroke-dasharray="6,6" stroke-width="3" x1="175" y1="600" x2="175" y2="550"/>
	<line stroke="#4379FF" stroke-linecap="round" stroke-dasharray="6,6" stroke-width="3" x1="225" y1="600" x2="225" y2="550"/>
	<line stroke="#4379FF" stroke-linecap="round" stroke-dasharray="6,6" stroke-width="3" x1="375" y1="600" x2="375" y2="550"/>
	<line stroke="#4379FF" stroke-linecap="round" stroke-dasharray="6,6" stroke-width="3" x1="425" y1="600" x2="425" y2="550"/>
	<line stroke="#4379FF" stroke-linecap="round" stroke-dasharray="6,6" stroke-width="3" x1="575" y1="600" x2="575" y2="550"/>
	<line stroke="#4379FF" stroke-linecap="round" stroke-dasharray="6,6" stroke-width="3" x1="75" y1="550" x2="75" y2="450"/>
	<line stroke="#4379FF" stroke-linecap="round" stroke-dasharray="6,6" stroke-width="3" x1="125" y1="550" x2="125" y2="450"/>
	<line stroke="#4379FF" stroke-linecap="round" stroke-dasharray="6,6" stroke-width="3" x1="275" y1="550" x2="275" y2="450"/>
	<line stroke="#4379FF" stroke-linecap="round" stroke-dasharray="6,6" stroke-width="3" x1="325" y1="550" x2="325" y2="450"/>
	<line stroke="#4379FF" stroke-linecap="round" stroke-dasharray="6,6" stroke-width="3" x1="475" y1="550" x2="475" y2="450"/>
	<line stroke="#4379FF" stroke-linecap="round" stroke-dasharray="6,6" stroke-width="3" x1="525" y1="550" x2="525" y2="450"/>
	<line stroke="#4379FF" stroke-linecap="round" stroke-dasharray="6,6" stroke-width="3" x1="575" y1="450" x2="575" y2="350"/>
	<line stroke="#4379FF" stroke-linecap="round" stroke-dasharray="6,6" stroke-width="3" x1="75" y1="350" x2="75" y2="250"/>
	<line stroke="#4379FF" stroke-linecap="round" stroke-dasharray="6,6" stroke-width="3" x1="125" y1="350" x2="125" y2="250"/>
	<line stroke="#4379FF" stroke-linecap="round" stroke-dasharray="6,6" stroke-width="3" x1="275" y1="350" x2="275" y2="250"/>
	<line stroke="#4379FF" stroke-linecap="round" stroke-dasharray="6,6" stroke-width="3" x1="325" y1="350" x2="325" y2="250"/>
	<line stroke="#4379FF" stroke-linecap="round" stroke-dasharray="6,6" stroke-width="3" x1="525" y1="350" x2="525" y2="250"/>
	<line stroke="#4379FF" stroke-linecap="round" stroke-dasharray="6,6" stroke-width="3" x1="25" y1="250" x2="25" y2="150"/>
	<line stroke="#4379FF" stroke-linecap="round" stroke-dasharray="6,6" stroke-width="3" x1="175" y1="250" x2="175" y2="150"/>
	<line stroke="#4379FF" stroke-linecap="round" stroke-dasharray="6,6" stroke-width="3" x1="375" y1="250" x2="375" y2="150"/>
	<line stroke="#4379FF" stroke-linecap="round" stroke-dasharray="6,6" stroke-width="3" x1="425" y1="250" x2="425" y2="150"/>
	<line stroke="#4379FF" stroke-linecap="round" stroke-dasharray="6,6" stroke-width="3" x1="575" y1="250" x2="575" y2="150"/>
	<line stroke="#4379FF" stroke-linecap="round" stroke-dasharray="6,6" stroke-width="3" x1="275" y1="150" x2="275" y2="50"/>
	<line stroke="#4379FF" stroke-linecap="round" stroke-dasharray="6,6" stroke-width="3" x1="325" y1="150" x2="325" y2="50"/>
	<line stroke="#4379FF" stroke-linecap="round" stroke-dasharray="6,6" stroke-width="3" x1="475" y1="150" x2="475" y2="50"/>
	<line stroke="#4379FF" stroke-linecap="round" stroke-dasharray="6,6" stroke-width="3" x1="525" y1="150" x2="525" y2="50"/>
	<line stroke="#4379FF" stroke-linecap="round" stroke-dasharray="6,6" stroke-width="3" x1="175" y1="50" x2="175" y2="0"/>
	<line stroke="#4379FF" stroke-linecap="round" stroke-dasharray="6,6" stroke-width="3" x1="225" y1="50" x2="225" y2="0"/>
	<line stroke="#4379FF" stroke-linecap="round" stroke-dasharray="6,6" stroke-width="3" x1="375" y1="50" x2="375" y2="0"/>
	<line stroke="#4379FF" stroke-linecap="round" stroke-dasharray="6,6" stroke-width="3" x1="425" y1="50" x2="425" y2="0"/>
	<line stroke="#4379FF" stroke-linecap="round" stroke-dasharray="6,6" stroke-width="3" x1="575" y1="50" x2="575" y2="0"/>
	<line stroke="#4379FF" stroke-linecap="round" stroke-dasharray="6,6" stroke-width="3" x1="450" y1="375" x2="550" y2="375"/>
	<line stroke="#4379FF" stroke-linecap="round" stroke-dasharray="6,6" stroke-width="3" x1="450" y1="425" x2="550" y2="425"/>
	<line stroke="#4379FF" stroke-linecap="round" stroke-dasharray="6,6" stroke-width="3" x1="550" y1="275" x2="600" y2="275"/>
	<line stroke="#4379FF" stroke-linecap="round" stroke-dasharray="6,6" stroke-width="3" x1="550" y1="325" x2="600" y2="325"/>
	<line stroke="#4379FF" stroke-linecap="round" stroke-dasharray="6,6" stroke-width="3" x1="25" y1="450" x2="25" y2="350"/>
	<line stroke="#4379FF" stroke-linecap="round" stroke-dasharray="6,6" stroke-width="3" x1="175" y1="450" x2="175" y2="350"/>
	<line stroke="#4379FF" stroke-linecap="round" stroke-dasharray="6,6" stroke-width="3" x1="225" y1="450" x2="225" y2="350"/>
	<line stroke="#4379FF" stroke-linecap="round" stroke-dasharray="6,6" stroke-width="3" x1="375" y1="450" x2="375" y2="350"/>
	<line stroke="#4379FF" stroke-linecap="round" stroke-dasharray="6,6" stroke-width="3" x1="425" y1="450" x2="425" y2="350"/>
	<line stroke="#4379FF" stroke-linecap="round" stroke-dasharray="6,6" stroke-width="3" x1="25" y1="50" x2="25" y2="0"/>
	<line stroke="#4379FF" stroke-linecap="round" stroke-dasharray="6,6" stroke-width="3" x1="75" y1="150" x2="75" y2="50"/>
	<line stroke="#4379FF" stroke-linecap="round" stroke-dasharray="6,6" stroke-width="3" x1="125" y1="150" x2="125" y2="50"/>
	<line stroke="#4379FF" stroke-linecap="round" stroke-dasharray="6,6" stroke-width="3" x1="150" y1="125" x2="250" y2="125"/>
	<line stroke="#4379FF" stroke-linecap="round" stroke-dasharray="6,6" stroke-width="3" x1="225" y1="250" x2="225" y2="150"/>
	<line stroke="#4379FF" stroke-linecap="round" stroke-dasharray="6,6" stroke-width="3" x1="250" y1="225" x2="350" y2="225"/>
	<line stroke="#4379FF" stroke-linecap="round" stroke-dasharray="6,6" stroke-width="3" x1="350" y1="275" x2="450" y2="275"/>
	<line stroke="#4379FF" stroke-linecap="round" stroke-dasharray="6,6" stroke-width="3" x1="475" y1="350" x2="475" y2="250"/>
	<line stroke="#4379FF" stroke-linecap="round" stroke-dasharray="6,6" stroke-width="3" x1="350" y1="175" x2="250" y2="175"/>
</g>
<g id="mountain">
	<line stroke="#EE1032" stroke-width="3" x1="600" y1="50" x2="575" y2="50"/>
	<line stroke="#EE1032" stroke-width="3" x1="600" y1="150" x2="575" y2="150"/>
	<line stroke="#EE1032" stroke-width="3" x1="600" y1="250" x2="575" y2="250"/>
	<line stroke="#EE1032" stroke-width="3" x1="600" y1="450" x2="575" y2="450"/>
	<line stroke="#EE1032" stroke-width="3" x1="600" y1="550" x2="575" y2="550"/>
	<line stroke="#EE1032" stroke-width="3" x1="525" y1="550" x2="475" y2="550"/>
	<line stroke="#EE1032" stroke-width="3" x1="475" y1="50" x2="525" y2="50"/>
	<line stroke="#EE1032" stroke-width="3" x1="475" y1="150" x2="525" y2="150"/>
	<line stroke="#EE1032" stroke-width="3" x1="475" y1="250" x2="525" y2="250"/>
	<line stroke="#EE1032" stroke-width="3" x1="475" y1="450" x2="525" y2="450"/>
	<line stroke="#EE1032" stroke-width="3" x1="375" y1="50" x2="425" y2="50"/>
	<line stroke="#EE1032" stroke-width="3" x1="375" y1="150" x2="425" y2="150"/>
	<line stroke="#EE1032" stroke-width="3" x1="375" y1="250" x2="425" y2="250"/>
	<line stroke="#EE1032" stroke-width="3" x1="375" y1="350" x2="425" y2="350"/>
	<line stroke="#EE1032" stroke-width="3" x1="375" y1="450" x2="425" y2="450"/>
	<line stroke="#EE1032" stroke-width="3" x1="375" y1="550" x2="425" y2="550"/>
	<line stroke="#EE1032" stroke-width="3" x1="275" y1="50" x2="325" y2="50"/>
	<line stroke="#EE1032" stroke-width="3" x1="275" y1="150" x2="325" y2="150"/>
	<line stroke="#EE1032" stroke-width="3" x1="275" y1="250" x2="325" y2="250"/>
	<line stroke="#EE1032" stroke-width="3" x1="275" y1="450" x2="325" y2="450"/>
	<line stroke="#EE1032" stroke-width="3" x1="275" y1="550" x2="325" y2="550"/>
	<line stroke="#EE1032" stroke-width="3" x1="175" y1="50" x2="225" y2="50"/>
	<line stroke="#EE1032" stroke-width="3" x1="175" y1="250" x2="225" y2="250"/>
	<line stroke="#EE1032" stroke-width="3" x1="175" y1="350" x2="225" y2="350"/>
	<line stroke="#EE1032" stroke-width="3" x1="175" y1="450" x2="225" y2="450"/>
	<line stroke="#EE1032" stroke-width="3" x1="175" y1="550" x2="225" y2="550"/>
	<line stroke="#EE1032" stroke-width="3" x1="75" y1="50" x2="125" y2="50"/>
	<line stroke="#EE1032" stroke-width="3" x1="75" y1="150" x2="125" y2="150"/>
	<line stroke="#EE1032" stroke-width="3" x1="75" y1="250" x2="125" y2="250"/>
	<line stroke="#EE1032" stroke-width="3" x1="75" y1="350" x2="125" y2="350"/>
	<line stroke="#EE1032" stroke-width="3" x1="75" y1="450" x2="125" y2="450"/>
	<line stroke="#EE1032" stroke-width="3" x1="75" y1="550" x2="125" y2="550"/>
	<line stroke="#EE1032" stroke-width="3" x1="25" y1="50" x2="0" y2="50"/>
	<line stroke="#EE1032" stroke-width="3" x1="25" y1="150" x2="0" y2="150"/>
	<line stroke="#EE1032" stroke-width="3" x1="25" y1="250" x2="0" y2="250"/>
	<line stroke="#EE1032" stroke-width="3" x1="25" y1="350" x2="0" y2="350"/>
	<line stroke="#EE1032" stroke-width="3" x1="25" y1="450" x2="0" y2="450"/>
	<line stroke="#EE1032" stroke-width="3" x1="25" y1="550" x2="0" y2="550"/>
	<line stroke="#EE1032" stroke-width="3" x1="50" y1="575" x2="50" y2="600"/>
	<line stroke="#EE1032" stroke-width="3" x1="150" y1="575" x2="150" y2="600"/>
	<line stroke="#EE1032" stroke-width="3" x1="250" y1="575" x2="250" y2="600"/>
	<line stroke="#EE1032" stroke-width="3" x1="350" y1="575" x2="350" y2="600"/>
	<line stroke="#EE1032" stroke-width="3" x1="450" y1="575" x2="450" y2="600"/>
	<line stroke="#EE1032" stroke-width="3" x1="550" y1="575" x2="550" y2="600"/>
	<line stroke="#EE1032" stroke-width="3" x1="50" y1="525" x2="50" y2="475"/>
	<line stroke="#EE1032" stroke-width="3" x1="150" y1="525" x2="150" y2="475"/>
	<line stroke="#EE1032" stroke-width="3" x1="250" y1="525" x2="250" y2="475"/>
	<line stroke="#EE1032" stroke-width="3" x1="350" y1="525" x2="350" y2="475"/>
	<line stroke="#EE1032" stroke-width="3" x1="450" y1="525" x2="450" y2="475"/>
	<line stroke="#EE1032" stroke-width="3" x1="550" y1="525" x2="550" y2="475"/>
	<line stroke="#EE1032" stroke-width="3" x1="50" y1="425" x2="50" y2="375"/>
	<line stroke="#EE1032" stroke-width="3" x1="150" y1="425" x2="150" y2="375"/>
	<line stroke="#EE1032" stroke-width="3" x1="250" y1="425" x2="250" y2="375"/>
	<line stroke="#EE1032" stroke-width="3" x1="350" y1="425" x2="350" y2="375"/>
	<line stroke="#EE1032" stroke-width="3" x1="450" y1="425" x2="450" y2="375"/>
	<line stroke="#EE1032" stroke-width="3" x1="50" y1="325" x2="50" y2="275"/>
	<line stroke="#EE1032" stroke-width="3" x1="150" y1="325" x2="150" y2="275"/>
	<line stroke="#EE1032" stroke-width="3" x1="250" y1="325" x2="250" y2="275"/>
	<line stroke="#EE1032" stroke-width="3" x1="350" y1="325" x2="350" y2="275"/>
	<line stroke="#EE1032" stroke-width="3" x1="550" y1="325" x2="550" y2="275"/>
	<line stroke="#EE1032" stroke-width="3" x1="50" y1="225" x2="50" y2="175"/>
	<line stroke="#EE1032" stroke-width="3" x1="150" y1="225" x2="150" y2="175"/>
	<line stroke="#EE1032" stroke-width="3" x1="250" y1="225" x2="250" y2="175"/>
	<line stroke="#EE1032" stroke-width="3" x1="350" y1="225" x2="350" y2="175"/>
	<line stroke="#EE1032" stroke-width="3" x1="450" y1="225" x2="450" y2="175"/>
	<line stroke="#EE1032" stroke-width="3" x1="550" y1="225" x2="550" y2="175"/>
	<line stroke="#EE1032" stroke-width="3" x1="50" y1="125" x2="50" y2="75"/>
	<line stroke="#EE1032" stroke-width="3" x1="250" y1="125" x2="250" y2="75"/>
	<line stroke="#EE1032" stroke-width="3" x1="350" y1="125" x2="350" y2="75"/>
	<line stroke="#EE1032" stroke-width="3" x1="450" y1="125" x2="450" y2="75"/>
	<line stroke="#EE1032" stroke-width="3" x1="550" y1="125" x2="550" y2="75"/>
	<line stroke="#EE1032" stroke-width="3" x1="50" y1="0" x2="50" y2="25"/>
	<line stroke="#EE1032" stroke-width="3" x1="150" y1="0" x2="150" y2="25"/>
	<line stroke="#EE1032" stroke-width="3" x1="250" y1="0" x2="250" y2="25"/>
	<line stroke="#EE1032" stroke-width="3" x1="350" y1="0" x2="350" y2="25"/>
	<line stroke="#EE1032" stroke-width="3" x1="450" y1="0" x2="450" y2="25"/>
	<line stroke="#EE1032" stroke-width="3" x1="550" y1="0" x2="550" y2="25"/>
	<line stroke="#EE1032" stroke-width="3" x1="275" y1="250" x2="250" y2="275"/>
	<line stroke="#EE1032" stroke-width="3" x1="250" y1="275" x2="225" y2="250"/>
	<line stroke="#EE1032" stroke-width="3" x1="250" y1="225" x2="225" y2="250"/>
	<line stroke="#EE1032" stroke-width="3" x1="275" y1="250" x2="250" y2="225"/>
	<line stroke="#EE1032" stroke-width="3" x1="250" y1="325" x2="275" y2="350"/>
	<line stroke="#EE1032" stroke-width="3" x1="325" y1="350" x2="350" y2="325"/>
	<line stroke="#EE1032" stroke-width="3" x1="250" y1="375" x2="275" y2="350"/>
	<line stroke="#EE1032" stroke-width="3" x1="225" y1="350" x2="250" y2="325"/>
	<line stroke="#EE1032" stroke-width="3" x1="225" y1="350" x2="250" y2="375"/>
	<line stroke="#EE1032" stroke-width="3" x1="325" y1="350" x2="350" y2="375"/>
	<line stroke="#EE1032" stroke-width="3" x1="350" y1="325" x2="375" y2="350"/>
	<line stroke="#EE1032" stroke-width="3" x1="350" y1="375" x2="375" y2="350"/>
	<line stroke="#EE1032" stroke-width="3" x1="350" y1="275" x2="325" y2="250"/>
	<line stroke="#EE1032" stroke-width="3" x1="350" y1="225" x2="375" y2="250"/>
	<line stroke="#EE1032" stroke-width="3" x1="350" y1="175" x2="375" y2="150"/>
	<line stroke="#EE1032" stroke-width="3" x1="350" y1="125" x2="375" y2="150"/>
	<line stroke="#EE1032" stroke-width="3" x1="350" y1="175" x2="325" y2="150"/>
	<line stroke="#EE1032" stroke-width="3" x1="350" y1="125" x2="325" y2="150"/>
	<line stroke="#EE1032" stroke-width="3" x1="250" y1="125" x2="275" y2="150"/>
	<line stroke="#EE1032" stroke-width="3" x1="225" y1="150" x2="250" y2="125"/>
	<line stroke="#EE1032" stroke-width="3" x1="175" y1="150" x2="150" y2="125"/>
	<line stroke="#EE1032" stroke-width="3" x1="125" y1="150" x2="150" y2="125"/>
	<line stroke="#EE1032" stroke-width="3" x1="125" y1="150" x2="150" y2="175"/>
	<line stroke="#EE1032" stroke-width="3" x1="150" y1="175" x2="175" y2="150"/>
	<line stroke="#EE1032" stroke-width="3" x1="550" y1="375" x2="550" y2="425"/>
	<line stroke="#EE1032" stroke-width="3" x1="150" y1="125" x2="150" y2="75"/>
	<line stroke="#EE1032" stroke-width="3" x1="175" y1="150" x2="225" y2="150"/>
	<line stroke="#EE1032" stroke-width="3" x1="250" y1="175" x2="225" y2="150"/>
	<line stroke="#EE1032" stroke-width="3" x1="250" y1="175" x2="275" y2="150"/>
	<line stroke="#EE1032" stroke-width="3" x1="325" y1="250" x2="350" y2="225"/>
	<line stroke="#EE1032" stroke-width="3" x1="350" y1="275" x2="375" y2="250"/>
	<line stroke="#EE1032" stroke-width="3" x1="450" y1="325" x2="450" y2="275"/>
	<line stroke="#EE1032" stroke-width="3" x1="475" y1="350" x2="525" y2="350"/>
	<line stroke="#EE1032" stroke-width="3" x1="575" y1="350" x2="600" y2="350"/>
	<line stroke="#EE1032" stroke-width="3" x1="250" y1="425" x2="275" y2="450"/>
	<line stroke="#EE1032" stroke-width="3" x1="250" y1="475" x2="275" y2="450"/>
	<line stroke="#EE1032" stroke-width="3" x1="250" y1="475" x2="225" y2="450"/>
	<line stroke="#EE1032" stroke-width="3" x1="225" y1="450" x2="250" y2="425"/>
	<line stroke="#EE1032" stroke-width="3" x1="175" y1="350" x2="150" y2="325"/>
	<line stroke="#EE1032" stroke-width="3" x1="125" y1="350" x2="150" y2="325"/>
	<line stroke="#EE1032" stroke-width="3" x1="150" y1="375" x2="125" y2="350"/>
	<line stroke="#EE1032" stroke-width="3" x1="175" y1="350" x2="150" y2="375"/>
	<line stroke="#EE1032" stroke-width="3" x1="150" y1="425" x2="175" y2="450"/>
	<line stroke="#EE1032" stroke-width="3" x1="150" y1="475" x2="175" y2="450"/>
	<line stroke="#EE1032" stroke-width="3" x1="125" y1="450" x2="150" y2="475"/>
	<line stroke="#EE1032" stroke-width="3" x1="125" y1="450" x2="150" y2="425"/>
	<line stroke="#EE1032" stroke-width="3" x1="75" y1="450" x2="50" y2="425"/>
	<line stroke="#EE1032" stroke-width="3" x1="25" y1="450" x2="50" y2="425"/>
	<line stroke="#EE1032" stroke-width="3" x1="25" y1="450" x2="50" y2="475"/>
	<line stroke="#EE1032" stroke-width="3" x1="50" y1="475" x2="75" y2="450"/>
	<line stroke="#EE1032" stroke-width="3" x1="50" y1="525" x2="75" y2="550"/>
	<line stroke="#EE1032" stroke-width="3" x1="50" y1="575" x2="75" y2="550"/>
	<line stroke="#EE1032" stroke-width="3" x1="25" y1="550" x2="50" y2="575"/>
	<line stroke="#EE1032" stroke-width="3" x1="25" y1="550" x2="50" y2="525"/>
	<line stroke="#EE1032" stroke-width="3" x1="25" y1="350" x2="50" y2="375"/>
	<line stroke="#EE1032" stroke-width="3" x1="75" y1="350" x2="50" y2="375"/>
	<line stroke="#EE1032" stroke-width="3" x1="50" y1="325" x2="75" y2="350"/>
	<line stroke="#EE1032" stroke-width="3" x1="25" y1="350" x2="50" y2="325"/>
	<line stroke="#EE1032" stroke-width="3" x1="75" y1="250" x2="50" y2="225"/>
	<line stroke="#EE1032" stroke-width="3" x1="25" y1="250" x2="50" y2="225"/>
	<line stroke="#EE1032" stroke-width="3" x1="25" y1="250" x2="50" y2="275"/>
	<line stroke="#EE1032" stroke-width="3" x1="50" y1="275" x2="75" y2="250"/>
	<line stroke="#EE1032" stroke-width="3" x1="50" y1="175" x2="25" y2="150"/>
	<line stroke="#EE1032" stroke-width="3" x1="50" y1="125" x2="25" y2="150"/>
	<line stroke="#EE1032" stroke-width="3" x1="75" y1="150" x2="50" y2="175"/>
	<line stroke="#EE1032" stroke-width="3" x1="50" y1="125" x2="75" y2="150"/>
	<line stroke="#EE1032" stroke-width="3" x1="50" y1="75" x2="75" y2="50"/>
	<line stroke="#EE1032" stroke-width="3" x1="50" y1="25" x2="75" y2="50"/>
	<line stroke="#EE1032" stroke-width="3" x1="25" y1="50" x2="50" y2="25"/>
	<line stroke="#EE1032" stroke-width="3" x1="25" y1="50" x2="50" y2="75"/>
	<line stroke="#EE1032" stroke-width="3" x1="125" y1="50" x2="150" y2="25"/>
	<line stroke="#EE1032" stroke-width="3" x1="175" y1="50" x2="150" y2="25"/>
	<line stroke="#EE1032" stroke-width="3" x1="150" y1="75" x2="125" y2="50"/>
	<line stroke="#EE1032" stroke-width="3" x1="150" y1="75" x2="175" y2="50"/>
	<line stroke="#EE1032" stroke-width="3" x1="250" y1="75" x2="275" y2="50"/>
	<line stroke="#EE1032" stroke-width="3" x1="250" y1="25" x2="275" y2="50"/>
	<line stroke="#EE1032" stroke-width="3" x1="225" y1="50" x2="250" y2="25"/>
	<line stroke="#EE1032" stroke-width="3" x1="250" y1="75" x2="225" y2="50"/>
	<line stroke="#EE1032" stroke-width="3" x1="325" y1="50" x2="350" y2="25"/>
	<line stroke="#EE1032" stroke-width="3" x1="375" y1="50" x2="350" y2="25"/>
	<line stroke="#EE1032" stroke-width="3" x1="350" y1="75" x2="375" y2="50"/>
	<line stroke="#EE1032" stroke-width="3" x1="325" y1="50" x2="350" y2="75"/>
	<line stroke="#EE1032" stroke-width="3" x1="450" y1="75" x2="475" y2="50"/>
	<line stroke="#EE1032" stroke-width="3" x1="450" y1="25" x2="475" y2="50"/>
	<line stroke="#EE1032" stroke-width="3" x1="425" y1="50" x2="450" y2="25"/>
	<line stroke="#EE1032" stroke-width="3" x1="450" y1="75" x2="425" y2="50"/>
	<line stroke="#EE1032" stroke-width="3" x1="525" y1="50" x2="550" y2="25"/>
	<line stroke="#EE1032" stroke-width="3" x1="575" y1="50" x2="550" y2="25"/>
	<line stroke="#EE1032" stroke-width="3" x1="525" y1="50" x2="550" y2="75"/>
	<line stroke="#EE1032" stroke-width="3" x1="575" y1="50" x2="550" y2="75"/>
	<line stroke="#EE1032" stroke-width="3" x1="525" y1="150" x2="550" y2="175"/>
	<line stroke="#EE1032" stroke-width="3" x1="575" y1="150" x2="550" y2="175"/>
	<line stroke="#EE1032" stroke-width="3" x1="550" y1="125" x2="525" y2="150"/>
	<line stroke="#EE1032" stroke-width="3" x1="575" y1="150" x2="550" y2="125"/>
	<line stroke="#EE1032" stroke-width="3" x1="450" y1="175" x2="475" y2="150"/>
	<line stroke="#EE1032" stroke-width="3" x1="450" y1="125" x2="475" y2="150"/>
	<line stroke="#EE1032" stroke-width="3" x1="425" y1="150" x2="450" y2="125"/>
	<line stroke="#EE1032" stroke-width="3" x1="425" y1="150" x2="450" y2="175"/>
	<line stroke="#EE1032" stroke-width="3" x1="450" y1="225" x2="475" y2="250"/>
	<line stroke="#EE1032" stroke-width="3" x1="450" y1="275" x2="475" y2="250"/>
	<line stroke="#EE1032" stroke-width="3" x1="425" y1="250" x2="450" y2="275"/>
	<line stroke="#EE1032" stroke-width="3" x1="450" y1="225" x2="425" y2="250"/>
	<line stroke="#EE1032" stroke-width="3" x1="450" y1="325" x2="475" y2="350"/>
	<line stroke="#EE1032" stroke-width="3" x1="450" y1="375" x2="475" y2="350"/>
	<line stroke="#EE1032" stroke-width="3" x1="425" y1="350" x2="450" y2="375"/>
	<line stroke="#EE1032" stroke-width="3" x1="425" y1="350" x2="450" y2="325"/>
	<line stroke="#EE1032" stroke-width="3" x1="450" y1="425" x2="425" y2="450"/>
	<line stroke="#EE1032" stroke-width="3" x1="450" y1="475" x2="425" y2="450"/>
	<line stroke="#EE1032" stroke-width="3" x1="475" y1="450" x2="450" y2="475"/>
	<line stroke="#EE1032" stroke-width="3" x1="450" y1="425" x2="475" y2="450"/>
	<line stroke="#EE1032" stroke-width="3" x1="350" y1="475" x2="375" y2="450"/>
	<line stroke="#EE1032" stroke-width="3" x1="350" y1="425" x2="375" y2="450"/>
	<line stroke="#EE1032" stroke-width="3" x1="350" y1="475" x2="325" y2="450"/>
	<line stroke="#EE1032" stroke-width="3" x1="350" y1="425" x2="325" y2="450"/>
	<line stroke="#EE1032" stroke-width="3" x1="350" y1="525" x2="325" y2="550"/>
	<line stroke="#EE1032" stroke-width="3" x1="350" y1="575" x2="325" y2="550"/>
	<line stroke="#EE1032" stroke-width="3" x1="375" y1="550" x2="350" y2="525"/>
	<line stroke="#EE1032" stroke-width="3" x1="350" y1="575" x2="375" y2="550"/>
	<line stroke="#EE1032" stroke-width="3" x1="250" y1="575" x2="275" y2="550"/>
	<line stroke="#EE1032" stroke-width="3" x1="250" y1="525" x2="275" y2="550"/>
	<line stroke="#EE1032" stroke-width="3" x1="225" y1="550" x2="250" y2="575"/>
	<line stroke="#EE1032" stroke-width="3" x1="250" y1="525" x2="225" y2="550"/>
	<line stroke="#EE1032" stroke-width="3" x1="150" y1="525" x2="175" y2="550"/>
	<line stroke="#EE1032" stroke-width="3" x1="150" y1="575" x2="175" y2="550"/>
	<line stroke="#EE1032" stroke-width="3" x1="150" y1="525" x2="125" y2="550"/>
	<line stroke="#EE1032" stroke-width="3" x1="125" y1="550" x2="150" y2="575"/>
	<line stroke="#EE1032" stroke-width="3" x1="425" y1="550" x2="450" y2="525"/>
	<line stroke="#EE1032" stroke-width="3" x1="475" y1="550" x2="450" y2="525"/>
	<line stroke="#EE1032" stroke-width="3" x1="450" y1="575" x2="425" y2="550"/>
	<line stroke="#EE1032" stroke-width="3" x1="475" y1="550" x2="450" y2="575"/>
	<line stroke="#EE1032" stroke-width="3" x1="525" y1="450" x2="550" y2="425"/>
	<line stroke="#EE1032" stroke-width="3" x1="575" y1="450" x2="550" y2="475"/>
	<line stroke="#EE1032" stroke-width="3" x1="525" y1="450" x2="550" y2="475"/>
	<line stroke="#EE1032" stroke-width="3" x1="575" y1="450" x2="550" y2="425"/>
	<line stroke="#EE1032" stroke-width="3" x1="550" y1="375" x2="575" y2="350"/>
	<line stroke="#EE1032" stroke-width="3" x1="550" y1="325" x2="525" y2="350"/>
	<line stroke="#EE1032" stroke-width="3" x1="550" y1="375" x2="525" y2="350"/>
	<line stroke="#EE1032" stroke-width="3" x1="575" y1="350" x2="550" y2="325"/>
	<line stroke="#EE1032" stroke-width="3" x1="550" y1="275" x2="525" y2="250"/>
	<line stroke="#EE1032" stroke-width="3" x1="550" y1="225" x2="525" y2="250"/>
	<line stroke="#EE1032" stroke-width="3" x1="575" y1="250" x2="550" y2="275"/>
	<line stroke="#EE1032" stroke-width="3" x1="550" y1="225" x2="575" y2="250"/>
	<line stroke="#EE1032" stroke-width="3" x1="550" y1="525" x2="525" y2="550"/>
	<line stroke="#EE1032" stroke-width="3" x1="550" y1="575" x2="525" y2="550"/>
	<line stroke="#EE1032" stroke-width="3" x1="550" y1="525" x2="575" y2="550"/>
	<line stroke="#EE1032" stroke-width="3" x1="550" y1="575" x2="575" y2="550"/>
	<line stroke="#EE1032" stroke-width="3" x1="175" y1="250" x2="150" y2="225"/>
	<line stroke="#EE1032" stroke-width="3" x1="125" y1="250" x2="150" y2="225"/>
	<line stroke="#EE1032" stroke-width="3" x1="175" y1="250" x2="150" y2="275"/>
	<line stroke="#EE1032" stroke-width="3" x1="125" y1="250" x2="150" y2="275"/>
	<line stroke="#EE1032" stroke-width="3" x1="275" y1="350" x2="325" y2="350"/>
</g>
<g id="boundary">
	<line stroke="#000000" stroke-width="3" x1="0" y1="0" x2="25" y2="0"/>
	<line stroke="#000000" stroke-width="3" x1="25" y1="0" x2="50" y2="0"/>
	<line stroke="#000000" stroke-width="3" x1="50" y1="0" x2="150" y2="0"/>
	<line stroke="#000000" stroke-width="3" x1="150" y1="0" x2="175" y2="0"/>
	<line stroke="#000000" stroke-width="3" x1="175" y1="0" x2="225" y2="0"/>
	<line stroke="#000000" stroke-width="3" x1="225" y1="0" x2="250" y2="0"/>
	<line stroke="#000000" stroke-width="3" x1="250" y1="0" x2="350" y2="0"/>
	<line stroke="#000000" stroke-width="3" x1="350" y1="0" x2="375" y2="0"/>
	<line stroke="#000000" stroke-width="3" x1="375" y1="0" x2="425" y2="0"/>
	<line stroke="#000000" stroke-width="3" x1="425" y1="0" x2="450" y2="0"/>
	<line stroke="#000000" stroke-width="3" x1="450" y1="0" x2="550" y2="0"/>
	<line stroke="#000000" stroke-width="3" x1="550" y1="0" x2="575" y2="0"/>
	<line stroke="#000000" stroke-width="3" x1="575" y1="0" x2="600" y2="0"/>
	<line stroke="#000000" stroke-width="3" x1="0" y1="600" x2="25" y2="600"/>
	<line stroke="#000000" stroke-width="3" x1="25" y1="600" x2="50" y2="600"/>
	<line stroke="#000000" stroke-width="3" x1="50" y1="600" x2="150" y2="600"/>
	<line stroke="#000000" stroke-width="3" x1="150" y1="600" x2="175" y2="600"/>
	<line stroke="#000000" stroke-width="3" x1="175" y1="600" x2="225" y2="600"/>
	<line stroke="#000000" stroke-width="3" x1="225" y1="600" x2="250" y2="600"/>
	<line stroke="#000000" stroke-width="3" x1="250" y1="600" x2="350" y2="600"/>
	<line stroke="#000000" stroke-width="3" x1="350" y1="600" x2="375" y2="600"/>
	<line stroke="#000000" stroke-width="3" x1="375" y1="600" x2="425" y2="600"/>
	<line stroke="#000000" stroke-width="3" x1="425" y1="600" x2="450" y2="600"/>
	<line stroke="#000000" stroke-width="3" x1="450" y1="600" x2="550" y2="600"/>
	<line stroke="#000000" stroke-width="3" x1="550" y1="600" x2="575" y2="600"/>
	<line stroke="#000000" stroke-width="3" x1="575" y1="600" x2="600" y2="600"/>
	<line stroke="#000000" stroke-width="3" x1="600" y1="50" x2="600" y2="0"/>
	<line stroke="#000000" stroke-width="3" x1="600" y1="50" x2="600" y2="75"/>
	<line stroke="#000000" stroke-width="3" x1="600" y1="125" x2="600" y2="75"/>
	<line stroke="#000000" stroke-width="3" x1="600" y1="125" x2="600" y2="150"/>
	<line stroke="#000000" stroke-width="3" x1="600" y1="250" x2="600" y2="150"/>
	<line stroke="#000000" stroke-width="3" x1="600" y1="250" x2="600" y2="275"/>
	<line stroke="#000000" stroke-width="3" x1="600" y1="325" x2="600" y2="275"/>
	<line stroke="#000000" stroke-width="3" x1="600" y1="450" x2="600" y2="350"/>
	<line stroke="#000000" stroke-width="3" x1="600" y1="450" x2="600" y2="475"/>
	<line stroke="#000000" stroke-width="3" x1="600" y1="525" x2="600" y2="475"/>
	<line stroke="#000000" stroke-width="3" x1="600" y1="525" x2="600" y2="550"/>
	<line stroke="#000000" stroke-width="3" x1="600" y1="600" x2="600" y2="550"/>
	<line stroke="#000000" stroke-width="3" x1="0" y1="50" x2="0" y2="0"/>
	<line stroke="#000000" stroke-width="3" x1="0" y1="50" x2="0" y2="75"/>
	<line stroke="#000000" stroke-width="3" x1="0" y1="125" x2="0" y2="75"/>
	<line stroke="#000000" stroke-width="3" x1="0" y1="125" x2="0" y2="150"/>
	<line stroke="#000000" stroke-width="3" x1="0" y1="250" x2="0" y2="150"/>
	<line stroke="#000000" stroke-width="3" x1="0" y1="250" x2="0" y2="275"/>
	<line stroke="#000000" stroke-width="3" x1="0" y1="325" x2="0" y2="275"/>
	<line stroke="#000000" stroke-width="3" x1="0" y1="325" x2="0" y2="350"/>
	<line stroke="#000000" stroke-width="3" x1="0" y1="450" x2="0" y2="475"/>
	<line stroke="#000000" stroke-width="3" x1="0" y1="525" x2="0" y2="475"/>
	<line stroke="#000000" stroke-width="3" x1="0" y1="525" x2="0" y2="550"/>
	<line stroke="#000000" stroke-width="3" x1="0" y1="600" x2="0" y2="550"/>
	<line stroke="#000000" stroke-width="3" x1="0" y1="450" x2="0" y2="350"/>
	<line stroke="#000000" stroke-width="3" x1="600" y1="325" x2="600" y2="350"/>
</g>
</svg>
