<?xml version="1.0" encoding="utf-8"?>
<!-- Generator: Adobe Illustrator 16.0.0, SVG Export Plug-In . SVG Version: 6.00 Build 0)  -->
<!DOCTYPE svg PUBLIC "-//W3C//DTD SVG 1.1//EN" "http://www.w3.org/Graphics/SVG/1.1/DTD/svg11.dtd">
<svg version="1.1" id="Layer_1" xmlns="http://www.w3.org/2000/svg" xmlns:xlink="http://www.w3.org/1999/xlink" x="0px" y="0px"
	 width="2000px" height="2000px" viewBox="0 0 2000 2000" enable-background="new 0 0 2000 2000" xml:space="preserve">
<g id="twists">
	<line fill="none" stroke="#FF1030" stroke-width="1.5" x1="1277.549" y1="1559.289" x2="1565.205" y2="1636.367"/>
	
		<line fill="none" stroke="#4030FF" stroke-width="1.5" stroke-dasharray="4.5,4.5" x1="1213.014" y1="1502.062" x2="1567.012" y2="1596.918"/>
	<line fill="none" stroke="#FF1030" stroke-width="1.5" x1="1277.549" y1="1559.289" x2="1213.014" y2="1502.062"/>
	<line fill="none" stroke="#FF1030" stroke-width="1.5" x1="1213.014" y1="1502.062" x2="1216.669" y2="1562.943"/>
	<line fill="none" stroke="#FF1030" stroke-width="1.5" x1="1216.669" y1="1562.943" x2="1277.549" y2="1559.289"/>
	
		<line fill="none" stroke="#4030FF" stroke-width="1.5" stroke-dasharray="4.5,4.5" x1="1213.323" y1="1891.452" x2="996.278" y2="1674.407"/>
	<polyline fill="none" stroke="#FF1030" stroke-width="1.5" points="1088.303,1637.061 1120.276,1618.602 1143.855,1604.98 
		1216.669,1562.943 	"/>
	<line fill="none" stroke="#FF1030" stroke-width="1.5" x1="1043.631" y1="1694.422" x2="1243.33" y2="1894.121"/>
	<polyline fill="none" stroke="#4030FF" stroke-width="1.5" stroke-dasharray="4.5,4.5" points="1043.631,1694.422 
		1120.276,1650.17 1143.855,1636.477 1277.549,1559.289 	"/>
	<line fill="none" stroke="#FF1030" stroke-width="1.5" x1="1088.303" y1="1637.061" x2="996.278" y2="1674.407"/>
	<line fill="none" stroke="#FF1030" stroke-width="1.5" x1="1043.631" y1="1694.422" x2="1088.303" y2="1637.061"/>
	<line fill="none" stroke="#FF1030" stroke-width="1.5" x1="996.278" y1="1674.407" x2="1043.631" y2="1694.422"/>
	<polyline fill="none" stroke="#4030FF" stroke-width="1.5" stroke-dasharray="4.5,4.5" points="1028.395,1236.842 
		1084.008,1333.168 1153.119,1452.872 1216.669,1562.943 	"/>
	<polyline fill="none" stroke="#FF1030" stroke-width="1.5" points="1077.127,1266.759 1115.467,1333.168 1184.614,1452.872 
		1213.014,1502.062 	"/>
	<line fill="none" stroke="#FF1030" stroke-width="1.5" x1="1097.072" y1="1199.624" x2="1028.395" y2="1236.842"/>
	<line fill="none" stroke="#FF1030" stroke-width="1.5" x1="1077.127" y1="1266.759" x2="1097.072" y2="1199.624"/>
	<line fill="none" stroke="#FF1030" stroke-width="1.5" x1="1028.395" y1="1236.842" x2="1077.127" y2="1266.759"/>
	<line fill="none" stroke="#FF1030" stroke-width="1.5" x1="1117.182" y1="681.746" x2="1014.248" y2="737.527"/>
	<line fill="none" stroke="#FF1030" stroke-width="1.5" x1="1087.287" y1="782.365" x2="1117.182" y2="681.746"/>
	<line fill="none" stroke="#FF1030" stroke-width="1.5" x1="1014.248" y1="737.527" x2="1087.287" y2="782.365"/>
	<line fill="none" stroke="#FF1030" stroke-width="1.5" x1="1162.009" y1="157.893" x2="1294.913" y2="24.986"/>
	
		<line fill="none" stroke="#4030FF" stroke-width="1.5" stroke-dasharray="4.5,4.5" x1="1402.093" y1="23.913" x2="1117.161" y2="308.848"/>
	<line fill="none" stroke="#FF1030" stroke-width="1.5" x1="1162.009" y1="157.893" x2="1007.585" y2="241.578"/>
	<line fill="none" stroke="#FF1030" stroke-width="1.5" x1="1117.161" y1="308.848" x2="1162.009" y2="157.893"/>
	<line fill="none" stroke="#FF1030" stroke-width="1.5" x1="1007.585" y1="241.578" x2="1117.161" y2="308.848"/>
	<line fill="none" stroke="#FF1030" stroke-width="1.5" x1="1280.791" y1="1063.098" x2="1584.25" y2="1144.41"/>
	<polyline fill="none" stroke="#4030FF" stroke-width="1.5" stroke-dasharray="4.5,4.5" points="1280.79,1063.097 
		1172.892,1170.996 1156.18,1187.705 1077.127,1266.759 	"/>
	<polyline fill="none" stroke="#FF1030" stroke-width="1.5" points="1211.409,997.362 1143.949,880.517 1144.75,881.898 
		1087.287,782.365 	"/>
	
		<line fill="none" stroke="#4030FF" stroke-width="1.5" stroke-dasharray="4.5,4.5" x1="1590.923" y1="1099.054" x2="1211.409" y2="997.362"/>
	<polyline fill="none" stroke="#FF1030" stroke-width="1.5" points="1213.721,1083.023 1125.748,1170.996 1097.072,1199.624 
		1156.18,1140.516 	"/>
	<polyline fill="none" stroke="#4030FF" stroke-width="1.5" stroke-dasharray="4.5,4.5" points="1213.721,1083.023 
		1128.418,935.273 1097.602,881.898 1014.248,737.527 	"/>
	<line fill="none" stroke="#FF1030" stroke-width="1.5" x1="1280.79" y1="1063.097" x2="1211.409" y2="997.362"/>
	<line fill="none" stroke="#FF1030" stroke-width="1.5" x1="1211.409" y1="997.362" x2="1213.721" y2="1083.023"/>
	<line fill="none" stroke="#FF1030" stroke-width="1.5" x1="1213.721" y1="1083.023" x2="1280.79" y2="1063.097"/>
	<line fill="none" stroke="#FF1030" stroke-width="1.5" x1="1309.448" y1="560.201" x2="1556.601" y2="626.425"/>
	<polyline fill="none" stroke="#4030FF" stroke-width="1.5" stroke-dasharray="4.5,4.5" points="1309.448,560.201 1147.539,722.111 
		1205.771,663.883 1087.287,782.365 	"/>
	<polyline fill="none" stroke="#FF1030" stroke-width="1.5" points="1151.545,368.392 1205.337,461.562 1203.37,458.17 
		1117.161,308.848 	"/>
	
		<line fill="none" stroke="#4030FF" stroke-width="1.5" stroke-dasharray="4.5,4.5" x1="1567.747" y1="558.667" x2="1205.337" y2="461.562"/>
	<polyline fill="none" stroke="#FF1030" stroke-width="1.5" points="1158.703,640.203 1208.806,590.102 1205.771,593.154 
		1117.182,681.746 	"/>
	<polyline fill="none" stroke="#4030FF" stroke-width="1.5" stroke-dasharray="4.5,4.5" points="1208.806,590.102 1080.801,368.392 
		1132.634,458.17 1007.585,241.578 	"/>
	<line fill="none" stroke="#FF1030" stroke-width="1.5" x1="1309.448" y1="560.201" x2="1205.337" y2="461.562"/>
	<line fill="none" stroke="#FF1030" stroke-width="1.5" x1="1205.337" y1="461.562" x2="1208.806" y2="590.102"/>
	<line fill="none" stroke="#FF1030" stroke-width="1.5" x1="1208.806" y1="590.102" x2="1309.448" y2="560.201"/>
	<line fill="none" stroke="#FF1030" stroke-width="1.5" x1="388.777" y1="1625.615" x2="636.178" y2="1559.326"/>
	
		<line fill="none" stroke="#4030FF" stroke-width="1.5" stroke-dasharray="4.5,4.5" x1="386.239" y1="1586.363" x2="700.712" y2="1502.1"/>
	<line fill="none" stroke="#FF1030" stroke-width="1.5" x1="700.712" y1="1502.1" x2="636.177" y2="1559.326"/>
	<line fill="none" stroke="#FF1030" stroke-width="1.5" x1="697.057" y1="1562.98" x2="700.712" y2="1502.1"/>
	<line fill="none" stroke="#FF1030" stroke-width="1.5" x1="636.177" y1="1559.326" x2="697.057" y2="1562.98"/>
	<polyline fill="none" stroke="#FF1030" stroke-width="1.5" points="986.768,1674.444 917.447,1674.444 926.958,1674.407 
		996.278,1674.407 	"/>
	
		<line fill="none" stroke="#4030FF" stroke-width="1.5" stroke-dasharray="4.5,4.5" x1="917.447" y1="1674.444" x2="695.945" y2="1895.944"/>
	<polyline fill="none" stroke="#FF1030" stroke-width="1.5" points="697.057,1562.98 769.87,1605.018 793.449,1618.639 
		825.423,1637.098 	"/>
	<polyline fill="none" stroke="#4030FF" stroke-width="1.5" stroke-dasharray="4.5,4.5" points="825.423,1637.098 986.768,1637.098 
		926.958,1637.061 1088.303,1637.061 	"/>
	<line fill="none" stroke="#FF1030" stroke-width="1.5" x1="669.276" y1="1895.275" x2="870.095" y2="1694.459"/>
	<polyline fill="none" stroke="#4030FF" stroke-width="1.5" stroke-dasharray="4.5,4.5" points="636.177,1559.326 769.87,1636.514 
		793.449,1650.207 870.095,1694.459 	"/>
	<line fill="none" stroke="#FF1030" stroke-width="1.5" x1="917.447" y1="1674.444" x2="825.423" y2="1637.098"/>
	<line fill="none" stroke="#FF1030" stroke-width="1.5" x1="825.423" y1="1637.098" x2="870.095" y2="1694.459"/>
	<line fill="none" stroke="#FF1030" stroke-width="1.5" x1="870.095" y1="1694.459" x2="917.447" y2="1674.444"/>
	<polyline fill="none" stroke="#FF1030" stroke-width="1.5" points="885.331,1236.879 950.198,1236.879 963.527,1236.842 
		1028.395,1236.842 	"/>
	<polyline fill="none" stroke="#4030FF" stroke-width="1.5" stroke-dasharray="4.5,4.5" points="697.057,1562.98 760.606,1452.909 
		829.718,1333.205 885.331,1236.879 	"/>
	<polyline fill="none" stroke="#4030FF" stroke-width="1.5" stroke-dasharray="4.5,4.5" points="816.653,1199.661 950.198,1199.661 
		963.527,1199.624 1097.072,1199.624 	"/>
	<polyline fill="none" stroke="#FF1030" stroke-width="1.5" points="700.712,1502.1 729.111,1452.909 798.259,1333.205 
		836.599,1266.796 	"/>
	<line fill="none" stroke="#FF1030" stroke-width="1.5" x1="885.331" y1="1236.879" x2="816.653" y2="1199.661"/>
	<line fill="none" stroke="#FF1030" stroke-width="1.5" x1="816.653" y1="1199.661" x2="836.599" y2="1266.796"/>
	<line fill="none" stroke="#FF1030" stroke-width="1.5" x1="836.599" y1="1266.796" x2="885.331" y2="1236.879"/>
	<polyline fill="none" stroke="#FF1030" stroke-width="1.5" points="996.698,737.564 899.478,737.564 917.027,737.527 
		1014.248,737.527 	"/>
	<polyline fill="none" stroke="#4030FF" stroke-width="1.5" stroke-dasharray="4.5,4.5" points="796.544,681.783 996.698,681.783 
		917.027,681.746 1117.182,681.746 	"/>
	<line fill="none" stroke="#FF1030" stroke-width="1.5" x1="899.478" y1="737.564" x2="796.544" y2="681.783"/>
	<line fill="none" stroke="#FF1030" stroke-width="1.5" x1="796.544" y1="681.783" x2="826.438" y2="782.402"/>
	<line fill="none" stroke="#FF1030" stroke-width="1.5" x1="826.438" y1="782.402" x2="899.478" y2="737.564"/>
	<polyline fill="none" stroke="#FF1030" stroke-width="1.5" points="906.141,241.615 927.167,241.615 984.5,241.578 
		1007.585,241.578 	"/>
	<polyline fill="none" stroke="#4030FF" stroke-width="1.5" stroke-dasharray="4.5,4.5" points="1051.997,157.93 751.717,157.93 
		861.729,157.893 1162.009,157.893 	"/>
	
		<line fill="none" stroke="#4030FF" stroke-width="1.5" stroke-dasharray="4.5,4.5" x1="796.564" y1="308.885" x2="512.153" y2="24.47"/>
	<line fill="none" stroke="#FF1030" stroke-width="1.5" x1="906.141" y1="241.615" x2="751.717" y2="157.93"/>
	<line fill="none" stroke="#FF1030" stroke-width="1.5" x1="751.717" y1="157.93" x2="796.564" y2="308.885"/>
	<line fill="none" stroke="#FF1030" stroke-width="1.5" x1="796.564" y1="308.885" x2="906.141" y2="241.615"/>
	<line fill="none" stroke="#FF1030" stroke-width="1.5" x1="364.152" y1="1135.152" x2="632.936" y2="1063.133"/>
	<polyline fill="none" stroke="#4030FF" stroke-width="1.5" stroke-dasharray="4.5,4.5" points="836.599,1266.796 757.546,1187.742 
		740.834,1171.033 632.936,1063.134 	"/>
	<polyline fill="none" stroke="#FF1030" stroke-width="1.5" points="826.438,782.402 768.976,881.936 769.776,880.554 
		702.316,997.399 	"/>
	
		<line fill="none" stroke="#4030FF" stroke-width="1.5" stroke-dasharray="4.5,4.5" x1="702.317" y1="997.4" x2="364.574" y2="1087.898"/>
	<polyline fill="none" stroke="#FF1030" stroke-width="1.5" points="757.546,1140.553 816.653,1199.661 787.978,1171.033 
		700.005,1083.061 	"/>
	<polyline fill="none" stroke="#4030FF" stroke-width="1.5" stroke-dasharray="4.5,4.5" points="899.478,737.564 816.124,881.936 
		785.308,935.311 700.005,1083.061 	"/>
	<line fill="none" stroke="#FF1030" stroke-width="1.5" x1="702.316" y1="997.399" x2="632.936" y2="1063.134"/>
	<line fill="none" stroke="#FF1030" stroke-width="1.5" x1="700.005" y1="1083.061" x2="702.316" y2="997.399"/>
	<line fill="none" stroke="#FF1030" stroke-width="1.5" x1="632.936" y1="1063.134" x2="700.005" y2="1083.061"/>
	<line fill="none" stroke="#FF1030" stroke-width="1.5" x1="358.985" y1="625.964" x2="604.277" y2="560.238"/>
	<polyline fill="none" stroke="#4030FF" stroke-width="1.5" stroke-dasharray="4.5,4.5" points="826.438,782.402 707.954,663.92 
		766.187,722.148 604.277,560.238 	"/>
	<polyline fill="none" stroke="#FF1030" stroke-width="1.5" points="796.564,308.885 710.355,458.207 708.389,461.6 
		762.181,368.429 	"/>
	
		<line fill="none" stroke="#4030FF" stroke-width="1.5" stroke-dasharray="4.5,4.5" x1="708.389" y1="461.6" x2="358.662" y2="555.305"/>
	<polyline fill="none" stroke="#FF1030" stroke-width="1.5" points="764.636,649.855 704.92,590.139 707.954,593.191 
		796.544,681.783 	"/>
	<polyline fill="none" stroke="#4030FF" stroke-width="1.5" stroke-dasharray="4.5,4.5" points="906.141,241.615 781.092,458.207 
		832.925,368.429 704.92,590.139 	"/>
	<line fill="none" stroke="#FF1030" stroke-width="1.5" x1="708.389" y1="461.6" x2="604.277" y2="560.238"/>
	<line fill="none" stroke="#FF1030" stroke-width="1.5" x1="704.92" y1="590.139" x2="708.389" y2="461.6"/>
	<line fill="none" stroke="#FF1030" stroke-width="1.5" x1="604.277" y1="560.238" x2="704.92" y2="590.139"/>
	<g id="twists_1_">
		<line fill="none" stroke="#FF1030" stroke-width="1.5" x1="618.812" y1="25.023" x2="751.717" y2="157.93"/>
	</g>
</g>
</svg>
