<?xml version="1.0" encoding="utf-8"?>
<!-- Generator: Adobe Illustrator 16.0.0, SVG Export Plug-In . SVG Version: 6.00 Build 0)  -->
<!DOCTYPE svg PUBLIC "-//W3C//DTD SVG 1.1//EN" "http://www.w3.org/Graphics/SVG/1.1/DTD/svg11.dtd">
<svg version="1.1" id="Layer_2" xmlns="http://www.w3.org/2000/svg" xmlns:xlink="http://www.w3.org/1999/xlink" x="0px" y="0px"
	 width="470px" height="470px" viewBox="0 0 470 470" enable-background="new 0 0 470 470" xml:space="preserve">
<line fill="none" stroke="#000000" stroke-miterlimit="10" x1="241.42" y1="241.674" x2="325.849" y2="326.166"/>
<line fill="none" stroke="#000000" stroke-miterlimit="10" x1="325.849" y1="326.166" x2="416.806" y2="235.21"/>
<line fill="none" stroke="#000000" stroke-miterlimit="10" x1="241.42" y1="241.674" x2="325.849" y2="157.245"/>
<line fill="none" stroke="#000000" stroke-miterlimit="10" x1="325.849" y1="157.245" x2="273.907" y2="105.269"/>
<line fill="none" stroke="#000000" stroke-miterlimit="10" x1="273.907" y1="105.269" x2="312.939" y2="66.288"/>
<line fill="none" stroke="#000000" stroke-miterlimit="10" x1="312.939" y1="66.288" x2="403.812" y2="157.245"/>
<line fill="none" stroke="#000000" stroke-miterlimit="10" x1="325.849" y1="40.3" x2="364.83" y2="1.318"/>
<line fill="none" stroke="#000000" stroke-miterlimit="10" x1="325.849" y1="40.3" x2="286.867" y2="1.318"/>
<line fill="none" stroke="#000000" stroke-miterlimit="10" x1="286.867" y1="1.318" x2="234.891" y2="53.294"/>
<line fill="none" stroke="#000000" stroke-miterlimit="10" x1="234.891" y1="53.294" x2="182.865" y2="1.318"/>
<line fill="none" stroke="#000000" stroke-miterlimit="10" x1="182.865" y1="1.318" x2="143.917" y2="40.3"/>
<line fill="none" stroke="#000000" stroke-miterlimit="10" x1="143.917" y1="40.3" x2="104.952" y2="1.318"/>
<line fill="none" stroke="#000000" stroke-miterlimit="10" x1="156.928" y1="66.288" x2="195.91" y2="105.269"/>
<line fill="none" stroke="#000000" stroke-miterlimit="10" x1="195.91" y1="105.269" x2="143.934" y2="157.245"/>
<line fill="none" stroke="#000000" stroke-miterlimit="10" x1="143.934" y1="157.245" x2="228.363" y2="241.674"/>
<line fill="none" stroke="#000000" stroke-miterlimit="10" x1="228.363" y1="241.674" x2="143.934" y2="326.166"/>
<line fill="none" stroke="#000000" stroke-miterlimit="10" x1="143.934" y1="326.166" x2="52.977" y2="235.21"/>
<line fill="none" stroke="#000000" stroke-miterlimit="10" x1="234.891" y1="326.166" x2="90.284" y2="470.758"/>
<line fill="none" stroke="#000000" stroke-miterlimit="10" x1="234.891" y1="326.166" x2="379.498" y2="470.758"/>
<line fill="none" stroke="#000000" stroke-miterlimit="10" x1="156.928" y1="66.288" x2="65.869" y2="157.245"/>
<line fill="none" stroke="#000000" stroke-miterlimit="10" x1="65.869" y1="157.245" x2="104.952" y2="1.318"/>
<line fill="none" stroke="#000000" stroke-miterlimit="10" x1="364.83" y1="1.318" x2="403.812" y2="157.245"/>
<line fill="none" stroke="#000000" stroke-miterlimit="10" x1="449.005" y1="1.001" x2="468.829" y2="102.789"/>
<line fill="none" stroke="#000000" stroke-miterlimit="10" x1="20.777" y1="1.001" x2="0.954" y2="102.789"/>
<line fill="none" stroke="#000000" stroke-miterlimit="10" x1="90.284" y1="470.758" x2="-0.657" y2="457.763"/>
<line fill="none" stroke="#000000" stroke-miterlimit="10" x1="379.498" y1="470.758" x2="470.438" y2="457.763"/>
<line fill="none" stroke="#000000" stroke-miterlimit="10" x1="52.977" y1="235.21" x2="-0.679" y2="196.227"/>
<line fill="none" stroke="#000000" stroke-miterlimit="10" x1="65.869" y1="157.245" x2="-0.679" y2="196.227"/>
<line fill="none" stroke="#000000" stroke-miterlimit="10" x1="416.705" y1="235.21" x2="470.36" y2="196.227"/>
<line fill="none" stroke="#000000" stroke-miterlimit="10" x1="403.812" y1="157.245" x2="470.36" y2="196.227"/>
<line fill="none" stroke="#000000" stroke-miterlimit="10" x1="90.284" y1="470.758" x2="52.977" y2="235.21"/>
<line fill="none" stroke="#000000" stroke-miterlimit="10" x1="379.498" y1="470.758" x2="416.806" y2="235.21"/>
</svg>
