<?xml version="1.0" encoding="utf-8"?>
<svg version="1.1" xmlns="http://www.w3.org/2000/svg" x="0px" y="0px" width="800px" height="800px" viewBox="0 0 800 800">
<g>
<polyline fill="none" stroke="#0000FF" stroke-width="2" stroke-miterlimit="10" points="472.00,400.00 474.62,403.91 476.43,408.03 476.97,412.19 476.01,416.16 473.64,419.73 470.24,422.82 466.34,425.47 462.55,427.85 459.39,430.26 457.16,433.00 455.90,436.30 455.40,440.25 455.23,444.72 454.88,449.42 453.91,453.91 452.00,457.75 449.04,460.56 445.17,462.18 440.70,462.67 436.00,462.35 431.45,461.73 427.31,461.34 423.68,461.69 420.49,463.05 417.54,465.45 414.58,468.61 411.41,472.04 407.89,475.11 404.05,477.24 400.00,478.00 395.95,477.24 392.11,475.11 388.59,472.04 385.42,468.61 382.46,465.45 379.51,463.05 376.32,461.69 372.69,461.34 368.55,461.73 364.00,462.35 359.30,462.67 354.83,462.18 350.96,460.56 348.00,457.75 346.09,453.91 345.12,449.42 344.77,444.72 344.60,440.25 344.10,436.30 342.84,433.00 340.61,430.26 337.45,427.85 333.66,425.47 329.76,422.82 326.36,419.73 323.99,416.16 323.03,412.19 323.57,408.03 325.38,403.91 328.00,400.00 330.82,396.37 333.22,392.98 334.74,389.66 335.16,386.22 334.55,382.46 333.29,378.32 331.91,373.86 331.00,369.28 331.08,364.89 332.45,361.00 335.13,357.87 338.90,355.61 343.32,354.10 347.87,353.06 352.09,352.09 355.64,350.73 358.42,348.65 360.53,345.68 362.27,341.90 364.00,337.65 366.08,333.42 368.74,329.79 372.07,327.25 375.99,326.10 380.27,326.36 384.64,327.76 388.88,329.81 392.84,331.90 396.51,333.44 400.00,334.00 403.49,333.44 407.16,331.90 411.12,329.81 415.36,327.76 419.73,326.36 424.01,326.10 427.93,327.25 431.26,329.79 433.92,333.42 436.00,337.65 437.73,341.90 439.47,345.68 441.58,348.65 444.36,350.73 447.91,352.09 452.13,353.06 456.68,354.10 461.10,355.61 464.87,357.87 467.55,361.00 468.92,364.89 469.00,369.28 468.09,373.86 466.71,378.32 465.45,382.46 464.84,386.22 465.26,389.66 466.78,392.98 469.18,396.37 472.00,400.00 "/>
<polyline fill="none" stroke="#FF005C" stroke-width="2" stroke-miterlimit="10" stroke-dasharray="5.9976,2.9988" points="544.00,400.00 548.04,405.82 551.33,411.91 553.40,418.16 553.93,424.38 552.78,430.39 549.97,436.00 545.74,441.10 540.48,445.64 534.66,449.68 528.80,453.35 523.38,456.88 518.78,460.52 515.24,464.54 512.83,469.14 511.44,474.46 510.79,480.50 510.53,487.13 510.21,494.13 509.43,501.16 507.82,507.82 505.14,513.74 501.29,518.60 496.30,522.16 490.35,524.35 483.71,525.27 476.70,525.17 469.67,524.41 462.90,523.45 456.60,522.77 450.86,522.80 445.69,523.85 440.97,526.10 436.53,529.52 432.15,533.92 427.64,538.94 422.82,544.08 417.61,548.82 412.01,552.65 406.10,555.14 400.00,556.00 393.90,555.14 387.99,552.65 382.39,548.82 377.18,544.08 372.36,538.94 367.85,533.92 363.47,529.52 359.03,526.10 354.31,523.85 349.14,522.80 343.40,522.77 337.10,523.45 330.33,524.41 323.30,525.17 316.29,525.27 309.65,524.35 303.70,522.16 298.71,518.60 294.86,513.74 292.18,507.82 290.57,501.16 289.79,494.13 289.47,487.13 289.21,480.50 288.56,474.46 287.17,469.14 284.76,464.54 281.22,460.52 276.62,456.88 271.20,453.35 265.34,449.68 259.52,445.64 254.26,441.10 250.03,436.00 247.22,430.39 246.07,424.38 246.60,418.16 248.67,411.91 251.96,405.82 256.00,400.00 260.26,394.51 264.21,389.31 267.40,384.31 269.48,379.33 270.31,374.20 269.93,368.77 268.56,362.93 266.57,356.65 264.46,350.00 262.72,343.14 261.83,336.30 262.17,329.77 263.96,323.82 267.27,318.66 271.97,314.45 277.80,311.21 284.36,308.83 291.22,307.09 297.95,305.66 304.18,304.18 309.65,302.26 314.25,299.60 318.00,295.98 321.07,291.36 323.70,285.81 326.22,279.61 328.95,273.13 332.15,266.84 336.02,261.22 340.65,256.72 346.01,253.65 351.98,252.19 358.35,252.34 364.92,253.88 371.45,256.47 377.77,259.63 383.76,262.82 389.42,265.54 394.79,267.36 400.00,268.00 405.21,267.36 410.58,265.54 416.24,262.82 422.23,259.63 428.55,256.47 435.08,253.88 441.65,252.34 448.03,252.19 453.99,253.65 459.35,256.72 463.98,261.23 467.85,266.84 471.05,273.13 473.78,279.61 476.30,285.81 478.93,291.36 482.00,295.98 485.75,299.60 490.35,302.26 495.82,304.18 502.05,305.66 508.78,307.09 515.64,308.83 522.21,311.21 528.03,314.45 532.73,318.66 536.04,323.82 537.83,329.77 538.17,336.30 537.28,343.14 535.54,350.00 533.43,356.65 531.44,362.93 530.07,368.77 529.69,374.20 530.52,379.33 532.60,384.31 535.79,389.31 539.74,394.51 544.00,400.00 "/>
<polyline fill="none" stroke="#0000FF" stroke-width="2" stroke-miterlimit="10" points="616.00,400.00 620.91,406.94 625.20,414.17 628.48,421.60 630.46,429.11 630.90,436.57 629.72,443.82 626.92,450.72 622.65,457.17 617.14,463.08 610.72,468.47 603.76,473.36 596.67,477.87 589.83,482.14 583.57,486.38 578.17,490.78 573.79,495.54 570.50,500.83 568.24,506.77 566.89,513.42 566.19,520.74 565.86,528.65 565.56,536.96 564.97,545.44 563.78,553.80 561.74,561.74 558.66,568.96 554.46,575.20 549.13,580.27 542.77,584.06 535.52,586.53 527.61,587.77 519.29,587.97 510.82,587.38 502.43,586.33 494.35,585.18 486.72,584.29 479.63,584.02 473.10,584.62 467.07,586.30 461.46,589.15 456.11,593.13 450.86,598.10 445.56,603.82 440.05,609.96 434.23,616.12 428.03,621.90 421.45,626.89 414.52,630.74 407.33,633.17 400.00,634.00 392.67,633.17 385.48,630.74 378.55,626.89 371.97,621.90 365.77,616.12 359.95,609.96 354.44,603.82 349.14,598.10 343.89,593.13 338.54,589.15 332.93,586.30 326.90,584.62 320.37,584.02 313.28,584.29 305.65,585.18 297.57,586.33 289.18,587.38 280.71,587.97 272.39,587.77 264.48,586.53 257.23,584.06 250.87,580.27 245.54,575.20 241.34,568.96 238.26,561.73 236.22,553.80 235.03,545.44 234.44,536.96 234.14,528.65 233.81,520.74 233.11,513.42 231.76,506.77 229.50,500.83 226.21,495.54 221.83,490.78 216.43,486.38 210.17,482.14 203.33,477.87 196.24,473.36 189.28,468.47 182.86,463.08 177.35,457.17 173.08,450.72 170.28,443.82 169.10,436.57 169.54,429.11 171.52,421.60 174.80,414.17 179.09,406.94 184.00,400.00 189.13,393.37 194.05,387.04 198.40,380.94 201.86,374.97 204.22,368.99 205.37,362.87 205.32,356.48 204.22,349.73 202.29,342.56 199.86,334.97 197.30,327.02 195.01,318.84 193.36,310.58 192.68,302.44 193.25,294.66 195.22,287.42 198.66,280.92 203.49,275.29 209.59,270.60 216.69,266.82 224.51,263.87 232.70,261.60 240.92,259.75 248.86,258.07 256.27,256.26 262.94,254.04 268.77,251.15 273.77,247.41 277.99,242.71 281.60,237.03 284.79,230.47 287.81,223.22 290.91,215.54 294.32,207.76 298.23,200.26 302.79,193.41 308.06,187.55 314.07,182.96 320.74,179.84 327.96,178.29 335.58,178.28 343.43,179.67 351.32,182.23 359.10,185.61 366.65,189.44 373.89,193.31 380.79,196.81 387.39,199.59 393.76,201.38 400.00,202.00 406.24,201.38 412.61,199.59 419.21,196.81 426.11,193.31 433.35,189.44 440.90,185.61 448.68,182.23 456.57,179.67 464.42,178.28 472.04,178.29 479.26,179.84 485.93,182.96 491.94,187.55 497.21,193.41 501.77,200.26 505.68,207.76 509.09,215.54 512.19,223.22 515.21,230.48 518.40,237.03 522.01,242.71 526.23,247.41 531.23,251.15 537.06,254.04 543.74,256.27 551.14,258.07 559.08,259.75 567.30,261.60 575.49,263.88 583.31,266.82 590.41,270.60 596.51,275.29 601.35,280.93 604.78,287.42 606.75,294.66 607.32,302.45 606.64,310.58 604.99,318.84 602.70,327.02 600.14,334.97 597.71,342.56 595.78,349.73 594.68,356.49 594.63,362.87 595.78,368.99 598.14,374.97 601.60,380.94 605.95,387.04 610.87,393.37 616.00,400.00 "/>
<polyline fill="none" stroke="#FF005C" stroke-width="2" stroke-miterlimit="10" stroke-dasharray="5.9976,2.9988" points="688.00,400.00 693.50,407.69 698.49,415.64 702.65,423.82 705.73,432.13 707.52,440.49 707.87,448.76 706.70,456.84 704.03,464.62 699.94,472.01 694.58,478.93 688.16,485.36 680.96,491.29 673.26,496.76 665.37,501.86 657.59,506.70 650.21,511.40 643.47,516.13 637.56,521.04 632.59,526.29 628.63,532.00 625.66,538.29 623.60,545.21 622.31,552.79 621.58,560.99 621.20,569.73 620.90,578.88 620.43,588.26 619.54,597.67 618.00,606.88 615.65,615.65 612.33,623.75 607.98,630.99 602.58,637.19 596.16,642.24 588.82,646.08 580.69,648.71 571.95,650.19 562.79,650.68 553.41,650.34 544.00,649.42 534.75,648.18 525.80,646.90 517.28,645.88 509.24,645.36 501.73,645.59 494.72,646.74 488.15,648.93 481.94,652.20 475.98,656.52 470.15,661.79 464.31,667.85 458.34,674.45 452.14,681.33 445.64,688.16 438.79,694.64 431.58,700.45 424.03,705.31 416.19,708.96 408.15,711.23 400.00,712.00 391.85,711.23 383.81,708.96 375.97,705.31 368.42,700.45 361.21,694.64 354.36,688.16 347.86,681.33 341.66,674.45 335.70,667.85 329.85,661.79 324.02,656.52 318.06,652.20 311.85,648.93 305.29,646.74 298.27,645.59 290.76,645.36 282.72,645.88 274.20,646.90 265.25,648.18 256.00,649.42 246.59,650.34 237.21,650.68 228.05,650.19 219.31,648.71 211.18,646.08 203.84,642.24 197.42,637.19 192.02,630.99 187.67,623.75 184.35,615.65 182.00,606.88 180.46,597.67 179.57,588.26 179.10,578.88 178.80,569.73 178.42,560.99 177.69,552.79 176.40,545.21 174.34,538.29 171.37,532.00 167.41,526.29 162.44,521.04 156.53,516.13 149.79,511.40 142.41,506.70 134.63,501.86 126.74,496.76 119.04,491.29 111.84,485.36 105.42,478.93 100.06,472.01 95.97,464.62 93.30,456.84 92.13,448.76 92.48,440.49 94.27,432.13 97.35,423.82 101.51,415.64 106.50,407.68 112.00,400.00 117.70,392.61 123.28,385.50 128.43,378.63 132.89,371.92 136.45,365.30 138.96,358.65 140.35,351.88 140.62,344.87 139.86,337.54 138.21,329.85 135.88,321.76 133.15,313.29 130.29,304.49 127.62,295.44 125.44,286.27 124.01,277.12 123.58,268.15 124.34,259.54 126.39,251.44 129.80,244.00 134.54,237.33 140.53,231.50 147.61,226.54 155.59,222.43 164.23,219.09 173.27,216.39 182.44,214.18 191.49,212.25 200.19,210.39 208.35,208.35 215.84,205.94 222.56,202.94 228.50,199.20 233.67,194.60 238.18,189.10 242.13,182.71 245.70,175.50 249.08,167.60 252.45,159.22 256.00,150.58 259.91,141.98 264.30,133.68 269.30,125.99 274.96,119.16 281.30,113.44 288.30,109.00 295.88,105.97 303.95,104.39 312.39,104.24 321.07,105.42 329.84,107.76 338.58,111.04 347.17,114.97 355.53,119.25 363.61,123.57 371.37,127.61 378.84,131.08 386.05,133.75 393.07,135.43 400.00,136.00 406.93,135.43 413.95,133.75 421.16,131.08 428.63,127.61 436.39,123.57 444.47,119.25 452.83,114.97 461.42,111.04 470.16,107.76 478.93,105.42 487.61,104.24 496.05,104.39 504.12,105.97 511.70,109.00 518.70,113.44 525.04,119.16 530.70,125.99 535.70,133.68 540.09,141.98 544.00,150.58 547.55,159.22 550.92,167.60 554.30,175.50 557.87,182.71 561.82,189.10 566.33,194.60 571.50,199.20 577.44,202.94 584.16,205.94 591.65,208.35 599.81,210.39 608.51,212.25 617.56,214.18 626.73,216.39 635.77,219.09 644.41,222.43 652.39,226.54 659.47,231.50 665.46,237.33 670.20,244.00 673.61,251.44 675.66,259.54 676.42,268.15 675.99,277.12 674.56,286.27 672.38,295.44 669.71,304.49 666.85,313.29 664.12,321.76 661.79,329.85 660.14,337.54 659.38,344.87 659.65,351.87 661.04,358.65 663.55,365.30 667.11,371.92 671.57,378.62 676.72,385.50 682.30,392.61 688.00,400.00 688.00,400.00 "/>
<polyline fill="none" stroke="#0000FF" stroke-width="2" stroke-miterlimit="10" points="760.00,400.00 765.93,408.21 771.42,416.68 776.23,425.37 780.15,434.21 782.98,443.15 784.57,452.09 784.83,460.95 783.70,469.63 781.18,478.05 777.33,486.12 772.23,493.79 766.05,501.02 758.97,507.79 751.20,514.11 742.97,520.01 734.53,525.55 726.11,530.81 717.96,535.90 710.27,540.93 703.22,546.02 696.95,551.30 691.55,556.89 687.07,562.89 683.52,569.40 680.84,576.47 678.95,584.14 677.72,592.40 676.98,601.24 676.55,610.57 676.24,620.29 675.84,630.28 675.14,640.38 673.97,650.42 672.15,660.20 669.56,669.56 666.08,678.30 661.67,686.27 656.28,693.33 649.94,699.38 642.69,704.33 634.63,708.16 625.87,710.88 616.54,712.56 606.80,713.29 596.80,713.21 586.71,712.50 576.67,711.35 566.81,709.99 557.25,708.63 548.08,707.50 539.36,706.80 531.11,706.74 523.33,707.45 516.00,709.07 509.05,711.66 502.43,715.25 496.03,719.80 489.76,725.25 483.52,731.47 477.21,738.28 470.74,745.50 464.04,752.89 457.05,760.20 449.74,767.19 442.09,773.60 434.13,779.20 425.88,783.79 417.39,787.20 408.74,789.29 400.00,790.00 391.26,789.29 382.61,787.20 374.12,783.79 365.87,779.20 357.91,773.60 350.26,767.19 342.95,760.20 335.96,752.89 329.26,745.50 322.79,738.28 316.48,731.47 310.24,725.25 303.97,719.80 297.57,715.24 290.95,711.66 284.00,709.07 276.67,707.45 268.89,706.74 260.64,706.80 251.92,707.50 242.75,708.63 233.19,709.99 223.33,711.35 213.29,712.50 203.20,713.21 193.20,713.29 183.46,712.56 174.13,710.88 165.37,708.16 157.31,704.33 150.06,699.38 143.72,693.33 138.33,686.27 133.92,678.30 130.44,669.56 127.85,660.20 126.03,650.42 124.86,640.38 124.16,630.28 123.76,620.29 123.45,610.57 123.02,601.24 122.28,592.40 121.05,584.14 119.16,576.47 116.48,569.40 112.93,562.89 108.45,556.89 103.05,551.30 96.78,546.02 89.73,540.93 82.04,535.90 73.89,530.81 65.47,525.55 57.03,520.01 48.80,514.11 41.03,507.79 33.95,501.02 27.77,493.79 22.67,486.12 18.82,478.05 16.30,469.63 15.17,460.95 15.43,452.09 17.02,443.15 19.85,434.21 23.77,425.37 28.58,416.68 34.07,408.21 40.00,400.00 46.11,392.06 52.14,384.38 57.86,376.93 63.05,369.67 67.51,362.54 71.09,355.45 73.70,348.32 75.27,341.07 75.82,333.62 75.38,325.91 74.06,317.87 72.00,309.48 69.39,300.72 66.44,291.62 63.37,282.21 60.44,272.56 57.87,262.76 55.90,252.92 54.72,243.17 54.52,233.62 55.42,224.43 57.52,215.70 60.86,207.56 65.44,200.11 71.20,193.40 78.06,187.49 85.88,182.37 94.49,178.03 103.70,174.40 113.32,171.38 123.13,168.85 132.93,166.67 142.52,164.65 151.74,162.64 160.44,160.44 168.52,157.89 175.90,154.83 182.56,151.12 188.51,146.67 193.78,141.41 198.46,135.31 202.66,128.39 206.51,120.72 210.15,112.39 213.74,103.57 217.42,94.41 221.34,85.14 225.63,75.96 230.38,67.10 235.69,58.80 241.60,51.26 248.13,44.68 255.28,39.21 263.01,34.98 271.25,32.06 279.94,30.48 288.96,30.22 298.22,31.20 307.60,33.29 317.00,36.34 326.32,40.14 335.48,44.46 344.42,49.07 353.09,53.70 361.48,58.12 369.59,62.10 377.44,65.42 385.09,67.92 392.58,69.47 400.00,70.00 407.42,69.47 414.91,67.92 422.56,65.42 430.41,62.10 438.52,58.12 446.91,53.70 455.58,49.07 464.52,44.46 473.68,40.14 483.00,36.34 492.40,33.29 501.78,31.20 511.04,30.22 520.06,30.48 528.75,32.06 536.99,34.98 544.72,39.21 551.87,44.68 558.41,51.26 564.31,58.80 569.62,67.10 574.38,75.96 578.66,85.14 582.58,94.42 586.26,103.57 589.85,112.40 593.49,120.72 597.34,128.39 601.54,135.31 606.22,141.41 611.49,146.67 617.44,151.12 624.10,154.83 631.48,157.89 639.56,160.44 648.26,162.64 657.48,164.65 667.07,166.67 676.87,168.85 686.68,171.38 696.30,174.40 705.51,178.03 714.12,182.38 721.94,187.49 728.80,193.40 734.56,200.11 739.14,207.57 742.48,215.70 744.58,224.43 745.48,233.63 745.28,243.17 744.10,252.92 742.13,262.76 739.56,272.56 736.63,282.21 733.56,291.62 730.61,300.72 728.00,309.48 725.94,317.87 724.62,325.91 724.18,333.62 724.73,341.07 726.30,348.32 728.91,355.45 732.49,362.54 736.95,369.67 742.14,376.93 747.86,384.38 753.89,392.06 760.00,400.00 "/>
</g>
</svg>