<?xml version="1.0" encoding="utf-8"?>
<!-- generated by crease pattern Javascript library by Robby Kraft  -->
<svg version="1.1" xmlns="http://www.w3.org/2000/svg" x="0px" y="0px" width="600px" height="600px" viewBox="0 0 600 600">
<g id="marks">
	<line stroke="#000000" stroke-width="3" x1="300" y1="124.264068711929" x2="387.867965644036" y2="212.132034355964"/>
	<line stroke="#000000" stroke-width="3" x1="387.867965644036" y1="212.132034355964" x2="475.735931288071" y2="300"/>
	<line stroke="#000000" stroke-width="3" x1="387.867965644036" y1="387.867965644036" x2="475.735931288071" y2="300"/>
	<line stroke="#000000" stroke-width="3" x1="212.132034355964" y1="387.867965644036" x2="300" y2="475.735931288071"/>
	<line stroke="#000000" stroke-width="3" x1="124.264068711929" y1="300" x2="212.132034355964" y2="387.867965644036"/>
	<line stroke="#000000" stroke-width="3" x1="300" y1="475.735931288071" x2="387.867965644036" y2="387.867965644036"/>
	<line stroke="#000000" stroke-width="3" x1="300" y1="0" x2="300" y2="124.264068711929"/>
	<line stroke="#000000" stroke-width="3" x1="0" y1="300" x2="124.264068711929" y2="300"/>
</g>
<g id="valley">
	<line stroke="#4379FF" stroke-linecap="round" stroke-dasharray="6,6" stroke-width="3" x1="300" y1="475.735931288071" x2="300" y2="600"/>
	<line stroke="#4379FF" stroke-linecap="round" stroke-dasharray="6,6" stroke-width="3" x1="475.735931288071" y1="300" x2="600" y2="300"/>
	<line stroke="#4379FF" stroke-linecap="round" stroke-dasharray="6,6" stroke-width="3" x1="212.132034355964" y1="212.132034355964" x2="300" y2="124.264068711929"/>
	<line stroke="#4379FF" stroke-linecap="round" stroke-dasharray="6,6" stroke-width="3" x1="387.867965644036" y1="387.867965644036" x2="600" y2="600"/>
	<line stroke="#4379FF" stroke-linecap="round" stroke-dasharray="6,6" stroke-width="3" x1="0" y1="600" x2="250.226795687895" y2="550.226795687895"/>
	<line stroke="#4379FF" stroke-linecap="round" stroke-dasharray="6,6" stroke-width="3" x1="212.132034355964" y1="387.867965644036" x2="212.132034355964" y2="458.257906224982"/>
	<line stroke="#4379FF" stroke-linecap="round" stroke-dasharray="6,6" stroke-width="3" x1="141.742093775018" y1="387.867965644036" x2="212.132034355964" y2="387.867965644036"/>
	<line stroke="#4379FF" stroke-linecap="round" stroke-dasharray="6,6" stroke-width="3" x1="349.773204312105" y1="49.773204312105" x2="600" y2="0"/>
	<line stroke="#4379FF" stroke-linecap="round" stroke-dasharray="6,6" stroke-width="3" x1="387.867965644036" y1="212.132034355964" x2="458.257906224982" y2="212.132034355964"/>
	<line stroke="#4379FF" stroke-linecap="round" stroke-dasharray="6,6" stroke-width="3" x1="458.257906224982" y1="212.132034355964" x2="512.132034355964" y2="212.132034355964"/>
	<line stroke="#4379FF" stroke-linecap="round" stroke-dasharray="6,6" stroke-width="3" x1="387.867965644036" y1="87.867965644036" x2="387.867965644036" y2="141.742093775018"/>
	<line stroke="#4379FF" stroke-linecap="round" stroke-dasharray="6,6" stroke-width="3" x1="387.867965644036" y1="141.742093775018" x2="387.867965644036" y2="212.132034355964"/>
	<line stroke="#4379FF" stroke-linecap="round" stroke-dasharray="6,6" stroke-width="3" x1="458.257906224982" y1="212.132034355964" x2="491.515298087123" y2="261.905238668069"/>
	<line stroke="#4379FF" stroke-linecap="round" stroke-dasharray="6,6" stroke-width="3" x1="338.094761331931" y1="108.484701912877" x2="387.867965644036" y2="141.742093775018"/>
	<line stroke="#4379FF" stroke-linecap="round" stroke-dasharray="6,6" stroke-width="3" x1="212.132034355964" y1="387.867965644036" x2="256.066017177982" y2="343.933982822018"/>
	<line stroke="#4379FF" stroke-linecap="round" stroke-dasharray="6,6" stroke-width="3" x1="256.066017177982" y1="343.933982822018" x2="300" y2="300"/>
	<line stroke="#4379FF" stroke-linecap="round" stroke-dasharray="6,6" stroke-width="3" x1="256.066017177982" y1="343.933982822018" x2="300" y2="387.867965644036"/>
	<line stroke="#4379FF" stroke-linecap="round" stroke-dasharray="6,6" stroke-width="3" x1="212.132034355964" y1="300" x2="256.066017177982" y2="256.066017177982"/>
	<line stroke="#4379FF" stroke-linecap="round" stroke-dasharray="6,6" stroke-width="3" x1="256.066017177982" y1="256.066017177982" x2="300" y2="212.132034355964"/>
	<line stroke="#4379FF" stroke-linecap="round" stroke-dasharray="6,6" stroke-width="3" x1="212.132034355964" y1="212.132034355964" x2="256.066017177982" y2="256.066017177982"/>
	<line stroke="#4379FF" stroke-linecap="round" stroke-dasharray="6,6" stroke-width="3" x1="212.132034355964" y1="458.257906224982" x2="261.905238668069" y2="491.515298087123"/>
	<line stroke="#4379FF" stroke-linecap="round" stroke-dasharray="6,6" stroke-width="3" x1="108.484701912877" y1="338.09476133193" x2="141.742093775018" y2="387.867965644036"/>
	<line stroke="#4379FF" stroke-linecap="round" stroke-dasharray="6,6" stroke-width="3" x1="0" y1="600" x2="49.773204312105" y2="349.773204312105"/>
	<line stroke="#4379FF" stroke-linecap="round" stroke-dasharray="6,6" stroke-width="3" x1="212.132034355964" y1="458.257906224982" x2="212.132034355964" y2="512.132034355964"/>
	<line stroke="#4379FF" stroke-linecap="round" stroke-dasharray="6,6" stroke-width="3" x1="300" y1="300" x2="343.933982822018" y2="256.066017177982"/>
	<line stroke="#4379FF" stroke-linecap="round" stroke-dasharray="6,6" stroke-width="3" x1="343.933982822018" y1="256.066017177982" x2="387.867965644036" y2="212.132034355964"/>
	<line stroke="#4379FF" stroke-linecap="round" stroke-dasharray="6,6" stroke-width="3" x1="300" y1="300" x2="343.933982822018" y2="343.933982822018"/>
	<line stroke="#4379FF" stroke-linecap="round" stroke-dasharray="6,6" stroke-width="3" x1="87.867965644036" y1="387.867965644036" x2="141.742093775018" y2="387.867965644036"/>
	<line stroke="#4379FF" stroke-linecap="round" stroke-dasharray="6,6" stroke-width="3" x1="343.933982822018" y1="256.066017177982" x2="387.867965644036" y2="300"/>
	<line stroke="#4379FF" stroke-linecap="round" stroke-dasharray="6,6" stroke-width="3" x1="124.264068711929" y1="300" x2="212.132034355964" y2="212.132034355964"/>
	<line stroke="#4379FF" stroke-linecap="round" stroke-dasharray="6,6" stroke-width="3" x1="98.528137423857" y1="237.867965644036" x2="168.198051533946" y2="168.198051533946"/>
	<line stroke="#4379FF" stroke-linecap="round" stroke-dasharray="6,6" stroke-width="3" x1="168.198051533946" y1="168.198051533946" x2="237.867965644036" y2="98.528137423857"/>
	<line stroke="#4379FF" stroke-linecap="round" stroke-dasharray="6,6" stroke-width="3" x1="152.553149147046" y1="152.553149147046" x2="168.198051533946" y2="168.198051533946"/>
	<line stroke="#4379FF" stroke-linecap="round" stroke-dasharray="6,6" stroke-width="3" x1="237.867965644036" y1="98.528137423857" x2="215.742732506479" y2="0"/>
	<line stroke="#4379FF" stroke-linecap="round" stroke-dasharray="6,6" stroke-width="3" x1="0" y1="215.742732506478" x2="98.528137423857" y2="237.867965644036"/>
	<line stroke="#4379FF" stroke-linecap="round" stroke-dasharray="6,6" stroke-width="3" x1="300" y1="600" x2="450" y2="537.867965644036"/>
	<line stroke="#4379FF" stroke-linecap="round" stroke-dasharray="6,6" stroke-width="3" x1="537.867965644036" y1="450" x2="600" y2="300"/>
	<line stroke="#4379FF" stroke-linecap="round" stroke-dasharray="6,6" stroke-width="3" x1="550.226795687895" y1="250.226795687895" x2="600" y2="0"/>
</g>
<g id="mountain">
	<line stroke="#EE1032" stroke-width="3" x1="387.867965644036" y1="212.132034355964" x2="600" y2="0"/>
	<line stroke="#EE1032" stroke-width="3" x1="387.867965644036" y1="87.867965644036" x2="600" y2="0"/>
	<line stroke="#EE1032" stroke-width="3" x1="512.132034355964" y1="212.132034355964" x2="600" y2="0"/>
	<line stroke="#EE1032" stroke-width="3" x1="0" y1="600" x2="87.867965644036" y2="387.867965644036"/>
	<line stroke="#EE1032" stroke-width="3" x1="0" y1="600" x2="212.132034355964" y2="512.132034355964"/>
	<line stroke="#EE1032" stroke-width="3" x1="250.226795687895" y1="550.226795687895" x2="261.905238668069" y2="491.515298087123"/>
	<line stroke="#EE1032" stroke-width="3" x1="212.132034355964" y1="512.132034355964" x2="250.226795687895" y2="550.226795687895"/>
	<line stroke="#EE1032" stroke-width="3" x1="250.226795687895" y1="550.226795687895" x2="300" y2="600"/>
	<line stroke="#EE1032" stroke-width="3" x1="87.867965644036" y1="387.867965644036" x2="108.484701912877" y2="338.09476133193"/>
	<line stroke="#EE1032" stroke-width="3" x1="108.484701912877" y1="338.09476133193" x2="124.264068711929" y2="300"/>
	<line stroke="#EE1032" stroke-width="3" x1="458.257906224982" y1="212.132034355964" x2="600" y2="0"/>
	<line stroke="#EE1032" stroke-width="3" x1="600" y1="0" x2="387.867965644036" y2="141.742093775018"/>
	<line stroke="#EE1032" stroke-width="3" x1="550.226795687895" y1="250.226795687895" x2="600" y2="300"/>
	<line stroke="#EE1032" stroke-width="3" x1="349.773204312105" y1="49.773204312105" x2="387.867965644036" y2="87.867965644036"/>
	<line stroke="#EE1032" stroke-width="3" x1="300" y1="124.264068711929" x2="338.094761331931" y2="108.484701912877"/>
	<line stroke="#EE1032" stroke-width="3" x1="338.094761331931" y1="108.484701912877" x2="387.867965644036" y2="87.867965644036"/>
	<line stroke="#EE1032" stroke-width="3" x1="475.735931288071" y1="300" x2="491.515298087123" y2="261.905238668069"/>
	<line stroke="#EE1032" stroke-width="3" x1="491.515298087123" y1="261.905238668069" x2="512.132034355964" y2="212.132034355964"/>
	<line stroke="#EE1032" stroke-width="3" x1="338.094761331931" y1="108.484701912877" x2="349.773204312105" y2="49.773204312105"/>
	<line stroke="#EE1032" stroke-width="3" x1="124.264068711929" y1="300" x2="212.132034355964" y2="300"/>
	<line stroke="#EE1032" stroke-width="3" x1="212.132034355964" y1="300" x2="300" y2="300"/>
	<line stroke="#EE1032" stroke-width="3" x1="300" y1="300" x2="300" y2="387.867965644036"/>
	<line stroke="#EE1032" stroke-width="3" x1="300" y1="387.867965644036" x2="300" y2="475.735931288071"/>
	<line stroke="#EE1032" stroke-width="3" x1="212.132034355964" y1="300" x2="256.066017177982" y2="343.933982822018"/>
	<line stroke="#EE1032" stroke-width="3" x1="300" y1="124.264068711929" x2="300" y2="212.132034355964"/>
	<line stroke="#EE1032" stroke-width="3" x1="300" y1="212.132034355964" x2="300" y2="300"/>
	<line stroke="#EE1032" stroke-width="3" x1="300" y1="300" x2="387.867965644036" y2="300"/>
	<line stroke="#EE1032" stroke-width="3" x1="387.867965644036" y1="300" x2="475.735931288071" y2="300"/>
	<line stroke="#EE1032" stroke-width="3" x1="256.066017177982" y1="256.066017177982" x2="300" y2="300"/>
	<line stroke="#EE1032" stroke-width="3" x1="0" y1="600" x2="212.132034355964" y2="458.257906224982"/>
	<line stroke="#EE1032" stroke-width="3" x1="0" y1="600" x2="141.742093775018" y2="387.867965644036"/>
	<line stroke="#EE1032" stroke-width="3" x1="49.773204312105" y1="349.773204312105" x2="108.484701912877" y2="338.09476133193"/>
	<line stroke="#EE1032" stroke-width="3" x1="49.773204312105" y1="349.773204312105" x2="87.867965644036" y2="387.867965644036"/>
	<line stroke="#EE1032" stroke-width="3" x1="343.933982822018" y1="343.933982822018" x2="387.867965644036" y2="387.867965644036"/>
	<line stroke="#EE1032" stroke-width="3" x1="0" y1="600" x2="212.132034355964" y2="387.867965644036"/>
	<line stroke="#EE1032" stroke-width="3" x1="300" y1="212.132034355964" x2="343.933982822018" y2="256.066017177982"/>
	<line stroke="#EE1032" stroke-width="3" x1="343.933982822018" y1="343.933982822018" x2="387.867965644036" y2="300"/>
	<line stroke="#EE1032" stroke-width="3" x1="300" y1="387.867965644036" x2="343.933982822018" y2="343.933982822018"/>
	<line stroke="#EE1032" stroke-width="3" x1="0" y1="0" x2="98.528137423857" y2="237.867965644036"/>
	<line stroke="#EE1032" stroke-width="3" x1="0" y1="0" x2="237.867965644036" y2="98.528137423857"/>
	<line stroke="#EE1032" stroke-width="3" x1="237.867965644036" y1="98.528137423857" x2="300" y2="124.264068711929"/>
	<line stroke="#EE1032" stroke-width="3" x1="0" y1="300" x2="49.773204312105" y2="349.773204312105"/>
	<line stroke="#EE1032" stroke-width="3" x1="300" y1="0" x2="349.773204312105" y2="49.773204312105"/>
	<line stroke="#EE1032" stroke-width="3" x1="98.528137423857" y1="237.867965644036" x2="124.264068711929" y2="300"/>
	<line stroke="#EE1032" stroke-width="3" x1="237.867965644036" y1="0" x2="237.867965644036" y2="98.528137423857"/>
	<line stroke="#EE1032" stroke-width="3" x1="0" y1="237.867965644036" x2="98.528137423857" y2="237.867965644036"/>
	<line stroke="#EE1032" stroke-width="3" x1="0" y1="0" x2="152.553149147046" y2="152.553149147046"/>
	<line stroke="#EE1032" stroke-width="3" x1="152.553149147046" y1="152.553149147046" x2="237.867965644036" y2="98.528137423857"/>
	<line stroke="#EE1032" stroke-width="3" x1="152.553149147046" y1="152.553149147046" x2="98.528137423857" y2="237.867965644036"/>
	<line stroke="#EE1032" stroke-width="3" x1="168.198051533946" y1="168.198051533946" x2="212.132034355964" y2="212.132034355964"/>
	<line stroke="#EE1032" stroke-width="3" x1="261.905238668069" y1="491.515298087123" x2="300" y2="475.735931288071"/>
	<line stroke="#EE1032" stroke-width="3" x1="300" y1="475.735931288071" x2="450" y2="537.867965644036"/>
	<line stroke="#EE1032" stroke-width="3" x1="212.132034355964" y1="512.132034355964" x2="261.905238668069" y2="491.515298087123"/>
	<line stroke="#EE1032" stroke-width="3" x1="450" y1="537.867965644036" x2="387.867965644036" y2="387.867965644036"/>
	<line stroke="#EE1032" stroke-width="3" x1="387.867965644036" y1="387.867965644036" x2="537.867965644036" y2="450"/>
	<line stroke="#EE1032" stroke-width="3" x1="475.735931288071" y1="300" x2="537.867965644036" y2="450"/>
	<line stroke="#EE1032" stroke-width="3" x1="537.867965644036" y1="450" x2="600" y2="600"/>
	<line stroke="#EE1032" stroke-width="3" x1="491.515298087123" y1="261.905238668069" x2="550.226795687895" y2="250.226795687895"/>
	<line stroke="#EE1032" stroke-width="3" x1="450" y1="537.867965644036" x2="600" y2="600"/>
	<line stroke="#EE1032" stroke-width="3" x1="512.132034355964" y1="212.132034355964" x2="550.226795687895" y2="250.226795687895"/>
</g>
<g id="boundary">
	<line stroke="#000000" stroke-width="3" x1="600" y1="300" x2="600" y2="600"/>
	<line stroke="#000000" stroke-width="3" x1="600" y1="0" x2="600" y2="300"/>
	<line stroke="#000000" stroke-width="3" x1="300" y1="600" x2="600" y2="600"/>
	<line stroke="#000000" stroke-width="3" x1="300" y1="0" x2="600" y2="0"/>
	<line stroke="#000000" stroke-width="3" x1="0" y1="300" x2="0" y2="600"/>
	<line stroke="#000000" stroke-width="3" x1="237.867965644036" y1="0" x2="300" y2="0"/>
	<line stroke="#000000" stroke-width="3" x1="0" y1="237.867965644036" x2="0" y2="300"/>
	<line stroke="#000000" stroke-width="3" x1="0" y1="0" x2="215.742732506479" y2="0"/>
	<line stroke="#000000" stroke-width="3" x1="215.742732506479" y1="0" x2="237.867965644036" y2="0"/>
	<line stroke="#000000" stroke-width="3" x1="0" y1="0" x2="0" y2="215.742732506478"/>
	<line stroke="#000000" stroke-width="3" x1="0" y1="215.742732506478" x2="0" y2="237.867965644036"/>
	<line stroke="#000000" stroke-width="3" x1="0" y1="600" x2="300" y2="600"/>
</g>
</svg>
