<?xml version="1.0" encoding="utf-8"?>
<svg version="1.1" xmlns="http://www.w3.org/2000/svg" viewBox="0 0 600 500">
<style type="text/css">
	.st0{fill:none;stroke:#000000;}
	.st1{fill:none;stroke:#000000;stroke-width:0.9072;}
	.st2{fill:#FFFFFF;stroke:#000000;stroke-miterlimit:10;}
</style>
<g>
	<rect x="226.3" y="200" class="st0" width="100" height="100"/>
	<rect x="210.4" y="213.4" class="st0" width="100" height="100"/>
	<rect x="200.4" y="250" class="st0" width="100" height="100"/>
</g>
<g>
	<line class="st0" x1="467.7" y1="200" x2="467.7" y2="300"/>
	<line class="st0" x1="367.7" y1="200" x2="467.7" y2="200"/>
	<line class="st0" x1="367.7" y1="300" x2="367.7" y2="200"/>
	<line class="st0" x1="467.7" y1="300" x2="367.7" y2="300"/>
	<line class="st0" x1="483.6" y1="213.4" x2="483.6" y2="313.4"/>
	<line class="st0" x1="383.6" y1="213.4" x2="483.6" y2="213.4"/>
	<line class="st0" x1="383.6" y1="313.4" x2="383.6" y2="213.4"/>
	<line class="st0" x1="483.6" y1="313.4" x2="383.6" y2="313.4"/>
	<line class="st0" x1="393.6" y1="250" x2="493.6" y2="250"/>
	<line class="st0" x1="393.6" y1="350" x2="393.6" y2="250"/>
	<line class="st0" x1="493.6" y1="350" x2="393.6" y2="350"/>
	<line class="st0" x1="493.6" y1="250" x2="493.6" y2="350"/>
</g>
<path class="st0" d="M153,164H51c-6.6,0-12-5.4-12-12V50c0-6.6,5.4-12,12-12h102c6.6,0,12,5.4,12,12v102C165,158.6,159.6,164,153,164z"/>
<circle class="st0" cx="305.9" cy="99.9" r="61.9"/>
<polygon class="st0" points="140.1,180.8 63.7,180.8 25.4,247 63.7,313.2 140.1,313.2 178.4,247 "/>
<polygon class="st0" points="483.6,16.4 508.1,66.1 563,74.1 523.3,112.8 532.7,167.4 483.6,141.6 434.5,167.4 443.9,112.8 404.2,74.1 459.1,66.1 "/>
<path class="st0" d="M61,343c30.4-7.8,61.2,1.2,78,23c14.8,19.2,13.5,41.5,13,47c-1.7,19.4-12.5,44.5-24,44c-3.5-0.2-7-3.5-22-40c-13.9-33.7-15.4-41.8-22-44c-17-5.7-51,17.1-51,44c0,15.1,10.9,25.9,15,30c22.7,22.5,55.9,17.8,61,17"/>
<polyline class="st1" points="186.8,429 215.6,402 246.1,434 275.7,402 310.3,434 338.3,402 376.1,434 410.2,408 451,434 478.7,406 519.8,434 "/>
<polyline class="st2" points="553,459 581,394 553,350 581,287 530,205 514,219 563,288 531,350 563,394 534,459 "/>
</svg>
