<?xml version="1.0" encoding="utf-8"?>
<svg version="1.1" xmlns="http://www.w3.org/2000/svg" viewBox="0 0 500 500">
<style type="text/css">
	.st0{fill:none;stroke:#000000;stroke-miterlimit:10;}
</style>
<g>
	<line class="st0" x1="197.5" y1="185" x2="160" y2="250"/>
	<line class="st0" x1="340" y1="250" x2="302.5" y2="185"/>
	<rect x="187.5" y="92.5" class="st0" width="75" height="75"/>
	<rect x="237.5" y="87.5" class="st0" width="75" height="75"/>
	<rect x="212.5" y="82.5" class="st0" width="75" height="75"/>
	<circle class="st0" cx="350" cy="310" r="40"/>
	<ellipse class="st0" cx="370" cy="200" rx="12.5" ry="37.5"/>
	<!-- two large outer stars -->
	<polygon class="st0" points="250,463.9 174.1,396.5 74.1,379.1 79.4,277.8 30.6,188.8 113.2,129.7 152.4,36.1 250,63.9 347.6,36.1 386.8,129.7 469.4,188.8 420.6,277.8 425.9,379.1 325.9,396.5 "/>
	<polygon class="st0" points="250,419 224.7,407.1 196.9,411 176.2,392.2 148.6,387.7 134.4,363.6 109.3,351.2 102.8,324 82.4,304.8 84.3,276.8 70.5,252.4 80.5,226.3 74.5,198.9 91.8,176.9 94.1,149 117.1,133 127.6,107 154.2,98.5 171.9,76.8 199.9,76.5 223.2,61 250,69 276.8,61 300.1,76.5 328.1,76.8 345.8,98.5 372.4,107 382.9,133 405.9,149 408.2,176.9 425.5,198.9 419.5,226.3 429.5,252.4 415.7,276.8 417.6,304.8 397.2,324 390.7,351.2 365.6,363.6 351.4,387.7 323.8,392.2 303.1,411 275.3,407.1 "/>
	<!-- hexagon -->
	<polygon class="st0" points="287.5,185 212.5,185 175,250 212.5,315 287.5,315 325,250 "/>
	<!-- hexagon interior -->
	<polyline class="st0" points="278.1,201.3 306.2,250 278.1,298.7 221.9,298.7 193.8,250 221.9,201.3 "/>
	<!-- spiral -->
	<path class="st0" d="M108.6,217.5c-15.4,30.4-14.1,68.6,3.3,97.8c4.5,7.6,10.7,15,19.3,17c9.1,2.1,18.2-2.5,26.4-7c8.7-4.8,18.3-10.6,20.6-20.3c1.5-6.3-0.6-13-3.5-18.8c-5.5-10.8-15.1-20.6-27.2-21.7c-7.3-0.7-14.6,1.8-21.2,5c-4.7,2.3-9.4,5.1-12,9.7c-3.9,7-1.5,15.9,2.5,22.8c2.8,4.9,6.4,9.4,11.4,12.1c4.9,2.7,11.2,3.3,16.1,0.5c2-1.2,3.8-2.9,4.6-5.1c0.9-2.3,0.7-4.8,0-7.1c-1.1-3.9-3.9-7.5-7.7-8.9s-8.6-0.2-10.8,3.2c-2.2,3.4-0.8,8.8,3,10.3"/>
	<!-- round rect -->
	<path class="st0" d="M275.5,322.5h-51c-6.6,0-12,5.4-12,12v51c0,6.6,5.4,12,12,12h51c6.6,0,12-5.4,12-12v-51C287.5,327.9,282.1,322.5,275.5,322.5z"/>
</g>
</svg>
