<?xml version="1.0" encoding="utf-8"?>
<svg version="1.1" xmlns="http://www.w3.org/2000/svg" viewBox="0 0 80 80" fill="#FFFFFF">
	<circle cx="12.6" cy="17" r="5.1"/>
	<circle cx="12.6" cy="40" r="5.1"/>
	<circle cx="12.6" cy="63" r="5.1"/>
	<path d="M67.4,45.1H33c-2.8,0-5.1-2.3-5.1-5.1v0c0-2.8,2.3-5.1,5.1-5.1h34.4c2.8,0,5.1,2.3,5.1,5.1v0C72.5,42.8,70.2,45.1,67.4,45.1z"/>
	<path d="M67.4,68.1H33c-2.8,0-5.1-2.3-5.1-5.1v0c0-2.8,2.3-5.1,5.1-5.1h34.4c2.8,0,5.1,2.3,5.1,5.1v0C72.5,65.8,70.2,68.1,67.4,68.1z"/>
	<path d="M67.4,22.1H33c-2.8,0-5.1-2.3-5.1-5.1v0c0-2.8,2.3-5.1,5.1-5.1h34.4c2.8,0,5.1,2.3,5.1,5.1v0C72.5,19.8,70.2,22.1,67.4,22.1z"/>
</svg>
